<?xml version="1.0" standalone="no"?>
<!DOCTYPE svg PUBLIC "-//W3C//DTD SVG 1.1//EN" "http://www.w3.org/Graphics/SVG/1.1/DTD/svg11.dtd">
<svg xmlns="http://www.w3.org/2000/svg">
<metadata>Copyright (C) 2016 by original authors @ fontello.com</metadata>
<defs>
<font id="gw2tool" horiz-adv-x="1000" >
<font-face font-family="gw2tool" font-weight="400" font-stretch="normal" units-per-em="1000" ascent="850" descent="-150" />
<missing-glyph horiz-adv-x="1000" />
<glyph glyph-name="armor-accessory" unicode="&#xe800;" d="M497 779c-25-1-50-9-70-27-20-20-33-49-33-83 0-52 25-87 44-109 12-14 20-23 24-35-22-13-36-37-36-64 0-9 1-17 4-25-111-30-192-132-192-252 0-145 117-263 262-263 145 0 262 118 262 263 0 120-81 222-192 252 3 8 5 16 5 25 0 30-18 55-43 67-7 35-27 60-42 77-17 20-27 30-27 64 0 18 5 26 11 32 6 6 15 9 25 8 18 0 38-9 38-48a35 35 0 0 1 69 0c0 69-52 115-105 118-1 0-3 0-4 0z m3-413c101 0 183-81 183-182 0-101-82-183-183-183-101 0-183 82-183 183 0 101 82 182 183 182z" horiz-adv-x="1000" />

<glyph glyph-name="armor-amulet" unicode="&#xe801;" d="M686 733c-16-177-165-316-347-316-118 0-222 59-285 149l0-169c54-43 119-73 190-88l-104-300-5-15 15-2 230-24 15-1-2 15-33 318c25 1 49 4 72 9l24-317 1-16 15 5 220 68 14 5-7 13-156 279c18 9 36 20 54 31l141-285 6-14 12 10 179 146 11 10-11 9-250 200c68 76 112 173 119 280l-118 0z m-18-297l98-79-94-77-55 111c18 14 35 29 51 45z m-148-100l51-90-107-33-8 101c22 6 44 13 64 22z m-252-31c22-4 45-5 67-5l12-112-115 12 36 105z m574-9l66-53-155-126-38 75 127 104z m-220-143l48-85-191-59-7 97 150 47z m-419-37l153-16 11-106-199 21 35 101z" horiz-adv-x="1000" />

<glyph glyph-name="armor-backpack" unicode="&#xe802;" d="M468 796c-99 0-179-80-179-179l0 0c-59-28-99-87-99-156l0-188-38 0c-38 0-69-31-69-70l0-129c0-38 31-69 69-69l38 0 0-101 620 0 0 101 38 0c38 0 70 31 70 69l0 129c0 39-32 70-70 70l-38 0 0 188c0 69-40 129-99 156l0 0c0 99-80 179-179 179l-64 0z m0-55l64 0c64 0 115-47 123-109-5 1-11 1-16 1l-278 0c-5 0-10 0-16-1 8 62 59 109 123 109z m-50-180l164 0c20 0 35-15 35-34l0-84c0-19-15-34-35-34l-164 0c-19 0-35 15-35 34l0 84c0 19 16 34 35 34z m-127-233l418 0 0-267c0-35-27-63-62-63l-294 0c-34 0-62 28-62 63l0 267z" horiz-adv-x="1000" />

<glyph glyph-name="armor-boots" unicode="&#xe803;" d="M500 761c0 0 107-13 212-20 104-7 178 15 178 15l-1-141c-129-13-266-8-389 8l0 138z m24-165c106-12 222-16 334-8-6-56-15-159-15-240 0-109 43-249 33-280-4-13-7-22-12-39-30-15-63-24-107-24-47 0-79 6-107 11-28 5-53 9-81 3-52-13-144-27-259-27-72 0-128 7-200 26l0 38c0 0 1 68 119 68 117 0 146 40 193 60 47 21 117 86 117 147 0 42-9 180-15 265z m339-593l0-64-222 0 0 46-57 0c-14 0-106-35-188-43 0 0-1 0-2 0-10-2-20-3-29-3-109 0-217 15-255 30l0 25c71-19 129-25 200-25 117 0 210 14 264 27 24 5 44 2 72-3 28-5 62-12 111-12 42 0 76 8 106 22z" horiz-adv-x="1000" />

<glyph glyph-name="armor-coat" unicode="&#xe804;" d="M328 796l-138-38c22-30 50-235-83-332 11-78 89-237 113-295 25-58 20-122 20-122l221-90 39-15 260 105c0 0-5 64 20 122 24 58 102 217 113 295-133 97-104 302-83 332l-138 38c-26-102-113-139-169-139l-6 0c-56 0-143 37-169 139z" horiz-adv-x="1000" />

<glyph glyph-name="armor-gloves" unicode="&#xe805;" d="M760 306l99-37c0 0 13-73-36-141-48-67-127-101-127-101l-84 86c0 0-71-10-122 2-51 12-196 43-251 78-55 35-49 64-22 71 27 7 66-7 90-13 24-6 69 4 69 4 0 0-58 65-123 108-66 42-114 67-113 93 0 27 32 40 57 27 25-14 177-111 177-111 0 0-37 47-90 86-53 38-116 65-114 96 1 32 32 38 55 26 23-12 206-136 206-136 0 0-56 70-88 93-31 23-83 63-83 75 1 12 17 33 41 27 23-7 130-87 140-96 11-10 43-40 43-40 0 0-17 34-47 65-31 32-83 78-68 95 14 18 38 10 59-4 22-15 139-131 192-186 52-55 106-112 140-167z" horiz-adv-x="1000" />

<glyph glyph-name="armor-helm" unicode="&#xe806;" d="M500 796c-184 0-333-148-333-333l0-189 0-4c0-5 0-9 0-14 1-70 18-178 240-328 3-2 6-4 9-6 9-6 17-11 26-17 0 0 0 0 0 0 1-1 2-1 3-1l0 437-240 120 590 0-239-120 0-437c0 0 1 0 1 1 13 8 24 16 36 23 225 152 239 262 240 332 0 3 0 6 0 10 0 1 0 3 0 4l0 189c0 185-148 333-333 333z" horiz-adv-x="1000" />

<glyph glyph-name="armor-helmaquatic" unicode="&#xe807;" d="M649 743c-55 0-81-43-119-88-40-46-37-57-140-49-102 7-150-70-202-137-51-68-56-116-1-209 55-93 294-270 294-270l1 1c27-21 44-21 97-27 55-7 128-7 128-7 0 0 67 46 103 185 8 32 12 62 13 90l24 248c1 0 1 1 1 2 5 52 6 70 0 75-7 6-33 15-48 38-12 16-20 45-31 74-19 50-55 71-114 74-2 0-4 0-6 0z m-20-102c0 0 20-122 26-187 5-62-1-42-44-107-29-34-62-121-91-210-38 29-132 102-187 149-70 59-56 107-25 169 31 62 45 67 100 62 54-5 78 0 114 13 36 13 107 111 107 111z m120-18c2-6 6-15 15-29 19-30 50-34 61-48 11-14 7-33 0-135-3-35-7-68-11-96-3 11-6 22-10 32 0 0 0 1-1 1-7 32-18 79-25 100-10 30-25 148-29 175z m-167-434c11 0 20-9 20-20 0-12-9-21-20-21-10 0-19 9-19 21 0 11 9 20 19 20z m105-19c11 0 20-9 20-21 0-11-9-21-20-21-11 0-19 10-19 21 0 12 8 21 19 21z m92-13c11 0 20-9 20-21 0-11-9-20-20-20-10 0-19 9-19 20 0 12 9 21 19 21z" horiz-adv-x="1000" />

<glyph glyph-name="armor-leggings" unicode="&#xe808;" d="M264 796c-64-143-51-355-51-884 0 0 92-7 159-8 41 335 91 495 128 498 0 0 0 0 1 0 36-3 86-163 127-498 68 1 159 8 159 8 0 529 13 741-51 884-99-35-140-37-208-37-8 0-16 0-25 0-2 0-4 0-6 0l-25 0c-68 0-109 2-208 37z" horiz-adv-x="1000" />

<glyph glyph-name="armor-ring" unicode="&#xe809;" d="M421 761l-76-76 75-75c-149-36-260-170-260-331 0-187 152-340 340-340 188 0 340 153 340 340 0 159-108 292-255 330l77 76-76 76-13 0-139 0-13 0z m79-245c131 0 237-106 237-237 0-130-106-236-237-236-131 0-237 106-237 236 0 131 106 237 237 237z" horiz-adv-x="1000" />

<glyph glyph-name="armor-shoulders" unicode="&#xe80a;" d="M887 743c-5-9-11-16-15-21-31-38-195-93-261-93-67 0-176-14-240-68-63-55-75-173-75-173 0 0-111-49-189-138l0-293 157 0c110 5 221 116 276 217 0-90 44-161 84-217l269 0 0 786-6 0z" horiz-adv-x="1000" />

<glyph glyph-name="attribute-agonyresistance" unicode="&#xe80b;" d="M377 722c-32 0-56-4-73-35-21-41-52-65-72-75-19-11-37-12-37-76l0-152c0-55 57-162 135-258 21-25 49-52 80-78 7-6 14-12 21-18 6-5 11-9 17-13 2-2 4-4 7-6 0 0 0 0 0 0 8-6 15-12 23-17 0 0 0 0 0 0 7-6 15-11 22-16 11 7 22 15 33 24 5 4 10 8 16 12 14 11 28 22 41 33l0 1c31 26 59 53 80 78 78 96 135 203 135 258l0 152c0 64-18 65-37 76-19 10-51 34-73 75-16 31-40 35-72 35-10 1-21 0-34 0l-13 0-152 0-13 0c-12 0-24 1-34 0z" horiz-adv-x="1000" />

<glyph glyph-name="attribute-armor" unicode="&#xe80c;" d="M377 722c-32 0-56-4-73-35-21-41-52-65-72-75-19-11-37-12-37-76l0-152c0-55 57-162 135-258 21-25 49-52 80-78 7-6 14-12 21-18 6-5 11-9 17-13 2-2 4-4 7-6 0 0 0 0 0 0 8-6 15-12 23-17 0 0 0 0 0 0 7-6 15-11 22-16 11 7 22 15 33 24 5 4 10 8 16 12 14 11 28 22 41 33l0 1c31 26 59 53 80 78 78 96 135 203 135 258l0 152c0 64-18 65-37 76-19 10-51 34-73 75-16 31-40 35-72 35-10 1-21 0-34 0l-13 0-152 0-13 0c-12 0-24 1-34 0z m123-105c100 0 180-80 180-180l0-102c0-1 0-2 0-3 0-1 0-3 0-5 0-38-8-97-130-179-6-4-12-8-19-13 0 0-1 0-1 0l0 236 129 65-318 0 129-65 0-236c0 0-1 0-1 0 0 0 0 1 0 1-5 3-9 5-14 8-2 2-3 3-5 4-120 81-129 140-130 177 0 3 0 5 0 7l0 3 0 102c0 100 80 180 180 180z" horiz-adv-x="1000" />

<glyph glyph-name="attribute-boonduration" unicode="&#xe80d;" d="M154 696l0-692 692 0 0 692-692 0z m161-54c14 0 32-1 50-1l8 0 254 0 8 0c48 0 95 5 80-15-15-19-42-62-51-109-9-47-50-100-87-124-36-23-44-33-45-43 1-10 9-19 45-43 37-24 78-77 87-124 9-46 36-90 51-109 15-20-32-15-80-15l-8 0-254 0-8 0c-18 0-36-1-50-1-24 1-39 3-30 16 15 19 42 63 51 109 9 47 50 100 87 124 36 24 44 33 45 43-1 10-9 20-45 43-37 24-78 77-87 124-9 47-36 90-51 109-9 13 6 15 30 16z" horiz-adv-x="1000" />

<glyph glyph-name="attribute-boondurationpct" unicode="&#xe80e;" d="M154 696l0-692 692 0 0 692-692 0z m161-54c14 0 32-1 50-1l8 0 254 0 8 0c48 0 95 5 80-15-15-19-42-62-51-109-9-47-50-100-87-124-36-23-44-33-45-43 1-10 9-19 45-43 37-24 78-77 87-124 9-46 36-90 51-109 15-20-32-15-80-15l-8 0-254 0-8 0c-18 0-36-1-50-1-24 1-39 3-30 16 15 19 42 63 51 109 9 47 50 100 87 124 36 24 44 33 45 43-1 10-9 20-45 43-37 24-78 77-87 124-9 47-36 90-51 109-9 13 6 15 30 16z" horiz-adv-x="1000" />

<glyph glyph-name="attribute-conditiondamage" unicode="&#xe80f;" d="M500 840l-490-490 226-226 23 23c6 6 6 26 12 42-28 37-48 77-57 118 9 7 19 12 30 15 7-37 24-75 50-110 6 1 11-1 22 10 16 17 4 20 33 51l0 0 87 87-80 81c0 0-61 60-85 149 88-24 148-85 148-85l81-81 80 81c0 0 61 61 149 85-24-89-85-149-85-149l-80-81 87-87 0 0c29-31 16-34 33-51 11-11 16-9 22-10 26 35 43 73 50 110 11-3 21-8 30-15-10-41-29-81-57-118 6-16 5-36 12-42l23-23 226 226-490 490z m0-543l-87-88-1 1c-30-30-34-17-50-34-11-10-9-15-10-21 35-27 73-43 110-50-3-12-8-22-16-30-40 9-81 28-117 57-16-6-35-6-42-12l-23-23 236-237 236 236-23 24c-7 6-26 6-42 12-37-29-77-48-118-57-7 8-12 18-15 30 37 7 75 23 110 50-1 6 1 11-10 21-17 17-20 4-50 34l-1-1-87 88z" horiz-adv-x="1000" />

<glyph glyph-name="attribute-conditionduration" unicode="&#xe810;" d="M500 840l-490-490 490-490 490 490-490 490z m-153-248c12 0 26-1 41-1l7 0 210 0 7 0c39 0 78 4 66-12-13-17-34-52-42-91-8-39-41-82-72-102-30-20-37-28-37-36 0-8 7-16 37-35 31-21 64-64 72-103 8-39 29-74 42-91 12-16-27-12-66-12l-7 0-210 0-7 0c-15 0-29-1-41 0-20 0-32 2-25 12 13 17 35 52 42 91 8 39 41 82 73 103 29 19 36 27 37 35-1 8-8 16-37 36-32 20-65 63-73 102-7 39-29 74-42 91-7 10 5 12 25 13z" horiz-adv-x="1000" />

<glyph glyph-name="attribute-conditiondurationpct" unicode="&#xe811;" d="M500 840l-490-490 490-490 490 490-490 490z m-153-248c12 0 26-1 41-1l7 0 210 0 7 0c39 0 78 4 66-12-13-17-34-52-42-91-8-39-41-82-72-102-30-20-37-28-37-36 0-8 7-16 37-35 31-21 64-64 72-103 8-39 29-74 42-91 12-16-27-12-66-12l-7 0-210 0-7 0c-15 0-29-1-41 0-20 0-32 2-25 12 13 17 35 52 42 91 8 39 41 82 73 103 29 19 36 27 37 35-1 8-8 16-37 36-32 20-65 63-73 102-7 39-29 74-42 91-7 10 5 12 25 13z" horiz-adv-x="1000" />

<glyph glyph-name="attribute-critdamage" unicode="&#xe812;" d="M500 724c-206 0-374-167-374-374 0-90 32-173 85-237l48 48c7 6 6 26 12 42-28 37-47 77-57 118 9 7 19 12 30 15 7-37 24-75 50-109 6 1 11-1 22 9 17 17 4 20 33 51l0 0 87 87-80 81c0 0-61 60-85 149 88-24 149-85 149-85l80-81 81 81c0 0 61 61 148 85-23-89-85-149-85-149l-80-81 87-87 0 0c29-31 17-34 33-51 11-10 16-8 22-9 26 34 43 72 50 109 11-3 21-8 30-15-9-41-29-81-57-118 6-16 6-36 12-42l48-48c53 64 85 147 85 237 0 207-167 374-374 374z m0-413l-87-88-1 1c-30-30-33-17-50-34-11-10-9-15-10-21 35-26 73-43 110-50-3-12-8-22-16-30-40 9-81 28-117 57-16-6-35-6-42-12l-50-50c68-67 161-108 263-108 103 0 195 41 263 108l-50 50c-7 6-26 6-42 12-36-29-77-48-117-57-8 8-13 18-16 30 37 7 75 24 110 50-1 6 1 11-10 21-16 17-20 4-50 34l-1-1-87 88z" horiz-adv-x="1000" />

<glyph glyph-name="attribute-critdamagepct" unicode="&#xe813;" d="M500 772l-354-354 115 0 0-490 478 0 0 490 115 0-354 354z m-229-264c88-24 149-86 149-86l80-80 81 80c0 0 61 62 149 86-24-89-86-150-86-150l-80-80 87-87 0-1c29-30 17-33 33-50 1-1 1-1 2-2l0-92c-5 1-10 2-15 4-36-29-77-49-117-58-8 9-13 19-16 30 37 7 75 24 110 51-1 6 1 10-10 21-16 17-19 4-50 33l-1 0-87 87-87-87-1 0c-30-29-33-16-50-33-11-11-9-15-10-21 35-27 73-44 110-51-3-11-8-21-15-30-41 9-81 29-118 58-5-2-10-3-15-4l0 92c1 1 1 1 2 2 17 17 4 20 33 50l0 1 87 87-80 80c0 0-61 61-85 150z" horiz-adv-x="1000" />

<glyph glyph-name="attribute-healing" unicode="&#xe814;" d="M500 727c-55-81-146-221-146-266 0-52 22-89 43-132l-109-72 138 0c27-89 69-264 74-284 3 15 28 120 52 208l0 0c8 28 15 54 22 76l138 0-109 72c7 14 15 28 21 42l0 0c12 28 22 55 22 90 0 45-91 185-146 266z m0-167c0 0 0 0 0 0 44-2 72-22 72-80 0-65-14-53-72-271-58 218-72 206-72 271 0 58 28 78 72 80z" horiz-adv-x="1000" />

<glyph glyph-name="attribute-health" unicode="&#xe815;" d="M377 713c-13 0-23-10-23-22l0-195-195 0c-12 0-22-10-22-23l0-246c0-13 10-23 22-23l195 0 0-195c0-12 10-22 23-22l246 0c13 0 23 10 23 22l0 195 195 0c12 0 22 10 22 23l0 246c0 13-10 23-22 23l-195 0 0 195c0 12-10 22-23 22l-246 0z" horiz-adv-x="1000" />

<glyph glyph-name="attribute-magicfind" unicode="&#xe816;" d="M185 547c-17-17-52-63 0-114 51-52 88-47 88-47l81-5 99-6 25-25-25-25-99-6-81-5c0 0-36 5-88-47-52-51-17-97 0-114 17-17 44-16 66-38l14-14c22-22 21-49 38-66 17-17 63-52 114 0 52 52 47 88 47 88l5 81 6 99 25 25 25-25 6-99 5-81c0 0-5-37 47-88 51-52 97-17 114 0 17 17 16 44 38 66l14 14c22 22 49 21 66 38 17 17 52 63 0 114-51 52-88 47-88 47l-81 5-98 6-25 25 25 25 98 6 81 5c0 0 37-5 88 47 52 51 17 97 0 114-17 17-44 16-66 38l-14 14c-22 22-21 49-38 66-17 17-63 52-114 0-52-51-47-88-47-88l-5-81-6-99-25-24-25 25-6 98-5 81c0 0 5 37-47 88-51 52-97 17-114 0-17-17-16-44-38-66l-14-14c-22-22-49-21-66-38z" horiz-adv-x="1000" />

<glyph glyph-name="attribute-power" unicode="&#xe817;" d="M824 674c-103-28-173-99-173-99l-269-270 0 0c-34-35-20-39-39-59-12-12-18-10-25-11-31 40-50 85-58 127-13-3-25-9-35-17 11-47 33-94 66-137-7-19-6-42-14-49l-94-94c-9-9-9-23 0-32 1-1 2-2 4-3 8-5 20-5 28 3l95 95c8 7 30 6 48 13 43-33 90-55 137-66 9 10 14 22 17 35-42 8-87 27-127 58 1 7-1 13 11 25 20 19 24 5 59 39l1-1 269 269c0 0 71 70 99 174z" horiz-adv-x="1000" />

<glyph glyph-name="attribute-precision" unicode="&#xe818;" d="M499 774c-23 0-42-18-42-41l0-75c-138-19-248-129-266-268l-74 0c-23 0-41-19-41-42 0-22 18-41 41-41l75 0c19-138 130-248 268-266l0-74c0-23 19-41 41-41 23 0 42 18 42 41l0 75c138 19 248 129 266 268l74 0c23 0 41 19 41 41 0 23-18 42-41 42l-75 0c-19 138-129 248-268 266l0 74c0 23-19 41-41 41z m41-183c102-17 182-97 200-198l-74 0c-23 0-42-19-42-42 0-22 19-41 42-41l75 0c-17-102-97-182-198-200l0 75c0 22-19 41-42 41-22 0-41-19-41-41l0-76c-102 17-182 97-200 198l75 0c22 0 41 19 41 41 0 23-19 42-41 42l-75 0c16 102 96 182 197 200l0-74c0-23 19-42 42-42 22 0 41 19 41 42l0 75z" horiz-adv-x="1000" />

<glyph glyph-name="attribute-precisionpct" unicode="&#xe819;" d="M500 724c-206 0-374-167-374-374 0-206 168-374 374-374 207 0 374 168 374 374 0 207-167 374-374 374z m-1-62c24 0 44-20 44-44l0-40c93-17 166-90 185-183l40 0c24 0 44-20 44-44 0-24-20-44-44-44l-40 0c-18-93-90-166-183-185l0-40c0-24-20-44-44-44-24 0-44 20-44 44l0 40c-93 18-166 90-184 183l-41 0c-24 0-44 20-44 44 0 24 20 44 44 44l40 0c18 93 90 166 183 185l0 40c0 24 20 44 44 44z m44-163l0-33c0-24-20-44-44-44-24 0-44 20-44 44l0 33c-50-16-90-55-104-106l33 0c24 0 44-20 44-44 0-24-20-44-44-44l-33 0c15-50 55-90 106-104l0 33c0 24 20 44 44 44 24 0 44-20 44-44l0-32c51 15 90 54 104 105l-33 0c-24 0-44 20-44 44 0 24 20 44 44 44l33 0c-15 50-55 90-106 104z" horiz-adv-x="1000" />

<glyph glyph-name="attribute-toughness" unicode="&#xe81a;" d="M377 722c-32 0-56-4-73-35-21-41-52-65-72-75-19-11-37-12-37-76l0-152c0-55 57-162 135-258 21-25 49-52 80-78 7-6 14-12 21-18 6-5 11-9 17-13 2-2 4-4 7-6 0 0 0 0 0 0 8-6 15-12 23-17 0 0 0 0 0 0 7-6 15-11 22-16 11 7 22 15 33 24 5 4 10 8 16 12 14 11 28 22 41 33l0 1c31 26 59 53 80 78 78 96 135 203 135 258l0 152c0 64-18 65-37 76-19 10-51 34-73 75-16 31-40 35-72 35-10 1-21 0-34 0l-13 0-152 0-13 0c-12 0-24 1-34 0z" horiz-adv-x="1000" />

<glyph glyph-name="attribute-vitality" unicode="&#xe81b;" d="M317 638c-78 0-146-48-146-146 0-98 22-130 67-177 28-28 117-114 191-185 32-30 52-50 71-68 66 63 225 215 262 253 45 47 68 79 68 177 0 98-69 146-147 146-43 0-116-23-183-63-67 40-139 63-183 63z" horiz-adv-x="1000" />

<glyph glyph-name="crafting-armorsmith" unicode="&#xe81c;" d="M148 796l0-541 209-208 143-143 143 143 209 208 0 541-222 0-260 0-222 0z m153-109l261 0 175-175-179 0 0-454-116 0 0 454-141 0 0 175z" horiz-adv-x="1000" />

<glyph glyph-name="crafting-artificer" unicode="&#xe81d;" d="M500 775c-152 0-275-123-275-275 0-152 123-275 275-275 152 0 275 123 275 275 0 152-123 275-275 275z m-299-404c-35-3-88-12-88-45 0-48 53-58 79-84 27-26 220-218 220-235 0-18-101-5-101-45 0-30-6-36 87-37 27 0 57 0 102 0 45 0 75 0 102 0 93 1 88 6 88 37 0 40-102 27-102 45 0 17 194 209 221 235 26 26 78 36 78 84 0 33-53 42-88 45-50-116-164-197-299-197-134 0-249 81-299 197z" horiz-adv-x="1000" />

<glyph glyph-name="crafting-chef" unicode="&#xe81e;" d="M231 725c-19 0-56-6-56-43 0-49 99-84 99-110 0-25-15-27-33-46-1 0-1 0-2 0-66-53-107-126-107-206 0-76 37-145 98-197l0-99c0 0-5-49 49-49 50 0 7 87 75 78 1 0 2-1 3-1 44-15 92-23 143-23 51 0 99 8 143 23 1 0 2 0 3 1 68 9 25-78 75-78 54 0 49 49 49 49l0 99c61 52 98 121 98 197 0 80-41 153-107 206 0 0-1 0-1 0 0 1 0 0-1 0-18 19-33 21-33 46 0 26 100 61 100 110 0 37-38 43-57 43-6 0-10 0-10 0l-122 0-396 0c0 0-4 0-10 0z" horiz-adv-x="1000" />

<glyph glyph-name="crafting-huntsman" unicode="&#xe81f;" d="M500 825l-301-727 185 0 85-203c5-12 17-20 31-20 13 0 25 7 31 19 0 0 0 0 0 0l1 1c0 0 0 1 0 1l84 202 186 0-302 727z" horiz-adv-x="1000" />

<glyph glyph-name="crafting-jeweler" unicode="&#xe820;" d="M500 850l-15-13-125-102-175-143-9-7 0-12 0-77 0-204 0-88 0-77 0-12 9-7 175-143 125-103 15-12 16 12 124 103 175 143 9 7 0 12 0 77 0 88 0 116 0 88 0 77 0 12-9 7-175 143-124 102-16 13z m-25-85l0-123-58-48-98-79-75 61 147 120 84 69z m50 0l84-69 147-120-75-61-98 79-58 48 0 123z m-300-238l75-61 0-19 0-59 0-77 0-59 0-20-75-61 0 33 0 88 0 204 0 31z m550 0l0-31 0-88 0-116 0-88 0-33-75 61 0 20 0 59 0 136 0 19 75 61z m-455-343l97-79 58-48 0-123-84 69-146 120 75 61z m360 0l75-61-146-120-84-69 0 123 58 48 97 79z" horiz-adv-x="1000" />

<glyph glyph-name="crafting-leatherworker" unicode="&#xe821;" d="M497 788c0 0-22-1-47-13-25-12-52-35-62-85-11-53-11-86-12-108-1-11-1-19-7-28-6-8-17-11-27-11-24 0-42 18-59 38-16 20-32 43-51 60-33 32-88 26-119-5-29-30-30-95 22-149 55-57 131-122 131-208 0-45-27-89-56-130-29-40-61-78-75-103-13-25-14-52-10-75 5-23 16-42 26-51 7-6 28-10 52-5 25 6 53 19 75 41 23 23 41 49 61 66 9 9 20 15 32 17 12 2 25-3 35-14 16-18 30-38 45-52 15-15 29-23 48-23l1 0c1 0 1 0 1 0 19 0 33 8 48 23 15 14 29 34 45 52 10 11 23 16 35 14 12-2 23-8 32-17 20-17 38-43 61-66 22-22 50-35 75-41 25-5 45-1 52 5 10 9 21 28 26 51 4 23 3 50-10 75-14 25-46 63-75 103-29 41-55 85-55 130 0 86 76 151 130 208 52 54 51 119 22 149-31 31-85 37-119 5-19-17-35-40-51-60-17-20-34-38-59-38-10 0-21 3-27 11-5 9-6 17-7 28-1 22-1 55-12 108-10 50-37 73-62 85-25 13-47 13-47 13l-6 0z" horiz-adv-x="1000" />

<glyph glyph-name="crafting-scribe" unicode="&#xe822;" d="M860 799c-24-10-123-4-333-126-24-15-46-28-66-41-19-14-35-32-48-52-26-43-50-93-68-152 12 55 17 99 17 136-77-60-107-105-126-149-28-68-13-276-13-276l-83-116 0-122 136 205c302 54 400 194 462 287 8 29-9 53-86 71 79-2 127 11 158 66 32 82 54 177 50 269z" horiz-adv-x="1000" />

<glyph glyph-name="crafting-tailor" unicode="&#xe823;" d="M398 825c-77 0-139-62-139-139 0-28 9-55 24-77 1-1 1-2 2-3 18-31 56-86 80-121 31-45 27-93 27-93l0-48-240-150c0 0-83-43-62-148l302 189 0-360c100 38 92 131 92 131l0 286 45 28c0 0 38 29 92 27 43-2 110-4 146-4 1 0 2 0 3 0 26-1 54 6 78 21 65 40 85 126 45 191-41 65-126 84-191 44-30-19-50-47-59-79-14-37-11-70-56-87-33-12-78-28-108-41-6 33-16 77-23 110-10 47 21 61 45 93 22 24 35 56 35 91 0 77-62 139-138 139z m0-78c33 0 60-27 60-61 0-33-27-60-60-60-33 0-60 27-60 60 0 34 27 61 60 61z m379-206c20-1 38-10 49-28 17-28 9-65-19-83-29-17-65-9-83 19-17 28-9 66 19 84 11 6 23 8 34 8z" horiz-adv-x="1000" />

<glyph glyph-name="crafting-weaponsmith" unicode="&#xe824;" d="M937 723c-108 1-182-74-182-74l-222-221-121 121 192 192-322 0-219-219 160-161 102 102 122-122-116-116c-24 27-46 53-67 80-17-8-33-20-47-34-10-10-19-21-26-33 30-38 63-75 98-112l-102-102c-15-15-15-38 0-52 14-15 37-15 52 0l102 102c37-35 74-68 112-98 12 7 23 16 33 26 14 14 26 30 34 47-27 21-54 43-80 67l116 116 255-255c24-24 62-24 86 0 24 24 24 63 0 87l-254 254 221 222c0 0 76 69 73 183z" horiz-adv-x="1000" />

<glyph glyph-name="mode-pve" unicode="&#xe825;" d="M110 763c-1 0-2 0-3-1-1 0-2 0-2 0-2-1-4-2-6-4-2-2-4-4-5-6 0 0 0 0 0 0-4-7-3-14 2-21 1-1 2-2 2-3 3-3 7-7 12-11 5-4 14-13 26-24 32-32 86-89 129-145 0 0 0 0 0 0 4-5 8-10 11-15l42 45c-13 11-30 25-47 40-8 7-17 15-25 22 0 0 0 0 0 0-9 8-17 15-26 23-8 7-16 14-23 21-8 7-15 13-21 19 0 0 0 0 0 0-3 3-6 6-9 9-5 5-10 10-14 13-1 2-3 4-4 6-4 4-8 9-12 13-1 2-3 3-5 5-1 2-3 3-5 5-1 1-3 2-4 4-1 0-1 0-2 1 0 0 0 0-1 0-1 1-2 2-4 2 0 0 0 0 0 0 0 0 0 0-1 1 0 0 0 0-1 0-1 0-3 1-4 1z m320-85a17 17 0 0 1 0 0 17 17 0 0 1-2 0 17 17 0 0 1 0 0 17 17 0 0 1-1 0 17 17 0 0 1-1 0 17 17 0 0 1-1-1 17 17 0 0 1-1 0 17 17 0 0 1-1 0 17 17 0 0 1 0 0 17 17 0 0 1-1-1 17 17 0 0 1-1-1 17 17 0 0 1-1 0 17 17 0 0 1 0-1 17 17 0 0 1-1 0 17 17 0 0 1 0-1 17 17 0 0 1-1 0l-222-239a17 17 0 0 1 0-1 17 17 0 0 1-1-1 17 17 0 0 1-2-2 17 17 0 0 1 0-2 17 17 0 0 1 0 0 17 17 0 0 1-1-1 17 17 0 0 1 0-1 17 17 0 0 1 0-1 17 17 0 0 1 0-1 17 17 0 0 1 0-3 17 17 0 0 1 0-1 17 17 0 0 1 0-1 17 17 0 0 1 0-1 17 17 0 0 1 0 0 17 17 0 0 1 0-1 17 17 0 0 1 1-1 17 17 0 0 1 0-1 17 17 0 0 1 0 0 17 17 0 0 1 1-1 17 17 0 0 1 0-2 17 17 0 0 1 1 0 17 17 0 0 1 0-1 17 17 0 0 1 1 0 17 17 0 0 1 0-1 17 17 0 0 1 1 0 17 17 0 0 1 0-1 17 17 0 0 1 1 0 17 17 0 0 1 1-1 17 17 0 0 1 1-1 17 17 0 0 1 2-1 17 17 0 0 1 1 0 17 17 0 0 1 0 0 17 17 0 0 1 1-1 17 17 0 0 1 1 0 17 17 0 0 1 2 0 17 17 0 0 1 1 0 17 17 0 0 1 1 0 17 17 0 0 1 2 0 17 17 0 0 1 2 0 17 17 0 0 1 1 1 17 17 0 0 1 1 0 17 17 0 0 1 2 1 17 17 0 0 1 0 0 17 17 0 0 1 1 1 17 17 0 0 1 1 0 17 17 0 0 1 1 1 17 17 0 0 1 0 0 17 17 0 0 1 1 1 17 17 0 0 1 0 0l222 239a17 17 0 0 1 1 1 17 17 0 0 1 2 3 17 17 0 0 1 0 0 17 17 0 0 1 0 0 17 17 0 0 1 0 1 17 17 0 0 1 1 2 17 17 0 0 1 1 5 17 17 0 0 1 0 2 17 17 0 0 1-1 5 17 17 0 0 1-12 10 17 17 0 0 1-3 0 17 17 0 0 1-2 0z m140-74c-52-36-97-58-138-71 40-42 104-108 197-204 42-43 100-101 154-159 52 117 61 246 61 344-61 0-145 5-256 77-6 4-12 8-18 13z m-199-46l-80-85c17-17 93-92 198-191 0 0 0 0 0 0 15-15 31-29 47-45 35-33 72-68 108-101 19-17 37-33 54-49 36-31 70-59 101-82 8-6 15-12 22-17 8-5 15-10 21-14 0 0 0 0 0 0 14-8 26-15 37-20 11-5 21-8 29-9 0 6-1 12-4 19 0 1-1 2-1 4-5 11-12 24-21 39-3 3-5 7-7 10-5 8-11 15-17 23-1 1-1 2-2 3-2 3-5 6-7 9-3 4-6 8-10 12 0 0 0 0 0 0-3 4-6 8-10 12 0 0 0 0 0 0-3 5-7 9-10 13 0 0 0 0 0 0-8 8-15 17-23 26 0 0 0 0 0 0-7 8-15 17-23 26 0 0 0 0 0 0-8 9-16 17-25 26-8 9-16 17-24 26-8 9-17 17-25 26-16 17-32 33-47 48-15 16-30 30-42 44-30 31-59 60-85 87-78 80-135 140-154 160z m-73-129c11-161 59-360 250-479 1 0 1 0 1 0 7-5 13-9 21-13 0 0 0 1 0 1 0 0 0-1 0-1 7 4 14 8 21 13 0 0 0 0 0 0 46 28 83 61 114 97-61 52-127 113-188 171-106 101-183 175-219 211z" horiz-adv-x="1000" />

<glyph glyph-name="mode-pvp" unicode="&#xe826;" d="M69 746l-21 0-16-1-24-24 0-16 1 0 0-21c1-41 7-52 7-52l52 1 114-109c25-25 9-63-9-81-18-19-29-11-47-30-18-19-1-30-1-30l27-27 0 0 0 0 249 258 0 0-27 27c0 0-12 16-30-3-19-19-11-29-29-47-18-19-55-37-80-12l-113 109-2 54c0 0-10 4-51 4z m849 0c-30-1-38-5-38-5l-1-53-113-109c-26-25-63-7-81 12-18 18-10 29-28 48-18 19-31 2-31 2l-27-27 0 0 0 0 249-258 1 0 27 27c0 0 17 11-1 30-18 19-29 11-47 30-18 18-34 56-9 81l113 109 54-1c0 0 5 11 6 52l0 21 0 16-23 25-16 0 0 0-21 0c-5 0-10 0-14 0z m-303-223c0 0-22-41-48-78-27-37-128-162-182-209-53-46-177-161-207-265-1-4-2-7-3-11l-1-6 6 1c3 1 6 1 9 2l0 0c106 25 226 147 273 198 49 53 178 150 216 175 38 25 79 45 79 45l1 65-79 81-64 2z m-229-1l-65-1-79-82 1-64c0 0 42-20 80-45 15-11 47-34 82-61 29 31 60 67 87 101-26 31-48 60-58 74-27 37-48 78-48 78z m209-268c-29-22-59-47-87-70 12-10 22-20 30-29 48-51 166-171 272-197 3-1 7-2 11-3l5-1-1 6c0 3-1 6-2 9l0 0c-29 105-155 221-208 267-6 5-13 11-20 18z" horiz-adv-x="1000" />

<glyph glyph-name="mode-wvw" unicode="&#xe827;" d="M214 663l0-85 0-94 64-64 0-286-64-65 0-32 191 0 17 0 0 160 78 78 78-78 0-160 17 0 191 0 0 32-64 65 0 286 64 64 0 94 0 85-123 0 0-85-27 0 0 85-123 0 0-85-26 0 0 85-123 0 0-85-27 0 0 85-123 0z" horiz-adv-x="1000" />

<glyph glyph-name="profession-berserker" unicode="&#xe828;" d="M327 823c53-74 27-139 6-190-21-50-28-105 18-153-24 34-4 86 31 128 35 43 90 136-55 215z m346 0c-145-79-90-172-55-215 35-42 55-94 31-128 46 48 39 103 18 153-20 51-47 116 6 190z m-406-53c-29-80-88-132-88-223 0-91 88-172 110-189 22-16 73-81 86-144 21 93-43 170-90 208-47 38-58 141-43 196 15 56 37 86 25 152z m466 0c-12-66 10-96 25-152 15-55 4-158-43-196-47-38-111-115-90-208 14 63 64 128 86 144 22 17 110 98 110 189 0 91-59 143-88 223z m-233-155l-96-160c47-97 48-211 11-285 70 0 85-36 85-36 0 0 15 36 85 36-37 74-36 188 11 285l-96 160z m-374-246c-7-29 11-50 37-69 27-18 45-57 43-133-9-1-29 9-40 24-11 15-30 63-70 66 0 0 1-13 23-41 23-28-3-54 33-100 36-46 76-64 146-58 0 0-2 19-34 37-31 18-11 50 7 97 18 48-48 113-72 132-27 21-51 36-73 45z m748 0c-22-9-46-24-73-45-24-19-90-84-72-132 18-47 39-79 7-97-32-18-34-37-34-37 71-6 110 12 146 58 36 46 10 72 33 100 22 28 23 41 23 41-40-3-59-51-70-66-11-15-31-25-40-24-2 76 17 115 43 133 26 19 44 40 37 69z m-548-197l20-96c0 0 0-1 0-2 2-11 5-34 3-48 35 22 77 32 115 32-34 25-77 24-110 4l-4 8c6 7 23 22 50 22 34 0 70-18 100-64 30 46 66 64 100 64 27 0 44-15 50-22l-4-8c-33 20-76 21-110-4 38 0 80-10 115-32-2 14 1 37 3 48 0 1 0 2 0 2l20 96c0 0 0 0 0 0-3 0-18-5-36-48-80 14-112-13-138-37-26 24-58 51-138 37-18 43-33 48-36 48 0 0 0 0 0 0z m145-149c-6-2-10-8-10-15l0-66c0-2 0-4 1-6 1 0 2-1 4-2 8-4 21-7 34-7 14 0 26 3 34 7 2 1 3 2 4 2 1 2 1 4 1 6l0 66c0 7-4 13-10 15-10-10-20-21-29-36-9 15-19 26-29 36z m66-102c-10-4-23-7-37-7-14 0-27 3-37 7-9-5-15-11-15-18 0-15 23-26 52-26 29 0 52 11 52 26 0 7-6 13-15 18z" horiz-adv-x="1000" />

<glyph glyph-name="profession-chronomancer" unicode="&#xe829;" d="M487 743c-236 0-428-188-428-420 0-2 0-5 0-8l112 0c-1 8-1 16-1 24 0 203 168 367 375 367 100 0 191-38 258-100-78 84-191 137-316 137z m15-105c-3 0-7 0-10 0-46-1-93-14-136-39-138-79-185-255-105-393 79-138 255-185 393-105 138 79 185 255 105 393-53 92-148 143-247 144z m-3-38c3 0 5 0 7-2 2-1 4-3 5-4 3-4 5-8 5-13l0-39c0-2-1-4-1-5l10-172 154-102c5 2 10 1 14-1 5-3 8-8 9-14l10-7c2-1 3-2 4-4 2-4 2-8 1-11-1-2-3-4-5-5-4-2-8-2-12-1l-16 8c-3 0-6 1-9 3-2 1-4 3-5 5l-179 89c-1 1-1 1-2 1 0 0 0 0-1 1l0 0c0 0-1 0-1 0 0 1-1 1-1 1-1 0-1 1-2 1 0 1-1 1-1 1 0 1-1 1-2 2-5 6-8 14-7 22l11 176c-3 3-5 7-5 12l0 39c0 9 6 16 14 17 2 1 3 2 5 2z m104-48c3 0 7-1 10-3 8-4 11-15 6-24-5-9-15-11-24-6-9 5-12 15-7 24 3 5 9 8 15 9z m-210-2c6 0 12-3 15-9 5-9 2-20-6-25-9-4-20-2-25 7-5 9-2 19 7 24 2 2 4 2 6 3 1 0 2 0 3 0z m288-75c0 0 1 0 2 0 6 0 11-3 14-9 5-8 2-19-6-24-9-5-20-2-24 6-5 9-3 20 6 25 2 1 5 2 8 2z m-366-3c3 0 7-1 10-3 9-5 11-16 6-24-4-9-15-12-24-7-8 5-11 16-6 25 3 5 8 8 14 9z m515-87c0-8 0-16 0-24 0-203-168-367-375-367-100 0-191 38-258 100 78-84 191-137 316-137 236 0 428 188 428 420 0 3 0 5 0 8l-111 0z m-140-15c0 0 1 0 2 0l39 0c10 0 18-8 18-18 0-10-8-18-18-18l-39 0c-10 0-18 8-18 18 0 9 7 17 16 18z m-421-4l39 0c10 0 18-8 18-18 0-10-8-18-18-18l-39 0c-10 0-18 8-18 18 0 10 8 18 18 18z m48-106c1 0 2 0 2 0 6 0 11-3 15-8 5-9 2-20-7-25-9-5-19-2-24 7-5 8-2 19 6 24 3 1 5 2 8 2z m289-74c1 0 2 0 3 0 5 0 11-4 14-9 5-9 2-19-7-24-8-5-19-2-24 6-5 9-2 20 7 25 2 1 5 2 7 2z m-211-2c3 0 7-1 10-2 9-5 12-16 7-25-5-8-16-11-25-6-8 5-11 15-6 24 3 5 8 8 14 9z m107-8c10 0 18-8 18-18l0-39c0-10-8-18-18-18-10 0-18 8-18 18l0 39c0 10 8 18 18 18z" horiz-adv-x="1000" />

<glyph glyph-name="profession-daredevil" unicode="&#xe82a;" d="M186 726c17-27 16-73 16-73l244-132 2 62-262 143z m-113-38c0 0 22-27 22-77l337-269-308 120c0 0 42-65 83-140l277-103c0 0-71-5-111 2-40 7-102 16-102 16 0 0 42-15 117-76l168-20-3 40c0 0 41-72 60-43 15 22-12 20-31 45-20 24-48 51-41 144 8 93 12 103 12 103l-480 258z m711-72l-306-10 1-102 97-53c0 0 18-9 9-45-9-37-22-137 2-173 24-35 61-57 62-85 1-30-19-51-52-49-34 3-202 19-202 19l-1-96 175-28 12 40c0 0 95-51 121-55 25-4 225-5 225-5l-3 95c0 0-77 2-101 12-24 10-90 51-120 115-31 64-44 88-36 110 7 22 117 310 117 310z" horiz-adv-x="1000" />

<glyph glyph-name="profession-dragonhunter" unicode="&#xe82b;" d="M227 771l104-313-192 102c128-384 361-631 361-631 0 0 233 247 361 631l-192-102 104 313-273-274-273 274z m424-199l-33-97-42-127 119 63 65 35c-89-210-202-363-260-434 0 0 0 0 0 0l0 409 38 38 113 113z" horiz-adv-x="1000" />

<glyph glyph-name="profession-druid" unicode="&#xe82c;" d="M503 797l-58-159 115 0-57 159z m-317-129l71-153 82 81-153 72z m632-4l-153-71 81-82 72 153z m-318-72c-134 0-242-108-242-242 0-134 108-242 242-242 134 0 242 108 242 242 0 134-108 242-242 242z m0-36c114 0 206-92 206-206 0-114-92-206-206-206-4 0-8 0-11 1 44 37 75 115 75 205 0 90-31 168-76 206 4 0 8 0 12 0z m-288-146l-159-57 159-58 0 115z m576-5l0-115 159 57-159 58z m-534-216l-72-153 153 71-81 82z m489-4l-82-81 153-72-71 153z m-303-123l57-159 58 159-115 0z" horiz-adv-x="1000" />

<glyph glyph-name="profession-elementalist" unicode="&#xe82d;" d="M553 776c-83 0-127-55-121-124 6-70 70-180 127-259 57-80 81-160 63-238-17-78-89-151-149-151-60 0-104 73-104 101 0 28 39 91 73 94 34 3 56-54 56-54 0 0-27-1-42 19-18-17-40-47-35-60 4-12 31-50 50-47 18 3 72 21 90 52 18 30 25 141-6 200-32 59-163 253-163 253 0 0-17-53-14-111 2-58 21-144 19-153-1-9-29-46-42-46-12-1-16 23 0 45 16 22 14 83-17 110 3-57-5-80-21-101-16-21-39-72-38-95-6 25-16 30-15 52 2 23 24 57-3 78-6-52-41-71-40-154 0-83 41-143 73-173 32-30 90-74 177-88 88-13 201 40 227 63 26 23 57 71 59 78 2 7 14 35 22 42-38-19-52-18-66-29-15-11-51-41-56-36-4 6 6 26 20 40 14 13 28 34 29 44 5 18 68 41 69 57 1 16-31 32-31 72 0 40 36 154 36 154 0 0-45-29-57-50-11-20-43-99-43-155-12 44-17 130-32 169-15 38-110 184-130 226-20 42-33 101-22 126 10 25 27 39 57 49z" horiz-adv-x="1000" />

<glyph glyph-name="profession-engineer" unicode="&#xe82e;" d="M434 752c-27-1-53-9-74-18-41-17-56-65-46-151l-49-18-1 0 0 0c-7-3-11-11-8-18 3-8 11-11 18-9l26-71c-60-54-98-133-98-221 0-164 133-298 298-298 165 0 298 134 298 298 0 165-133 298-298 298-10 0-19 0-29-1l-22 59c7 3 11 11 8 18-2 6-7 9-12 10-2 0-4 0-6-1l0 0 0 0-44-16c-15 2-22 7-20 15 3 8-5 35-10 51-5 16 28 31 63 34 35 2 89-31 124-72 35-41 64-38 99-37 36 1 84 28 88 52 3 24-10 50-35 34 20-26-7-43-54-40-34 3-73 31-131 74-29 22-58 29-85 28z m-40-161c1 0 2 0 3 0 30-2 26-28 38-45 3-2 5-5 7-7 1-3 3-4 4-6 2-1 3-2 3-3 1-1 2-1 2-2 0 0 1-1 2-2 2-2 3-3 3-3 0 0-1 0-4 1-1 0-3 0-4 1-1 0-2 0-2 0-2 1-3 1-5 2 0 0 0 0 0 0-2 1-4 1-6 2-1 1-3 1-4 2-5 3-10 7-14 12-12 17 1 37-23 30-25-6-72-31-109-32 0 0 69 47 106 49 1 1 2 1 3 1z m134-105c66-8 124-42 163-92l-203 45 40 47z m-267-270c69-134 217-241 392-156-41-34-95-55-153-55-123 0-224 92-239 211z" horiz-adv-x="1000" />

<glyph glyph-name="profession-guardian" unicode="&#xe82f;" d="M495 729c-156 0-237-39-271-57-34-18-27-34-26-152 1-118 27-235 51-287 23-52 139-194 251-262 0 0 0 0 0 0 112 68 228 210 251 262 24 52 50 169 51 287 1 118 8 134-26 152-34 18-115 57-271 57-1 0-3 0-5 0-2 0-4 0-5 0z m5-42c44-65 117-177 117-213 0-28-8-50-18-72l0 0c-5-11-11-22-17-34l88-58-111 0c-5-17-11-38-17-60l0 0c-19-71-39-155-42-166-4 15-37 156-59 226l-111 0 88 58c-17 34-35 64-35 106 0 36 73 148 117 213z m0-134c-35-2-58-17-58-64 0-52 12-42 58-217 46 175 58 165 58 217 0 47-23 62-58 64 0 0 0 0 0 0z" horiz-adv-x="1000" />

<glyph glyph-name="profession-herald" unicode="&#xe830;" d="M306 806c-85-43-104-140-111-196-6-57-4-99-4-99l47 21c0 0 5 49 11 71 6 23 24 56 24 56 0 0-6 68 33 147z m61-59c0 0-5-90 11-133 17-43 47-82 64-94-44-7-114 37-128 58-15 21-32 67-32 67 0 0-28-84-12-185 16-101 29-123 64-162-50 39-69 77-69 77 0 0-19-40-67-71-48-32-94-42-94-42 0 0 22-21 63-32 41-12 97-14 102-31 5-18 52-85 112-138-5-13-43-8-100 19 20-59 86-74 116-76 29-1 54 0 82-21 29-21 47-26 41-40-6-15-86-48-86-48l1-1c111 5 214 61 230 78 16 17 27 45 27 45 0 0-27-15-69-11-42 3-56 18-56 18l12 53c0 0-33-17-49-23-16-6-51-3-51-3l14 57c0 0-32-8-47-7-15 1-45 68-45 85 0 17 42 113 60 113 18 0 98-13 153-12 54 1 170 15 170 15 0 0 26-38 29-71 19 40 33 84 33 84 0 0 73-50 124-119 14 95-71 225-116 261l-12 6c-24-36-78-54-143-54-65 0-84 15-84 53 0 38 2 63-30 50-33-12-51 13-65 38-15 25-41 44-74 93-34 49-79 104-79 104z m104-271c0 0 1 0 2 0 11-5 45-58 62-71 17-13 39-45 39-51-38 15-52 13-93 19-41 6-53 29-60 40-7 11-11 29 1 28 12-1 46-23 46-16 0 6-6 50 3 51z m-238-3c-57-44-157-37-205-26 48-76 114-118 114-118 0 0 50 22 69 41 18 19 46 36 33 60-13 23-11 43-11 43z m254-209c-20 0-22-9-28-33 90-5 102-46 102-106 46-4 74-26 80-45 6-19 21-15 21-15 0 0 65 46 108 45 42-2 73-22 97-102 8 41 4 92-38 125 26 19 75 22 75 22 0 0-10 23-50 35-40 12-75-3-97-13-22-11-38-41-38-41 0 0 3 45-16 96 0 0 3-45-14-66-18-21-45-19-68 24-24 42-61 62-107 70-12 2-21 4-27 4z" horiz-adv-x="1000" />

<glyph glyph-name="profession-mesmer" unicode="&#xe831;" d="M118 705c-40 0-60-8-68-17-11-12 23-93 38-127 14-34 47-71 47-90 0-19 5-40 17-59 12-18 55-46 87-53-7-9 0-23 0-23 0 0-45-34-51-67-7-33 20-46 20-54 0-8-31-22-26-55 6-32 65-42 65-42 0 0 2-41 27-68 25-28 62-56 69-55 7 1 5 73 17 101 13 29 36 59 40 59 4 0 40-13 54-19 13-6 37-30 46-31l0-1c0 0 0 1 0 1 0 0 0-1 0-1l0 1c9 1 33 25 46 31 14 6 50 19 54 19 4 0 28-30 40-59 13-28 10-100 17-101 7-1 44 27 69 55 25 27 27 68 27 68 0 0 59 10 65 42 5 33-26 47-26 55 0 8 27 21 20 54-6 33-51 67-51 67 0 0 7 14 0 23 32 7 75 35 87 53 12 19 17 40 17 59 0 19 33 56 47 90 15 34 49 115 38 127-12 13-49 24-136 11-86-14-208-85-270-175-3-5-4 0-13 22-7 19-11 29-25 32-1 0-2 0-3 0 0 0 0 0 0 0-2 0-5 0-7 0 0 0-1 0-1 0-1-1-2-1-3-1-12-3-17-13-23-31-9-22-10-27-13-22-62 90-183 161-270 175-27 4-49 6-68 6z m216-328c2 0 4 0 7 0 9 0 18-2 27-5 47-15 78-51 75-88-16 15-32 8-63 2-31-5-56 2-87 26-32 23-26 34-26 41 1 6 31 23 67 24z m325 0c39 1 73-18 74-24 0-7 6-18-25-41-32-24-57-31-88-26-31 6-47 13-63-2-3 37 28 73 75 88 9 3 18 5 27 5z" horiz-adv-x="1000" />

<glyph glyph-name="profession-necromancer" unicode="&#xe832;" d="M612 732c-21 0-46-22-119-13-120 10-131-11-182-39-51-28-63-95-76-138-14-43-12-50 0-64 11-13 8-36 1-86 0 0-3-22-9-46-4-21-18-69-23-74-5-6-8-10 5-21 13-12 17-30 20-44 4-14 16 1 21 5 5 5 51 28 59 28 7 0 37-18 37-29 0-12-15-97-6-147 9-50 47-92 47-92 0 0-7 31-6 67 1 36 11 81 13 93 2 11 11 18 14 18 3 0 9 1 9-15 0-16 15-20 25-20 11 1 10 12 10 21 0 8 4 21 10 21 7 0 13-7 13-23 1-15 9-19 25-18 16 1 18 29 23 38 6 10 17 0 17-14 0-15 4-26 17-25 13 1 20 12 20 16 0 4 2 21 11 21 9 0 11-11 15-25 4-15 15-83 6-159 49 55 61 87 54 153-7 66-13 93-2 104 12 10 29 18 69-6 41-24 41-17 41 10-1 27 12 30 22 38 10 7 10 23-1 30-11 7-32 44-40 90-8 46-17 94-14 153 4 58-16 84-30 110-14 26-63 72-87 80-3 1-6 2-9 2z m-245-253c17 0 37-20 51-26 14-5 19-18 23-55 4-37-11-54-19-67-9-14-58-39-81-41-23-1-46 21-52 27-7 7-9 58-5 96 4 38 20 42 41 56 0 0 26 10 42 10z m249-7c35 0 68-20 85-41 18-22 14-69 11-92-4-22-24-34-57-43l-1 0c-5-1-10-1-13-1-12 0-49 13-70 31-20 18-22 60-19 88 2 27 20 42 40 52 0 0 11 3 21 6 1 0 2 0 3 0z m-102-80c1 0 3-2 4-6 3-11 24-79 26-88 1-9-1-30-13-43-11-14-16-9-19 1-4 9-17 13-21-1-5-14-12-23-19-13-8 10-35 37-17 91 11 30 20 59 25 51 6-8 22-22 26-7 3 9 6 14 8 15z" horiz-adv-x="1000" />

<glyph glyph-name="profession-ranger" unicode="&#xe833;" d="M634 774c0 0-57-27-92-75 0 0 18-7 31-8 13-1 44-3 45 16 1 20 12 27 16 40 4 13 0 27 0 27z m118-75c-2-16-27-29-27-47 0-19 11-21 15-34 4-12 12-33 21-34 10 0 17 10 17 32 0 22-26 83-26 83z m-228-30c-6 0-14-1-21-3-38-11-53-55-62-77-9-21-47-23-68-28-21-5-24-73-23-124 0-51 51-37 86-36 35 2 57-1 69 17 13 18 66 176 75 235 0 0-26 16-56 16z m-298-28c-5-1-34-19-43-26-10-6-5-51-5-51 11 2 29 4 41 18 11 15 11 59 7 59z m469-33c-10 0-26-18-38-24-12-5-28-14-30-43-1-30-28-90-38-110-11-19-25-41-11-55 15-13 26-47 44-47 34 1 83 5 100 40 17 34 32 79 29 116-3 36-13 67-27 85-14 18-18 38-29 38z m-529-63c-4-1-8-2-11-4-13-12-49-65-48-72 2-7 36-48 43-84 7-35 21-49 48-50 27-1 57 11 66 26 9 15 14 54 14 54 0 42-21 98-30 110-10 13-30 12-46 12-11 0-25 8-36 8z m690-156l-16-62c24 1 26-21 49-16 8 1 2 25-7 43-9 17-26 35-26 35z m-401-63c-17 0-31-2-39-5-25-8-75-56-159-52-83 4-101-25-101-82 0 0-2-39 11-68 13-29 106-47 139-46 32 1 35-9 47-34 12-25 99-110 110-113 12-3 154 58 173 68 20 10 5 78 0 102-4 23-45 66-52 80-8 14-27 110-38 130-7 14-54 20-91 20z m375-19c-16-1-51-25-73-30-23-5-93 2-93-34 2-42 0-98 23-106 24-8 52-26 78-5 26 21 102 73 103 91 0 18-20 83-35 84-1 1-2 1-3 0z" horiz-adv-x="1000" />

<glyph glyph-name="profession-reaper" unicode="&#xe834;" d="M392 839c-6 2-22 6-25 3-13-12-115-242-208-518-36-105-53-208-53-208 0 0 147 283 180 335 33 52 81 115 106 105-61-69-119-183-175-323 151 216 297 346 297 346 0 0 70-41 122-93 53-52 107-190 117-243 10-53-15-55-61-93-45-37-120-157-170-291 0 0 96 90 173 139 77 49 199 99 199 99 0 0-56 30-160-14 7 16 46 52 73 75 27 23 24 48 16 80-51 224-165 380-292 499-57 53-106 87-139 102z m29-490c-11 0-18-14-55-19 25-34 36-35 53-35 18 0 38 23 38 25 0 3-23 27-34 29-1 0-2 0-2 0z m176 0c-10 0-17-14-54-19 25-34 36-35 53-35 18 0 38 23 38 25 0 3-23 27-34 29-1 0-2 0-3 0z m-412-195c-17 0-26-4-26-4 0 0 66-32 125-76 60-45 108-102 175-217 0 0 10 46-26 120-36 75-117 139-178 163-30 11-54 14-70 14z" horiz-adv-x="1000" />

<glyph glyph-name="profession-revenant" unicode="&#xe835;" d="M500 806l-153-118-327-252 480 191 480-191-327 252-90 69-63 49z m3-208l-104-118c31-7 65-11 101-11 38 0 74 4 106 12l-103 117z m-212-103c35-45 86-79 146-93l63-508 63 508c60 14 111 48 146 93-55-30-128-49-209-49-81 0-154 19-209 49z m-78-11l-59-24c54-88 150-153 265-174l-11 87c-81 17-150 57-195 111z m574 0c-45-54-114-94-195-111l-11-87c115 21 211 86 265 174l-59 24z" horiz-adv-x="1000" />

<glyph glyph-name="profession-scrapper" unicode="&#xe836;" d="M503 766c-6 0-11-1-15-1-20-4-62-58-79-81-17-23-8-36 0-71 0 0 21-70 58-114 38-45 116-75 142-81 27-6 49 1 73 15 23 15 55 42 53 92-1 50-29 110-100 176-57 55-106 64-132 65z m-2-41c9 1 20-2 34-6 31-10 76-38 115-81 40-44 60-96 48-126-12-31-26-44-56-39-30 4-82 17-130 89-48 73-56 123-41 145 9 13 18 18 30 18z m1-31c-9-1-16-2-21-6-15-12 16-87 48-127 32-40 63-57 89-66 27-9 43-2 51 8 7 11 9 27-3 54-11 27-57 93-94 114-25 15-51 23-70 23z m-365-15c0 0 17-59 21-83 3-24 8-90 8-90 42 39 143 147 150 167-66-13-102-17-130-7-27 10-49 13-49 13z m183-44c0 0-77-93-117-129l1-57c0 0 62 63 82 85 20 22 81 100 81 100l-47 1z m56-24c0 0-97-113-136-153 0 0-13-16-34-30-20-14-24-37-17-63 28-58 101-107 163-146 30-14 33-4 64 2 32 5 41 25 55 45 15 19 70 89 118 126-84 28-134 81-160 109-27 28-53 110-53 110z m-50-114c1 0 1 0 2-1 3-4-14-23-22-30-7-7-60-61-67-64-7-4-6-2-6-2 4 20 55 61 67 71 10 8 21 25 26 26z m-161-61c-48-27-67-66-67-79 1-13 14-82 85-143 72-62 160-97 185-87 25 10 67 49 70 73-43-18-77-21-99-14-22 7-126 59-154 122-28 63-30 100-20 128z m446-62c-5-1-12-5-24-15-19-14-102-103-115-122-5-4-2-6 5-17 6-12 15-7 27 7 11 14 102 109 115 121 13 12 6 19-1 24-2 1-4 2-7 2z m14-53c-3-1-9-6-13-10-8-5-52-52-79-89-5-6 0-8 10-1 9 7 70 67 80 89 4 9 4 12 2 11z m16-21c-9 0-18-25-41-59 0 0-15-20-39-32-23-12 4-33 21-45 18-12 102-69 121-100 19-30 28-24 38-11 10 13 20 66 23 91 2 25-38 46-58 69-21 24-49 78-61 86-1 1-2 1-4 1z m162-200c-13 1-22-15-32-52-8-33-11-61 5-70 15-10 32-18 32 13 0 32 13 83 15 86 3 3 3 16-14 22-2 1-4 1-6 1z m42-35c-27-116-15-131-9-131 6 0 66 60 66 60 0 0-12 10-25 22-13 12-32 49-32 49z" horiz-adv-x="1000" />

<glyph glyph-name="profession-tempest" unicode="&#xe837;" d="M428 729c-50-1-92-11-110-15-37-7-157-52-178-202 55 124 110 144 189 161 80 17 132-15 132-15 0 0-41 2-84-5-42-8-84-44-84-44 0 0 83 20 178 20 94 0 129-73 144-119 15-46 21-164-110-146l42 31c0 0-23-7-38 10 3 24 3 51-6 71-21 50-79 91-169 61-89-29-164-89-196-222-17-71 5-134 34-183 25-43 55-74 67-87 25-29 124-111 264-54-134-14-179 23-234 83-55 61-53 122-53 122 0 0 19-36 47-70 28-33 80-51 80-51 0 0-59 62-107 144-47 82-1 148 32 184 32 36 131 101 181-21l-47 20c0 0 17-16 10-38-23-9-46-22-59-40-33-44-39-114 31-177 71-63 160-98 291-59 70 20 114 72 142 121 24 43 36 85 41 102 13 36 35 162-85 255 79-109 70-167 45-244-25-78-79-107-79-107 0 0 22 34 37 75 15 41 4 96 4 96 0 0-24-83-71-165-48-82-128-75-175-65-48 10-154 64-72 168l6-51c0 0 5 22 28 28 19-15 42-29 64-31 54-7 118 23 137 115 20 93 5 187-94 282-52 50-119 62-175 62z" horiz-adv-x="1000" />

<glyph glyph-name="profession-thief" unicode="&#xe838;" d="M181 695c-5 0-11-2-15-6l-35-35c-8-8-8-22 0-30l1-1c16-14 33 5 42-4 8-8 9-15 17-34 9-20 37-58 62-83l0 0 66-65-3-20-79-79c-3-3-3-7 0-10l14-14c3-3 8-3 10 0l64 64 54-21 23-24-75-75c-19 11-42 18-67 18-74 0-135-61-135-135 0-75 61-136 135-136 75 0 136 61 136 136 0 23-6 45-17 64l76 76 212-213 149-63-64 148-212 213 53 53-52 53-54-54-24 24-20 53 64 64c2 3 2 7 0 10l-15 14c-2 3-7 3-10 0l-79-79-19-2-65 65-1 0c-25 25-63 53-82 62-20 8-27 9-35 17-9 9 11 26-3 42l-2 1c-4 4-9 6-15 6z m537-49c-2 0-4-1-5-2l-142-143 52-52 52 52 0-11a18 18 0 0 1 6-13l22-23-10-10a18 18 0 0 1 0-26l49-49a18 18 0 0 1 25 0l24 24a18 18 0 1 1-25 25l-11-11-24 24 10 11a18 18 0 0 1 0 25l-30 30 0 10 22 21 9 0 30-30a18 18 0 0 1 26 0l10 10 24-24-11-11a18 18 0 1 1 25-25l24 24a18 18 0 0 1 0 25l-49 49a18 18 0 0 1-25 0l-11-10-23 23a18 18 0 0 1-12 5l-12 0 27 27c3 3 3 8 0 11l-42 42c-1 1-3 2-5 2z m-157-154l-11-11 52-52 12 11-53 52z m-301-271c45 0 81-36 81-80 0-45-36-81-81-81-44 0-80 36-80 81 0 44 36 80 80 80z" horiz-adv-x="1000" />

<glyph glyph-name="profession-warrior" unicode="&#xe839;" d="M0 689c0 0 28-86 109-204-36 6-81 39-81 39 0 0 48-93 134-144-18-13-39-10-39-10 0 0 51-48 148-57 0-143 2-148 41-197 40-50 90-77 150-104 0 278 12 292-9 312-19 18-65 8-94 11-29 1-23 32-3 38 19 5 130 38 144 42 14-4 125-37 144-42 20-6 26-37-3-38-29-3-75 7-94-11-21-20-8-34-8-312 59 27 110 54 149 104 39 49 41 54 41 197 97 9 148 57 148 57 0 0-21-3-39 10 86 51 134 144 134 144 0 0-45-33-81-39 81 118 109 204 109 204 0 0-60-80-190-122-8-48-41-61-81-75l0 43c0 0-164 55-179 81-14 26-13 68-13 68l-22 0-30 0-22 0c0 0 1-42-13-68-14-26-179-81-179-81l0-43c-40 14-73 27-80 75-131 42-191 122-191 122z" horiz-adv-x="1000" />

<glyph glyph-name="ui-archetype" unicode="&#xe83a;" d="M120 756l0-595 136 0-1 123 0 0 0 1 2 169 0 20 17 10 147 86 0 0 0 0 148 84 18 9 17-10 110-62 0 165-594 0z m467-134l-148-83-147-85-1-170 1-169 145-87 148-84 147 84 147 85 1 169 0 170-146 86-147 84z" horiz-adv-x="1000" />

<glyph glyph-name="ui-arenanet" unicode="&#xe83b;" d="M500 798c-247 0-448-200-448-448 0-247 201-448 448-448 248 0 448 201 448 448 0 248-200 448-448 448z m276-254l0-64c-259-5-404-28-588-123l0 7-37 46c196 102 357 129 625 134z m0-114l0-243-100 0 0 82c0 39-29 71-65 71-36 0-65-32-65-71l0-82-107 0 0 82c0 39-29 71-65 71-36 0-65-32-65-71l0-82-121 0 0 114c189 102 322 125 588 129z" horiz-adv-x="1000" />

<glyph glyph-name="ui-arrow-bottom" unicode="&#xe83c;" d="M172 296l328-328 328 328-189 0 0 436-278 0 0-436-189 0z" horiz-adv-x="1000" />

<glyph glyph-name="ui-arrow-left" unicode="&#xe83d;" d="M446 678l-328-328 328-328 0 189 436 0 0 278-436 0 0 189z" horiz-adv-x="1000" />

<glyph glyph-name="ui-arrow-right" unicode="&#xe83e;" d="M554 678l328-328-328-328 0 189-436 0 0 278 436 0 0 189z" horiz-adv-x="1000" />

<glyph glyph-name="ui-arrow-top" unicode="&#xe83f;" d="M172 404l328 328 328-328-189 0 0-436-278 0 0 436-189 0z" horiz-adv-x="1000" />

<glyph glyph-name="ui-bag" unicode="&#xe840;" d="M260 657c-61 0-17-3-17-121 0-119 81-158 114-158l55 0 68 0c-5-3-8-7-11-11l-24-35-1-1c-6-9-8-19-8-28 0-9 2-19 8-28 1-2 2-3 2-3l23-33c6-9 17-17 31-17 13 0 23 7 30 15l0 0a14 14 0 0 1 1 2 14 14 0 0 1 0 0l25 36c6 9 8 19 8 28 0 9-2 19-8 28l-25 36 0 0a14 14 0 0 1 0 0 14 14 0 0 1-1 2 14 14 0 0 1-1 0c-2 3-5 6-9 9l68 0 55 0c33 0 114 39 114 158 0 118 44 121-17 121l-95 0-290 0-95 0z m-30-113c-42-53-44-160-56-218-11-58-31-154 22-221 53-67 100-62 152-62l304 0c51 0 99-5 152 62 53 67 33 163 22 221-11 58-14 165-56 218l3-6c20-79 15-106-1-149-15-43-69-58-99-59-1 0-2 0-2 0l-66 0c3-9 4-18 4-27 0-16-4-32-14-47l-42-61a24 24 0 0 0 0 0 24 24 0 0 0-3-3l0 0c-11-14-28-26-50-26-24 0-42 14-53 29l-38 56c0 0-2 1-4 5a24 24 0 0 0 0 0c-10 15-14 31-14 47 0 9 1 18 4 27l-66 0c0 0-1 0-2 0-30 1-84 16-99 59-16 43-21 70-1 149l3 6z" horiz-adv-x="1000" />

<glyph glyph-name="ui-bank" unicode="&#xe841;" d="M673 796c-19 0-94-3-138-36-49-37-91-99-91-99 0 0-29 80-140 105 10-90 78-145 78-145l144-36c0 0 91 37 128 97 38 60 23 114 23 114 0 0-2 0-4 0z m-296-205c0-80-112-161-153-212-40-51-104-151-104-295 0-144 58-180 203-180l390 0c93 0 167 10 167 135 0 125 9 204-136 314-144 110-177 72-200 131-22 58-4 69-52 81-48 12-115 26-115 26z" horiz-adv-x="1000" />

<glyph glyph-name="ui-blc-balance" unicode="&#xe842;" d="M464 717c-91-109-216-189-359-224l19-77c1 0 1 0 1 0l-79-231c-2 1-5 2-7 3l-39-58c51-23 109-36 170-36 61 0 119 13 170 36l-39 58c-3-2-7-3-11-4l-88 255c91 33 174 83 244 146l0-468-183-134 180 0 100 0 180 0-183 134 0 479c81-28 166-42 251-41l-85-248c-2 1-5 2-7 3l-39-58c51-23 109-36 170-36 61 0 119 13 170 36l-39 58c-4-2-7-3-11-4l-87 253c9 1 18 2 27 3l-11 79c-141-20-287 6-415 76z m364-179l83-243c-26-5-53-8-81-8-30 0-58 3-85 9l83 242z m-660-122l83-243c-26-6-53-9-81-9-29 0-58 4-85 10l83 242z" horiz-adv-x="1000" />

<glyph glyph-name="ui-blc-gem" unicode="&#xe843;" d="M193 629l-161-176 217-177 251-204 251 204 217 177-160 176-124 0-368 0-123 0z" horiz-adv-x="1000" />

<glyph glyph-name="ui-blc-lion" unicode="&#xe844;" d="M558 850c-34-12-58-36-75-36-15 0-27 9-38 17 4-12 5-21 5-21 0 0-4-3-19 20-5 9-14 14-25 17 9-21 7-32 5-36-2-4-13 3-26 13-13 9-21 2-26 0-2 0-8-4-14-8 11-3 28-8 41-18 22-16 21-29 21-29 0 0-45 29-101 31-19 0-30-1-36-2 3-2 7-3 13-5 13-3 75-39 90-49 14-9 29-41 29-41 0 0-17 23-24 23-7 0-94 38-119 42-12 2-23 0-31-2 1-2 3-4 5-5 11-10 6-18 6-18 0 0 10-2-42 3-12 1-23 0-33-3 9-10 17-19 21-23 12-12 40-6 46-38-44 3-55-6-89-24-25-12-33-43-37-60 31 2 29-9 37-11 9-3 36 21 50 25 15 5 33 3 33-6 0-8-18-15-34-17-17-3-52-25-99-47-11-5-19-11-23-18 36-1 69-1 76-1 16 0 15-6 11-14-4-9-25-15-37-31-8-12-11-26-7-41 10 9 18 16 21 20 13 17 42 25 62 32 20 8 31 20 47 32 16 12 50 31 88 38 6 1 12 1 18 1 3 20 10 53 18 67 12 19 19 14 26 28 0-6 10-11 37-17 16-4 39-6 56-7-2-40-11-70-14-77-4-8-6-15 21-15 27 0 50-2 40 12-9 12-15 54-14 80 13 0 28 1 39 0 26 0 51 15 57 22 0-4 12-14 22-28 5-9 10-18 14-25 17 1 39 0 54-3 25-5 27-20 27-20 0 0-20 3-46 4-26 0-35-10-32-19 3-10 34-15 42-17 8-1 65-26 75-39 9-12 38-14 47-16 10-2 45-30 65-50 20-19 16 5 1 30-16 24-45 34-60 38-15 4-18 17-18 17 0 0 27 0 66 0 15 0 38 1 60 2-17 12-32 22-39 25-17 6-125 48-137 54-12 5 8 13 20 12 13-1 49-17 61-26 12-9 24 9 43 18 20 10 4 27-24 49-29 22-57 28-76 27-19-1 11 24 37 35 7 3 15 14 23 27-54 0-84-8-84-8 0 0-2 6 7 15 3 5 5 9 6 17-33-4-65-13-86-21-29-11-62-26-62-26 0 0 9 33 51 48 18 7 48 11 77 15-10 9-29 15-75 10-46-6-59-24-78-30-18-6-3 22 18 34 14 7 34 9 48 9 0 1-1 1-1 2-10 11-23 17-36 16-13 0-48-22-48-22 0 0 9 16 15 24 7 8 0 12-7 12-6-1-18 1-35-44-3 6-4 21 0 33 2 6 5 12 9 18z m-317-24c-8-1-16-11-24-20-6-7-5-16 0-25 6 5 13 10 17 13 11 6 30 6 31 6 1 0 1 0 1 1-2 4-6 11-14 20-3 4-6 5-9 5 0 0-1 0-2 0z m456-96c6 0 11-1 16-4 21-9 40-39 34-65-5-27-21-47-31-43-9 5-28 16-19 16 9 0 16-3 16 13 1 15 1 23-9 30-10 8-20 24-31 11-11-12-16-24-23-18-6 7-14 14-10 18 5 4 16 21 16 21 10 12 25 21 41 21z m-391-3c11-1 22-4 34-9 26-11 30-29 32-43 1-14-5-14-8-8-4 7-31 21-49 23-17 1-14-5-14-28 0-23 15-50 10-52-5-3-30-1-49 33-18 34-5 47 10 67 8 13 20 17 34 17z m286-123c-6 0-10-5-18-12-10-10-3-15 7-26 10-11 18-4 25 1 8 4 5 13 5 17 0 5-7 19-16 20-1 0-2 0-3 0z m-179-3c-3 0-11 0-20-10-9-10-5-19-3-22 2-3 15-7 19-6 5 1 17 11 21 17 3 5-2 11-7 18-2 2-7 4-10 3z m51-21c0 0-27-26-39-32-13-7-29-18-30-31-1-12 22-41 24-54 2-7 6-19 6-28 11 8 24 15 37 20 12 5 24 7 35 8-8 9-14 22-22 31-13 16-24 26-30 28-5 1 9 19 11 27 2 8 8 31 8 31z m93-16c0 0-1-20 7-30-11-8-26-21-35-35-5-8-14-28-20-37 18-1 33-8 41-12 6-4 17-11 28-19 3 5 5 11 7 15 5 10 10 31 19 55 9 23 0 27-4 31-4 3-20 12-43 32z m-203-28c-14-3-32-4-55-11-33-10-108-43-119-48-11-4-17-26-22-31-5-5-26-28-62-83-10-14-17-28-23-41 34 36 65 57 65 57 0 0-6-26-18-58 24 16 53 50 64 58 12 10 32 10 43 21 10 11 42 31 53 41 11 10 47 41 64 59 9 10 11 25 10 36z m324-18c-13-1-25-5-34-10-8-9 10-17 35-23 26-8 113-77 135-99 14-15 37-39 53-57 0 8 0 15 0 19 0 13-11 38-11 38 0 0 22-22 46-47 13-15 19-18 22-18-3 10-9 26-16 39-12 21-34 55-85 98-51 43-105 59-141 60-2 0-3 0-4 0z m-315-57c-16-5-33-10-40-13-15-5-123-89-139-100-16-11-12-9-12-46-1-36 12-61 18-78 7-16-2-30-6-40-2-3-3-12-5-21 12 3 24 7 31 12 23 16 53 96 58 113 5 16 42 86 55 101 8 8 25 42 40 72z m283 0c-1 0-2 0-3 0-3-6 0-21 6-44 7-32 23-50 59-92 37-41 54-86 58-125 5-39 24-28 38-32 14-4 22-22 22-22l4 37c0 0 49 10 64 21 8 5 15 27 19 45-22-4-40-13-50-21-16-14-19-5-34 12-14 18-8 71-15 94-7 24-37 56-53 73-15 17-73 43-103 52-4 2-8 2-12 2z m-90-39c-5 0-16-20-24-21-8 0-57 0-61 0-4 0-12 6-17 13-4 7-13 11-14 2-2-9 1-39-9-46-10-7-19-18-14-30 4-13 61-64 75-64 13 0 29-4 43 11 14 15 46 50 45 63-1 12-11 25-14 28-2 3-4 8-4 18 0 15-1 26-6 26z m-194-27c-13-12-29-29-35-38-7-11-32-49-38-67-5-18-4-29-11-42-7-13-19-23-16-58 3-32-19-53-24-95 29 12 35 30 47 56 13 28 19 73 22 91 2 18 20 68 24 78 4 9 24 41 28 64 1 4 2 7 3 11z m267-15c7-26 25-88 49-130 30-54 7-39 60-106 19-24 37-41 52-54-14 22-27 42-31 49-11 16-29 67-38 107-9 40-44 72-53 81-10 8-28 45-32 51-1 2-3 2-7 2z m-238-48c-2-28-4-62-3-77 1-28 19-77 28-99 9-22 32-84 32-84l15 154c-29 2-51 39-63 77-3 12-6 21-9 29z m-35-11c0-1-1-2-2-3-15-19-15-33-20-47-5-13-4-78-5-90-1-12-17-69-35-88-17-19-54-33-73-42-19-9 0-18 6-29 6-11 18 7 32 15 14 8 28 5 35-9 6-15-3-34-13-42-10-8-5-24 6-39 10-16 17-11 22-9 4 3 21 14 34 21 12 7 7 27 9 33 3 5 14 10 20 2 6-8 21-11 21-11 0 0-1 13-7 22-6 10-39 40-41 84 21-14 36-40 42-51 5-11 35-70 43-81 7-12 12-38 22-57 3-8 8-13 12-17-2 30-25 129-33 162-9 36-37 95-45 111-8 15-24 61-32 100-4 22-1 47 2 65z m264-1c-9-21-33-71-51-85-9-7-18-11-25-13 0-21 1-45 3-59 6-29 8-55 4-57-4-2-16-13-25 30-7 29-15 69-21 99-5-38-23-138-35-171-13-38-2-43 12-112 7-38 19-75 29-102 0 53 6 101 14 123 9 28 36 101 43 121 8 21 46 107 52 134 4 20 2 66 0 92z m35-74c-3-14-8-34-13-54-8-29-71-145-81-205-3-20-3-46-3-72 9 18 18 36 23 45 14 25 43 102 50 117 8 14 33 33 28 6-3-16-14-50-23-77 18 17 45 43 59 64 17 24 31 48 38 59-19 21-36 42-46 57-10 14-21 37-32 60z" horiz-adv-x="1000" />

<glyph glyph-name="ui-blc-lion-o" unicode="&#xe845;" d="M552 850a48 48 0 0 1-15-3c-22-7-39-18-49-24-2-2-3-2-5-2-1 1-2 1-4 3a48 48 0 0 1-22 8c-9 6-18 11-27 13a48 48 0 0 1-52-15c-2 0-4 0-6-1-15-3-26-9-14-5-12-4-11-5-15-7-3-1-6-3-9-5a48 48 0 0 1-9-7c-4 0-7 0-10 0-1 1-2 1-3 2-8 10-24 20-41 21-1 1-4 1-9 0-23-2-33-12-40-19-7-6-11-12-14-15-10-11-15-27-15-40-3-1-5-1-8-2a48 48 0 0 1-25-78c-2-1-4-2-5-2-47-24-55-69-59-88a48 48 0 0 1 1-25c-10-7-19-14-26-24a48 48 0 0 1 31-75c-3-14-3-29 0-43a48 48 0 0 1 5-11c-5-7-7-9-12-17-11-16-19-31-25-46a48 48 0 0 1 65-62 48 48 0 0 1 23-5c4-25 11-42 15-51 0-1 0 0-2-5-9-18-7-22-9-31a48 48 0 0 1 54-56c0-2-1-5-1-7a48 48 0 0 1 0-10c-8-6-15-14-20-27-7-20 2-40 7-48 10-16 14-20 10-11 3-7 10-15 20-21 6-3 12-5 18-6 0-2 0-4 0-6 4-17 10-28 17-39 9-12 24-27 45-30 22-3 38 7 39 8 11 6 22 14 31 18 6 4 10 8 14 12 1-2 2-5 3-9 3-10 7-22 15-36 5-12 13-21 19-27a48 48 0 0 1 32-14 48 48 0 0 1 93 18c0 4 1 8 1 11a48 48 0 0 1 36 26c9 16 17 32 21 39 2 5 5 11 8 17a48 48 0 0 1 32 13c17 16 42 39 60 65 4 6 5 9 9 15 2-2 4-4 6-6a48 48 0 0 1 79 41 48 48 0 0 1 33 42c11 2 23 5 40 17 23 15 24 28 28 39 4 11 7 21 9 31a48 48 0 0 1-7 38 48 48 0 0 1 16 53c-3 10-9 27-18 43-3 6-7 13-12 21 0 0 1 1 1 2 7 14 6 22 6 28-1 13-4 22-7 30a48 48 0 0 1 18 87c-7 5-15 11-22 15-1 1-2 1-3 2 2 4 4 9 5 14 5 20-2 37-8 47-12 20-24 28-39 39-3 3-6 4-9 6 3 4 5 8 7 12a48 48 0 0 1-42 73c-8 0-15-1-23-1a48 48 0 0 1-21 19 48 48 0 0 1-7 6c-17 15-44 23-78 22-18 18-40 27-64 27-13 11-25 13-36 12a48 48 0 0 1-25 7z m1-48c-4-6-7-11-9-17-4-10-3-24 0-30 16 41 26 40 32 40 6 1 12-3 7-10-6-7-14-22-14-22 0 0 31 20 43 20 11 0 24-5 33-15 0 0 0-1 1-1-13-1-32-2-44-9-19-11-32-36-16-31 17 6 29 22 71 27 41 6 58-1 67-8-26-4-53-8-69-14-39-14-46-43-46-43 0 0 29 13 56 24 19 7 47 15 77 18-1-7-2-11-6-15-7-8-5-14-5-14 0 0 27 7 75 7-7-11-14-21-21-24-23-10-50-32-33-31 18 0 43-5 69-25 25-20 39-35 22-44-17-9-29-24-40-16-11 7-43 22-54 23-12 1-30-7-19-11 11-5 109-43 125-49 5-2 19-11 34-22-20-1-40-2-54-2-35 0-60 0-60 0 0 0 4-11 17-15 13-4 40-13 54-35 13-22 17-44-1-26-18 18-50 43-58 44-9 2-34 4-43 15-9 11-60 34-68 35-7 2-35 7-38 15-3 9 5 18 29 17 24 0 42-3 42-3 0 0-2 14-25 18-13 3-33 3-48 3-4 6-9 15-13 22-9 13-20 22-20 26-5-7-28-20-52-20-10 0-23 0-35 0 0-24 5-62 13-72 9-13-12-12-36-12-24 0-23 7-19 14 3 6 10 34 13 70-15 1-36 2-51 6-24 5-34 10-34 15-6-13-12-8-23-25-7-13-13-43-17-60-4 0-10 0-16-1-34-6-65-24-79-34-14-11-24-22-43-29-18-7-44-14-55-29-3-4-10-10-20-19-3 14 0 27 7 38 10 14 30 19 33 27 4 8 5 13-10 13-6 0-36 1-68 1 4 6 10 12 21 17 42 20 74 39 89 42 14 2 30 8 30 16 0 7-16 9-29 5-13-4-38-26-46-23-6 2-5 12-33 10 3 15 11 43 34 54 31 16 40 24 80 22-5 29-30 23-42 34-3 4-10 12-19 21 10 2 20 3 31 2 46-4 37-2 37-2 0 0 5 7-6 16-1 1-2 3-4 5 7 2 17 3 29 1 22-3 100-38 107-38 6 0 22-21 22-21 0 0-14 29-27 38-13 9-69 42-81 45-6 1-9 2-12 3 6 2 15 3 33 2 51-1 91-28 91-28 0 0 1 13-19 27-12 8-27 13-37 16 5 3 11 7 13 7 4 2 12 8 23 0 12-9 22-15 24-11 1 3 3 13-5 32 10-3 18-8 23-16 13-20 17-17 17-17 0 0-1 7-4 18 9-7 20-15 34-15 15 0 37 22 68 33z m-286-22c0 0 1 0 1 0 3 0 5-1 8-4 7-8 11-15 12-19 0 0 0-1 0-1-1 0-18 0-28-5-4-2-10-7-16-12-4 8-5 17 0 23 7 8 15 17 23 18z m411-87c-14 0-28-8-37-19 0 0-10-15-14-19-4-4 3-10 9-16 4-4 7 0 12 6 0 0 0 0-1 0 0 0-1 1-1 1 0 1 0 0 0 1a48 48 0 0 1-1 1 48 48 0 0 1-1 1c1 0 1 0 1 0 1-1 2-2 3-4 2 3 5 7 8 10 10 12 19-3 28-9 10-7 9-14 9-28-1-14-7-11-15-11-8 0 9-11 17-15 9-3 24 15 29 38 4 24-13 52-31 60-5 2-10 3-15 3z m-358-3c-10-1-20-5-26-15-13-18-25-30-9-60 17-31 40-33 44-30 5 2-9 26-9 47 0 21-2 26 13 25 16-2 41-14 44-20 3-7 9-6 7 6-1 13-5 29-29 39-10 5-21 8-30 8-2 0-3 0-5 0z m263-110c1 0 2-1 3-1 8-1 15-13 15-17-1-4 2-13-5-16-7-4-13-11-22-1-10 10-16 14-7 24 7 6 11 10 16 11z m-161-3c3 0 7-1 9-4 4-5 9-10 5-16-3-5-14-14-18-15-4-1-15 3-17 6-2 3-6 10 3 19 8 10 15 10 18 10z m45-20c0 0-5-20-7-27-1-7-14-23-9-25 5-1 15-11 27-25 7-8 12-20 19-28-9 0-20-2-32-7-11-5-23-11-33-19 0 9-4 20-5 26-2 12-22 38-22 49 1 11 16 22 27 27 11 6 35 29 35 29z m84-13c21-19 36-27 39-30 4-3 12-7 4-28-8-21-13-40-17-49-2-4-4-9-6-14-10 7-21 14-26 17-7 4-20 10-37 11 5 8 13 26 18 33 9 13 22 25 32 32-7 9-7 28-7 28z m-183-26c1-10 0-23-9-32-15-17-47-44-58-54-10-9-38-27-48-37-9-9-28-10-39-19-9-7-35-38-58-52 12 29 17 52 17 52 0 0-28-19-58-51 4 11 11 24 20 37 33 49 52 70 56 74 4 5 10 25 20 29 10 4 78 34 107 43 21 6 38 7 50 10z m293-17c1 0 2 0 3 0 33 0 81-15 128-53 46-39 66-70 76-89 7-12 12-26 15-35-2 0-8 3-20 16-21 22-42 42-42 42 0 0 11-22 11-34 0-3 0-10 0-17-15 16-35 38-49 51-20 20-97 83-122 90-21 6-38 13-31 21 9 4 19 8 31 8z m-285-51c-13-27-29-58-35-65-13-13-46-77-50-91-5-15-33-88-53-103-7-4-17-7-28-10 2 8 3 16 5 19 3 9 11 21 5 37-6 15-17 37-16 70 0 33-4 31 11 41 14 10 112 86 125 91 6 2 22 7 36 11z m256 0c3 0 7 0 11-1 27-9 79-32 93-47 14-16 41-45 47-66 7-21 2-69 15-85 12-16 16-23 30-11 9 7 25 15 45 19-4-17-10-36-17-41-14-10-58-19-58-19l-3-34c0 0-8 17-21 20-12 4-29-6-33 30-5 35-20 76-53 113-33 37-47 54-54 83-5 21-7 34-5 39 1 0 2 0 3 0z m-81-35c4 0 5-10 5-24 0-9 2-13 4-16 2-3 12-14 13-25 0-12-29-43-42-57-12-13-26-10-38-10-12 0-64 46-68 57-5 12 4 22 13 28 9 7 6 34 7 42 2 8 10 4 14-2 4-7 11-12 15-12 4 0 48 0 55 0 7 1 17 19 22 19z m-176-25c-1-3-2-6-2-10-4-20-22-49-26-57-4-9-20-54-22-70-2-17-7-57-19-83-11-23-16-40-43-51 5 38 24 57 22 86-3 32 9 41 15 53 6 11 5 21 10 38 5 16 28 50 34 61 5 7 20 23 31 33z m242-13c3 0 5 0 6-2 3-5 20-38 29-46 8-8 40-37 48-73 8-36 24-82 34-97 4-6 15-24 28-44-14 12-30 27-47 49-48 60-27 47-54 96-21 38-38 93-44 117z m285-7c6-2 4-3 0 0z m-500-36c2-7 5-16 8-27 11-34 30-68 57-69l-14-139c0 0-21 55-29 75-8 20-24 64-26 90 0 14 2 44 4 70z m-32-10c-3-16-5-39-1-59 7-35 21-77 28-91 7-14 33-67 41-100 7-29 28-119 29-146-3 4-7 9-11 15-9 17-12 41-20 52-7 10-33 63-38 73-5 10-19 34-38 47 2-41 31-68 37-77 5-8 6-19 6-19 0 0-13 3-19 10-5 6-15 2-17-3-2-5 2-23-9-29-11-7-27-17-31-19-4-2-10-6-20 8-9 13-14 28-5 35 9 7 17 24 12 38-6 13-19 15-32 8-13-7-23-23-28-13-6 9-23 18-6 26 17 8 50 20 66 38 16 17 30 68 32 79 1 11 0 70 4 82 5 12 5 25 18 42 1 1 2 2 2 3z m238-1c2-23 4-65 0-83-5-25-40-102-46-121-7-19-31-85-40-110-6-20-12-63-12-111-9 25-20 58-26 92-12 63-23 67-11 102 11 30 27 120 32 154 5-27 12-63 18-89 9-39 19-30 23-28 3 2 2 26-3 52-2 12-3 34-3 53 6 2 14 6 23 12 16 13 37 58 45 77z m32-67c10-21 20-41 29-54 9-13 24-33 41-52-5-9-18-31-34-53-12-19-36-42-53-57 8 24 18 54 21 68 5 25-19 8-25-5-7-13-34-83-46-105-4-9-12-24-21-41 0 23 1 47 4 65 8 54 65 159 72 186 5 17 9 35 12 48z" horiz-adv-x="1000" />

<glyph glyph-name="ui-blc-lion-small" unicode="&#xe846;" d="M415 754c-4-1-10-4-18-13-21-26-21-24-41-24l-92 0c-13 0-50-16-51-50 0-35 9-47-18-51-28-4-105-31-89-54 16-22 59-56 59-63 0-7-60-67-52-154 43-8 74 2 94 30-12-67-3-228 53-264 36 23 55 38 55 38 0 0 3-24 55-76 26-27 60-56 95-91 6-6 12-11 18-17 0-1 1-2 2-3 5-5 10-10 15-16 5 6 10 11 15 16 1 1 2 2 3 3 4 4 8 9 12 13 2 1 3 3 5 4 2 2 4 4 6 6 32 32 64 60 89 85 52 52 55 76 55 76 0 0 20-15 55-38 56 36 65 197 53 264 20-28 51-38 94-30 9 87-52 147-52 154 0 7 43 41 59 63 16 23-61 50-89 54-27 4-18 16-18 51-1 34-38 50-51 50l-92 0c-20 0-20-2-41 24-8 9-14 12-18 13-8 0-12-9-15-11-4-4-20-18-41-18l-58 0c-21 0-37 14-41 18-3 2-7 11-15 11z m-82-101c0 0-40-58-56-86-16-27-32-97-32-129 0-17 2-22 4-25 3-2 10-4 21-8 13-5 31-17 50-32 19-16 38-34 50-51 17-27 28-59 32-95 14 6 39 18 50 32 17 18 25 30 25 55l0 32c-1 1-2 1-3 2 0 0 0 0 0 0-9 7-17 14-25 20 0 0 0 1 0 1-16 13-28 25-34 33-15 25 0 30 18 31 6 0 13 0 18 0l4 0 90 0 4 0c5 0 12 0 18 0 18-1 33-6 17-31-5-8-17-20-33-33 0 0 0-1 0-1-8-6-16-13-25-20 0 0 0 0 0 0-1-1-2-1-3-2l0-32c0-25 8-37 25-55 11-14 37-26 50-32 4 36 15 68 32 95 12 17 31 35 50 51 19 15 38 27 50 32 12 4 18 6 21 8 2 3 4 8 4 25 0 32-16 102-32 129-16 28-56 86-56 86 61-59 109-142 110-215 0-20-1-34-9-42-9-8-21-7-30-11-8-3-27-15-45-29-18-15-36-32-45-46-19-29-30-69-30-112 0-26-14-43-30-52-16-8-33-9-43-9l-13 0-64 0-13 0c-10 0-27 1-43 9-16 9-30 26-30 52 0 43-11 83-30 112-9 14-27 31-45 46-19 14-37 26-45 29-9 4-22 3-30 11-8 8-9 22-9 42 0 73 49 156 110 215z m13-88c5 1 9 0 13-3 16-10 48-45 48-45 0 0-16-28-35-28-20 0-23 5-42 11-18 6-47 20-29 38 14 14 31 26 45 27z m305 0c14 1 33-12 48-27 19-18-11-32-29-38-19-6-22-11-42-11-19 0-35 28-35 28 0 0 32 35 48 45 3 2 6 3 10 3z m-151-292c-4-4-11-10-21-16-28-18-62-34-76-40 0-6 1-13 1-19 0-19 7-27 18-33 11-6 25-7 33-7l13 0 64 0 13 0c8 0 23 1 33 7 11 6 19 14 19 33 0 6 0 13 0 19-14 6-48 22-76 40-10 6-16 12-21 16z" horiz-adv-x="1000" />

<glyph glyph-name="ui-blc-trade" unicode="&#xe847;" d="M387 850l-234-234 234-234 0 173 280 0 0-175 134 0 0 175 0 122-134 0-280 0 0 173z m-188-530l0-175 0-122 135 0 279 0 0-173 234 234-234 234 0-173-279 0 0 175-135 0z" horiz-adv-x="1000" />

<glyph glyph-name="ui-chevron-bottom" unicode="&#xe848;" d="M976-126l-952 0 0 952 952 0 0-952z m-143 660l-333-179-334 179 186-258 147-205 1 0 148 205 185 258z" horiz-adv-x="1000" />

<glyph glyph-name="ui-chevron-left" unicode="&#xe849;" d="M24 826l0-952 952 0 0 952-952 0z m660-143l-179-333 179-334-258 186-205 147 0 1 205 148 258 185z" horiz-adv-x="1000" />

<glyph glyph-name="ui-chevron-right" unicode="&#xe84a;" d="M976 826l0-952-952 0 0 952 952 0z m-660-143l179-333-179-334 258 186 206 147-1 1-205 148-258 185z" horiz-adv-x="1000" />

<glyph glyph-name="ui-chevron-top" unicode="&#xe84b;" d="M976 826l-952 0 0-952 952 0 0 952z m-143-660l-333 179-334-179 186 258 147 206 1-1 148-205 185-258z" horiz-adv-x="1000" />

<glyph glyph-name="ui-collections" unicode="&#xe84c;" d="M54 761l0-179 178 0 0 179-178 0z m357 0l0-179 178 0 0 179-178 0z m357 0l0-179 178 0 0 179-178 0z m-714-322l0-178 178 0 0 178-178 0z m357 0l0-178 178 0 0 178-178 0z m357 0l0-178 178 0 0 178-178 0z m-714-321l0-179 178 0 0 179-178 0z m357 0l0-179 178 0 0 179-178 0z m357 0l0-179 178 0 0 179-178 0z" horiz-adv-x="1000" />

<glyph glyph-name="ui-contacts" unicode="&#xe84d;" d="M500 791c-80 0-145-44-145-97 0 0 0-1 0-1l0-157c0-75 92-213 145-213 53 0 145 137 145 210l0 160c0 0 0 1 0 1 0 53-65 97-145 97z m-317-195c-52 0-94-26-94-59 0 0 0 0 0 0l0-95c0-45 60-129 94-129 35 0 95 83 95 127l0 97c0 0 0 0 0 0 0 33-42 59-95 59z m634 0c-53 0-95-26-95-59 0 0 0 0 0 0l0-97c0-44 60-127 95-127 34 0 95 84 95 129l0 95c0 0 0 0 0 0 0 33-43 59-95 59z m-415-226c0-46-2-89-6-96-10-15-156-64-208-82-52-18-57-57-55-104 1-16-11-72-25-139 119-25 252-40 392-40 141 0 273 15 392 40-14 67-25 123-25 139 2 47-3 86-55 104-52 18-198 67-208 82-4 7-5 49-6 95-12-15-25-29-38-41-18-16-37-28-60-28-23 0-42 13-60 29-13 11-26 25-38 41z m-276-40c-23-22-51-48-72-70-40-40-31-63-31-133 0-41-7-81-23-144 29-3 59-6 90-8 5 25 10 48 14 67 4 24 6 44 6 46-1 24-1 48 9 72 10 23 31 43 62 53 26 9 75 26 119 42 4 2 8 4 12 6-21 21-49 47-72 68-5-6-11-11-16-15-13-10-25-18-41-18-15 0-28 8-40 18-6 4-11 10-17 16z m748 0c-6-6-11-12-17-16-12-10-25-18-40-18-16 0-28 8-40 18-6 4-12 9-17 15-23-21-51-47-72-68 4-2 8-4 12-6 43-15 89-31 116-40l4-2c30-10 51-30 61-53 10-24 10-48 9-72 0-2 2-22 7-46 3-19 8-42 13-67 31 2 61 5 90 8-16 63-23 103-23 144 0 70 10 93-31 133-21 22-49 48-72 70z" horiz-adv-x="1000" />

<glyph glyph-name="ui-crafting" unicode="&#xe84e;" d="M439 774l-374-285 122-160 516 395-264 50z m31-255l-79-61 243-282c0 0 164-248 182-250 18-2 109 60 118 93 9 33-79 76-154 146-75 71-243 253-270 291-11 17-26 40-40 63z" horiz-adv-x="1000" />

<glyph glyph-name="ui-custom-arena" unicode="&#xe84f;" d="M556 687l0-76 0-80c100 0 181-81 181-181 0-100-81-181-181-181l0-80 0-76c23 0 45 3 67 7l0 77c23 7 45 16 64 27l55-55c38 25 70 58 95 95l-55 55c12 20 21 41 27 64l77 0c5 22 7 44 7 67 0 23-2 45-7 67l-77 0c-6 23-15 44-27 64l55 55c-25 37-57 70-95 95l-55-55c-19 12-41 21-64 27l0 77c-22 5-44 7-67 7z m-102-1c-200-26-347-113-347-216 0-4 1-7 1-10 0-2 0-4 1-6l26-232 0-1c4-43 34-83 81-116l0 51c0 40 28 72 63 72 35 0 63-32 63-72l0-111c34-11 72-20 112-26l0 281c-170 22-294 90-294 170 0 80 124 147 294 170l0 46z m0-112c-72-12-131-52-162-106 40 27 96 48 162 61l0 45z m102-111l0-58c31 0 55-25 55-55 0-30-24-55-55-55l0-58c63 0 114 50 114 113 0 63-51 113-114 113z" horiz-adv-x="1000" />

<glyph glyph-name="ui-dye" unicode="&#xe850;" d="M733 796c-6 0-12-3-19-9-28-28-70-116-94-101-23 14-66 74-78 98-11 23-31 8-37 1-6-7-49-27-38-57 38-57 79-112 124-163-9-8-15-14-21-20 0 0 0 0 0 0-1-1-5-5-7-7-2-1-5-4-6-5-10-9-23-21-40-38-82-79-230-223-243-234-18-15-67-22-46 20 21 42 95 150 233 285-279-226-275-324-262-340 14-16 39-42 121 35 81 77 299 271 299 271l1 1c15-18 32-34 48-51 1 0 1 0 1-1 16-11 32-16 43-7 31 25 84 48 56 72-29 23-99 62-83 79 16 17 83 58 96 71 14 12 39 30 14 53-19 17-40 48-62 47z m-494-665c-75-137-35-227 11-227 45 0 57 50 28 99-30 49-39 93-39 128z" horiz-adv-x="1000" />

<glyph glyph-name="ui-exit" unicode="&#xe851;" d="M582 768c-143 0-267-78-335-195l65-58c5 11 11 21 18 31l0-155 43 0 0 206c54 53 128 85 209 85 82 0 156-32 210-85l0-643a21 21 0 0 1 43 0l0 592c6-10 13-20 18-31l65 58c-68 117-193 195-336 195l0 0z m-70-324l0-89-430 0 0-147 430 0 0-89 163 163-163 162z m-182-271l0-219a21 21 0 0 1 43 0l0 219-43 0z" horiz-adv-x="1000" />

<glyph glyph-name="ui-exit-desktop" unicode="&#xe852;" d="M500 768c-143 0-268-78-335-195l64-58c6 11 12 21 19 31l0-592a21 21 0 1 1 42 0l0 643c55 53 129 85 210 85 81 0 155-32 210-85l0-643a21 21 0 1 1 42 0l0 592c7-10 13-20 19-31l64 58c-67 117-192 195-335 195z m0-124c-65 0-124-23-171-63l0-49 0-36 0-515c61 11 124 17 191 17 52 0 102-4 151-11l0 509 0 39 0 46c-47 40-106 63-171 63z" horiz-adv-x="1000" />

<glyph glyph-name="ui-friends" unicode="&#xe853;" d="M623 723c-85 0-154-90-154-201 0-77 33-144 82-177 2-4 2-8 2-11 0-25-1-23-91-92-90-68-87-103-87-190 0-87 64-75 64-75l175 0 19 0 174 0c0 0 64-12 64 75 0 87 3 122-86 190-90 69-92 67-92 92 0 3 1 7 2 11 49 33 83 100 83 177 0 111-69 201-155 201z m-301-62c-66 0-120-70-120-157 0-60 26-112 64-138 1-4 1-6 1-9 0-19-1-18-71-71-70-53-67-81-67-148 0-68 50-59 50-59l136 0 14 0 28 0c0 31 2 56 11 81 12 33 37 61 83 97 7 5 11 8 17 12-6 6-13 11-20 17-70 53-71 52-71 71 0 3 0 5 1 9 38 26 64 78 64 138 0 87-54 157-120 157z" horiz-adv-x="1000" />

<glyph glyph-name="ui-friends-blocked" unicode="&#xe854;" d="M500 700c-90 0-179-34-248-102-136-137-136-359 0-496 137-136 359-136 496 0 136 137 136 359 0 496-68 68-158 102-248 102z m0-99c48 0 96-14 138-42l-347-347c-65 97-54 229 32 315 49 49 113 74 177 74z m209-113c65-97 54-229-32-315-86-86-218-97-315-32l347 347z" horiz-adv-x="1000" />

<glyph glyph-name="ui-friends-fans" unicode="&#xe855;" d="M319 677c-75 0-135-79-135-176 0-67 29-126 72-156 1-3 2-6 2-9 0-22-2-20-80-80-79-60-76-91-76-167 0-76 56-65 56-65l153 0 16 0 153 0c0 0 56-11 56 65 0 76 3 107-76 167-78 60-80 58-80 80 0 3 1 6 2 9 43 30 72 89 72 156 0 97-60 176-135 176z m382-203l0-126-248 0 0-59c7-6 11-9 20-16 31-24 52-45 65-66l163 0 0-127 197 197-197 197z" horiz-adv-x="1000" />

<glyph glyph-name="ui-friends-search" unicode="&#xe856;" d="M714 720c-64-1-127-29-171-83-69-86-64-209 8-288-17-15-37-32-47-39-17-13-58-51-80-83-21-32-54-69-89-104-34-34-40-39-44-44-4-4-24-19 22-56l19-16 8-6c46-37 56-14 60-9 4 4 7 12 33 52 27 41 56 81 82 109 27 29 56 77 65 96 5 11 17 34 27 55 93-53 214-32 283 54 77 96 62 236-34 313-42 33-92 49-142 49z m-339-62c-54 0-98-57-98-128 0-49 21-91 52-113 1-2 1-4 1-7 0-15-1-14-58-57-57-44-55-66-55-121 0-55 41-48 41-48l111 0 4 0c15 18 29 35 40 51l0 1c24 34 63 71 82 85 2 2 6 5 10 8-8 7-17 15-28 24-57 43-58 42-58 57 0 3 1 5 2 7 31 22 52 64 52 113 0 71-44 128-98 128z m340-10c34 0 68-11 96-33 65-52 75-147 23-212-52-65-147-75-212-23-65 52-75 147-23 212 30 36 73 55 116 56z m-531-30c-43 0-77-44-77-99 0-38 17-72 41-88 1-2 1-4 1-6 0-12-1-11-45-45-45-34-43-51-43-94 0-43 31-37 31-37l87 0 9 0 18 0c0 19 1 36 7 52 7 20 23 38 52 61 5 3 7 5 11 8-4 3-8 7-13 10-44 34-45 33-45 45 0 2 1 4 1 6 24 16 41 50 41 88 0 55-34 99-76 99z" horiz-adv-x="1000" />

<glyph glyph-name="ui-gear" unicode="&#xe857;" d="M500 743c-12 0-24-1-36-2l-29-106c-27-6-54-16-78-30l-97 56c-13-10-26-21-38-33-8-9-16-18-24-27l55-95c-15-24-27-49-34-77l-108-29c-3-16-4-33-4-50 0-12 1-24 2-36l106-29c6-27 17-54 30-78l-56-97c10-13 21-26 33-38 9-8 18-16 27-24l95 55c24-15 49-27 77-35l29-108c16-2 33-3 50-3 12 0 24 1 36 2l29 106c27 6 54 16 78 30l97-56c13 10 26 21 38 33 9 9 17 18 24 27l-55 95c15 24 27 49 34 77l109 29c2 16 3 33 3 50 0 12-1 24-2 36l-106 29c-6 27-16 54-30 78l56 97c-10 13-21 26-33 38-9 9-18 17-27 24l-95-55c-24 15-49 27-77 34l-29 109c-16 2-33 3-50 3z m0-260c73 0 133-60 133-133 0-73-60-132-133-132-73 0-132 59-132 132 0 73 59 133 132 133z" horiz-adv-x="1000" />

<glyph glyph-name="ui-golds" unicode="&#xe858;" d="M421 803c-63 0-120-6-162-16-21-6-38-12-50-19-13-7-22-17-22-29l0-33c-8-3-16-6-23-10-12-7-21-17-21-28l0-21 0-30 0-23 0-31 0-23 0-31 0-23 0-30 0-24 0-30 0-23 0-31 0-23 0-31 0-23 0-30 0-24 0-30 0-23 0-31 0-53c0-12 9-22 21-29 13-7 30-13 51-18 38-10 89-15 145-16l0-37c0-13 6-25 17-35 10-10 25-18 43-25 35-14 83-23 136-23 53 0 101 9 136 23 18 7 32 15 43 25 10 10 17 22 17 35l0 54 0 11 0 28c18 2 34 6 48 10 16 5 30 11 40 18 10 7 17 17 17 28l0 53 0 16 0 38 0 16 0 38 0 16 0 37 0 16 0 38 0 16 0 38 0 16 0 38 0 15 0 38c0 0 0 0 0 1 0 10-7 20-17 27-10 7-24 13-40 18-34 10-79 16-129 16-21 0-41-1-60-3l0 0 0 30 0 4c8 3 16 6 22 9 13 8 22 17 22 29l0 50c0 2 0 3 0 3-1 11-10 19-22 26-12 7-29 13-50 19-41 10-98 16-160 16l-2 0z m0-16c62 0 118-6 158-16 20-5 36-11 46-17 9-5 13-10 13-13 0-3-4-8-13-13-10-6-26-12-46-17-40-9-96-16-158-16-62 0-118 7-158 16-20 5-36 11-46 17-9 5-13 10-14 13 1 3 5 8 14 13 10 6 26 12 46 17 40 10 96 16 158 16z m-218-68c2-2 3-3 6-5 12-7 29-13 50-18 42-11 99-17 162-17 63 0 120 6 162 17 21 5 38 11 50 18 3 2 4 3 6 5l0-30c0-3-3-9-14-15-10-6-26-11-46-16-40-10-96-16-158-16-62 0-118 6-158 16-20 5-36 10-46 16-11 6-14 12-14 15l0 30z m-16-31c0-11 9-20 22-28 12-7 29-13 50-18 42-10 99-16 162-16 9 0 17 0 26 0-22-2-45-3-70-3-62 0-118 7-158 16-20 5-36 11-46 17-9 5-13 10-13 13 0 3 4 8 13 13 3 2 9 4 14 6z m-28-41c2-2 3-3 5-5 13-7 30-13 51-18 42-11 99-17 162-17 63 0 120 6 162 17 21 5 38 11 50 18 2 1 4 2 5 3 0 0 1 0 1 0 0 1 0 0 0 0l0-28c0-3-3-9-14-15-10-6-26-11-46-16-40-10-96-16-158-16-62 0-118 6-158 16-20 5-36 10-46 16-11 6-14 12-14 15l0 30z m512-43c49 0 93-6 124-15 15-5 28-11 36-16 7-6 10-11 10-15 0-3-3-9-10-14-8-6-21-11-36-16-31-9-75-15-124-15-21 0-41 1-60 3l0 24 0 23 0 31 0 7c19 2 39 3 60 3z m-512-11c2-2 3-3 5-5 13-7 30-13 51-18 42-10 99-16 162-16 63 0 120 6 162 16 21 5 38 11 50 18 3 2 4 3 6 5l0-30c0-3-3-8-14-14-10-6-26-12-46-17-40-10-96-16-158-16-62 0-118 6-158 16-20 5-36 11-46 17-11 6-14 11-14 14l0 30z m0-54c2-1 3-3 5-4 13-8 30-14 51-19 42-10 99-16 162-16 63 0 120 6 162 16 21 5 38 11 50 19 3 1 4 3 6 4l0-30c0-3-3-8-14-14-10-6-26-12-46-17-40-9-96-16-158-16-62 0-118 7-158 16-20 5-36 11-46 17-11 6-14 12-14 14l0 30z m682-7l0-12 0-15c0-4-3-9-10-15-8-5-21-11-36-16-31-9-75-15-124-15-21 0-41 1-60 3l0 24 0 14c19-2 39-4 60-4 50 0 95 7 129 17 16 5 30 11 40 18 0 0 1 1 1 1z m-682-47c2-1 3-3 5-4 13-7 30-13 51-18 42-11 99-17 162-17 63 0 120 6 162 17 21 5 38 11 50 18 3 1 4 3 6 4l0-29c0-3-3-9-14-15-1 0-2-1-3-2-7 1-15 1-22 1-53 0-101-9-136-23-7-2-12-5-18-8-8 0-17 0-25 0-62 0-118 6-158 15-20 5-36 11-46 17-11 6-14 12-14 15l0 29z m682-7l0-11 0-16c0-4-3-9-10-15-8-5-21-11-36-16-22-6-50-11-81-13-7 3-14 7-22 10-23 9-50 16-81 19l0 10c19-2 39-3 60-3 50 0 95 6 129 16 16 5 30 11 40 18 0 0 1 1 1 1z m-682-46c2-2 3-3 5-5 13-7 30-13 51-18 42-10 99-17 162-17 0 0 1 0 1 0 0 0-1 0-1 0-11-10-17-22-17-35l0-2c-55 1-105 7-141 16-20 5-36 10-46 16-11 6-14 12-14 15l0 30z m682-8l0-11 0-16c0-4-3-9-10-14-8-6-21-12-36-16-12-4-27-7-43-9l0 0 0 2 0 0 0 1c-2 11-8 22-17 31-1 0-1 0-1 1 24 3 47 6 66 12 16 5 30 11 40 18 0 1 1 1 1 1z m-285 0c51 0 97-9 130-22 16-6 29-14 38-22 8-8 12-16 12-23 0-8-4-16-12-24-9-8-22-16-38-22-33-13-79-22-130-22-51 0-98 9-130 22-17 6-29 14-38 22-8 8-12 16-12 24 0 7 4 15 12 23 9 8 21 16 38 22 32 13 79 22 130 22z m-397-46c2-2 3-3 5-5 13-7 30-13 51-18 38-9 89-15 145-16l0-17 0-19 0-1c-55 1-105 6-141 15-20 5-36 11-46 17-11 6-14 11-14 14l0 30z m682-7l0-12 0-16c0-3-3-8-10-14-8-6-21-11-36-16-12-4-27-7-43-9l0 10 0 27c18 3 34 6 48 10 16 5 30 11 40 19 0 0 1 0 1 1z m-682-47c2-1 3-3 5-4 13-7 30-14 51-19 38-9 89-15 145-16l0-17 0-19 0-1c-55 1-105 6-141 15-20 5-36 11-46 17-11 6-14 12-14 14l0 30z m577-1l0-10 0-10c0-8-4-15-12-23-9-8-22-16-38-23-33-13-79-21-130-21-51 0-98 8-130 21-17 7-29 15-38 23-8 8-12 15-12 23l0 18 0 2c0-1 0-1 1-2 10-10 25-18 43-25 35-14 83-23 136-23 53 0 101 9 136 23 18 7 32 15 43 25 0 1 1 2 1 2z m105-6l0-11 0-16c0-4-3-9-10-15-8-5-21-11-36-16-12-3-27-6-43-9l0 10 0 27c18 3 34 7 48 11 16 5 30 11 40 18 0 0 1 1 1 1z m-682-47c2-1 3-3 5-4 13-7 30-13 51-18 38-10 89-15 145-16l0-18 0-19 0-1c-55 1-105 7-141 16-20 5-36 10-46 16-11 6-14 12-14 15l0 29z m577-1l0-9 0-11c0-8-4-15-12-23-9-8-22-16-38-22-33-14-79-22-130-22-51 0-97 8-130 22-17 6-29 14-38 22-8 8-12 15-12 23l0 18 0 2c0 0 0-1 1-1 10-10 25-19 43-26 35-14 83-22 136-22 53 0 101 8 136 22 18 7 32 16 43 26 0 0 1 1 1 1z m105-6l0-11 0-16c0-4-3-9-10-15-8-5-21-11-36-15-12-4-27-7-43-10l0 10 0 28c18 2 34 6 48 10 16 5 30 11 40 18 0 1 1 1 1 1z m-682-46c2-2 3-3 5-5 13-7 30-13 51-18 38-9 89-15 145-16l0-17 0-19 0-2c-55 1-105 7-141 16-20 5-36 11-46 17-11 6-14 11-14 14l0 30z m577-1l0-10 0-11c0-7-4-15-12-23-9-8-22-16-38-22-33-13-79-22-130-22-51 0-98 9-130 22-17 6-29 14-38 22-8 8-12 16-12 23l0 18 0 2c0 0 0-1 1-1 10-10 25-18 43-26 35-14 83-22 136-22 53 0 101 8 136 22 18 8 32 16 43 26 0 1 1 1 1 2z m105-6l0-12 0-16c0-4-3-9-10-14-8-6-21-11-36-16-12-4-27-7-43-9l0 10 0 27c18 3 34 6 48 10 16 5 30 11 40 18 0 1 1 1 1 2z m-682-47c2-2 3-3 5-4 13-8 30-14 51-19 38-9 89-15 145-16l0-17 0-19 0-1c-55 1-105 6-141 15-20 5-36 11-46 17-11 6-14 11-14 14l0 30z m577-1l0-10 0-10c0-8-4-16-12-24-9-8-22-15-38-22-33-13-79-21-130-21-51 0-98 8-130 21-17 7-29 14-38 22-8 8-12 16-12 24l0 17 0 3c0-1 0-1 1-2 10-10 25-18 43-25 35-14 83-23 136-23 53 0 101 9 136 23 18 7 32 15 43 25 0 1 1 1 1 2z m105-6l0-27c0-4-3-9-10-15-8-6-21-11-36-16-12-4-27-7-43-9l0 10 0 27c18 3 34 6 48 10 16 5 30 11 40 19 0 0 1 0 1 1z m-682-47c2-1 3-3 5-4 13-7 30-13 51-19 38-9 89-15 145-16l0-17 0-19 0-1c-55 1-105 7-141 15-20 5-36 11-46 17-11 6-14 12-14 15l0 29z m577-1l0-10 0-10c0-8-4-15-12-23-9-8-22-16-38-23-33-13-79-21-130-21-51 0-97 8-130 21-17 7-29 15-38 23-8 8-12 15-12 23l0 18 0 2c0-1 0-1 1-1 10-10 25-19 43-26 35-14 83-22 136-22 53 0 101 8 136 22 18 7 32 16 43 26 0 0 1 1 1 1z m0-54l0-9 0-11c0-7-4-15-12-23-9-8-22-16-38-23-33-13-79-21-130-21-51 0-98 8-130 21-17 7-29 15-38 23-8 8-12 16-12 23l0 18 0 2c0 0 0-1 1-1 10-10 25-19 43-26 35-14 83-22 136-22 53 0 101 8 136 22 18 7 32 16 43 26 0 0 1 1 1 1z m0-53l0-21c0-7-4-15-12-23-9-8-22-16-38-22-33-13-79-22-130-22-51 0-98 9-130 22-17 6-29 14-38 22-8 8-12 16-12 23l0 20c0 0 0-1 1-1 10-10 25-18 43-26 35-14 83-22 136-22 53 0 101 8 136 22 18 8 32 16 43 26 0 1 1 1 1 2z" horiz-adv-x="1000" />

<glyph glyph-name="ui-graphics" unicode="&#xe859;" d="M128 657c-61 0-110-50-110-111 0-61 49-110 110-110 61 0 111 49 111 110 0 61-50 111-111 111z m275-111l-366-503 753 0-387 503z m289-41l-107-147 177-229 220 0-290 376z" horiz-adv-x="1000" />

<glyph glyph-name="ui-help" unicode="&#xe85a;" d="M500 764c-229 0-414-185-414-414 0-229 185-414 414-414 229 0 414 185 414 414 0 229-185 414-414 414z m-52-24l24-174c-59-8-110-39-145-84l-139 107c62 81 154 137 260 151z m291-78c81-62 137-154 151-260l-174-23c-8 58-39 109-84 144l107 139z m-239-116c108 0 196-88 196-196 0-108-88-196-196-196-108 0-196 88-196 196 0 108 88 196 196 196z m-216-224c8-59 39-110 84-145l-107-139c-81 62-137 154-151 260l174 24z m389-104l139-107c-62-81-154-137-260-151l-23 174c58 8 109 39 144 84z" horiz-adv-x="1000" />

<glyph glyph-name="ui-hero" unicode="&#xe85b;" d="M500 783c-83-70-179-152-218-187-72-66-37-215-37-215 0 0 31-1 95-7 65-6 123-44 123-44l0-128 25-24 12-12 22 22 15 14 0 128c0 0 58 38 123 44 64 6 95 7 95 7 0 0 35 149-37 215-39 35-135 117-218 187 0 0 0 0 0 0z m-252-437c0 0-92-231-90-268 3-36 45-97 195-161l0 377c0 0-42 42-105 52z m504 0c-63-10-105-52-105-52l0-377c151 64 192 125 195 161 2 37-90 268-90 268z" horiz-adv-x="1000" />

<glyph glyph-name="ui-key" unicode="&#xe85c;" d="M435 726c-44-45-48-120-18-198 1-1 1-2 1-3 0 0 1 0 1 0 0 0 0 0 0 0 4-18-5-40-18-54l-9-10c-11-10-11-28 0-39l47-47-315-316c-17-16-17-42 0-58 15-15 38-16 54-4l19-19 26-26c22-21 56-21 78 0 22 22 22 57 0 79l-26 25 22 22 26-26c21-21 56-21 78 0 21 22 21 57 0 78l-45 45 142 141 47-47c11-11 28-11 39 0l8 8c13 12 33 21 50 20 82-36 162-34 209 13 32 32 43 80 35 133-1 75-24 192-36 229 0 1 0 1 0 2-4 13-10 25-19 34-10 9-22 16-36 19-41 13-178 39-250 37 0 0-1 0-1 0-43 1-82-11-109-38z m67-71c32 32 75 42 100 23 0 0 0-1 0-1 58-37 87-62 110-85 0-1 1-1 1-2 0 0 1 0 1-1 24-23 48-52 86-110 19-24 10-68-22-100-25-25-57-36-81-31-1 1-1 1-1 1-3 0-5 1-7 1 0 0 0 1 0 1-17 5-33 14-47 28-9 9-16 19-21 29-7 13-15 25-26 37-2 3-4 5-6 7 0 1 0 1-1 1-1 2-4 5-6 7 0 0 0 0-1 1-2 2-3 3-5 5-14 13-30 24-45 32 0 0 0 0 0 0-1 0-1 1-2 1-9 5-19 12-27 20-14 14-23 31-28 47-1 0-1 0-1 1 0 0 0 0 0 0-1 2-1 4-2 7-5 24 6 56 31 81z" horiz-adv-x="1000" />

<glyph glyph-name="ui-list" unicode="&#xe85d;" d="M136 772l0-844 729 0 0 844-729 0z m114-194c1 0 2 0 4 0 19 0 35-16 35-36 0-20-16-36-35-36-20 0-36 16-36 36 0 19 14 34 32 36z m129 0l374 0 0-72-374 0 0 72z m-129-195c1 0 2 0 4 0 19 0 35-16 35-36 0-20-16-35-35-35-20 0-36 15-36 35 0 19 14 34 32 36z m129 0l374 0 0-71-374 0 0 71z m-129-195c1 0 2 0 4 0 19 0 35-16 35-36 0-19-16-35-35-35-20 0-36 16-36 35 0 19 14 34 32 36z m129 0l374 0 0-71-374 0 0 71z" horiz-adv-x="1000" />

<glyph glyph-name="ui-logout" unicode="&#xe85e;" d="M458 771c-175-54-303-218-303-411 0-238 193-431 432-431 96 0 186 32 258 86-259 14-465 228-465 490 0 98 29 190 78 266z" horiz-adv-x="1000" />

<glyph glyph-name="ui-magnifier" unicode="&#xe85f;" d="M619 779c-74-1-148-34-198-97-80-100-74-241 9-334-20-17-43-36-55-44-20-15-67-60-92-97-25-37-63-80-103-120-40-40-47-45-51-51-5-5-28-23 25-66l23-17 8-7c54-43 66-17 70-12 4 6 9 14 39 62 30 47 64 94 95 126 31 33 64 88 74 111 6 13 20 40 32 63 108-61 248-37 328 63 90 111 72 273-39 363-49 39-107 57-165 57z m1-84c39 1 79-12 112-38 75-61 87-171 26-246-60-75-170-87-245-27-75 61-87 171-27 246 34 42 84 65 134 65z" horiz-adv-x="1000" />

<glyph glyph-name="ui-mail" unicode="&#xe860;" d="M132 601l368-267 368 267-736 0z m-7-86l0-415 750 0 0 415-353-256-22-16-22 16-353 256z" horiz-adv-x="1000" />

<glyph glyph-name="ui-masteries" unicode="&#xe861;" d="M500 835c-3-17-6-36-10-56 0-1 0-2 0-3-4-19-7-40-11-60 0 0 0 0 0 0-12-60-23-118-32-143-21-63-46-98-55-102-9-5-98 51-131 79 27-50 37-96 37-122 0-26-3-47-22-58-19-10-58-24-103-21-45 4-65 11-65 11 0 0 43-33 69-54 27-20 57-58 64-68-21-46-33-58-64-91-32-33-127-105-127-105 0 0 86 21 111 26 24 5 88 19 107 13 19-5 30-21 30-32 0-11 6-37-53-166 82 74 96 98 150 100 31 1 57-28 81-71 0 0 0 0 0 0 2-4 4-7 6-11 1-2 3-4 4-6 1-2 1-4 2-5 0 0 0-1 0-1 2-3 4-8 6-12 0 0 0 0 0 0 2-4 4-8 6-12 3 6 6 12 9 18 2 4 3 8 5 12 4 6 7 12 10 17 24 43 50 72 81 71 55-2 68-26 151-100-60 129-54 155-54 166 0 11 11 27 30 32 19 6 83-8 107-13 25-5 111-26 111-26 0 0-95 72-126 105-32 33-44 45-65 91 7 10 38 48 64 68 26 21 69 54 69 54 0 0-20-7-65-11-45-3-84 11-103 21-19 11-21 32-22 58 0 26 10 72 38 122-34-28-123-84-132-79-9 4-34 39-55 102-8 25-20 83-32 143 0 0 0 0 0 0-4 21-7 42-11 63-1 3-1 5-2 9-3 16-6 33-8 47z m-61-104c-247-30-439-236-439-486 0-77 18-150 51-215-16 50-25 103-25 159 0 251 175 459 404 495 2 10 4 21 6 32 0 0 0 0 0 0 0 1 0 2 1 3l0 4 0 1c1 2 1 4 2 7z m122 0c1-3 1-5 2-8l0 0c0-2 1-5 1-7 2-11 4-22 6-32 229-36 404-244 404-495 0-56-9-109-25-159 33 65 51 138 51 215 0 250-191 456-439 486z m-61-122c5-19 9-37 13-50 12-34 24-61 36-81 6-10 12-18 17-25 1 0 1 0 1-1 18-5 36-13 52-23 4 1 7 2 10 3 6 2 12 5 18 8 4 2 10 6 15 8-1-7-2-14-2-20 1-10 1-21 3-32 19-19 35-41 47-66 14-7 34-14 57-18-16-16-28-31-37-43 2-13 3-26 3-40 0-10-1-20-2-30 18-34 35-52 60-79 0 0 0 0-1 0-11 2-23 3-34 4-11 1-20 2-35-2-6-2-13-4-18-7-11-20-25-38-42-54 0-3-1-8-1-12 0 2 0-15 4-38-17 8-34 12-53 13-22-12-46-20-72-24-15-13-28-29-39-46-11 17-24 33-39 46-26 4-50 12-72 24 0 0 0 0 0 0-19-1-36-5-53-13 4 23 4 40 4 38 0 4-1 9-1 12-17 16-31 34-42 54-5 3-11 5-18 7-15 4-24 3-35 2-11-1-22-2-34-4 0 0-1 0-1 0 25 27 42 45 60 79-1 10-2 20-2 30 0 14 1 27 3 40-8 12-21 27-37 43 23 4 43 11 57 18 12 25 28 47 47 66 2 11 3 22 3 32 0 6-1 13-2 20 5-2 11-6 15-8 6-3 12-6 18-8 3-1 6-2 10-3 16 10 34 18 52 24 0 0 1 0 1 0 5 7 11 15 17 25 12 20 24 47 36 81 4 13 9 31 13 50z m0-171c-115 0-209-94-209-209 0-115 94-208 209-208 115 0 209 93 209 208 0 115-94 209-209 209z" horiz-adv-x="1000" />

<glyph glyph-name="ui-minipets" unicode="&#xe862;" d="M283 27l27 187 74 146 65 20c0 0-41-3-70 15-28 17-50 37-50 37l-137 10-174-186 163 210 138-2c0 0-3 64 46 97 49 33 141 23 177-41l-2 77-105 94-179-36 171 59 139-107 13-130 57 119 123 25 86-111-102 93-90-26-52-131 126 63 110-37 145-104-139 85-115 25-110-55 11-14 166 1 174-192-178 161-125 3c0 0 15-7 11-20-4-12-10-10-10-10 0 0 9-18-12-31 5 11-3 24-3 24 0 0-6 1-16-3-10-5-12-12-12-12 0 0 9-17 16-17-20-4-43 13-49 25-6 12-4 34-4 34 0 0-9-3-9-13-1-11 0-120 0-120l141-99 43-52-51 41-154 94-6 123-58-74-30-161 28-125-48 111 27 188 60 97-120-44-77-138z" horiz-adv-x="1000" />

<glyph glyph-name="ui-mouse" unicode="&#xe863;" d="M497 675c-68-1-131-19-166-44 63-17 110-45 131-59 21 25 42 49 64 63 17 11 33 24 53 33-28 5-55 7-82 7z m133-29c-7-1-14-2-20-3-21-6-40-21-65-37-20-13-49-46-73-79-24-33-45-67-55-83-14-20-34-26-49-24-11 1-17 5-21 8l-125 60c-22-48-23-94 25-113 208-93 427-201 509-196 81 4 198 60 190 190-7 125-173 223-293 274-6 2-11 3-16 3-3 0-5 0-7 0z m-329-43c-22-24-45-53-63-84l125-60 1-1 2-1c0 0 3-2 7-3 4 0 7-2 15 9 9 15 30 47 54 81-23 15-73 44-141 59z m-104-70c-51-4-88-26-110-55-33-42-37-92-31-127 13-65 74-142 203-199 85-37 140-61 206-127l66 0c-87 97-155 129-252 171-119 53-167 123-175 165-4 19 0 59 21 87 11 14 26 26 49 33 3 9 6 17 10 25 4 9 9 18 13 27z" horiz-adv-x="1000" />

<glyph glyph-name="ui-options" unicode="&#xe864;" d="M464 723l-27-46c-11 2-22 2-33 2-12 0-23 0-35-2l-29 45c-12-2-25-6-37-10l-1-53c-21-9-40-20-58-34l-48 25c-9-9-18-18-27-28l26-46c-14-18-25-38-34-59l-53-2c-4-13-7-25-10-38l46-27c-1-11-2-22-2-33 0-12 1-23 2-34l-45-29c2-13 6-26 10-38l53 0c9-22 20-41 34-59l-25-48c9-9 18-18 28-27l46 26c18-14 38-25 59-34l2-53c13-4 25-7 38-10l27 46c11-2 22-2 33-2 12 0 23 1 35 2l29-45c12 3 25 6 37 10l1 53c21 9 40 20 58 34l48-25c9 9 18 19 27 28l-26 46c14 18 25 38 33 59l54 2c4 13 7 25 10 38l-46 27c1 11 2 22 2 33 0 12-1 23-2 35l45 28c-3 13-6 26-10 38l-53 1c-9 21-20 40-34 58l24 47c-8 10-18 19-27 28l-46-26c-18 14-38 25-59 34l-2 53c-13 4-25 7-38 10z m-60-130c97 0 175-79 175-176 0-97-78-176-175-176-97 0-176 79-176 176 0 97 79 176 176 176z m0-13c-90 0-163-73-163-163 0-90 73-163 163-163 90 0 163 73 163 163 0 90-73 163-163 163z m0-32c72 0 131-59 131-131 0-72-59-131-131-131-72 0-131 59-131 131 0 72 59 131 131 131z m386-267l-32-43c-5 1-10 1-15 1-6 0-13 0-20-2l-35 40c-20-7-38-18-53-32l21-49c-7-9-13-19-16-30l-53-10c-3-21-3-43 2-63l53-6c4-11 10-21 17-29l-17-51c17-14 35-24 55-30l32 43c5-1 9-1 14-1 7 0 14 0 20 1l35-40c20 8 38 19 53 33l-20 49c7 9 12 19 16 30l53 10c3 21 2 42-2 63l-53 6c-4 11-10 21-18 29l17 51c-16 13-34 24-54 30z m-47-106c26 0 46-21 46-46 0-25-20-46-46-46-25 0-46 21-46 46 0 25 21 46 46 46z" horiz-adv-x="1000" />

<glyph glyph-name="ui-pip" unicode="&#xe865;" d="M143 848l-131-64 0-709c0-57 62-143 131-223 69 80 130 166 130 223l0 709-130 64z" horiz-adv-x="286" />

<glyph glyph-name="ui-pip-under-1" unicode="&#xe866;" d="M705 843l-297-297 339-196-339-196 297-297 234 0 1233 0 234 0 297 297-339 196 339 196-297 297-234 0-1233 0-234 0z m870-160l113-1 0-665-110 0 0 533c-9-8-20-17-34-25-13-8-27-16-41-23-15-7-29-14-43-20-14-5-26-10-37-13l0 104c12 5 26 12 41 22 16 10 31 21 46 31 15 12 28 23 40 33 12 10 20 18 25 24z m-1297-173l-278-160 278-160 278 160-278 160z m2555 0l-278-160 278-160 278 160-278 160z" horiz-adv-x="3111" />

<glyph glyph-name="ui-pip-under-2" unicode="&#xe867;" d="M705 843l-297-297 339-196-339-196 297-297 234 0 1233 0 234 0 297 297-339 196 339 196-297 297-234 0-1233 0-234 0z m868-150c34 0 65-5 92-13 26-9 49-21 67-38 18-16 32-35 42-58 9-23 14-49 14-77 0-37-9-73-25-106-17-33-41-65-72-96-30-32-67-63-110-95-44-32-92-65-144-100l338 0 0-103-452 0 0 95c68 54 124 101 169 141 45 41 81 76 108 108 26 31 45 60 56 84 11 25 16 49 16 71 0 11-1 22-4 34-3 12-8 23-16 34-8 10-18 19-32 25-13 7-30 11-51 11-20 0-38-4-53-12-14-7-26-17-35-29-10-12-17-25-22-39-4-15-7-29-8-42l-116 0c5 68 27 120 67 154 40 34 97 51 171 51z m-1295-183l-278-160 278-160 278 160-278 160z m2555 0l-278-160 278-160 278 160-278 160z" horiz-adv-x="3111" />

<glyph glyph-name="ui-pip-under-3" unicode="&#xe868;" d="M705 843l-297-297 339-196-339-196 297-297 234 0 1233 0 234 0 297 297-339 196 339 196-297 297-234 0-1233 0-234 0z m853-150c30 0 57-4 83-12 27-7 49-18 69-33 19-16 34-34 46-57 11-22 17-49 17-78 0-25-4-45-11-62-8-16-17-29-28-40-12-11-24-20-39-27-14-7-29-13-43-18 14-4 29-10 44-18 16-8 30-18 43-31 14-13 25-28 33-46 9-18 13-40 13-64 0-24-5-48-14-72-10-24-24-45-44-64-19-19-44-34-75-46-30-12-67-18-109-18-43 0-78 6-106 18-28 12-50 27-66 44-16 19-28 39-34 61-7 22-11 44-11 65l116 0c1-15 3-28 8-41 6-13 13-24 22-33 9-10 20-17 33-23 13-5 27-7 43-7 16 0 31 2 45 7 15 6 28 14 39 24 12 10 20 22 27 36 7 14 10 30 10 48 0 7-1 17-4 30-4 14-10 27-18 40-9 13-21 25-36 34-15 10-34 15-57 15l-59 0 0 73c38 0 68 4 89 11 22 7 38 16 49 28 11 11 17 23 20 36 3 14 4 27 4 40 0 12-1 25-5 37-3 12-8 23-15 33-8 10-17 18-29 24-12 6-27 9-45 9-35 0-61-8-79-24-17-16-27-40-29-73l-115 0c1 29 7 54 19 76 12 22 28 40 47 54 20 15 42 26 68 33 26 7 54 11 84 11z m-1280-183l-278-160 278-160 278 160-278 160z m2555 0l-278-160 278-160 278 160-278 160z" horiz-adv-x="3111" />

<glyph glyph-name="ui-pip-under-4" unicode="&#xe869;" d="M705 843l-297-297 339-196-339-196 297-297 234 0 1233 0 234 0 297 297-339 196 339 196-297 297-234 0-1233 0-234 0z m877-160l151 0 0-427 72 0 0-96-72 0 0-143-109 0 0 143-317 0 0 128 275 395z m42-80l-236-347 236 0 0 347z m-1346-93l-278-160 278-160 278 160-278 160z m2555 0l-278-160 278-160 278 160-278 160z" horiz-adv-x="3111" />

<glyph glyph-name="ui-pip-under-5" unicode="&#xe86a;" d="M705 843l-297-297 339-196-339-196 297-297 234 0 1233 0 234 0 297 297-339 196 339 196-297 297-234 0-1233 0-234 0z m654-160l374 0 0-102-293 0-7-184c11 11 21 20 32 28 11 8 22 14 34 19 11 5 23 8 36 11 13 2 27 3 41 3 33 0 62-6 88-19 25-12 46-28 63-48 18-20 31-42 39-68 9-25 13-51 13-79 0-27-4-54-13-81-9-27-24-52-44-73-20-22-45-39-76-53-31-14-68-20-111-20-29 0-54 3-75 9-21 6-39 15-54 25-15 10-28 21-37 34-10 13-17 26-23 39-5 13-9 25-11 37-2 12-3 22-3 30l104 0c1-13 5-25 10-37 5-11 12-22 20-31 10-9 20-16 33-22 12-5 26-8 42-8 21 0 39 4 55 12 15 8 28 18 38 32 10 14 17 30 22 48 5 19 8 38 8 59 0 21-2 40-7 57-4 17-11 31-21 43-9 12-21 21-36 27-15 7-33 10-54 10-18 0-35-3-48-8-13-5-25-11-34-20-9-8-16-18-22-29-5-11-9-23-11-35l-85 0 13 394z m-1081-173l-278-160 278-160 278 160-278 160z m2555 0l-278-160 278-160 278 160-278 160z" horiz-adv-x="3111" />

<glyph glyph-name="ui-pip-under-6" unicode="&#xe86b;" d="M705 843l-297-297 339-196-339-196 297-297 234 0 1233 0 234 0 297 297-339 196 339 196-297 297-234 0-1233 0-234 0z m864-150c30 0 58-4 82-13 25-8 46-19 64-33 17-15 31-32 40-51 10-19 14-40 14-63l-114 0c0 10-1 20-4 31-3 10-7 20-14 29-6 9-15 16-26 21-11 6-25 9-42 9-18 0-35-3-51-9-15-6-28-18-39-34-11-17-21-41-29-71-8-31-14-70-20-118 7 8 16 16 26 24 9 8 21 14 34 20 13 6 28 11 44 14 16 4 34 6 53 6 15 0 30-2 46-5 17-3 32-9 48-16 15-7 30-16 44-27 14-11 26-24 36-41 11-15 19-34 25-55 6-21 9-45 9-72 0-40-7-74-20-104-14-29-32-53-54-72-23-19-49-33-79-42-29-9-59-14-90-14-31 0-61 5-89 15-29 9-54 27-75 51-22 25-40 58-53 100-13 43-19 97-19 163 0 65 6 120 19 166 12 45 30 82 52 111 23 28 49 48 80 61 32 13 66 19 102 19z m-1291-183l-278-160 278-160 278 160-278 160z m2555 0l-278-160 278-160 278 160-278 160z m-1276-126c-17 0-33-4-48-12-15-7-29-18-40-32-11-13-20-29-27-48-6-18-10-37-10-58 0-21 4-40 10-59 7-18 16-35 27-48 11-14 25-25 40-33 15-8 31-11 48-11 17 0 33 3 49 11 15 8 28 19 38 33 12 13 21 30 27 48 7 19 10 38 10 59 0 21-3 40-10 58-6 19-15 35-27 48-10 14-23 25-38 32-16 8-32 12-49 12z" horiz-adv-x="3111" />

<glyph glyph-name="ui-pip-under-7" unicode="&#xe86c;" d="M705 843l-297-297 339-196-339-196 297-297 234 0 1233 0 234 0 297 297-339 196 339 196-297 297-234 0-1233 0-234 0z m631-160l439 0 0-102-220-564-145 0 271 564-345 0 0 102z m-1058-173l-278-160 278-160 278 160-278 160z m2555 0l-278-160 278-160 278 160-278 160z" horiz-adv-x="3111" />

<glyph glyph-name="ui-pip-under-8" unicode="&#xe86d;" d="M705 843l-297-297 339-196-339-196 297-297 234 0 1233 0 234 0 297 297-339 196 339 196-297 297-234 0-1233 0-234 0z m850-150c36 0 68-5 96-13 28-9 51-21 70-37 18-15 32-33 42-53 9-21 14-43 14-66 0-17-2-33-6-50-4-16-11-31-22-45-10-13-23-26-41-37-17-10-39-18-65-24 25-6 47-15 65-26 19-12 34-25 46-40 11-15 20-32 26-50 6-17 9-36 9-55 0-27-6-52-17-75-12-24-28-44-48-60-21-17-45-31-74-40-28-10-59-15-93-15-36 0-68 5-98 15-28 9-53 23-74 40-20 17-36 37-46 60-11 23-17 48-17 75 0 19 3 37 9 55 6 18 15 34 28 49 12 15 28 28 47 40 19 11 42 20 68 26-24 5-45 13-62 23-18 10-33 22-45 35-11 14-19 29-25 45-5 17-8 35-8 54 0 23 5 45 15 66 11 20 25 38 44 53 20 16 43 28 70 37 27 8 58 13 92 13z m1-71c-15 0-29-3-43-8-13-4-25-11-35-21-10-9-19-20-24-34-6-13-9-28-9-45 0-17 3-31 9-45 5-13 14-24 24-34 10-9 22-16 35-21 14-5 28-7 43-7 16 0 30 2 44 7 13 5 25 12 35 21 11 10 19 21 25 34 6 14 9 28 9 45 0 18-3 34-9 48-6 13-14 24-25 33-10 9-22 16-35 20-14 5-28 7-44 7z m-1278-112l-278-160 278-160 278 160-278 160z m2555 0l-278-160 278-160 278 160-278 160z m-1276-186c-18 0-34-3-49-8-15-5-28-13-40-23-11-10-20-22-26-37-6-14-10-32-10-51 0-21 4-39 11-54 7-16 16-29 28-39 11-10 25-17 39-22 15-5 30-7 45-7 16 0 31 2 46 7 15 5 29 13 40 23 12 10 22 23 29 39 7 15 11 33 11 54 0 19-3 37-10 51-6 15-15 27-26 37-11 10-24 17-39 22-15 5-31 8-49 8z" horiz-adv-x="3111" />

<glyph glyph-name="ui-pip-under-9" unicode="&#xe86e;" d="M705 843l-297-297 339-196-339-196 297-297 234 0 1233 0 234 0 297 297-339 196 339 196-297 297-234 0-1233 0-234 0z m854-150c21 0 41-2 61-6 20-4 39-11 56-21 17-9 33-22 48-39 14-16 27-36 38-61 10-24 19-53 25-86 5-33 8-71 8-115 0-66-6-121-19-167-12-45-29-82-52-110-22-29-49-49-80-62-31-13-65-19-102-19-30 0-58 4-82 12-24 9-45 20-63 35-17 14-31 32-40 51-9 19-14 40-14 62l114 0c0-10 1-20 4-30 3-11 7-20 14-29 6-8 15-16 26-21 11-6 25-8 41-8 19 0 36 2 51 8 15 6 28 17 39 34 12 17 22 40 30 70 8 31 15 70 20 118-7-8-16-16-26-24-10-7-21-14-34-20-13-6-28-10-45-14-16-3-33-5-53-5-15 0-31 2-47 5-16 3-31 8-47 15-15 7-30 16-44 27-14 11-26 25-36 41-10 16-19 34-25 55-6 21-9 45-9 72 0 40 7 75 21 104 13 30 31 54 54 73 22 19 48 32 77 41 30 9 60 14 91 14z m-4-76c-17 0-33-4-48-12-15-7-28-18-40-32-10-13-19-29-26-47-6-19-10-38-10-59 0-21 4-40 10-58 7-19 16-35 26-49 12-13 25-24 40-32 15-8 31-12 48-12 17 0 33 4 48 12 15 8 29 19 39 32 12 14 20 30 27 49 6 18 10 37 10 58 0 21-4 40-10 59-7 18-15 34-27 47-10 14-24 25-39 32-15 8-31 12-48 12z m-1277-107l-278-160 278-160 278 160-278 160z m2555 0l-278-160 278-160 278 160-278 160z" horiz-adv-x="3111" />

<glyph glyph-name="ui-pvp-chest" unicode="&#xe86f;" d="M159 782c-33-3-111-54-139-147-14-47-23-90-19-162l122-32c2 60 16 164 66 249 22 38 47 65 72 84-56 6-95 9-102 8z m215-20c-8-1-17-2-27-5-32-10-73-32-110-95-46-78-59-188-59-236l290-78c3 61 15 149 55 231 24 51 56 105 105 143 2 2 5 4 8 6-88 13-181 25-262 34z m368-50c-32-3-57-16-80-33-38-30-67-76-89-124-37-77-47-165-50-221l160-43c4 18 9 46 16 78 14 55 33 121 59 164 44 69 81 110 117 131 13 8 26 12 38 15-37 10-99 22-171 33z m185-46c-15 0-29-5-45-14-32-19-69-58-112-127-24-39-44-105-57-160-7-27-11-51-15-69l282 163 13 48c0 0 33 108-41 156-8 2-17 4-25 3z m-921-251c7-64 21-148 45-263l71-29 0 261-116 31z m955-31l-256-148-10-6-6 2-35-305 230 157 77 300z m-783-15l0-268 289-115 0 305-289 78z m156-91c20 0 36-16 36-37 0-17-11-31-27-35l18-104-80 35c0 0 16 40 30 76-8 6-14 17-14 28 0 21 17 37 37 37z m188-2l0-312 117-46 37 317-154 41z" horiz-adv-x="1000" />

<glyph glyph-name="ui-pvp-tracks" unicode="&#xe870;" d="M988 813c-7-1-15-6-21-10-12-11-97-25-157-25-60 0-115 10-169 10-55 0-71-66-71-66l-140 0c0 0-16 66-71 66-54 0-109-10-169-10-60 0-145 14-157 25-6 5-17 10-24 9-7 0-11-6-5-24 11-37 17-74 60-74 42 0 178 1 192 6 14 6 54 14 61-7 7-22-49-43-69-50-20-7-248-3-248-3l0-98c0 0 149-22 167-30 18-9 27-20 27-68l-185 0 0-62c0 0 48-31 97-37 49-6 70-12 76-16 6-5 15-10 15-58l-135 0 0-58c0 0 16-34 61-34 45 0 66 2 96-36 11-14 48-56 104-112 0 0 0 0 0 0 6-6 12-12 19-19 4-3 7-7 11-11 4-4 9-8 13-13 9-8 18-17 28-26 6-6 13-12 20-19 1-1 3-2 5-4 2-2 4-4 6-6 7-6 13-11 19-17 2-2 4-3 5-5 8-6 15-13 23-19 9-8 18-17 28-25 10 8 19 17 29 25 7 6 15 13 22 19 2 2 3 3 5 5 6 5 12 11 19 17 0 0 0 0 0 0 3 3 7 6 10 9 4 4 9 8 13 12 3 3 5 5 9 8 8 8 15 15 23 22 7 8 14 15 22 21 8 9 17 18 25 26l0 0c56 56 93 98 104 112 30 38 51 36 96 36 45 0 61 34 61 34l0 58-135 0c0 48 9 53 15 58 6 4 28 10 76 16 49 6 97 37 97 37l0 62-185 0c0 48 10 59 27 68 18 8 167 30 167 30l0 98c0 0-228-4-248 3-20 7-76 28-69 50 7 21 47 13 61 7 14-5 150-6 192-6 43 0 49 37 61 74 5 18 1 24-6 25-1 0-2 0-3 0z m-630-148l1 0 52 0 179 0 52 0 117-68 0-328c0 0-6-9-17-24-2-2-3-5-6-8-7-10-16-22-27-36-3-4-6-7-9-11-6-8-13-17-21-26 0 0-1-1-1-1-8-10-16-19-24-28-3-3-6-6-8-9-1-1-1-1-2-2-5-6-11-11-16-17-14-14-45-40-85-74-2-2-5-4-7-6-12-9-23-19-36-29-15 12-30 24-43 35-13 11-26 22-37 31-11 9-20 18-28 25-8 7-15 13-19 18-5 4-9 9-13 14-1 1-2 2-3 3-3 3-7 7-10 11-8 9-17 19-25 28-6 7-11 14-17 21-2 2-3 4-5 6-3 4-6 8-9 12-4 4-7 9-10 13 0 0 0 0 0 0-2 3-4 5-6 8-6 8-12 16-17 23-10 14-17 23-17 23l0 328 117 68z m142-60l-40-28 0 0-123-85 0-184 146-198 0 0 17-23 17 23 146 198 0 184-122 85-41 28z" horiz-adv-x="1000" />

<glyph glyph-name="ui-shield" unicode="&#xe871;" d="M173 707l0-18 0-422c0-39 23-73 54-105 30-31 70-60 109-84 79-49 157-82 157-82l7-3 7 3c0 0 78 32 157 81 39 24 79 53 110 84 30 32 53 67 53 106l0 422 0 18-18 0-618 0-18 0z m327-36l291 0 0-296-291 0 0-343c-10 4-75 33-145 76-38 24-75 51-103 79-27 28-43 56-43 80l0 108 291 0 0 296z" horiz-adv-x="1000" />

<glyph glyph-name="ui-sound" unicode="&#xe872;" d="M807 713l-67-30c77-88 123-203 123-330 0-129-49-247-128-336l67-30c82 99 132 227 132 366 0 137-48 262-127 360z m-157-71l-70-31c72-62 118-154 118-257 0-107-49-202-125-264l70-31c78 74 126 179 126 295 0 112-45 214-119 288z m-221-73c-72-29-128-71-161-120l-101 0c-56 0-101-45-101-100 0-55 45-100 101-100l101 0c32-49 89-91 161-121l0 441z m119-76l-67-30c26-29 42-67 42-110 0-45-19-86-48-115l67-31c32 41 52 91 52 146 0 53-17 101-46 140z" horiz-adv-x="1000" />

<glyph glyph-name="ui-story" unicode="&#xe873;" d="M502 836l-96-321-154 85 83-155-321-93 321-96-85-154 155 83 93-321 96 321 154-85-83 155 321 93-321 96 85 154-155-83-93 321z" horiz-adv-x="1000" />

<glyph glyph-name="ui-swap" unicode="&#xe874;" d="M537 805c-185 0-341-126-387-296l-132 102 153-317 99 79 177 140-153-33c54 116 171 197 307 197 176 0 320-135 336-307 0 11 1 22 1 33 0 194-137 356-320 394-26 5-53 8-81 8z m292-399l-99-79-177-140 153 33c-53-116-171-197-307-197-176 0-320 135-335 307-1-11-2-22-2-33 0-194 137-356 320-394 26-5 53-8 81-8 185 0 341 126 387 297l132-103-153 317z" horiz-adv-x="1000" />

<glyph glyph-name="ui-swords" unicode="&#xe875;" d="M65 744l-61-62 184-184-111-111 61-62 284 284-61 62-111-112-185 185z m870 0l-185-185-111 112-61-62 283-284 62 62-111 111 184 184-61 62z m-331-236c0 0-34-76-77-121-44-46-265-280-277-299-12-18-42-54-41-132 77-1 113 30 132 42 19 11 253 232 298 276 46 44 122 78 122 78l0 56-7 7-86 86-8 7-56 0z m-265 0l-7-7-86-86-7-7 0-56c0 0 76-34 122-78 3-3 12-11 16-15 43 47 81 87 108 115-3 3-10 10-12 13-43 45-77 121-77 121l-57 0z m283-279c-27-26-64-61-106-101 68-64 134-124 143-130 19-12 55-43 132-42 1 78-29 114-41 132-6 10-65 74-128 141z" horiz-adv-x="1000" />

<glyph glyph-name="ui-traits" unicode="&#xe876;" d="M500 765l-81-81-340-340 203 0 0-226 62-53 156-130 3 2 31 26 122 102 62 53 0 226 203 0-340 340-81 81z m0-218c41 0 74-39 74-88 0-36-18-67-44-81 37-33 56-34 76-34 13 0 30 0 41-11l0-93-37-31 0 0-110-92-110 92-37 31 0 93c11 11 28 11 41 11 20 0 39 1 76 34-26 14-44 45-44 81 0 49 33 88 74 88z m-147-353l37-31 110-92 110 92 0 0 37 31 0-43-37-31 0 0-110-92-110 92-37 31 0 43z" horiz-adv-x="1000" />

<glyph glyph-name="ui-wallet" unicode="&#xe877;" d="M528 759c-105 0-201-18-271-47-36-15-65-32-87-53-21-22-36-48-36-77l0-41c-20-11-37-23-51-37-22-21-37-47-37-77l0-154c0-29 15-56 37-77 21-21 49-38 83-53l0-24c0-30 15-56 36-77 22-21 51-39 86-54 71-29 166-46 272-46 105 0 200 17 271 46 36 15 65 33 86 54 22 21 37 47 37 77l0 154c0 29-15 56-37 77-5 5-12 10-18 15 14 18 23 39 23 62l0 155c0 29-15 55-36 77-22 21-51 38-87 53-70 29-165 47-271 47z m0-46c101 0 192-17 257-44 32-13 57-28 73-44 16-16 22-30 22-43 0-14-6-28-22-44-16-15-41-31-73-45-65-26-156-43-257-43-101 0-192 17-257 43-32 14-57 30-73 45-16 16-22 30-22 44 0 13 6 27 22 43 16 16 41 31 73 44 65 27 156 44 257 44z m352-213l0-73c0-13-6-28-22-43-16-16-41-32-73-45-65-26-156-44-257-44-101 0-192 18-257 44-32 13-57 29-73 45-16 15-22 30-22 43l0 73c21-19 48-35 81-49 70-29 166-46 271-46 106 0 201 17 271 46 33 14 60 30 81 49z m-746-11l0-62c0-29 15-55 36-77 5-4 10-7 15-11-1 0-1 0-1 0-33 13-58 29-74 45-16 16-22 30-22 43 0 14 6 28 22 44 6 6 15 12 24 18z m-46-143c21-19 48-36 81-49 70-29 166-47 271-47 14 0 28 1 42 1 0 0 0 0 1 0 15 0 30-1 45-1 102 0 195 17 264 44l0-21c0-13-6-28-22-44-16-15-41-31-73-44-65-27-156-44-257-44-101 0-192 17-256 44-33 13-58 29-74 44-16 16-22 30-22 44l0 73z m779-12c9-6 17-12 23-18 16-15 22-30 22-43 0-13-6-28-22-43-16-16-42-32-74-45-17-8-37-14-59-20 16 10 29 20 41 31 21 21 36 47 36 77l0 40c12 7 23 14 33 21z m45-142l0-73c0-14-6-28-22-44-16-16-42-31-74-45-64-26-155-43-256-43-101 0-193 17-257 43-32 14-57 29-73 45-16 16-22 30-22 44l0 10c65-21 145-33 232-33 21 0 40 1 60 2 0 0 1 0 1 0 19-1 39-2 59-2 105 0 201 17 271 47 33 13 60 29 81 49z" horiz-adv-x="1000" />

<glyph glyph-name="ui-wrench" unicode="&#xe878;" d="M946 695l-29-252-206-13-291-291-13-206-252-29 144 143-102 102-143-144 29 252 206 13 291 291 13 206 252 29-144-143 102-102 143 144z" horiz-adv-x="1000" />

<glyph glyph-name="weapon-axe" unicode="&#xe879;" d="M562 761c-5 0-10-3-15-10 2-1 5-2 7-3 23-12 39-24 57-36 0 0 9 16-2 24-12 9-24 16-32 20-4 2-9 5-15 5z m-32-25c-36 1-61-62-75-90-16-32 8-38 83-83 74-46 97-101 159-206 81 32 192 118 193 286 0 0-54-1-112 3-6 1-12 1-18 2-29 2-57 6-79 12-70 20-91 49-135 72-6 3-11 4-16 4z m305-133a9 9 0 0 0 1 0 9 9 0 0 0 1 0 9 9 0 0 0 5-2 9 9 0 0 0 1 0 9 9 0 0 0 2-10c-13-60-57-120-130-178a9 9 0 0 0-2-1 9 9 0 0 0-2-1 9 9 0 0 0-7 16 9 9 0 0 0 0 0c18 14 34 28 48 42 3 4 7 7 10 11 36 39 58 78 66 115a9 9 0 0 0 3 6 9 9 0 0 0 1 0 9 9 0 0 0 3 2z m-380-10l-339-588c0 0-23-21 20-46 43-25 108-28 121 2 12 30-29 45-7 101 22 56 123 256 156 307 16 26 65 108 111 185-28 17-48 28-62 39z" horiz-adv-x="1000" />

<glyph glyph-name="weapon-dagger" unicode="&#xe87a;" d="M817 743c-31 0-58-26-100-68-43-43-77-87-110-99-34-13-48-6-59 5-12 11-24 18-31 11-7-8 1-19 23-40l68-68 29-29 68-68c21-21 32-30 39-23 8 7 1 20-10 31-12 11-18 26-6 59 12 33 57 67 99 110 43 43 69 70 69 100 0 29-13 36-28 50 0 1 0 1-1 2-5 5-9 10-14 14-8 8-17 13-36 13z m-271-232c-49-37-126-100-165-152-61-81-109-178-117-218-7-40-44-125-160-155 0 0 25-25 81-29 55-3 113 41 145 80 32 39 98 171 138 215 40 44 121 60 149 86 13 12 29 37 42 60l-38 38-29 29-46 46z" horiz-adv-x="1000" />

<glyph glyph-name="weapon-focus" unicode="&#xe87b;" d="M518 664l-1-7-154 0-4 0-15 0 1-6-144-53 0 1-1-1-3-1-14-5 3-6-121-101-11-9 10-10 296-278-32-10-12-3 2-12 3-18 2-12 4 0-5-4 6-10 9-17 6-10 4 2-4-6 9-8 14-12 9-7 3 3-2-7 11-4 18-7 11-4 2 3 1-6 11 0 19 0 12 0 0 4 4-7 11 4 17 6 12 4-2 4 6-4 8 7 15 12 9 8-6 10-37 56 434 23 14 1-2 15-28 155 0 1 0 3-3 15-7-2-76 133 0 0-2 3-7 13-5-4-118 99 0 1-3 2-12 9-3-5-148 54-14 5z m-144-33l132 0-5-38 0-1 0-1-42-346-80 341 0 1-5 44z m163-2l124-45-17-33 0-1 0-1-159-312 42 351 10 41z m-193-6l8-38 1-2 0-1 0 0 79-338-193 295-1 1 0 1-18 36 124 46z m345-52l101-85-28-27-1 0 0-1-254-238 160 317 0 0 1 1 21 33z m-494-11l301-462-402 377 101 85z m617-96l66-114-33-15-1 0-1-1-175-74-148-63 258 241 1 1 33 25z m80-142l23-130-388-21 166 71 159 68 40 12z" horiz-adv-x="1000" />

<glyph glyph-name="weapon-greatsword" unicode="&#xe87c;" d="M982 832l-66 0-174-173-327-328-151-151-68 69-90-90 111 0 22-22 0 0-159-160c-17 2-34-3-46-15-21-22-21-57 0-78 22-22 56-22 78 0 12 12 17 29 15 45l160 160 0 0 22-22 0-111 90 90-69 68 151 151 328 327 173 174 0 66z" horiz-adv-x="1000" />

<glyph glyph-name="weapon-hammer" unicode="&#xe87d;" d="M782 632l-78 0-13-12-36 36-31 116-92 24-22-21-114-114-21-22 24-92 116-31 36-36-336-336-86-86-65-65c-14-14-14-38 0-52l27-27c14-14 38-14 52 0l65 65 45 45 41 41 336 336 36-36 31-116 92-24 22 21 114 114 21 22-24 92-116 31-36 36 12 13 0 78z" horiz-adv-x="1000" />

<glyph glyph-name="weapon-harpoon" unicode="&#xe87e;" d="M111-14c-7-7-7-18 0-25 7-7 18-7 25 0l144 143 293 294 0-79 22 22c13 13-6 63 13 92l44 44 10 9 0-78 21 21c13 13-6 63 13 92l54 53 0-78 21 21c13 13-6 63 13 92l12 11c25 26 65 67 98 124-57-33-96-70-124-98l-143-144-373-372-143-144z m660 117c-4 0-8 0-11 0-30-2-54-13-72-24-16-8-38-17-62-17-23-1-46 6-69 29a17 17 0 1 1-24-25c29-29 63-39 94-39 31 1 58 11 78 23 32 18 73 35 137-2a17 17 0 1 1 18 30c-33 18-63 25-89 25z m25-71c-4 0-8 0-11-1-30-2-54-12-72-23-16-9-38-17-62-18-23 0-46 6-69 29a17 17 0 1 1-24-25c29-29 63-39 94-38 31 0 58 11 78 22 32 19 73 36 137-2a17 17 0 1 1 18 30c-33 19-63 26-89 26z" horiz-adv-x="1000" />

<glyph glyph-name="weapon-longbow" unicode="&#xe87f;" d="M232 617c-106-107-158-202-181-295-24-94 0-239 0-291 0-52-12-112-27-129-14-18-2-34 9-34 10-1 22 9 28 32 1 1 1 3 2 5l882 883c2 0 4 0 5 1 23 6 33 18 32 28 0 11-16 23-34 9-17-15-77-27-129-27-52 0-197 24-291 1-93-24-188-76-295-182 0-1 0-1-1-1z m6-79c12 13 24 24 36 36 1 1 1 1 2 2 48 48 88 97 213 159 126 62 211 37 302 37 51 0 88 3 114 7l-834-834c4 26 8 63 8 114 0 91-26 176 36 302 46 94 86 140 123 177z" horiz-adv-x="1000" />

<glyph glyph-name="weapon-mace" unicode="&#xe880;" d="M872 722l-107-45c-9 5-18 8-27 11l-44 108-44-108c-9-3-19-6-27-11l-108 45 46-107c-5-9-8-18-11-28l-109-43 108-44c4-11 9-23 16-34l-448-447c-17 1-34-4-47-17-22-23-22-59 0-82 23-22 59-22 82 0 13 13 18 30 17 47l447 448c11-7 23-12 34-16l44-108 43 109c10 3 19 6 28 11l107-46-45 108c5 8 8 18 11 27l108 44-108 44c-3 9-6 18-11 27l45 107z" horiz-adv-x="1000" />

<glyph glyph-name="weapon-pistol" unicode="&#xe881;" d="M336 507l-143-107 2-46c-67-57-101-128-112-171-13-51-20-190 6-224 25-34 70-58 115-32 45 26 46 76 44 104-2 28-21 53-24 96-2 32 7 72 32 103-1-15 1-30 5-42 9-26 29-44 52-51 23-8 50-3 76 6 26 8 51 21 71 35l1 1c39 28 57 64 54 96l0 1c-4 31-27 64-69 70-3 1-5 1-8 2l54 42 431 270c12 7 4 40-17 74-22 34-48 56-59 49l-453-283-58 7z m-2-216l12 1c46-83 92-56 92-56 0 0-20 10-37 22-9 8-18 23-20 44l18 15c12-1 26-2 42-5 28-4 37-21 39-40 2-17-8-42-40-65-16-12-39-24-61-32-23-7-45-9-56-5-14 4-23 12-29 29-5 14-6 36 1 66 11 8 24 16 39 26z" horiz-adv-x="1000" />

<glyph glyph-name="weapon-rifle" unicode="&#xe882;" d="M260 319c-28-20-36-36-33-69 2-34-4-59-90-119l-111-78c0 0-15-7-4-23l90-128c6-8 9-15 44 17 35 32 77 72 82 95 4 24 6 72 18 94 1 1 1 1 1 2 2-2 3-5 6-7 26-26 73-18 105 14 31 32 37 80 10 106 0 0-1 1-2 2 19 14 41 30 67 48 153 106 155 122 151 165-4 43 14 64 37 80l155 108 101 71 95 67-29 41-94-67-102-71-410-287-87-61z m98-108c2-1 4-2 5-4 17-16 14-50-10-75-25-25-58-29-75-13-3 3-6 7-8 11 8 9 18 21 35 37 12-11 28-19 47-15-10 4-23 15-26 33 10 8 20 17 32 26z" horiz-adv-x="1000" />

<glyph glyph-name="weapon-scepter" unicode="&#xe883;" d="M145 588l42 0 80 81 0 33-87 58-109 13 0-90 74-95z m54-19l62-46 11 11 557-557c-1-13 4-26 14-36 20-19 51-19 71 0 19 20 19 51 0 71-10 10-23 15-36 15l-557 557 11 11-46 61-31-31-24-24-32-32z" horiz-adv-x="1000" />

</font>
</defs>
</svg>
