<?xml version="1.0" encoding="UTF-8" standalone="no"?>
<!-- Created with Inkscape (http://www.inkscape.org/) -->

<svg
   xmlns:dc="http://purl.org/dc/elements/1.1/"
   xmlns:cc="http://creativecommons.org/ns#"
   xmlns:rdf="http://www.w3.org/1999/02/22-rdf-syntax-ns#"
   xmlns:svg="http://www.w3.org/2000/svg"
   xmlns="http://www.w3.org/2000/svg"
   xmlns:sodipodi="http://sodipodi.sourceforge.net/DTD/sodipodi-0.dtd"
   xmlns:inkscape="http://www.inkscape.org/namespaces/inkscape"
   width="1024"
   height="300"
   id="svg2"
   version="1.1"
   inkscape:version="0.48.4 r9939"
   sodipodi:docname="specialization-mask.svg"
   inkscape:export-filename="/home/arnaud/Téléchargements/specialization-mask.png"
   inkscape:export-xdpi="90"
   inkscape:export-ydpi="90">
  <defs
     id="defs4">
    <filter
       inkscape:collect="always"
       id="filter4075">
      <feGaussianBlur
         inkscape:collect="always"
         stdDeviation="1.07125"
         id="feGaussianBlur4077" />
    </filter>
    <filter
       inkscape:collect="always"
       id="filter4083">
      <feGaussianBlur
         inkscape:collect="always"
         stdDeviation="0.50976562"
         id="feGaussianBlur4085" />
    </filter>
  </defs>
  <sodipodi:namedview
     id="base"
     pagecolor="#ffffff"
     bordercolor="#666666"
     borderopacity="1.0"
     inkscape:pageopacity="0.0"
     inkscape:pageshadow="2"
     inkscape:zoom="0.98994949"
     inkscape:cx="139.40723"
     inkscape:cy="-463.47501"
     inkscape:document-units="px"
     inkscape:current-layer="layer1"
     showgrid="false"
     inkscape:window-width="2436"
     inkscape:window-height="1898"
     inkscape:window-x="0"
     inkscape:window-y="41"
     inkscape:window-maximized="0" />
  <metadata
     id="metadata7">
    <rdf:RDF>
      <cc:Work
         rdf:about="">
        <dc:format>image/svg+xml</dc:format>
        <dc:type
           rdf:resource="http://purl.org/dc/dcmitype/StillImage" />
        <dc:title />
      </cc:Work>
    </rdf:RDF>
  </metadata>
  <g
     inkscape:label="Calque 1"
     inkscape:groupmode="layer"
     id="layer1"
     transform="translate(0,-752.36218)">
    <path
       style="fill:#000000;fill-opacity:1;stroke:none;opacity:0.5"
       d="M 0 0 L 0 300 L 1024 300 L 1024 0 L 0 0 z M 140.25 96.4375 L 163.53125 109.65625 L 186.59375 123.28125 L 186.78125 150.0625 L 186.53125 176.875 L 163.40625 190.40625 L 140.0625 203.5625 L 116.78125 190.34375 L 93.71875 176.71875 L 93.53125 149.9375 L 93.8125 123.125 L 116.90625 109.59375 L 140.25 96.4375 z "
       transform="translate(0,752.36218)"
       id="rect4091" />
    <path
       inkscape:connector-curvature="0"
       style="opacity:0.4;fill:#000000;fill-opacity:1;stroke:none;filter:url(#filter4075)"
       d="m 140.25255,845.08093 -24.9375,14.09375 -24.718749,14.46875 -0.28125,28.625 0.1875,28.65625 24.656249,14.5625 24.90625,14.15625 24.9375,-14.09375 24.71875,-14.46875 0.28125,-28.65625 -0.1875,-28.625 -24.65625,-14.5625 -24.90625,-14.15625 z m 0.21875,5 22.75,12.9375 22.53125,13.28125 0.1875,26.15625 -0.25,26.1875 -22.59375,13.21875 -22.78125,12.875 -22.75,-12.9375 -22.531249,-13.3125 -0.15625,-26.15625 0.25,-26.1875 22.562499,-13.21875 22.78125,-12.84375 z"
       id="path4066" />
    <path
       inkscape:connector-curvature="0"
       style="opacity:0.7;fill:#ffffff;fill-opacity:1;stroke:none;filter:url(#filter4083)"
       d="m 139.8463,847.17468 -23.75,13.40625 -23.499999,13.78125 -0.28125,27.25 0.1875,27.25 23.468749,13.875 23.6875,13.46875 23.75,-13.40625 23.5,-13.78125 0.28125,-27.25 -0.1875,-27.25 -23.46875,-13.875 -23.6875,-13.46875 z m 0.65625,3.625 22.375,12.71875 22.1875,13.09375 0.15625,25.75 -0.25,25.75 -22.21875,13.03125 -22.40625,12.65625 -22.40625,-12.75 -22.156249,-13.0625 -0.15625,-25.78125 0.21875,-25.75 22.218749,-13 22.4375,-12.65625 z"
       id="path4017" />
  </g>
</svg>
