<?xml version="1.0" encoding="UTF-8" standalone="no"?>
<!-- Created with Inkscape (http://www.inkscape.org/) -->

<svg
   xmlns:dc="http://purl.org/dc/elements/1.1/"
   xmlns:cc="http://creativecommons.org/ns#"
   xmlns:rdf="http://www.w3.org/1999/02/22-rdf-syntax-ns#"
   xmlns:svg="http://www.w3.org/2000/svg"
   xmlns="http://www.w3.org/2000/svg"
   xmlns:sodipodi="http://sodipodi.sourceforge.net/DTD/sodipodi-0.dtd"
   xmlns:inkscape="http://www.inkscape.org/namespaces/inkscape"
   width="280"
   height="280"
   id="svg2"
   version="1.1"
   inkscape:version="0.48.4 r9939"
   sodipodi:docname="armor-accessory.svg">
  <defs
     id="defs4" />
  <sodipodi:namedview
     id="base"
     pagecolor="#ffffff"
     bordercolor="#666666"
     borderopacity="1.0"
     inkscape:pageopacity="0.0"
     inkscape:pageshadow="2"
     inkscape:zoom="0.35355339"
     inkscape:cx="566.94315"
     inkscape:cy="559.07481"
     inkscape:document-units="px"
     inkscape:current-layer="layer1"
     showgrid="false"
     borderlayer="true"
     inkscape:showpageshadow="false"
     inkscape:window-width="1920"
     inkscape:window-height="1000"
     inkscape:window-x="0"
     inkscape:window-y="28"
     inkscape:window-maximized="1" />
  <metadata
     id="metadata7">
    <rdf:RDF>
      <cc:Work
         rdf:about="">
        <dc:format>image/svg+xml</dc:format>
        <dc:type
           rdf:resource="http://purl.org/dc/dcmitype/StillImage" />
        <dc:title></dc:title>
      </cc:Work>
    </rdf:RDF>
  </metadata>
  <g
     inkscape:label="Calque 1"
     inkscape:groupmode="layer"
     id="layer1"
     transform="translate(0,-772.36218)">
    <path
       style="fill:#000000;fill-opacity:1;stroke:none"
       d="m 192.09228,804.99837 c -4.5796,49.65264 -46.33371,88.54614 -97.18164,88.54614 C 61.86035,893.54451 32.6592,877.09 15,851.95661 l 0,47.30194 c 15.36263,11.8991 33.46823,20.43177 53.18783,24.53171 l -28.95686,84.16394 -1.41777,4.0815 4.29627,0.4296 64.14332,6.8311 4.21035,0.4296 -0.42963,-4.2104 -9.23698,-89.10461 c 6.87731,-0.30491 13.58943,-1.16319 20.14951,-2.49184 l 6.65922,88.76095 0.3437,4.2963 4.12443,-1.2889 61.60852,-19.11841 4.03849,-1.24592 -2.06221,-3.73775 -43.69308,-78.14917 c 5.23582,-2.54801 10.26454,-5.43659 15.07991,-8.63551 l 39.48273,79.78175 1.89036,3.86665 3.3511,-2.70665 49.96562,-40.85754 3.26517,-2.70665 -3.30813,-2.62073 -69.90033,-56.10929 c 19.03007,-21.0665 31.31674,-48.34518 33.38203,-78.4499 l -33.08129,0 z m -5.02663,83.39062 27.49613,22.08283 -26.33614,21.61024 -15.46658,-31.27685 c 5.07532,-3.77604 9.83626,-7.95803 14.30659,-12.41622 z m -41.41606,27.92576 14.09177,25.17615 -29.85908,9.27994 -2.14813,-28.39836 c 6.16609,-1.59605 12.13863,-3.61852 17.91544,-6.05773 z m -70.63068,8.72143 c 6.16902,0.94203 12.48254,1.41308 18.90359,1.46074 l 3.2222,31.31981 -32.22203,-3.39405 10.09624,-29.3865 z m 160.72349,2.44887 18.34507,14.73621 -43.30641,35.44424 -10.4829,-21.18061 35.44424,-28.99984 z m -61.47964,39.95533 13.31844,23.8443 -53.44561,16.54062 -2.01925,-27.23834 42.14642,-13.14658 z m -117.46004,10.52586 42.91974,4.51108 3.05035,29.55838 -55.63671,-5.9289 9.66662,-28.14056 z"
       id="path4044"
       inkscape:connector-curvature="0" />
  </g>
</svg>
