<?xml version="1.0" encoding="UTF-8" standalone="no"?>
<!-- Created with Inkscape (http://www.inkscape.org/) -->

<svg
   xmlns:dc="http://purl.org/dc/elements/1.1/"
   xmlns:cc="http://creativecommons.org/ns#"
   xmlns:rdf="http://www.w3.org/1999/02/22-rdf-syntax-ns#"
   xmlns:svg="http://www.w3.org/2000/svg"
   xmlns="http://www.w3.org/2000/svg"
   xmlns:sodipodi="http://sodipodi.sourceforge.net/DTD/sodipodi-0.dtd"
   xmlns:inkscape="http://www.inkscape.org/namespaces/inkscape"
   width="280"
   height="280"
   id="svg2"
   version="1.1"
   inkscape:version="0.48.4 r9939"
   sodipodi:docname="armor-helm.svg">
  <defs
     id="defs4" />
  <sodipodi:namedview
     id="base"
     pagecolor="#ffffff"
     bordercolor="#666666"
     borderopacity="1.0"
     inkscape:pageopacity="0.0"
     inkscape:pageshadow="2"
     inkscape:zoom="1"
     inkscape:cx="111.59903"
     inkscape:cy="100.95715"
     inkscape:document-units="px"
     inkscape:current-layer="layer1"
     showgrid="false"
     borderlayer="true"
     inkscape:showpageshadow="false"
     inkscape:window-width="1920"
     inkscape:window-height="1000"
     inkscape:window-x="0"
     inkscape:window-y="28"
     inkscape:window-maximized="1" />
  <metadata
     id="metadata7">
    <rdf:RDF>
      <cc:Work
         rdf:about="">
        <dc:format>image/svg+xml</dc:format>
        <dc:type
           rdf:resource="http://purl.org/dc/dcmitype/StillImage" />
        <dc:title></dc:title>
      </cc:Work>
    </rdf:RDF>
  </metadata>
  <g
     inkscape:label="Calque 1"
     inkscape:groupmode="layer"
     id="layer1"
     transform="translate(0,-772.36218)">
    <path
       style="fill:#000000;fill-opacity:1;stroke:none"
       d="m 91.82806,787.36218 -38.53755,10.86957 c 5.92886,8.3992 13.834,65.71146 -23.22134,92.88537 2.96443,21.73913 24.70356,66.20553 31.62055,82.50988 6.917,16.30435 5.43479,34.0909 5.43479,34.0909 l 61.94417,25.1976 10.93132,4.4467 72.87549,-29.6443 c 0,0 -1.48221,-17.78655 5.43479,-34.0909 6.91699,-16.30435 28.65612,-60.77075 31.62055,-82.50988 -37.05534,-27.17391 -29.1502,-84.48617 -23.22134,-92.88537 l -38.53755,-10.86957 c -7.41107,28.65613 -31.62056,39.03162 -47.43083,39.03162 l -1.48222,0 c -15.81027,0 -40.01976,-10.37549 -47.43083,-39.03162 z"
       id="path3865"
       inkscape:connector-curvature="0" />
  </g>
</svg>
