<?xml version="1.0" encoding="UTF-8" standalone="no"?>
<!-- Created with Inkscape (http://www.inkscape.org/) -->

<svg
   xmlns:dc="http://purl.org/dc/elements/1.1/"
   xmlns:cc="http://creativecommons.org/ns#"
   xmlns:rdf="http://www.w3.org/1999/02/22-rdf-syntax-ns#"
   xmlns:svg="http://www.w3.org/2000/svg"
   xmlns="http://www.w3.org/2000/svg"
   xmlns:sodipodi="http://sodipodi.sourceforge.net/DTD/sodipodi-0.dtd"
   xmlns:inkscape="http://www.inkscape.org/namespaces/inkscape"
   width="280"
   height="280"
   id="svg2"
   version="1.1"
   inkscape:version="0.48.4 r9939"
   sodipodi:docname="armor-helmaquatic.svg">
  <defs
     id="defs4" />
  <sodipodi:namedview
     id="base"
     pagecolor="#ffffff"
     bordercolor="#666666"
     borderopacity="1.0"
     inkscape:pageopacity="0.0"
     inkscape:pageshadow="2"
     inkscape:zoom="1"
     inkscape:cx="531.9682"
     inkscape:cy="126.72872"
     inkscape:document-units="px"
     inkscape:current-layer="layer1"
     showgrid="false"
     borderlayer="true"
     inkscape:showpageshadow="false"
     inkscape:window-width="1920"
     inkscape:window-height="1000"
     inkscape:window-x="0"
     inkscape:window-y="28"
     inkscape:window-maximized="1" />
  <metadata
     id="metadata7">
    <rdf:RDF>
      <cc:Work
         rdf:about="">
        <dc:format>image/svg+xml</dc:format>
        <dc:type
           rdf:resource="http://purl.org/dc/dcmitype/StillImage" />
        <dc:title />
      </cc:Work>
    </rdf:RDF>
  </metadata>
  <g
     inkscape:label="Calque 1"
     inkscape:groupmode="layer"
     id="layer1"
     transform="translate(0,-772.36218)">
    <path
       style="fill:#000000;fill-opacity:1;stroke:none"
       d="m 181.8003,802.36231 c -15.43469,-0.0669 -22.78974,12.14162 -33.53125,24.625 -11.08802,12.88607 -10.19985,15.87898 -38.96875,13.78125 -28.76891,-2.09773 -42.24055,19.46416 -56.625,38.34375 -14.38445,18.87959 -15.59598,32.36568 -0.3125,58.4375 15.28348,26.07181 82.40625,75.53129 82.40625,75.53129 l 0.0937,-0.1875 c 7.60652,5.8737 12.41734,5.9519 27.1875,7.6562 15.58315,1.7981 35.96875,1.8125 35.96875,1.8125 0,0 18.56101,-12.8859 28.75,-51.84374 2.32139,-8.87589 3.39844,-17.35099 3.5625,-25.21875 l 6.9375,-69.1875 c 0.0219,-0.21851 0.0639,-0.4353 0.125,-0.65625 1.3779,-14.50539 1.80809,-19.70531 0.125,-21 -2.06427,-1.5879 -9.26898,-4.18722 -13.53125,-10.71875 -3.26903,-4.44519 -5.48411,-12.53662 -8.59375,-20.65625 -5.39417,-14.08477 -15.58032,-19.78847 -32.0625,-20.6875 -0.51507,-0.0281 -1.03336,-0.029 -1.53125,-0.0312 z m -5.65625,28.5 c 0,0 5.68912,34.15726 7.1875,52.4375 1.42441,17.37778 -0.18794,11.77447 -12.1875,29.96875 -8.17833,9.58396 -17.53775,33.73223 -25.65625,58.71875 -10.54253,-8.10625 -36.90927,-28.53861 -52.375,-41.625 -19.47895,-16.48218 -15.56561,-29.96254 -6.875,-47.34375 8.6906,-17.38121 12.59152,-18.87338 27.875,-17.375 15.28348,1.49838 21.87352,0.002 32.0625,-3.59375 10.18899,-3.59611 29.96875,-31.1875 29.96875,-31.1875 z m 33.65625,4.9375 c 0.53201,1.80991 1.65944,4.4633 4.09375,8.25 5.39417,8.39093 14.09699,9.60421 17.09375,13.5 2.99677,3.89579 2.09774,9.28077 0,37.75 -0.72977,9.90399 -1.90072,19.09876 -3.0625,27 -0.82301,-3.30998 -1.78931,-6.3645 -2.9375,-9.15625 -0.0108,-0.026 -0.0205,-0.0677 -0.0312,-0.0937 -2.10425,-9.07792 -5.23622,-22.29789 -7.15625,-28.25 -2.65288,-8.22393 -6.99491,-41.18434 -8,-49 z m -46.71875,121.53125 c 3.06188,0 5.5625,2.61637 5.5625,5.84375 0,3.22738 -2.50062,5.84375 -5.5625,5.84375 -3.06187,0 -5.53125,-2.61637 -5.53125,-5.84375 0,-3.22738 2.46938,-5.84375 5.53125,-5.84375 z m 29.375,5.40625 c 3.06187,0 5.5625,2.61637 5.5625,5.84375 0,3.22738 -2.50063,5.84375 -5.5625,5.84375 -3.06188,0 -5.53125,-2.61637 -5.53125,-5.84375 0,-3.22738 2.46937,-5.84375 5.53125,-5.84375 z m 25.78125,3.59375 c 3.06188,0 5.53125,2.61637 5.53125,5.84375 0,3.22738 -2.46937,5.84375 -5.53125,5.84375 -3.06187,0 -5.53125,-2.61637 -5.53125,-5.84375 0,-3.22738 2.46938,-5.84375 5.53125,-5.84375 z"
       id="path3048"
       inkscape:connector-curvature="0" />
  </g>
</svg>
