<?xml version="1.0" encoding="UTF-8" standalone="no"?>
<!-- Created with Inkscape (http://www.inkscape.org/) -->

<svg
   xmlns:dc="http://purl.org/dc/elements/1.1/"
   xmlns:cc="http://creativecommons.org/ns#"
   xmlns:rdf="http://www.w3.org/1999/02/22-rdf-syntax-ns#"
   xmlns:svg="http://www.w3.org/2000/svg"
   xmlns="http://www.w3.org/2000/svg"
   xmlns:sodipodi="http://sodipodi.sourceforge.net/DTD/sodipodi-0.dtd"
   xmlns:inkscape="http://www.inkscape.org/namespaces/inkscape"
   width="280"
   height="280"
   id="svg2"
   version="1.1"
   inkscape:version="0.48.4 r9939"
   sodipodi:docname="armor-gloves.svg">
  <defs
     id="defs4" />
  <sodipodi:namedview
     id="base"
     pagecolor="#ffffff"
     bordercolor="#666666"
     borderopacity="1.0"
     inkscape:pageopacity="0.0"
     inkscape:pageshadow="2"
     inkscape:zoom="1.4142136"
     inkscape:cx="151.07322"
     inkscape:cy="95.397369"
     inkscape:document-units="px"
     inkscape:current-layer="layer1"
     showgrid="false"
     borderlayer="true"
     inkscape:showpageshadow="false"
     inkscape:window-width="1920"
     inkscape:window-height="1000"
     inkscape:window-x="0"
     inkscape:window-y="28"
     inkscape:window-maximized="1" />
  <metadata
     id="metadata7">
    <rdf:RDF>
      <cc:Work
         rdf:about="">
        <dc:format>image/svg+xml</dc:format>
        <dc:type
           rdf:resource="http://purl.org/dc/dcmitype/StillImage" />
        <dc:title></dc:title>
      </cc:Work>
    </rdf:RDF>
  </metadata>
  <g
     inkscape:label="Calque 1"
     inkscape:groupmode="layer"
     id="layer1"
     transform="translate(0,-772.36218)">
    <path
       style="fill:#000000;fill-opacity:1;stroke:none"
       d="m 73.94471,787.3622 c -18.04419,40.22352 -14.28761,99.62781 -14.28761,247.7406 0,0 25.59526,1.8835 44.39128,2.2594 11.55813,-93.95634 25.68525,-138.76007 35.81871,-139.48698 0.0831,0 0.18216,-0.006 0.26582,0 10.13346,0.72691 24.26058,45.53065 35.81871,139.48698 18.79603,-0.3759 44.39128,-2.2594 44.39128,-2.2594 0,-148.11274 3.75658,-207.51706 -14.28761,-247.7406 -27.63017,9.86792 -39.14603,10.48946 -58.21371,10.49973 -2.18333,10e-4 -4.56071,0.003 -6.97768,0 -0.61552,0 -1.12931,-7.2e-4 -1.7278,0 l -6.97767,0 c -19.06769,-0.0103 -30.58354,-0.63181 -58.21372,-10.49973 z"
       id="path4013"
       inkscape:connector-curvature="0" />
  </g>
</svg>
