<?xml version="1.0" encoding="UTF-8" standalone="no"?>
<!-- Created with Inkscape (http://www.inkscape.org/) -->

<svg
   xmlns:dc="http://purl.org/dc/elements/1.1/"
   xmlns:cc="http://creativecommons.org/ns#"
   xmlns:rdf="http://www.w3.org/1999/02/22-rdf-syntax-ns#"
   xmlns:svg="http://www.w3.org/2000/svg"
   xmlns="http://www.w3.org/2000/svg"
   xmlns:sodipodi="http://sodipodi.sourceforge.net/DTD/sodipodi-0.dtd"
   xmlns:inkscape="http://www.inkscape.org/namespaces/inkscape"
   width="280"
   height="280"
   id="svg2"
   version="1.1"
   inkscape:version="0.48.4 r9939"
   sodipodi:docname="armor-helm.svg">
  <defs
     id="defs4" />
  <sodipodi:namedview
     id="base"
     pagecolor="#ffffff"
     bordercolor="#666666"
     borderopacity="1.0"
     inkscape:pageopacity="0.0"
     inkscape:pageshadow="2"
     inkscape:zoom="1"
     inkscape:cx="351.24101"
     inkscape:cy="164.95705"
     inkscape:document-units="px"
     inkscape:current-layer="layer1"
     showgrid="false"
     borderlayer="true"
     inkscape:showpageshadow="false"
     inkscape:window-width="1920"
     inkscape:window-height="1000"
     inkscape:window-x="0"
     inkscape:window-y="28"
     inkscape:window-maximized="1" />
  <metadata
     id="metadata7">
    <rdf:RDF>
      <cc:Work
         rdf:about="">
        <dc:format>image/svg+xml</dc:format>
        <dc:type
           rdf:resource="http://purl.org/dc/dcmitype/StillImage" />
        <dc:title />
      </cc:Work>
    </rdf:RDF>
  </metadata>
  <g
     inkscape:label="Calque 1"
     inkscape:groupmode="layer"
     id="layer1"
     transform="translate(0,-772.36218)">
    <path
       style="fill:#000000;fill-opacity:1;stroke:none"
       d="m 140.00905,787.36218 c -51.658831,0 -93.258553,41.59972 -93.258553,93.25856 l 0,52.9024 0,1.38761 c 0,1.19963 -0.04274,2.44264 0,3.75809 0.317817,19.51563 5.052701,49.89164 67.183163,91.75536 0.89478,0.6084 1.74109,1.2377 2.65958,1.8501 2.37391,1.5703 4.63104,3.0237 7.16928,4.6254 0.0466,0.031 0.0651,0.085 0.11564,0.1156 0.19465,0.1233 0.3839,0.2235 0.57817,0.3469 l 0,-122.39826 -67.009721,-33.6494 165.009251,0 -66.89408,33.6494 0,122.28266 c 0.14881,-0.094 0.31416,-0.1371 0.46254,-0.2313 3.54995,-2.2383 6.71362,-4.4142 9.94449,-6.5911 63.14039,-42.54396 66.98463,-73.26924 67.18317,-92.73825 0.009,-0.89731 0.11563,-1.92618 0.11563,-2.7752 0.002,-0.4346 0,-0.96837 0,-1.38761 l 0,-52.9024 c 0,-51.65884 -41.59972,-93.25856 -93.25856,-93.25856 z"
       id="path2983"
       inkscape:connector-curvature="0" />
  </g>
</svg>
