<?xml version="1.0" encoding="UTF-8" standalone="no"?>
<!-- Created with Inkscape (http://www.inkscape.org/) -->

<svg
   xmlns:dc="http://purl.org/dc/elements/1.1/"
   xmlns:cc="http://creativecommons.org/ns#"
   xmlns:rdf="http://www.w3.org/1999/02/22-rdf-syntax-ns#"
   xmlns:svg="http://www.w3.org/2000/svg"
   xmlns="http://www.w3.org/2000/svg"
   xmlns:sodipodi="http://sodipodi.sourceforge.net/DTD/sodipodi-0.dtd"
   xmlns:inkscape="http://www.inkscape.org/namespaces/inkscape"
   width="280"
   height="280"
   id="svg2"
   version="1.1"
   inkscape:version="0.48.4 r9939"
   sodipodi:docname="attribute-concentration.svg">
  <defs
     id="defs4" />
  <sodipodi:namedview
     id="base"
     pagecolor="#ffffff"
     bordercolor="#666666"
     borderopacity="1.0"
     inkscape:pageopacity="0.0"
     inkscape:pageshadow="2"
     inkscape:zoom="0.125"
     inkscape:cx="-1528.8551"
     inkscape:cy="626.96845"
     inkscape:document-units="px"
     inkscape:current-layer="layer1"
     showgrid="false"
     borderlayer="true"
     inkscape:showpageshadow="false"
     inkscape:window-width="1920"
     inkscape:window-height="1000"
     inkscape:window-x="0"
     inkscape:window-y="28"
     inkscape:window-maximized="1" />
  <metadata
     id="metadata7">
    <rdf:RDF>
      <cc:Work
         rdf:about="">
        <dc:format>image/svg+xml</dc:format>
        <dc:type
           rdf:resource="http://purl.org/dc/dcmitype/StillImage" />
        <dc:title></dc:title>
      </cc:Work>
    </rdf:RDF>
  </metadata>
  <g
     inkscape:label="Calque 1"
     inkscape:groupmode="layer"
     id="layer1"
     transform="translate(0,-772.36218)">
    <path
       style="fill:#000000;fill-opacity:1;stroke:none"
       d="M 139.99995,775.23874 2.84375,912.39499 139.99995,1049.4856 277.15625,912.39499 139.99995,775.23874 z m -42.9187,69.49688 c 3.3491,-0.0498 7.4609,0.13125 11.6157,0.13125 l 1.9688,0 58.6687,0 1.9688,0 c 11.0796,0 21.9164,-1.08411 18.4405,3.47812 -3.4759,4.56221 -9.5743,14.53446 -11.7468,25.39688 -2.1724,10.86242 -11.5227,23.02967 -20.2125,28.67812 -8.3475,5.42577 -10.2293,7.69041 -10.3687,9.975 0.1386,2.28459 2.0212,4.48361 10.3687,9.90938 8.6898,5.64845 18.0401,17.81577 20.2125,28.67812 2.1725,10.86242 8.2709,20.83467 11.7468,25.39688 3.4759,4.56223 -7.3609,3.47812 -18.4405,3.47812 l -1.9688,0 -58.6687,0 -1.9688,0 c -4.1548,0 -8.2666,0.18165 -11.6157,0.13125 -5.5818,-0.0834 -8.9975,-0.75784 -6.825,-3.60937 3.4759,-4.56221 9.5743,-14.53446 11.747,-25.39688 2.1724,-10.86235 11.5225,-23.02967 20.2125,-28.67812 8.3473,-5.42577 10.2293,-7.62479 10.3687,-9.90938 -0.1386,-2.28459 -2.0214,-4.54923 -10.3687,-9.975 -8.69,-5.64845 -18.0401,-17.8157 -20.2125,-28.67812 -2.1727,-10.86242 -8.2711,-20.83467 -11.747,-25.39688 -2.1725,-2.85138 1.2432,-3.52663 6.825,-3.60937 z"
       id="rect4648"
       inkscape:connector-curvature="0" />
  </g>
</svg>
