<?xml version="1.0" encoding="UTF-8" standalone="no"?>
<!-- Created with Inkscape (http://www.inkscape.org/) -->

<svg
   xmlns:dc="http://purl.org/dc/elements/1.1/"
   xmlns:cc="http://creativecommons.org/ns#"
   xmlns:rdf="http://www.w3.org/1999/02/22-rdf-syntax-ns#"
   xmlns:svg="http://www.w3.org/2000/svg"
   xmlns="http://www.w3.org/2000/svg"
   xmlns:sodipodi="http://sodipodi.sourceforge.net/DTD/sodipodi-0.dtd"
   xmlns:inkscape="http://www.inkscape.org/namespaces/inkscape"
   width="280"
   height="280"
   id="svg2"
   version="1.1"
   inkscape:version="0.48.4 r9939"
   sodipodi:docname="attribute-armor.svg">
  <defs
     id="defs4" />
  <sodipodi:namedview
     id="base"
     pagecolor="#ffffff"
     bordercolor="#666666"
     borderopacity="1.0"
     inkscape:pageopacity="0.0"
     inkscape:pageshadow="2"
     inkscape:zoom="0.125"
     inkscape:cx="-1528.8551"
     inkscape:cy="626.96845"
     inkscape:document-units="px"
     inkscape:current-layer="layer1"
     showgrid="false"
     borderlayer="true"
     inkscape:showpageshadow="false"
     inkscape:window-width="1920"
     inkscape:window-height="1000"
     inkscape:window-x="0"
     inkscape:window-y="28"
     inkscape:window-maximized="1" />
  <metadata
     id="metadata7">
    <rdf:RDF>
      <cc:Work
         rdf:about="">
        <dc:format>image/svg+xml</dc:format>
        <dc:type
           rdf:resource="http://purl.org/dc/dcmitype/StillImage" />
        <dc:title></dc:title>
      </cc:Work>
    </rdf:RDF>
  </metadata>
  <g
     inkscape:label="Calque 1"
     inkscape:groupmode="layer"
     id="layer1"
     transform="translate(0,-772.36218)">
    <path
       style="fill:#000000;fill-opacity:1;stroke:none"
       d="m 105.41572,810.64343 c -3.4902,0 -6.3,2.8098 -6.3,6.3 l 0,54.6 -54.53448,0 c -3.4902,0 -6.3,2.8098 -6.3,6.3 l 0,69.10312 c 0,3.4902 2.8098,6.3 6.3,6.3 l 54.53448,0 0,54.53435 c 0,3.4902 2.8098,6.3 6.3,6.3 l 69.10304,0 c 3.4902,0 6.3,-2.8098 6.3,-6.3 l 0,-54.53435 54.6,0 c 3.4902,0 6.3,-2.8098 6.3,-6.3 l 0,-69.10312 c 0,-3.4902 -2.8098,-6.3 -6.3,-6.3 l -54.6,0 0,-54.6 c 0,-3.4902 -2.8098,-6.3 -6.3,-6.3 l -69.10304,0 z"
       id="rect4605"
       inkscape:connector-curvature="0" />
  </g>
</svg>
