<?xml version="1.0" encoding="UTF-8" standalone="no"?>
<!-- Created with Inkscape (http://www.inkscape.org/) -->

<svg
   xmlns:dc="http://purl.org/dc/elements/1.1/"
   xmlns:cc="http://creativecommons.org/ns#"
   xmlns:rdf="http://www.w3.org/1999/02/22-rdf-syntax-ns#"
   xmlns:svg="http://www.w3.org/2000/svg"
   xmlns="http://www.w3.org/2000/svg"
   xmlns:sodipodi="http://sodipodi.sourceforge.net/DTD/sodipodi-0.dtd"
   xmlns:inkscape="http://www.inkscape.org/namespaces/inkscape"
   width="280"
   height="280"
   id="svg2"
   version="1.1"
   inkscape:version="0.48.4 r9939"
   sodipodi:docname="attribute-ferocity.svg">
  <defs
     id="defs4" />
  <sodipodi:namedview
     id="base"
     pagecolor="#ffffff"
     bordercolor="#666666"
     borderopacity="1.0"
     inkscape:pageopacity="0.0"
     inkscape:pageshadow="2"
     inkscape:zoom="0.125"
     inkscape:cx="-1528.8551"
     inkscape:cy="626.96845"
     inkscape:document-units="px"
     inkscape:current-layer="layer1"
     showgrid="false"
     borderlayer="true"
     inkscape:showpageshadow="false"
     inkscape:window-width="1920"
     inkscape:window-height="1000"
     inkscape:window-x="0"
     inkscape:window-y="28"
     inkscape:window-maximized="1" />
  <metadata
     id="metadata7">
    <rdf:RDF>
      <cc:Work
         rdf:about="">
        <dc:format>image/svg+xml</dc:format>
        <dc:type
           rdf:resource="http://purl.org/dc/dcmitype/StillImage" />
        <dc:title></dc:title>
      </cc:Work>
    </rdf:RDF>
  </metadata>
  <g
     inkscape:label="Calque 1"
     inkscape:groupmode="layer"
     id="layer1"
     transform="translate(0,-772.36218)">
    <path
       style="fill:#000000;fill-opacity:1;stroke:none"
       d="m 140.00002,794.30281 -99.09375,99.09374 32.15625,0 0,137.02505 133.87496,0 0,-137.02505 32.15625,0 -99.09371,-99.09374 z m -64.18125,73.95937 c 24.59457,6.59003 41.67198,23.82175 41.67177,23.82187 l 22.575,22.575 22.50948,-22.575 c -2.1e-4,-1.2e-4 17.07726,-17.23184 41.67183,-23.82187 -6.66296,24.86599 -23.82187,41.7375 -23.82187,41.7375 l -22.50944,22.50937 24.41256,24.47813 -0.0655,0.0655 c 8.22923,8.57401 4.65923,9.44977 9.31875,14.10937 0.17073,0.17073 0.299,0.31059 0.45938,0.45938 l 0,25.9875 c -1.37023,-0.28705 -2.74248,-0.6065 -4.06875,-1.11563 -10.2613,8.03618 -21.59983,13.47188 -32.94382,16.01248 -2.07627,-2.3559 -3.49923,-5.2153 -4.26552,-8.4 10.31121,-1.9263 20.99622,-6.67382 30.71246,-14.04373 -0.28755,-1.67594 0.27269,-3.00885 -2.75621,-6.0375 -4.65948,-4.6596 -5.53539,-1.08954 -14.10948,-9.31875 l -0.1302,0.13125 -24.4125,-24.47812 -24.47802,24.47812 -0.1302,-0.13125 c -8.57409,8.22921 -9.44979,4.65915 -14.10948,9.31875 -3.02883,3.02865 -2.46855,4.36156 -2.75625,6.0375 9.71628,7.36991 20.40129,12.11743 30.7125,14.04373 -0.76629,3.1847 -2.18925,6.0441 -4.26552,8.4 -11.34399,-2.5406 -22.68252,-7.9763 -32.94375,-16.01248 -1.34715,0.51717 -2.74364,0.8261 -4.13448,1.11563 l 0,-25.9875 c 0.1722,-0.15813 0.34167,-0.27598 0.525,-0.45938 4.65969,-4.6596 1.08969,-5.53536 9.31875,-14.10937 l -0.0651,-0.0655 24.4125,-24.47813 -22.50948,-22.50937 c 0,0 -17.15889,-16.87151 -23.82177,-41.7375 z"
       id="rect4708"
       inkscape:connector-curvature="0" />
  </g>
</svg>
