<?xml version="1.0" encoding="UTF-8" standalone="no"?>
<!-- Created with Inkscape (http://www.inkscape.org/) -->

<svg
   xmlns:dc="http://purl.org/dc/elements/1.1/"
   xmlns:cc="http://creativecommons.org/ns#"
   xmlns:rdf="http://www.w3.org/1999/02/22-rdf-syntax-ns#"
   xmlns:svg="http://www.w3.org/2000/svg"
   xmlns="http://www.w3.org/2000/svg"
   xmlns:sodipodi="http://sodipodi.sourceforge.net/DTD/sodipodi-0.dtd"
   xmlns:inkscape="http://www.inkscape.org/namespaces/inkscape"
   width="280"
   height="280"
   id="svg2"
   version="1.1"
   inkscape:version="0.48.4 r9939"
   sodipodi:docname="crafting-huntsman.svg">
  <defs
     id="defs4" />
  <sodipodi:namedview
     id="base"
     pagecolor="#ffffff"
     bordercolor="#666666"
     borderopacity="1.0"
     inkscape:pageopacity="0.0"
     inkscape:pageshadow="2"
     inkscape:zoom="0.35355339"
     inkscape:cx="-548.0563"
     inkscape:cy="-263.66182"
     inkscape:document-units="px"
     inkscape:current-layer="layer1"
     showgrid="false"
     borderlayer="true"
     inkscape:showpageshadow="false"
     inkscape:window-width="1920"
     inkscape:window-height="1000"
     inkscape:window-x="0"
     inkscape:window-y="28"
     inkscape:window-maximized="1" />
  <metadata
     id="metadata7">
    <rdf:RDF>
      <cc:Work
         rdf:about="">
        <dc:format>image/svg+xml</dc:format>
        <dc:type
           rdf:resource="http://purl.org/dc/dcmitype/StillImage" />
        <dc:title></dc:title>
      </cc:Work>
    </rdf:RDF>
  </metadata>
  <g
     inkscape:label="Calque 1"
     inkscape:groupmode="layer"
     id="layer1"
     transform="translate(0,-772.36218)">
    <path
       style="fill:#000000;fill-opacity:1;stroke:none"
       d="m 140,772.36217 -4.34445,3.69279 -34.97285,28.45616 -48.8751,40.18619 -2.60667,1.95501 0,3.25834 0,21.50504 0,57.12956 0,24.76338 0,21.50505 0,3.2583 2.60667,2.1723 48.8751,39.96891 34.97285,28.6734 4.34445,3.4756 4.34445,-3.4756 34.97285,-28.6734 48.8751,-39.96891 2.60667,-2.1723 0,-3.2583 0,-21.50505 0,-24.76338 0,-32.36618 0,-24.76338 0,-21.50504 0,-3.25834 -2.60667,-1.95501 L 179.3173,804.51112 144.34445,776.05496 140,772.36217 z m -6.95113,23.67727 0,34.5384 -16.29169,13.46781 -27.37006,22.15671 -21.0706,-17.16059 41.27231,-33.66951 23.46004,-19.33282 z m 13.90225,0 23.46005,19.33282 41.2723,33.66951 -21.07059,17.16059 -27.37006,-22.15671 -16.2917,-13.46781 0,-34.5384 z m -83.84794,66.90458 20.85337,16.94336 0,5.21335 0,16.50892 0,21.72226 0,16.50893 0,5.64778 -20.85337,16.94337 0,-9.12335 0,-24.76338 0,-57.12956 0,-8.47168 z m 153.79364,0 0,8.47168 0,24.76338 0,32.36618 0,24.76338 0,9.12335 -20.85338,-16.94337 0,-5.64778 0,-16.50893 0,-38.23118 0,-5.21335 20.85338,-16.94336 z m -127.29248,95.79517 27.15284,22.1567 16.29169,13.4678 0,34.53841 -23.46004,-19.3328 -41.05508,-33.66951 21.07059,-17.1606 z m 100.79131,0 21.0706,17.1606 -41.05508,33.66951 -23.46005,19.3328 0,-34.53841 16.2917,-13.4678 27.15283,-22.1567 z"
       id="rect4270"
       inkscape:connector-curvature="0" />
  </g>
</svg>
