<?xml version="1.0" encoding="UTF-8" standalone="no"?>
<!-- Created with Inkscape (http://www.inkscape.org/) -->

<svg
   xmlns:dc="http://purl.org/dc/elements/1.1/"
   xmlns:cc="http://creativecommons.org/ns#"
   xmlns:rdf="http://www.w3.org/1999/02/22-rdf-syntax-ns#"
   xmlns:svg="http://www.w3.org/2000/svg"
   xmlns="http://www.w3.org/2000/svg"
   xmlns:sodipodi="http://sodipodi.sourceforge.net/DTD/sodipodi-0.dtd"
   xmlns:inkscape="http://www.inkscape.org/namespaces/inkscape"
   width="280"
   height="280"
   id="svg2"
   version="1.1"
   inkscape:version="0.48.4 r9939"
   sodipodi:docname="crafting-scribe.svg">
  <defs
     id="defs4" />
  <sodipodi:namedview
     id="base"
     pagecolor="#ffffff"
     bordercolor="#666666"
     borderopacity="1.0"
     inkscape:pageopacity="0.0"
     inkscape:pageshadow="2"
     inkscape:zoom="0.70710678"
     inkscape:cx="-51.796888"
     inkscape:cy="163.81484"
     inkscape:document-units="px"
     inkscape:current-layer="layer1"
     showgrid="false"
     borderlayer="true"
     inkscape:showpageshadow="false"
     inkscape:window-width="1920"
     inkscape:window-height="1000"
     inkscape:window-x="0"
     inkscape:window-y="28"
     inkscape:window-maximized="1" />
  <metadata
     id="metadata7">
    <rdf:RDF>
      <cc:Work
         rdf:about="">
        <dc:format>image/svg+xml</dc:format>
        <dc:type
           rdf:resource="http://purl.org/dc/dcmitype/StillImage" />
        <dc:title></dc:title>
      </cc:Work>
    </rdf:RDF>
  </metadata>
  <g
     inkscape:label="Calque 1"
     inkscape:groupmode="layer"
     id="layer1"
     transform="translate(0,-772.36218)">
    <path
       style="fill:#000000;fill-opacity:1;stroke:none"
       d="m 111.36118,779.36252 c -21.428991,0 -38.800651,17.37166 -38.800651,38.80065 0,8.03591 2.4987,15.57883 6.68234,21.77148 0.15313,0.22625 0.27384,0.42353 0.43111,0.64633 5.27848,8.66279 15.8117,24.16642 22.633721,34.05835 8.62236,12.50243 7.32901,25.8671 7.32901,25.8671 l 0,13.58022 -67.038901,42.03404 c 0,0 -23.37048,11.92121 -17.46029,41.38736 l 84.499191,-52.812 0,100.66615 c 28.12285,-10.5968 25.8671,-36.6451 25.8671,-36.6451 l 0,-80.18798 12.50243,-7.76013 c 0,0 10.69539,-8.23436 25.8671,-7.54457 12.00385,0.54562 30.81254,1.18954 40.95624,1.07779 0.27246,0.0138 0.37386,-0.0138 0.64633,0 7.46855,0.26764 15.17122,-1.56306 21.98703,-5.82009 18.17519,-11.3518 23.8543,-35.28349 12.50243,-53.45868 -11.35186,-18.17519 -35.28348,-23.63873 -53.45867,-12.28687 -8.40529,5.24978 -14.02038,13.16891 -16.59805,21.98704 -3.88531,10.39512 -2.91553,19.77626 -15.52026,24.35818 -9.15682,3.32851 -21.83307,7.99245 -30.39384,11.42464 -1.65301,-9.04928 -4.30691,-21.47128 -6.25122,-30.6094 -2.79109,-13.11807 5.74395,-17.28054 12.50243,-26.08266 6.11367,-6.85768 9.91572,-15.74148 9.91572,-25.65154 0,-21.429 -17.37165,-38.80065 -38.80064,-38.80065 z m 0,21.98704 c 9.28588,0 16.81362,7.52774 16.81362,16.81361 0,9.28588 -7.52774,16.81362 -16.81362,16.81362 -9.28587,0 -16.813611,-7.52774 -16.813611,-16.81362 0,-9.28587 7.527741,-16.81361 16.813611,-16.81361 z m 106.27067,57.55429 c 5.39394,0.19383 10.50576,2.83773 13.58022,7.76013 4.91917,7.87588 2.4869,18.3613 -5.38898,23.28039 -7.87594,4.91917 -18.14566,2.4869 -23.06483,-5.38898 -4.91916,-7.87587 -2.48689,-18.36136 5.38898,-23.28039 2.95347,-1.8447 6.24825,-2.48724 9.48461,-2.37115 z"
       id="path4588"
       inkscape:connector-curvature="0" />
  </g>
</svg>
