<?xml version="1.0" encoding="UTF-8" standalone="no"?>
<!-- Created with Inkscape (http://www.inkscape.org/) -->

<svg
   xmlns:dc="http://purl.org/dc/elements/1.1/"
   xmlns:cc="http://creativecommons.org/ns#"
   xmlns:rdf="http://www.w3.org/1999/02/22-rdf-syntax-ns#"
   xmlns:svg="http://www.w3.org/2000/svg"
   xmlns="http://www.w3.org/2000/svg"
   xmlns:sodipodi="http://sodipodi.sourceforge.net/DTD/sodipodi-0.dtd"
   xmlns:inkscape="http://www.inkscape.org/namespaces/inkscape"
   width="280"
   height="280"
   id="svg2"
   version="1.1"
   inkscape:version="0.48.4 r9939"
   sodipodi:docname="crafting-jeweler.svg">
  <defs
     id="defs4" />
  <sodipodi:namedview
     id="base"
     pagecolor="#ffffff"
     bordercolor="#666666"
     borderopacity="1.0"
     inkscape:pageopacity="0.0"
     inkscape:pageshadow="2"
     inkscape:zoom="0.70710678"
     inkscape:cx="562.3377"
     inkscape:cy="-193.24171"
     inkscape:document-units="px"
     inkscape:current-layer="layer1"
     showgrid="false"
     borderlayer="true"
     inkscape:showpageshadow="false"
     inkscape:window-width="1920"
     inkscape:window-height="1000"
     inkscape:window-x="0"
     inkscape:window-y="28"
     inkscape:window-maximized="1" />
  <metadata
     id="metadata7">
    <rdf:RDF>
      <cc:Work
         rdf:about="">
        <dc:format>image/svg+xml</dc:format>
        <dc:type
           rdf:resource="http://purl.org/dc/dcmitype/StillImage" />
        <dc:title></dc:title>
      </cc:Work>
    </rdf:RDF>
  </metadata>
  <g
     inkscape:label="Calque 1"
     inkscape:groupmode="layer"
     id="layer1"
     transform="translate(0,-772.36218)">
    <path
       style="fill:#000000;fill-opacity:1;stroke:none"
       d="m 139.24539,789.86218 c 0,0 -6.14898,0.034 -13.1513,3.4495 -7.00232,3.4158 -14.54311,9.8343 -17.46319,23.9311 -3.06594,14.7991 -3.0549,24.0969 -3.44953,30.1833 -0.19724,3.0431 -0.32715,5.424 -1.94035,7.7614 -1.6132,2.3374 -4.634976,3.2339 -7.545826,3.2339 -6.79286,0 -11.76445,-5.2122 -16.38522,-10.7797 -4.62077,-5.5669 -9.10645,-11.9947 -14.22927,-16.8164 -9.51018,-8.9508 -24.73713,-7.1712 -33.41722,1.5091 -8.23821,8.2382 -8.50003,26.4679 6.03666,41.6099 15.36457,16.0051 36.65115,34.3161 36.65115,58.4262 0,12.4493 -7.41957,24.8317 -15.52284,36.22 -8.10327,11.3882 -17.1962,21.8479 -20.91272,28.8897 -3.68691,6.98532 -4.04918,14.50972 -2.80273,20.91272 1.24645,6.4037 4.32728,11.6953 7.11463,14.2293 2.13802,1.9441 7.7606,3.0614 14.66046,1.5092 6.89987,-1.5523 14.85026,-5.3637 20.91272,-11.4266 6.35574,-6.3554 11.61488,-13.7125 17.032,-18.5411 2.70857,-2.414 5.654666,-4.23952 9.054986,-4.74312 3.40033,-0.503 6.98218,0.89612 9.70178,3.88072 4.60628,5.0556 8.56654,10.6321 12.72011,14.6604 4.15356,4.0284 8.13721,6.4679 13.36689,6.4679 l 0.43119,0 c 0.0317,0 0.22939,0 0.21559,0 5.22968,0 9.21332,-2.4388 13.36689,-6.4679 4.15357,-4.0283 8.11376,-9.6048 12.72011,-14.6604 2.7196,-2.9846 6.30137,-4.38442 9.70177,-3.88072 3.4004,0.5029 6.34643,2.32912 9.05499,4.74312 5.4172,4.8286 10.67627,12.1857 17.03201,18.5411 6.06246,6.0629 14.01284,9.8743 20.91271,11.4266 6.89987,1.5522 12.52245,0.4349 14.66046,-1.5092 2.78735,-2.534 5.86819,-7.8256 7.11464,-14.2293 1.24645,-6.403 0.88418,-13.9274 -2.80274,-20.91272 -3.71651,-7.0418 -12.80944,-17.5015 -20.91271,-28.8897 -8.10327,-11.3883 -15.52284,-23.7707 -15.52284,-36.22 0,-24.1101 21.2865,-42.4218 36.65115,-58.4262 14.53676,-15.1427 14.27494,-33.3717 6.03666,-41.6099 -8.6801,-8.6803 -23.90704,-10.4599 -33.41723,-1.5091 -5.12281,4.8217 -9.6085,11.2495 -14.22927,16.8164 -4.62077,5.5675 -9.59235,10.7797 -16.38522,10.7797 -2.91084,0 -5.93262,-0.8965 -7.54582,-3.2339 -1.61334,-2.3374 -1.74305,-4.7183 -1.94036,-7.7614 -0.39455,-6.0864 -0.38386,-15.3842 -3.44952,-30.1833 -2.92002,-14.0961 -10.46081,-20.5147 -17.46319,-23.9311 -7.00239,-3.4495 -13.1513,-3.4495 -13.1513,-3.4495 l -1.50916,0 z"
       id="path4400"
       inkscape:connector-curvature="0" />
  </g>
</svg>
