<?xml version="1.0" encoding="UTF-8" standalone="no"?>
<!-- Created with Inkscape (http://www.inkscape.org/) -->

<svg
   xmlns:dc="http://purl.org/dc/elements/1.1/"
   xmlns:cc="http://creativecommons.org/ns#"
   xmlns:rdf="http://www.w3.org/1999/02/22-rdf-syntax-ns#"
   xmlns:svg="http://www.w3.org/2000/svg"
   xmlns="http://www.w3.org/2000/svg"
   xmlns:sodipodi="http://sodipodi.sourceforge.net/DTD/sodipodi-0.dtd"
   xmlns:inkscape="http://www.inkscape.org/namespaces/inkscape"
   width="280"
   height="280"
   id="svg2"
   version="1.1"
   inkscape:version="0.48.4 r9939"
   sodipodi:docname="mode-pvp.svg">
  <defs
     id="defs4" />
  <sodipodi:namedview
     id="base"
     pagecolor="#ffffff"
     bordercolor="#666666"
     borderopacity="1.0"
     inkscape:pageopacity="0.0"
     inkscape:pageshadow="2"
     inkscape:zoom="2"
     inkscape:cx="69.855711"
     inkscape:cy="161.96729"
     inkscape:document-units="px"
     inkscape:current-layer="layer1"
     showgrid="false"
     borderlayer="true"
     inkscape:showpageshadow="false"
     inkscape:window-width="1920"
     inkscape:window-height="1000"
     inkscape:window-x="0"
     inkscape:window-y="28"
     inkscape:window-maximized="1" />
  <metadata
     id="metadata7">
    <rdf:RDF>
      <cc:Work
         rdf:about="">
        <dc:format>image/svg+xml</dc:format>
        <dc:type
           rdf:resource="http://purl.org/dc/dcmitype/StillImage" />
        <dc:title />
      </cc:Work>
    </rdf:RDF>
  </metadata>
  <g
     inkscape:label="Calque 1"
     inkscape:groupmode="layer"
     id="layer1"
     transform="translate(0,-772.36218)">
    <path
       style="fill:#000000;fill-opacity:1;stroke:none"
       d="m 19.32509,801.56104 -5.925,0.0749 -4.5,0.0749 -6.675,6.9 0.075,4.35 0.075,0.0749 0.15,5.925 c 0.198144,11.34732 1.95,14.475 1.95,14.475 l 14.625,-0.3 31.725,30.6 c 7.12147,6.87708 2.52653,17.47075 -2.475,22.65 -5.00155,5.17925 -8.01926,3.11285 -13.125,8.4 -5.10571,5.28713 -0.3,8.475 -0.3,8.475 l 7.65,7.35 0,0.15 0.075,-0.0749 69.75,-72.225 -0.0749,-0.0749 -7.65,-7.35 c 0,0 -3.36926,-4.68715 -8.475,0.6 -5.10571,5.28718 -2.9485,8.17073 -7.95,13.35 -5.00158,5.17922 -15.37855,10.17713 -22.5,3.3 l -31.725,-30.675 -0.3,-15.075 c 0,0 -3.05268,-1.17305 -14.4,-0.975 z m 237.6,0 c -8.21645,0.18144 -10.65,1.425 -10.65,1.425 l -0.15,14.625 -31.725,30.675 c -7.12145,6.87713 -17.57345,1.87925 -22.575,-3.3 -5.00153,-5.17925 -2.84426,-8.13785 -7.95,-13.425 -5.10574,-5.28713 -8.475,-0.525 -8.475,-0.525 l -7.575,7.35 -0.15,0 0,0.0749 69.825,72.225 0.0749,-0.0749 7.575,-7.35 c 0,0 4.88074,-3.18785 -0.22488,-8.475 -5.10576,-5.28713 -8.12345,-3.22075 -13.125,-8.4 -5.00153,-5.17925 -9.59647,-15.7729 -2.475,-22.65 l 31.725,-30.6 15.075,0.15 c 0,0 1.30193,-2.97768 1.5,-14.325 l 0.0749,-5.925 0.0749,-4.5 -6.6,-6.9 -4.35,-0.0749 -0.0749,0.0749 -5.925,-0.0749 c -1.41842,-0.0247 -2.72623,-0.0259 -3.9,0 z m -84.825,62.475 c 0,0 -6.04286,11.45225 -13.425,21.825 -7.38216,10.37273 -35.69167,45.33883 -50.925,58.575 -14.72006,12.79015 -49.54294,44.8505 -57.9,74.09996 -0.29138,1.0199 -0.6001,1.988 -0.825,3 l -0.3,1.575 1.575,-0.2248 c 0.83789,-0.1558 1.70518,-0.3243 2.55,-0.525 l 0.0749,0 c 29.64379,-7.0776 63.13066,-41.15673 76.5,-55.50004 13.75973,-14.76209 49.67594,-41.80934 60.3,-48.825 10.62418,-7.01578 22.27512,-12.67512 22.27512,-12.67512 l 0.22488,-18.075 -22.125,-22.875 -18,-0.375 z m -64.125,0.0749 -18.075,0.375 -22.125,22.95 0.3,18 c 0,0 11.65094,5.65937 22.275,12.675 4.41372,2.91463 13.21642,9.36658 22.95,16.875 8.06966,-8.66818 16.77938,-18.7567 24.525,-28.125 -7.33121,-8.89356 -13.51236,-16.83242 -16.425,-20.925 -7.38216,-10.37273 -13.425,-21.825 -13.425,-21.825 z m 58.725,75.15 c -8.121,6.27655 -16.61568,13.04803 -24.375,19.65 3.15953,2.87414 6.11227,5.65109 8.325,8.025 13.29607,14.26471 46.52666,47.94386 76.05,55.27496 1.02943,0.2557 2.05567,0.4856 3.075,0.675 l 1.575,0.3 -0.3,-1.575 c -0.18504,-0.8319 -0.36996,-1.7126 -0.6,-2.55 l -0.0749,0 c -8.10778,-29.3787 -43.24884,-61.76432 -58.05,-74.62496 -1.70501,-1.48147 -3.64106,-3.21533 -5.625,-5.175 z"
       id="path3828"
       inkscape:connector-curvature="0" />
  </g>
</svg>
