<?xml version="1.0" encoding="UTF-8" standalone="no"?>
<!-- Created with Inkscape (http://www.inkscape.org/) -->

<svg
   xmlns:dc="http://purl.org/dc/elements/1.1/"
   xmlns:cc="http://creativecommons.org/ns#"
   xmlns:rdf="http://www.w3.org/1999/02/22-rdf-syntax-ns#"
   xmlns:svg="http://www.w3.org/2000/svg"
   xmlns="http://www.w3.org/2000/svg"
   xmlns:sodipodi="http://sodipodi.sourceforge.net/DTD/sodipodi-0.dtd"
   xmlns:inkscape="http://www.inkscape.org/namespaces/inkscape"
   width="280"
   height="280"
   id="svg2"
   version="1.1"
   inkscape:version="0.48.4 r9939"
   sodipodi:docname="mode-pve.svg">
  <defs
     id="defs4" />
  <sodipodi:namedview
     id="base"
     pagecolor="#ffffff"
     bordercolor="#666666"
     borderopacity="1.0"
     inkscape:pageopacity="0.0"
     inkscape:pageshadow="2"
     inkscape:zoom="1.4142136"
     inkscape:cx="197.96468"
     inkscape:cy="-9.292398"
     inkscape:document-units="px"
     inkscape:current-layer="layer1"
     showgrid="false"
     borderlayer="true"
     inkscape:showpageshadow="false"
     inkscape:window-width="2560"
     inkscape:window-height="1028"
     inkscape:window-x="1920"
     inkscape:window-y="0"
     inkscape:window-maximized="1" />
  <metadata
     id="metadata7">
    <rdf:RDF>
      <cc:Work
         rdf:about="">
        <dc:format>image/svg+xml</dc:format>
        <dc:type
           rdf:resource="http://purl.org/dc/dcmitype/StillImage" />
        <dc:title />
      </cc:Work>
    </rdf:RDF>
  </metadata>
  <g
     inkscape:label="Calque 1"
     inkscape:groupmode="layer"
     id="layer1"
     transform="translate(0,-772.36218)">
    <path
       style="fill:#000000;fill-opacity:1;stroke:none"
       d="M 30.78125 24.46875 C 30.529297 24.465225 30.27771 24.485036 30.03125 24.53125 C 29.785962 24.578636 29.522949 24.650681 29.28125 24.75 C 28.802967 24.945694 28.323125 25.250625 27.84375 25.65625 C 27.1125 26.275 26.5802 26.900491 26.21875 27.5625 C 26.214555 27.570079 26.222898 27.586165 26.21875 27.59375 C 25.271413 29.352227 25.567372 31.255703 26.96875 33.3125 C 27.144751 33.570312 27.352734 33.83125 27.5625 34.09375 C 28.40345 35.151635 29.485288 36.242948 30.84375 37.375 C 32.113861 38.433425 34.623699 40.757123 37.9375 44 C 47.050451 52.911467 62.200644 68.770964 74.15625 84.5625 C 74.161204 84.569044 74.151297 84.587206 74.15625 84.59375 C 75.237783 86.02261 76.321586 87.452859 77.34375 88.875 L 89.125 76.21875 C 85.283318 72.985793 80.740325 69.127335 76 65.03125 C 73.638579 62.991078 71.241012 60.880319 68.84375 58.78125 C 68.83782 58.776057 68.81843 58.786443 68.8125 58.78125 C 66.409354 56.676954 64.032064 54.559146 61.71875 52.5 C 59.399124 50.434886 57.165189 48.445984 55.0625 46.53125 C 52.970793 44.627 51.033889 42.808546 49.28125 41.15625 C 49.27548 41.150809 49.255765 41.161688 49.25 41.15625 C 48.371719 40.328144 47.550658 39.526424 46.78125 38.78125 C 45.242673 37.290902 43.946457 35.986709 42.9375 34.90625 C 42.432976 34.366021 42.004765 33.886967 41.65625 33.46875 C 40.53125 32.11875 39.463013 30.874829 38.46875 29.78125 C 37.971619 29.234461 37.500503 28.722879 37.03125 28.25 C 36.561997 27.777121 36.10083 27.361182 35.65625 26.96875 C 35.203857 26.569422 34.773942 26.21545 34.34375 25.90625 C 34.206736 25.807338 34.072485 25.714337 33.9375 25.625 C 33.862322 25.575607 33.793326 25.515107 33.71875 25.46875 C 33.31377 25.214641 32.920221 25.005117 32.53125 24.84375 C 32.521752 24.839856 32.509489 24.847586 32.5 24.84375 C 32.438042 24.818351 32.374097 24.804199 32.3125 24.78125 C 32.187383 24.735442 32.06121 24.691755 31.9375 24.65625 C 31.547714 24.544382 31.15918 24.474024 30.78125 24.46875 z M 120.46875 48.0625 A 4.80048 4.80048 0 0 0 120.25 48.09375 A 4.80048 4.80048 0 0 0 119.9375 48.125 A 4.80048 4.80048 0 0 0 119.78125 48.15625 A 4.80048 4.80048 0 0 0 119.46875 48.21875 A 4.80048 4.80048 0 0 0 119.15625 48.3125 A 4.80048 4.80048 0 0 0 119 48.34375 A 4.80048 4.80048 0 0 0 118.84375 48.40625 A 4.80048 4.80048 0 0 0 118.5625 48.53125 A 4.80048 4.80048 0 0 0 118.40625 48.59375 A 4.80048 4.80048 0 0 0 118.15625 48.75 A 4.80048 4.80048 0 0 0 117.96875 48.875 A 4.80048 4.80048 0 0 0 117.625 49.09375 A 4.80048 4.80048 0 0 0 117.53125 49.1875 A 4.80048 4.80048 0 0 0 117.375 49.3125 A 4.80048 4.80048 0 0 0 117.25 49.4375 A 4.80048 4.80048 0 0 0 117.03125 49.65625 L 54.90625 116.5625 A 4.831057 4.831057 0 0 0 54.78125 116.71875 A 4.8286256 4.8286256 0 0 0 54.59375 116.96875 A 4.8286256 4.8286256 0 0 0 54.09375 117.75 A 4.831057 4.831057 0 0 0 53.9375 118.125 A 4.8286256 4.8286256 0 0 0 53.90625 118.25 A 4.831057 4.831057 0 0 0 53.84375 118.375 A 4.8286256 4.8286256 0 0 0 53.78125 118.65625 A 4.831057 4.831057 0 0 0 53.6875 119 A 4.8286256 4.8286256 0 0 0 53.65625 119.1875 A 4.8286256 4.8286256 0 0 0 53.625 120.09375 A 4.831057 4.831057 0 0 0 53.65625 120.53125 A 4.8286256 4.8286256 0 0 0 53.65625 120.59375 A 4.831057 4.831057 0 0 0 53.75 120.96875 A 4.8286256 4.8286256 0 0 0 53.78125 121.09375 A 4.831057 4.831057 0 0 0 53.8125 121.25 A 4.8286256 4.8286256 0 0 0 53.90625 121.5 A 4.831057 4.831057 0 0 0 53.96875 121.6875 A 4.8286256 4.8286256 0 0 0 54.09375 121.9375 A 4.831057 4.831057 0 0 0 54.1875 122.125 A 4.8286256 4.8286256 0 0 0 54.40625 122.53125 A 4.831057 4.831057 0 0 0 54.5 122.65625 A 4.8286256 4.8286256 0 0 0 54.6875 122.875 A 4.831057 4.831057 0 0 0 54.78125 123 A 4.8286256 4.8286256 0 0 0 54.96875 123.21875 A 4.831057 4.831057 0 0 0 55.03125 123.28125 A 4.8286256 4.8286256 0 0 0 55.25 123.46875 A 4.831057 4.831057 0 0 0 55.40625 123.625 A 4.8286256 4.8286256 0 0 0 55.625 123.78125 A 4.8286256 4.8286256 0 0 0 56.03125 124.03125 A 4.8286256 4.8286256 0 0 0 56.46875 124.25 A 4.831057 4.831057 0 0 0 56.84375 124.40625 A 4.8286256 4.8286256 0 0 0 56.90625 124.4375 A 4.831057 4.831057 0 0 0 57.09375 124.5 A 4.8286256 4.8286256 0 0 0 57.375 124.5625 A 4.8286256 4.8286256 0 0 0 57.84375 124.65625 A 4.8286256 4.8286256 0 0 0 58.34375 124.6875 A 4.831057 4.831057 0 0 0 58.53125 124.6875 A 4.831057 4.831057 0 0 0 59 124.65625 A 4.831057 4.831057 0 0 0 59.5 124.5625 A 4.831057 4.831057 0 0 0 59.8125 124.46875 A 4.8286256 4.8286256 0 0 0 60.21875 124.34375 A 4.831057 4.831057 0 0 0 60.65625 124.15625 A 4.8286256 4.8286256 0 0 0 60.84375 124.0625 A 4.831057 4.831057 0 0 0 61.0625 123.90625 A 4.8286256 4.8286256 0 0 0 61.34375 123.71875 A 4.831057 4.831057 0 0 0 61.5625 123.5625 A 4.8286256 4.8286256 0 0 0 61.625 123.5 A 4.831057 4.831057 0 0 0 61.84375 123.3125 A 4.8286256 4.8286256 0 0 0 61.96875 123.15625 L 124.0625 56.25 A 4.80048 4.80048 0 0 0 124.375 55.90625 A 4.80048 4.80048 0 0 0 124.8125 55.25 A 4.80048 4.80048 0 0 0 124.90625 55.125 A 4.80048 4.80048 0 0 0 124.90625 55.09375 A 4.80048 4.80048 0 0 0 124.96875 54.96875 A 4.80048 4.80048 0 0 0 125.28125 54.21875 A 4.80048 4.80048 0 0 0 125.46875 52.8125 A 4.80048 4.80048 0 0 0 125.4375 52.3125 A 4.80048 4.80048 0 0 0 125.0625 50.9375 A 4.80048 4.80048 0 0 0 121.90625 48.21875 A 4.80048 4.80048 0 0 0 120.9375 48.0625 A 4.80048 4.80048 0 0 0 120.46875 48.0625 z M 159.46875 68.9375 C 145.15163 79.070886 132.33762 85.155707 120.9375 88.78125 C 132.13973 100.46907 150.02732 119.07536 176.03125 145.78125 C 187.9076 158.00419 204.0466 174.19314 219.09375 190.5 C 233.89718 157.52635 236.34375 121.57861 236.34375 94.0625 C 219.28325 94.0625 195.57866 92.79214 164.65625 72.46875 C 162.96758 71.35405 161.20253 70.16925 159.46875 68.9375 z M 103.75 81.6875 L 81.53125 105.625 C 86.261832 110.2681 107.61011 131.22356 136.90625 159.15625 C 136.91193 159.16167 136.93182 159.15083 136.9375 159.15625 C 141.11779 163.14196 145.45959 167.28885 149.9375 171.53125 C 159.85211 180.92443 170.19403 190.65258 180.40625 199.96875 C 185.51236 204.62683 190.58554 209.16454 195.5625 213.53125 C 205.51643 222.26467 215.06434 230.2393 223.6875 236.71875 C 225.84311 238.33806 227.93871 239.85945 229.96875 241.28125 C 231.99896 242.70355 233.95608 244.01669 235.84375 245.21875 C 235.85092 245.22331 235.86783 245.21419 235.875 245.21875 C 239.64144 247.6161 243.12165 249.58448 246.21875 250.96875 C 249.32199 252.35533 252.04798 253.18635 254.34375 253.375 C 254.25477 251.81655 253.85413 250.06115 253.15625 248.125 C 253.01781 247.73988 252.87957 247.36757 252.71875 246.96875 C 251.43018 243.77246 249.43055 240.14057 246.875 236.1875 C 246.23762 235.20129 245.57955 234.21234 244.875 233.1875 C 243.45881 231.12708 241.90904 229.0084 240.25 226.8125 C 240.06453 226.56696 239.87575 226.30954 239.6875 226.0625 C 239.04155 225.21492 238.39593 224.36425 237.71875 223.5 C 236.84582 222.38592 235.92076 221.26384 235 220.125 C 234.99501 220.11883 235.00499 220.09992 235 220.09375 C 234.07878 218.95453 233.12067 217.81688 232.15625 216.65625 C 232.15122 216.6502 232.16128 216.63105 232.15625 216.625 C 231.19142 215.46403 230.19089 214.30403 229.1875 213.125 C 229.18251 213.11913 229.1925 213.09962 229.1875 213.09375 C 227.17487 210.72911 225.07711 208.35444 222.9375 205.9375 C 222.93242 205.93176 222.94258 205.91199 222.9375 205.90625 C 220.80192 203.49407 218.59979 201.06233 216.375 198.625 C 216.36517 198.61423 216.35358 198.60452 216.34375 198.59375 C 214.10862 196.1454 211.84992 193.69646 209.5625 191.25 C 207.2653 188.7927 204.96819 186.36538 202.65625 183.9375 C 200.35416 181.52014 198.06037 179.1423 195.78125 176.78125 C 191.21175 172.04687 186.75 167.46858 182.5 163.125 C 178.25946 158.79139 174.27801 154.72745 170.65625 151 C 162.25888 142.37592 154.32289 134.19097 147.03125 126.65625 C 125.15808 104.0556 109.08113 87.258755 103.75 81.6875 z M 83.53125 118.03125 C 86.441493 162.92585 99.829887 218.80791 153.53125 252 C 153.57805 252.029 153.6406 252.06475 153.6875 252.09375 C 155.5745 253.25715 157.48124 254.42545 159.46875 255.53125 C 159.49905 255.51425 159.50095 255.48575 159.53125 255.46875 C 159.56145 255.48575 159.5947 255.51425 159.625 255.53125 C 161.61251 254.42545 163.51925 253.25715 165.40625 252.09375 C 165.45315 252.06475 165.4844 252.029 165.53125 252 C 178.2682 244.12748 188.7161 234.95654 197.3125 224.96875 C 180.30308 210.39642 161.90638 193.19322 144.78125 176.96875 C 115.03261 148.78469 93.570382 127.85618 83.53125 118.03125 z "
       transform="translate(0,772.36218)"
       id="path3080" />
  </g>
</svg>
