<?xml version="1.0" encoding="UTF-8" standalone="no"?>
<!-- Created with Inkscape (http://www.inkscape.org/) -->

<svg
   xmlns:dc="http://purl.org/dc/elements/1.1/"
   xmlns:cc="http://creativecommons.org/ns#"
   xmlns:rdf="http://www.w3.org/1999/02/22-rdf-syntax-ns#"
   xmlns:svg="http://www.w3.org/2000/svg"
   xmlns="http://www.w3.org/2000/svg"
   xmlns:sodipodi="http://sodipodi.sourceforge.net/DTD/sodipodi-0.dtd"
   xmlns:inkscape="http://www.inkscape.org/namespaces/inkscape"
   width="280"
   height="280"
   id="svg2"
   version="1.1"
   inkscape:version="0.48.4 r9939"
   sodipodi:docname="profession-tempest.svg">
  <defs
     id="defs4" />
  <sodipodi:namedview
     id="base"
     pagecolor="#ffffff"
     bordercolor="#666666"
     borderopacity="1.0"
     inkscape:pageopacity="0.0"
     inkscape:pageshadow="2"
     inkscape:zoom="0.83148181"
     inkscape:cx="624.36346"
     inkscape:cy="18.335148"
     inkscape:document-units="px"
     inkscape:current-layer="layer1"
     showgrid="false"
     borderlayer="true"
     inkscape:showpageshadow="false"
     inkscape:window-width="1920"
     inkscape:window-height="1028"
     inkscape:window-x="0"
     inkscape:window-y="28"
     inkscape:window-maximized="1"
     showguides="true"
     inkscape:guide-bbox="true" />
  <metadata
     id="metadata7">
    <rdf:RDF>
      <cc:Work
         rdf:about="">
        <dc:format>image/svg+xml</dc:format>
        <dc:type
           rdf:resource="http://purl.org/dc/dcmitype/StillImage" />
        <dc:title></dc:title>
      </cc:Work>
    </rdf:RDF>
  </metadata>
  <g
     inkscape:label="Calque 1"
     inkscape:groupmode="layer"
     id="layer1"
     transform="translate(0,-772.36218)">
    <path
       style="fill:#000000;fill-opacity:1;stroke:none"
       d="m 119.74355,806.32174 c -13.92796,0.15043 -25.66092,3.13843 -30.59375,4.125 -10.52338,2.10468 -44.19356,14.43772 -49.90625,56.53125 15.33406,-34.57682 30.65681,-40.31431 52.90625,-45.125 22.24943,-4.81069 37,4.21875 37,4.21875 0,0 -11.44203,-0.60468 -23.46875,1.5 -12.02672,2.10468 -23.75,12.34375 -23.75,12.34375 0,0 23.44746,-5.71875 49.90625,-5.71875 26.45879,0 36.10314,20.44627 40.3125,33.375 4.19588,12.88735 5.99166,46.05416 -30.625,40.90625 l 11.53125,-8.59375 c 0,0 -6.26599,1.84004 -10.6875,-2.875 0.92152,-6.76431 0.99535,-14.20771 -1.46875,-19.96875 -5.95438,-13.92131 -22.24453,-25.33553 -47.34375,-17.09375 -25.09922,8.24177 -45.91675,25.09633 -55,62.28125 -4.82548,19.75449 1.45983,37.60251 9.5,51.1875 7.09426,11.98675 15.55419,20.65882 18.875,24.4375 7.08439,8.06111 34.59584,31.06811 73.90625,14.96871 -37.61144,4.0087 -50.24035,-6.418 -65.53125,-23.28121 -15.29089,-16.86323 -14.84375,-34.125 -14.84375,-34.125 0,0 5.19518,10.1994 13.03125,19.5625 7.83606,9.36311 22.5625,14.40625 22.5625,14.40625 0,0 -16.67685,-17.46102 -29.90625,-40.375 -13.22939,-22.91399 -0.34193,-41.48398 8.75,-51.59375 9.06359,-10.07826 36.93233,-28.23413 50.78125,6.0625 l -13.21875,-5.6875 c 0,0 4.71634,4.50084 2.84375,10.6875 -6.31882,2.58409 -12.83659,6.23551 -16.59375,11.25 -9.07902,12.1173 -10.78095,31.94683 8.90625,49.5625 19.68719,17.61568 44.69279,27.22613 81.4375,16.5 19.52063,-5.69826 31.81764,-20.08827 39.5625,-33.84375 6.8337,-12.13719 10.10673,-23.79726 11.71875,-28.5625 3.43899,-10.16585 9.59772,-45.5059 -24,-71.5 22.27738,30.5681 19.58354,46.73233 12.625,68.40625 -6.95854,21.67392 -22.15625,29.9375 -22.15625,29.9375 0,0 6.24685,-9.62597 10.4375,-21.09375 4.19066,-11.46779 1.1875,-26.75 1.1875,-26.75 0,0 -6.77061,23.17977 -20,46.09375 -13.2294,22.91399 -35.76121,21.0377 -49.0625,18.21875 -13.25765,-2.80971 -42.88139,-17.83632 -20.125,-46.96875 l 1.6875,14.28125 c 0,0 1.54965,-6.34088 7.84375,-7.8125 5.3973,4.18022 11.80999,7.9722 18.03125,8.71875 15.0334,1.80401 33.05673,-6.6113 38.46875,-32.46875 5.41203,-25.85745 1.22396,-52.32246 -26.4375,-78.78125 -14.69515,-14.05623 -33.30872,-17.51424 -49.09375,-17.34375 z"
       id="path5452"
       inkscape:connector-curvature="0" />
  </g>
</svg>
