<?xml version="1.0" encoding="UTF-8" standalone="no"?>
<!-- Created with Inkscape (http://www.inkscape.org/) -->

<svg
   xmlns:dc="http://purl.org/dc/elements/1.1/"
   xmlns:cc="http://creativecommons.org/ns#"
   xmlns:rdf="http://www.w3.org/1999/02/22-rdf-syntax-ns#"
   xmlns:svg="http://www.w3.org/2000/svg"
   xmlns="http://www.w3.org/2000/svg"
   xmlns:sodipodi="http://sodipodi.sourceforge.net/DTD/sodipodi-0.dtd"
   xmlns:inkscape="http://www.inkscape.org/namespaces/inkscape"
   width="280"
   height="280"
   id="svg2"
   version="1.1"
   inkscape:version="0.91 r13725"
   sodipodi:docname="profession-holosmith.svg">
  <defs
     id="defs4" />
  <sodipodi:namedview
     id="base"
     pagecolor="#ffffff"
     bordercolor="#666666"
     borderopacity="1.0"
     inkscape:pageopacity="0.0"
     inkscape:pageshadow="2"
     inkscape:zoom="1"
     inkscape:cx="-753.6652"
     inkscape:cy="-510.63695"
     inkscape:document-units="px"
     inkscape:current-layer="layer1"
     showgrid="false"
     borderlayer="true"
     inkscape:showpageshadow="false"
     inkscape:window-width="3840"
     inkscape:window-height="1883"
     inkscape:window-x="0"
     inkscape:window-y="49"
     inkscape:window-maximized="1" />
  <metadata
     id="metadata7">
    <rdf:RDF>
      <cc:Work
         rdf:about="">
        <dc:format>image/svg+xml</dc:format>
        <dc:type
           rdf:resource="http://purl.org/dc/dcmitype/StillImage" />
        <dc:title />
      </cc:Work>
    </rdf:RDF>
  </metadata>
  <g
     inkscape:label="Calque 1"
     inkscape:groupmode="layer"
     id="layer1"
     transform="translate(0,-772.36218)">
    <path
       style="opacity:1;fill:#000000;fill-opacity:1;stroke:none;stroke-width:21.14299965;stroke-linecap:round;stroke-linejoin:round;stroke-miterlimit:10;stroke-dasharray:none;stroke-opacity:1"
       d="m 127.88809,807.04513 0,24.7639 a 50.149865,50.149865 0 0 0 -36.8595,48.3003 50.149865,50.149865 0 0 0 22.97786,42.1462 50.149865,50.149865 0 0 0 -49.16168,0.4849 50.149865,50.149865 0 0 0 -23.44433,56.0974 L 20,991.19323 33.29037,1014.212 54.73582,1001.83 a 50.149865,50.149865 0 0 0 60.25881,7.7725 50.149865,50.149865 0 0 0 25.00947,-40.96567 50.149865,50.149865 0 0 0 25.00127,42.32617 50.149865,50.149865 0 0 0 60.30382,-7.7459 l 21.40044,12.3574 L 260,992.55373 238.55455,980.17183 a 50.149865,50.149865 0 0 0 -23.39932,-56.0708 50.149865,50.149865 0 0 0 -47.97503,-1.1805 50.149865,50.149865 0 0 0 24.14812,-42.8112 50.149865,50.149865 0 0 0 -36.85949,-48.3514 l 0,-24.7128 -26.58074,0 z m 13.29037,43.21 a 29.854228,29.854228 0 0 1 29.85422,29.8542 29.854228,29.854228 0 0 1 -29.85422,29.8543 29.854228,29.854228 0 0 1 -29.85423,-29.8543 29.854228,29.854228 0 0 1 29.85423,-29.8542 z m -24.47139,73.5615 a 50.149865,50.149865 0 0 0 24.47139,6.4426 50.149865,50.149865 0 0 0 23.28269,-5.7716 50.149865,50.149865 0 0 0 -17.81187,17.9695 50.149865,50.149865 0 0 0 -6.64314,23.0658 50.149865,50.149865 0 0 0 -6.65542,-24.4264 50.149865,50.149865 0 0 0 -16.64365,-17.2799 z m 23.68575,8.6154 a 5.5060428,5.5060428 0 0 0 -5.5056,5.5056 5.5060428,5.5060428 0 0 0 5.5056,5.5056 5.5060428,5.5060428 0 0 0 5.5056,-5.5056 5.5060428,5.5060428 0 0 0 -5.5056,-5.5056 z m -51.17692,3.8934 a 29.854228,29.854228 0 0 1 26.55823,14.9189 29.854228,29.854228 0 0 1 -10.92732,40.7816 29.854228,29.854228 0 0 1 -40.78154,-10.9273 29.854228,29.854228 0 0 1 10.92732,-40.7816 29.854228,29.854228 0 0 1 14.22331,-3.9916 z m 99.45476,1.3851 a 29.854228,29.854228 0 0 1 16.33675,3.9671 29.854228,29.854228 0 0 1 10.92732,40.7815 29.854228,29.854228 0 0 1 -40.78154,10.9273 29.854228,29.854228 0 0 1 -10.92732,-40.7815 29.854228,29.854228 0 0 1 24.44479,-14.8944 z"
       id="circle4244"
       inkscape:connector-curvature="0" />
  </g>
</svg>
