<?xml version="1.0" encoding="UTF-8" standalone="no"?>
<!-- Created with Inkscape (http://www.inkscape.org/) -->

<svg
   xmlns:dc="http://purl.org/dc/elements/1.1/"
   xmlns:cc="http://creativecommons.org/ns#"
   xmlns:rdf="http://www.w3.org/1999/02/22-rdf-syntax-ns#"
   xmlns:svg="http://www.w3.org/2000/svg"
   xmlns="http://www.w3.org/2000/svg"
   xmlns:sodipodi="http://sodipodi.sourceforge.net/DTD/sodipodi-0.dtd"
   xmlns:inkscape="http://www.inkscape.org/namespaces/inkscape"
   width="280"
   height="280"
   id="svg2"
   version="1.1"
   inkscape:version="0.48.4 r9939"
   sodipodi:docname="profession-thief.svg">
  <defs
     id="defs4" />
  <sodipodi:namedview
     id="base"
     pagecolor="#ffffff"
     bordercolor="#666666"
     borderopacity="1.0"
     inkscape:pageopacity="0.0"
     inkscape:pageshadow="2"
     inkscape:zoom="0.83148181"
     inkscape:cx="672.88146"
     inkscape:cy="-43.738958"
     inkscape:document-units="px"
     inkscape:current-layer="layer1"
     showgrid="false"
     borderlayer="true"
     inkscape:showpageshadow="false"
     inkscape:window-width="1920"
     inkscape:window-height="1028"
     inkscape:window-x="0"
     inkscape:window-y="28"
     inkscape:window-maximized="1"
     showguides="true"
     inkscape:guide-bbox="true" />
  <metadata
     id="metadata7">
    <rdf:RDF>
      <cc:Work
         rdf:about="">
        <dc:format>image/svg+xml</dc:format>
        <dc:type
           rdf:resource="http://purl.org/dc/dcmitype/StillImage" />
        <dc:title></dc:title>
      </cc:Work>
    </rdf:RDF>
  </metadata>
  <g
     inkscape:label="Calque 1"
     inkscape:groupmode="layer"
     id="layer1"
     transform="translate(0,-772.36218)">
    <path
       style="fill:#000000;fill-opacity:1;stroke:none"
       d="m 50.729542,815.64347 c -1.53372,0 -3.07479,0.60604 -4.25,1.78125 l -9.78125,9.78125 c -2.35042,2.35043 -2.35042,6.11833 0,8.46875 l 0.34375,0.34375 c 4.365,3.92434 9.27119,-1.41631 11.625,0.9375 2.40535,2.40534 2.60736,4.26277 4.9375,9.75 2.33021,5.48716 10.2468,16.09055 17.3125,23.15625 l 0,0.0312 18.25,18.25 -0.5625,5.375 -22.1875,22.21875 c -0.78348,0.78348 -0.78348,2.02902 0,2.8125 l 3.96875,3.96875 c 0.78348,0.78348 2.02902,0.78348 2.8125,0 l 17.875,-17.875 14.906248,5.84375 6.625,6.625 -20.999998,21 c -5.51537,-3.14035 -11.88685,-4.9375 -18.6875,-4.9375 -20.90043,0 -37.84375,16.94332 -37.84375,37.84375 0,20.90043 16.94332,37.84368 37.84375,37.84368 20.90043,0 37.843748,-16.94325 37.843748,-37.84368 0,-6.55624 -1.66012,-12.71712 -4.59375,-18.09375 l 21.125,-21.125 59.5625,59.5625 41.53125,17.71873 -17.75,-41.59373 -59.53125,-59.53125 15.03125,-15 -14.6875,-14.6875 -15.03125,15.03125 -6.6875,-6.6875 -5.78125,-14.8125 17.875,-17.875 c 0.78348,-0.78347 0.78348,-2.06027 0,-2.84375 l -3.96875,-3.96875 c -0.78348,-0.78348 -2.06028,-0.78348 -2.84375,0 l -22.21875,22.21875 -5.34375,0.53125 -18.249998,-18.25 -0.0625,0 c -7.0657,-7.0657 -17.63778,-14.95111 -23.125,-17.28125 -5.48716,-2.33021 -7.37591,-2.56341 -9.78125,-4.96875 -2.35381,-2.35381 3.01809,-7.26 -0.90625,-11.625 l -0.34375,-0.3125 c -1.17521,-1.17521 -2.71628,-1.78125 -4.25,-1.78125 z m 150.312498,13.875 c -0.51124,0 -1.01451,0.17077 -1.40625,0.5625 l -39.90625,39.9375 14.65625,14.65625 14.6875,-14.65625 0,3.25 a 5.0005,5.0005 0 0 0 1.5,3.53125 l 6.375,6.40625 -2.9375,2.9375 a 5.0005,5.0005 0 0 0 0,7.0625 l 13.8125,13.8125 a 5.0005,5.0005 0 0 0 7.0625,0 l 6.625,-6.59375 a 5.0160387,5.0160387 0 1 0 -7.09375,-7.09375 l -3.0625,3.09375 -6.75,-6.75 2.96875,-2.9375 a 5.0005,5.0005 0 0 0 0,-7.0625 l -8.46875,-8.46875 0,-2.65625 6.03125,-6.03125 2.65625,0 8.4375,8.46875 a 5.0005,5.0005 0 0 0 7.09375,0 l 2.9375,-2.9375 6.71875,6.71875 -3.0625,3.09375 a 5.0005,5.0005 0 1 0 7.0625,7.0625 l 6.625,-6.625 a 5.0005,5.0005 0 0 0 0,-7.0625 l -13.8125,-13.8125 a 5.0005,5.0005 0 0 0 -7.0625,0 l -2.9375,2.9375 -6.40625,-6.375 a 5.0005,5.0005 0 0 0 -3.53125,-1.5 l -3.28125,0 7.71875,-7.71875 c 0.78347,-0.78348 0.78347,-2.02903 0,-2.8125 l -11.84375,-11.875 c -0.39174,-0.39173 -0.89501,-0.5625 -1.40625,-0.5625 z m -43.875,43.0625 -3.15625,3.15625 14.65625,14.65625 3.15625,-3.15625 -14.65625,-14.65625 z m -84.249998,75.90625 c 12.44633,0 22.53125,10.08492 22.53125,22.53125 0,12.44633 -10.08492,22.5625 -22.53125,22.5625 -12.44633,0 -22.53125,-10.11617 -22.53125,-22.5625 0,-12.44633 10.08492,-22.53125 22.53125,-22.53125 z"
       id="path5566"
       inkscape:connector-curvature="0" />
  </g>
</svg>
