<?xml version="1.0" encoding="UTF-8" standalone="no"?>
<!-- Created with Inkscape (http://www.inkscape.org/) -->

<svg
   xmlns:dc="http://purl.org/dc/elements/1.1/"
   xmlns:cc="http://creativecommons.org/ns#"
   xmlns:rdf="http://www.w3.org/1999/02/22-rdf-syntax-ns#"
   xmlns:svg="http://www.w3.org/2000/svg"
   xmlns="http://www.w3.org/2000/svg"
   xmlns:sodipodi="http://sodipodi.sourceforge.net/DTD/sodipodi-0.dtd"
   xmlns:inkscape="http://www.inkscape.org/namespaces/inkscape"
   width="280"
   height="280"
   id="svg2"
   version="1.1"
   inkscape:version="0.91 r13725"
   sodipodi:docname="profession-deadeye.svg">
  <defs
     id="defs4" />
  <sodipodi:namedview
     id="base"
     pagecolor="#ffffff"
     bordercolor="#666666"
     borderopacity="1.0"
     inkscape:pageopacity="0.0"
     inkscape:pageshadow="2"
     inkscape:zoom="0.5"
     inkscape:cx="-658.86593"
     inkscape:cy="-393.34493"
     inkscape:document-units="px"
     inkscape:current-layer="layer1"
     showgrid="false"
     borderlayer="true"
     inkscape:showpageshadow="false"
     inkscape:window-width="3840"
     inkscape:window-height="1883"
     inkscape:window-x="0"
     inkscape:window-y="49"
     inkscape:window-maximized="1" />
  <metadata
     id="metadata7">
    <rdf:RDF>
      <cc:Work
         rdf:about="">
        <dc:format>image/svg+xml</dc:format>
        <dc:type
           rdf:resource="http://purl.org/dc/dcmitype/StillImage" />
        <dc:title />
      </cc:Work>
    </rdf:RDF>
  </metadata>
  <g
     inkscape:label="Calque 1"
     inkscape:groupmode="layer"
     id="layer1"
     transform="translate(0,-772.36218)">
    <path
       style="opacity:1;fill:#000000;fill-opacity:1;stroke:none;stroke-width:21.14299965;stroke-linecap:round;stroke-linejoin:round;stroke-miterlimit:10;stroke-dasharray:none;stroke-opacity:1"
       d="m 140.00397,805.08563 c -0.001,0 -0.003,0.01 -0.004,0.01 l -0.002,0 c -2.39819,5.3494 -4.6743,10.2319 -6.3548,13.3956 -0.5608,1.0555 -1.0546,1.919 -1.46452,2.5447 -0.31418,0.4795 -0.66641,0.9617 -1.04665,1.4448 -0.10061,0.1281 -0.2166,0.2561 -0.32129,0.3843 -0.29913,0.3655 -0.60356,0.7316 -0.93232,1.096 -0.0901,0.1 -0.18784,0.1995 -0.27989,0.2996 -0.37435,0.4052 -0.75676,0.8096 -1.15901,1.2102 -0.0415,0.041 -0.0844,0.083 -0.12615,0.1242 -0.46483,0.4594 -0.94289,0.915 -1.43298,1.364 -1.08353,0.9926 -2.21371,1.9359 -3.33706,2.8403 a 84.268069,84.268069 0 0 1 16.45664,-1.705 84.268069,84.268069 0 0 1 16.35216,1.6203 c -1.08894,-0.8797 -2.18274,-1.7939 -3.23258,-2.7556 -0.49009,-0.449 -0.96815,-0.9046 -1.43298,-1.364 -0.0418,-0.041 -0.0847,-0.083 -0.12615,-0.1242 -0.40225,-0.4006 -0.78466,-0.805 -1.15901,-1.2102 -0.092,-0.1 -0.18981,-0.1995 -0.27989,-0.2996 -0.32876,-0.3644 -0.63319,-0.7305 -0.93232,-1.096 -0.10469,-0.1282 -0.22068,-0.2562 -0.32129,-0.3843 -0.38024,-0.4831 -0.73247,-0.9653 -1.04665,-1.4448 -0.20514,-0.3132 -0.43093,-0.6871 -0.67608,-1.1137 -0.24441,-0.4257 -0.5089,-0.9045 -0.78844,-1.431 l -0.002,0 c -1.68227,-3.1699 -3.95945,-8.0616 -6.35085,-13.3956 l 0,-0.01 z m 38.10117,32.2175 a 84.268069,84.268069 0 0 1 46.16295,75.0591 84.268069,84.268069 0 0 1 -45.89291,75.0138 c 3.0086,-0.5231 6.46349,-1.3027 10.31866,-2.4836 14.00263,-4.2891 30.78056,-23.59 51.46912,-46.5493 1.90926,-2.1188 4.00105,-4.1754 6.21288,-6.1695 l 0.002,0 c 2.14523,-1.9342 4.40937,-3.8057 6.74705,-5.6077 3.18613,-2.4561 6.51297,-4.7712 9.86531,-6.956 0.52538,-0.3426 1.05055,-0.6855 1.57687,-1.021 0.893,-0.5689 1.78629,-1.1294 2.67871,-1.6774 0.38524,-0.2368 0.76853,-0.469 1.15309,-0.7017 2.22293,-1.3446 4.43417,-2.6324 6.59723,-3.8397 -0.005,0 -0.009,-0.01 -0.0138,-0.01 0.006,0 0.012,-0.01 0.0177,-0.01 -2.26758,-1.2655 -4.58727,-2.6152 -6.91853,-4.0308 -0.21506,-0.1308 -0.42927,-0.2603 -0.64454,-0.3923 -0.9907,-0.6067 -1.98293,-1.2283 -2.97438,-1.8607 -0.42948,-0.2742 -0.85823,-0.5529 -1.28713,-0.8318 -3.4147,-2.2188 -6.80389,-4.5773 -10.04862,-7.0782 -2.33782,-1.8019 -4.60114,-3.6729 -6.74703,-5.6077 l -0.002,0 c -2.21232,-1.9945 -4.30521,-4.0503 -6.21485,-6.1695 -20.68856,-22.9593 -37.46649,-42.2602 -51.46912,-46.5493 -3.97128,-1.2165 -7.51836,-2.0064 -10.5887,-2.5289 z m -76.48028,0.045 c -3.0086,0.5231 -6.46349,1.3027 -10.31866,2.4836 -14.00263,4.2891 -30.78056,23.59 -51.46912,46.5493 -1.90964,2.1192 -4.00253,4.175 -6.21485,6.1695 l -0.002,0 c -2.14589,1.9348 -4.40921,3.8058 -6.74703,5.6077 -3.24473,2.5009 -6.63392,4.8594 -10.04862,7.0782 -0.4289,0.2789 -0.85765,0.5576 -1.28713,0.8318 -0.99145,0.6324 -1.98368,1.254 -2.97438,1.8607 -0.21527,0.132 -0.42948,0.2615 -0.64454,0.3923 -2.33126,1.4156 -4.65095,2.7653 -6.91853,4.0308 0.006,0 0.012,0.01 0.0177,0.01 -0.005,0 -0.009,0.01 -0.0138,0.01 2.16306,1.2073 4.3743,2.4951 6.59723,3.8397 0.38456,0.2327 0.76785,0.4649 1.15309,0.7017 0.89242,0.548 1.78571,1.1085 2.67871,1.6774 0.52632,0.3355 1.05149,0.6784 1.57687,1.021 3.35234,2.1848 6.67918,4.4999 9.86531,6.956 2.33768,1.802 4.60182,3.6735 6.74705,5.6077 l 0.002,0 c 2.21183,1.9941 4.30362,4.0507 6.21288,6.1695 20.68856,22.9593 37.46649,42.2602 51.46912,46.5493 3.97128,1.2164 7.51836,2.0064 10.5887,2.5289 a 84.268069,84.268069 0 0 1 -46.16295,-75.0591 84.268069,84.268069 0 0 1 45.89291,-75.0138 z m 38.37516,7.6498 a 67.363995,67.363995 0 0 0 -67.364,67.364 67.363995,67.363995 0 0 0 67.364,67.364 67.363995,67.363995 0 0 0 67.364,-67.364 67.363995,67.363995 0 0 0 -67.364,-67.364 z m -1.37977,10.435 2.75954,0 a 29.837863,29.258054 0 0 0 19.92575,16.2279 30.863677,40.809631 0 0 0 -19.87647,27.4849 13.307958,13.307958 0 0 0 -1.42905,-0.093 13.307958,13.307958 0 0 0 -1.41524,0.081 30.863677,40.809631 0 0 0 -19.89028,-27.4731 29.837863,29.258054 0 0 0 19.92575,-16.2279 z m -39.32128,35.6235 a 40.809631,30.863677 0 0 0 27.48489,19.8765 13.307958,13.307958 0 0 0 -0.0926,1.429 13.307958,13.307958 0 0 0 0.0808,1.4152 40.809631,30.863677 0 0 0 -27.47306,19.8903 29.258054,29.837863 0 0 0 -16.228,-19.9257 l 0,-2.7596 a 29.258054,29.837863 0 0 0 16.228,-19.9257 z m 81.4021,0 a 29.258054,29.837863 0 0 0 16.228,19.9257 l 0,2.7596 a 29.258054,29.837863 0 0 0 -16.228,19.9257 40.809631,30.863677 0 0 0 -27.48489,-19.8765 13.307958,13.307958 0 0 0 0.0926,-1.429 13.307958,13.307958 0 0 0 -0.0808,-1.4152 40.809631,30.863677 0 0 0 27.47306,-19.8903 z m -42.1301,34.5217 a 13.307958,13.307958 0 0 0 1.42905,0.093 13.307958,13.307958 0 0 0 1.41524,-0.081 30.863677,40.809631 0 0 0 19.89028,27.4731 29.837863,29.258054 0 0 0 -19.92575,16.2279 l -2.75954,0 a 29.837863,29.258054 0 0 0 -19.92575,-16.2279 30.863677,40.809631 0 0 0 19.87647,-27.4849 z m 17.88569,69.3469 a 84.268069,84.268069 0 0 1 -16.45664,1.705 84.268069,84.268069 0 0 1 -16.35216,-1.6203 c 1.08894,0.8797 2.18274,1.7938 3.23258,2.7556 0.49009,0.449 0.96815,0.9046 1.43298,1.364 0.0418,0.041 0.0847,0.083 0.12615,0.1242 0.40225,0.4006 0.78466,0.80487 1.15901,1.21017 0.092,0.1001 0.18976,0.1997 0.27989,0.2996 0.32876,0.3644 0.63319,0.7305 0.93232,1.096 0.10469,0.1282 0.22068,0.2562 0.32129,0.3843 0.38024,0.4831 0.73247,0.9653 1.04665,1.4448 0.40992,0.6257 0.90372,1.4892 1.46452,2.5447 1.6805,3.1637 3.95661,8.0462 6.3548,13.3956 l 0.002,0 c 0.001,0 0.003,0.01 0.004,0.01 l 0,-0.01 c 2.3914,-5.334 4.66855,-10.2257 6.35085,-13.3956 l 0.002,0 c 0.27954,-0.5266 0.54403,-1.0053 0.78844,-1.431 0.24515,-0.4266 0.47094,-0.8005 0.67608,-1.1137 0.31418,-0.4795 0.66641,-0.9617 1.04665,-1.4448 0.10061,-0.1281 0.2166,-0.2561 0.32129,-0.3843 0.29913,-0.3655 0.60356,-0.7316 0.93232,-1.096 0.0901,-0.1001 0.18786,-0.1996 0.27989,-0.2996 0.37435,-0.4053 0.75676,-0.80957 1.15901,-1.21017 0.0415,-0.042 0.0844,-0.083 0.12615,-0.1242 0.46483,-0.4594 0.94289,-0.915 1.43298,-1.364 1.08353,-0.9926 2.21371,-1.9359 3.33706,-2.8403 z"
       id="path4242"
       inkscape:connector-curvature="0" />
  </g>
</svg>
