<?xml version="1.0" encoding="UTF-8" standalone="no"?>
<!-- Created with Inkscape (http://www.inkscape.org/) -->

<svg
   xmlns:dc="http://purl.org/dc/elements/1.1/"
   xmlns:cc="http://creativecommons.org/ns#"
   xmlns:rdf="http://www.w3.org/1999/02/22-rdf-syntax-ns#"
   xmlns:svg="http://www.w3.org/2000/svg"
   xmlns="http://www.w3.org/2000/svg"
   xmlns:sodipodi="http://sodipodi.sourceforge.net/DTD/sodipodi-0.dtd"
   xmlns:inkscape="http://www.inkscape.org/namespaces/inkscape"
   width="280"
   height="280"
   id="svg2"
   version="1.1"
   inkscape:version="0.91 r13725"
   sodipodi:docname="profession-renegade.svg">
  <defs
     id="defs4" />
  <sodipodi:namedview
     id="base"
     pagecolor="#ffffff"
     bordercolor="#666666"
     borderopacity="1.0"
     inkscape:pageopacity="0.0"
     inkscape:pageshadow="2"
     inkscape:zoom="0.70710678"
     inkscape:cx="-597.71324"
     inkscape:cy="-683.17061"
     inkscape:document-units="px"
     inkscape:current-layer="layer1"
     showgrid="false"
     borderlayer="true"
     inkscape:showpageshadow="false"
     inkscape:window-width="3840"
     inkscape:window-height="1883"
     inkscape:window-x="0"
     inkscape:window-y="49"
     inkscape:window-maximized="1" />
  <metadata
     id="metadata7">
    <rdf:RDF>
      <cc:Work
         rdf:about="">
        <dc:format>image/svg+xml</dc:format>
        <dc:type
           rdf:resource="http://purl.org/dc/dcmitype/StillImage" />
        <dc:title />
      </cc:Work>
    </rdf:RDF>
  </metadata>
  <g
     inkscape:label="Calque 1"
     inkscape:groupmode="layer"
     id="layer1"
     transform="translate(0,-772.36218)">
    <path
       style="fill:#000000;fill-opacity:1;fill-rule:evenodd;stroke:none;stroke-width:1px;stroke-linecap:butt;stroke-linejoin:miter;stroke-opacity:1"
       d="M 139.99899,792.36218 89.031539,843.199 c 0,0 15.178891,16.46524 20.581541,38.07586 1.54271,6.17086 4.75566,23.38485 8.55823,44.79294 l 21.82768,10.46366 21.8297,-10.46366 c 3.80274,-21.40758 7.01555,-38.62229 8.55823,-44.79294 5.40265,-21.61062 20.58154,-38.07586 20.58154,-38.07586 l -50.96947,-50.83682 z m -35.01675,108.20787 -62.77371,15.69343 77.5084,40.26264 20.28408,10.536 20.28206,-10.536 77.5084,-40.26264 -62.7737,-15.69343 25.46966,17.23704 -60.48844,28.99508 -60.486414,-28.99508 25.469664,-17.23704 z m 20.8589,69.57323 c 3.82211,22.30916 7.60485,44.76512 10.52594,62.21892 0.3774,-0.043 0.76027,-0.07 1.14967,-0.07 l 6.12623,0 c 2.91966,-17.4442 6.69677,-39.86827 10.51387,-62.14655 l -14.15584,7.3542 -14.15987,-7.35626 z"
       id="path4196"
       inkscape:connector-curvature="0" />
  </g>
</svg>
