<?xml version="1.0" encoding="UTF-8" standalone="no"?>
<!-- Created with Inkscape (http://www.inkscape.org/) -->

<svg
   xmlns:dc="http://purl.org/dc/elements/1.1/"
   xmlns:cc="http://creativecommons.org/ns#"
   xmlns:rdf="http://www.w3.org/1999/02/22-rdf-syntax-ns#"
   xmlns:svg="http://www.w3.org/2000/svg"
   xmlns="http://www.w3.org/2000/svg"
   xmlns:sodipodi="http://sodipodi.sourceforge.net/DTD/sodipodi-0.dtd"
   xmlns:inkscape="http://www.inkscape.org/namespaces/inkscape"
   width="280"
   height="280"
   id="svg2"
   version="1.1"
   inkscape:version="0.48.4 r9939"
   sodipodi:docname="profession-scrapper.svg">
  <defs
     id="defs4" />
  <sodipodi:namedview
     id="base"
     pagecolor="#ffffff"
     bordercolor="#666666"
     borderopacity="1.0"
     inkscape:pageopacity="0.0"
     inkscape:pageshadow="2"
     inkscape:zoom="0.41574091"
     inkscape:cx="1102.6351"
     inkscape:cy="-433.96261"
     inkscape:document-units="px"
     inkscape:current-layer="layer1"
     showgrid="false"
     borderlayer="true"
     inkscape:showpageshadow="false"
     inkscape:window-width="1920"
     inkscape:window-height="1028"
     inkscape:window-x="0"
     inkscape:window-y="28"
     inkscape:window-maximized="1"
     showguides="true"
     inkscape:guide-bbox="true" />
  <metadata
     id="metadata7">
    <rdf:RDF>
      <cc:Work
         rdf:about="">
        <dc:format>image/svg+xml</dc:format>
        <dc:type
           rdf:resource="http://purl.org/dc/dcmitype/StillImage" />
        <dc:title></dc:title>
      </cc:Work>
    </rdf:RDF>
  </metadata>
  <g
     inkscape:label="Calque 1"
     inkscape:groupmode="layer"
     id="layer1"
     transform="translate(0,-772.36218)">
    <path
       style="fill:#000000;fill-opacity:1;stroke:none"
       d="m 177.39552,793.65752 c 0,0 -15.75954,7.64561 -25.53125,20.875 0,0 4.95449,1.94933 8.5625,2.25 3.60802,0.30067 12.32433,1.06236 12.625,-4.5 0.30067,-5.56236 3.29733,-7.36073 4.5,-10.96875 1.20267,-3.60802 -0.15625,-7.65625 -0.15625,-7.65625 z m 33.09375,20.875 c -0.451,4.51002 -7.53125,8.11331 -7.53125,13.375 0,5.26169 3.16641,5.88607 4.21875,9.34375 1.05234,3.45768 3.29399,9.31842 6,9.46875 2.70602,0.15033 4.65625,-2.55506 4.65625,-8.71875 0,-6.16369 -7.34375,-23.46875 -7.34375,-23.46875 z m -63.65625,8.5 c -1.93955,0.004 -3.96743,0.25181 -5.96875,0.84375 -10.67371,3.15702 -14.88183,15.48664 -17.4375,21.5 -2.55568,6.01336 -13.07447,6.43416 -18.9375,7.9375 -5.863027,1.50334 -6.744077,20.46827 -6.593747,34.75 0.15034,14.28173 14.415787,10.20692 24.187497,9.90625 9.77171,-0.30066 15.94857,0.30477 19.40625,-4.65625 3.45768,-4.96102 18.31932,-49.15667 20.875,-65.84375 0,0 -7.12653,-4.45611 -15.53125,-4.4375 z m -83.687497,7.90625 c -1.35301,0.15033 -9.32523,5.41474 -12.03125,7.21875 -2.70601,1.80401 -1.34375,14.28125 -1.34375,14.28125 3.00668,-0.451 8.28049,-1.06598 11.4375,-5.125 3.15702,-4.05902 3.2905,-16.52533 1.9375,-16.375 z m 131.562497,9.3125 c -2.85635,0 -7.38015,4.96541 -10.6875,6.46875 -3.30734,1.50334 -7.95525,4.04413 -8.40625,12.3125 -0.451,8.26837 -7.9874,25.11922 -10.84375,30.53125 -2.85635,5.41202 -6.90276,11.7104 -2.84375,15.46875 4.05902,3.75835 7.22648,13.09966 12.1875,13.25 9.62138,-0.30067 23.28306,-1.50362 28.09375,-11.125 4.81069,-9.62138 9.027,-22.24604 8.125,-32.46875 -0.90201,-10.22271 -3.62257,-18.94523 -7.53125,-23.90625 -3.90869,-4.96102 -5.2374,-10.53125 -8.09375,-10.53125 z m -148.281247,17.625 c -1.06878,0.0493 -2.06675,0.367 -2.96875,1.15625 -3.60802,3.15701 -13.826,18.04566 -13.375,20 0.451,1.95434 10.07691,13.54671 12.03125,23.46875 1.95435,9.92205 5.8583,13.82433 13.375,14.125 7.5167,0.30067 15.94432,-3.16565 18.5,-7.375 2.55567,-4.20936 3.90625,-15.1875 3.90625,-15.1875 0,-11.57572 -6.03807,-27.20448 -8.59375,-30.8125 -2.55568,-3.60802 -8.26531,-3.15625 -12.625,-3.15625 -3.26976,0 -7.04366,-2.36673 -10.25,-2.21875 z m 193.218747,43.71875 -4.5,17.125 c 6.76503,-0.30067 7.34222,6.00926 13.65625,4.65625 2.30086,-0.49304 0.77443,-7.07023 -1.78125,-12.03125 -2.55568,-4.96102 -7.375,-9.75 -7.375,-9.75 z m -112.21875,17.53125 c -4.66601,0.0598 -8.7452,0.49833 -10.90625,1.25 -6.91536,2.40535 -21.047887,15.92142 -44.499997,14.71875 -23.4521,-1.20268 -28.25,6.93959 -28.25,22.875 0,0 -0.60802,11.10071 3,19.21875 3.60801,8.11804 29.76121,12.95692 38.78125,12.65625 9.02004,-0.30067 9.9114,2.67839 13.21875,9.59377 3.307347,6.91541 27.661407,30.69171 30.968747,31.59371 3.30735,0.902 42.99422,-16.2315 48.40625,-18.9375 5.41202,-2.706 1.20267,-21.94778 0,-28.56248 -1.20267,-6.6147 -12.61407,-18.65382 -14.71875,-22.5625 -2.10467,-3.90869 -7.52457,-30.6623 -10.53125,-36.375 -2.06709,-3.92747 -15.20354,-5.60037 -25.46875,-5.46875 z m 105.03125,5.15625 c -4.64875,0.44318 -14.26747,7.02812 -20.46875,8.4375 -6.6147,1.50334 -26.00591,-0.47863 -26.15625,9.59375 0.60134,11.72605 -0.0209,27.52624 6.59375,29.78125 6.6147,2.25501 14.44613,7.20678 21.8125,1.34375 7.36637,-5.86303 28.56841,-20.45115 28.71875,-25.5625 0.15033,-5.11136 -5.41565,-23.14275 -9.625,-23.59375 -0.26308,-0.0282 -0.56508,-0.0295 -0.875,0 z"
       id="path5214"
       inkscape:connector-curvature="0" />
  </g>
</svg>
