<?xml version="1.0" encoding="UTF-8" standalone="no"?>
<!-- Created with Inkscape (http://www.inkscape.org/) -->

<svg
   xmlns:dc="http://purl.org/dc/elements/1.1/"
   xmlns:cc="http://creativecommons.org/ns#"
   xmlns:rdf="http://www.w3.org/1999/02/22-rdf-syntax-ns#"
   xmlns:svg="http://www.w3.org/2000/svg"
   xmlns="http://www.w3.org/2000/svg"
   xmlns:sodipodi="http://sodipodi.sourceforge.net/DTD/sodipodi-0.dtd"
   xmlns:inkscape="http://www.inkscape.org/namespaces/inkscape"
   width="280"
   height="280"
   id="svg2"
   version="1.1"
   inkscape:version="0.48.4 r9939"
   sodipodi:docname="profession-mesmer.svg">
  <defs
     id="defs4" />
  <sodipodi:namedview
     id="base"
     pagecolor="#ffffff"
     bordercolor="#666666"
     borderopacity="1.0"
     inkscape:pageopacity="0.0"
     inkscape:pageshadow="2"
     inkscape:zoom="2"
     inkscape:cx="357.50157"
     inkscape:cy="138.97007"
     inkscape:document-units="px"
     inkscape:current-layer="layer1"
     showgrid="false"
     borderlayer="true"
     inkscape:showpageshadow="false"
     inkscape:window-width="1920"
     inkscape:window-height="1028"
     inkscape:window-x="0"
     inkscape:window-y="28"
     inkscape:window-maximized="1" />
  <metadata
     id="metadata7">
    <rdf:RDF>
      <cc:Work
         rdf:about="">
        <dc:format>image/svg+xml</dc:format>
        <dc:type
           rdf:resource="http://purl.org/dc/dcmitype/StillImage" />
        <dc:title></dc:title>
      </cc:Work>
    </rdf:RDF>
  </metadata>
  <g
     inkscape:label="Calque 1"
     inkscape:groupmode="layer"
     id="layer1"
     transform="translate(0,-772.36218)">
    <path
       style="fill:#000000;fill-opacity:1;stroke:none"
       d="m 51.96875,807.1747 c 4.77297,7.6014 4.59375,20.34375 4.59375,20.34375 l 68.25,36.9375 0.5,-17.3125 L 51.96875,807.1747 z M 20.5,817.6122 c 0,0 6.1875,7.78463 6.1875,21.75 l 94.21875,75.125 -86.25,-33.59375 c 0,0 11.84254,18.39035 23.15625,39.25 l 77.78125,29 c 0,0 -19.98807,1.22578 -31.125,-0.71875 C 93.33182,946.48015 76,944.01845 76,944.01845 c 0,0 11.49483,4.24819 32.53125,21.21875 l 47.03125,5.65625 -0.875,-11.15625 c 0,0 11.70825,20.0424 16.96875,12.03125 4.03582,-6.14611 -3.36367,-5.66822 -8.84375,-12.5625 -5.48008,-6.89431 -13.43382,-14.48257 -11.3125,-40.46875 2.12132,-25.98617 3.1875,-28.8125 3.1875,-28.8125 L 20.5,817.6122 z m 198.875,20.15625 -85.5625,3 0.34375,28.46875 27.0625,14.84375 c 0,0 5.13112,2.46569 2.65625,12.71875 -2.47488,10.25305 -6.30324,38.38922 0.53125,48.28125 6.71751,9.72272 17.13573,15.88881 17.3125,23.84375 0.18488,8.31961 -5.28709,14.3321 -14.65625,13.625 -9.36917,-0.70711 -56.59375,-5.3125 -56.59375,-5.3125 l -0.15625,26.875 48.96875,7.9688 3.34375,-11.3125 c 0,0 26.71018,14.4706 33.78125,15.5312 7.07107,1.0607 63.09375,1.25 63.09375,1.25 l -0.875,-26.53125 c 0,0 -21.40748,-0.51532 -28.125,-3.34375 -6.71751,-2.82843 -25.26472,-14.15627 -33.75,-32.1875 -8.48528,-18.03122 -12.21507,-24.56282 -10.09375,-30.75 2.12132,-6.18718 32.71875,-86.96875 32.71875,-86.96875 z"
       id="path4635"
       inkscape:connector-curvature="0" />
  </g>
</svg>
