<?xml version="1.0" encoding="UTF-8" standalone="no"?>
<!-- Created with Inkscape (http://www.inkscape.org/) -->

<svg
   xmlns:dc="http://purl.org/dc/elements/1.1/"
   xmlns:cc="http://creativecommons.org/ns#"
   xmlns:rdf="http://www.w3.org/1999/02/22-rdf-syntax-ns#"
   xmlns:svg="http://www.w3.org/2000/svg"
   xmlns="http://www.w3.org/2000/svg"
   xmlns:sodipodi="http://sodipodi.sourceforge.net/DTD/sodipodi-0.dtd"
   xmlns:inkscape="http://www.inkscape.org/namespaces/inkscape"
   width="280"
   height="280"
   id="svg2"
   version="1.1"
   inkscape:version="0.91 r13725"
   sodipodi:docname="profession-mirage.svg">
  <defs
     id="defs4" />
  <sodipodi:namedview
     id="base"
     pagecolor="#ffffff"
     bordercolor="#666666"
     borderopacity="1.0"
     inkscape:pageopacity="0.0"
     inkscape:pageshadow="2"
     inkscape:zoom="0.5"
     inkscape:cx="-1668.8722"
     inkscape:cy="-942.27342"
     inkscape:document-units="px"
     inkscape:current-layer="layer1"
     showgrid="false"
     borderlayer="true"
     inkscape:showpageshadow="false"
     inkscape:window-width="3840"
     inkscape:window-height="1883"
     inkscape:window-x="0"
     inkscape:window-y="49"
     inkscape:window-maximized="1" />
  <metadata
     id="metadata7">
    <rdf:RDF>
      <cc:Work
         rdf:about="">
        <dc:format>image/svg+xml</dc:format>
        <dc:type
           rdf:resource="http://purl.org/dc/dcmitype/StillImage" />
        <dc:title />
      </cc:Work>
    </rdf:RDF>
  </metadata>
  <g
     inkscape:label="Calque 1"
     inkscape:groupmode="layer"
     id="layer1"
     transform="translate(0,-772.36218)">
    <path
       style="opacity:1;fill:#000000;fill-opacity:1;stroke:none;stroke-width:21.14299965;stroke-linecap:round;stroke-linejoin:round;stroke-miterlimit:10;stroke-dasharray:none;stroke-opacity:1"
       d="m 139.7959,789.28778 a 205.41452,205.41452 0 0 1 -27.99219,40.0313 249.96225,249.96225 0 0 0 0.0606,0.1015 205.41452,205.41452 0 0 1 -1.40625,1.4336 205.41452,205.41452 0 0 1 -11.626954,11.8535 205.41452,205.41452 0 0 1 -2.519532,2.3496 205.41452,205.41452 0 0 1 -13.53125,11.2852 205.41452,205.41452 0 0 1 -2.08789,1.5898 205.41452,205.41452 0 0 1 -13.181641,9.0411 205.41452,205.41452 0 0 1 -0.625,0.4296 205.41452,205.41452 0 0 0 6.324219,-3.8281 l 19.714844,15.332 a 229.45615,229.45615 0 0 1 -6.753907,4.8848 l -0.234375,-0.1836 a 229.45615,229.45615 0 0 1 -33.414059,18.2617 229.45615,229.45615 0 0 1 -27.30274,10.2559 229.45615,229.45615 0 0 1 0.43555,0.1562 229.45615,229.45615 0 0 1 -0.02149,0.01 229.45615,229.45615 0 0 1 28.29883,10.9882 229.45615,229.45615 0 0 1 32.412112,17.834 l 0.234376,-0.1836 a 229.45615,229.45615 0 0 1 6.753906,4.8848 l -19.714844,15.332 a 205.41452,205.41452 0 0 0 -1.087891,-0.6582 205.41452,205.41452 0 0 1 1.794922,1.3223 205.41452,205.41452 0 0 1 1.734375,1.2773 205.41452,205.41452 0 0 1 10.347656,7.627 205.41452,205.41452 0 0 0 -6.529296,-4.9668 l 19.611328,-15.2539 a 229.45615,229.45615 0 0 1 6.589841,5.0097 l -19.613279,15.254 a 205.41452,205.41452 0 0 1 4.337891,3.5761 205.41452,205.41452 0 0 1 0.853515,0.7715 205.41452,205.41452 0 0 1 14.285153,13.3535 205.41452,205.41452 0 0 1 6.33204,6.8438 249.96225,249.96225 0 0 0 -0.0527,0.092 205.41452,205.41452 0 0 1 27.98242,40.04102 205.41452,205.41452 0 0 1 27.99219,-40.03132 249.96225,249.96225 0 0 0 -0.0606,-0.1015 205.41452,205.41452 0 0 1 1.40625,-1.4336 205.41452,205.41452 0 0 1 11.62696,-11.8535 205.41452,205.41452 0 0 1 2.51953,-2.3496 205.41452,205.41452 0 0 1 13.53125,-11.2852 205.41452,205.41452 0 0 1 2.08789,-1.5898 205.41452,205.41452 0 0 1 13.18164,-9.0411 205.41452,205.41452 0 0 1 0.625,-0.4296 205.41452,205.41452 0 0 0 -6.32422,3.8281 l -19.71484,-15.3321 a 229.45615,229.45615 0 0 1 6.7539,-4.8847 l 0.23438,0.1836 a 229.45615,229.45615 0 0 1 31.58593,-17.4102 249.96225,249.96225 0 0 0 0.0879,0.037 229.45615,229.45615 0 0 1 29.24414,-11.0722 229.45615,229.45615 0 0 1 -0.63672,-0.2286 229.45615,229.45615 0 0 1 0.39258,-0.1406 229.45615,229.45615 0 0 1 -28.93946,-11.0644 249.96225,249.96225 0 0 0 -0.0898,0.043 229.45615,229.45615 0 0 1 -32.05274,-17.6679 l -0.23437,0.1836 a 229.45615,229.45615 0 0 1 -6.75391,-4.8848 l 19.71485,-15.332 a 205.41452,205.41452 0 0 0 1.08789,0.6582 205.41452,205.41452 0 0 1 -1.79492,-1.3223 205.41452,205.41452 0 0 1 -1.73438,-1.2773 205.41452,205.41452 0 0 1 -10.34766,-7.627 205.41452,205.41452 0 0 0 6.5293,4.9668 l -19.61133,15.2539 a 229.45615,229.45615 0 0 1 -6.58984,-5.0098 l 19.61328,-15.2539 a 205.41452,205.41452 0 0 1 -4.33789,-3.5761 205.41452,205.41452 0 0 1 -0.85352,-0.7715 205.41452,205.41452 0 0 1 -14.28515,-13.3535 205.41452,205.41452 0 0 1 -6.33203,-6.8438 249.96225,249.96225 0 0 0 0.0527,-0.092 205.41452,205.41452 0 0 1 -27.98242,-40.041 z m 29.9668,42.4512 a 205.41452,205.41452 0 0 0 5.42382,5.916 l -19.12304,14.873 a 229.45615,229.45615 0 0 1 -5.29102,-6.0214 l 18.99024,-14.7676 z m 11.29492,11.3867 a 205.41452,205.41452 0 0 0 5.92969,5.5234 l -19.19922,14.9336 a 229.45615,229.45615 0 0 1 -5.92969,-5.5254 l 19.19922,-14.9316 z m -41.26172,21.6816 a 249.96225,249.96225 0 0 0 62.53516,47.6407 249.96225,249.96225 0 0 0 -62.12696,47.4668 249.96225,249.96225 0 0 0 -62.527341,-47.6426 249.96225,249.96225 0 0 0 62.119141,-47.4649 z m 131.64648,27.5586 a 205.41452,205.41452 0 0 0 7.25,1.8067 l 0,0 a 205.41452,205.41452 0 0 1 -3.9746,-1.0215 205.41452,205.41452 0 0 1 -3.2754,-0.7832 z M 1.307615,930.54948 a 205.41452,205.41452 0 0 1 3.97461,1.0215 205.41452,205.41452 0 0 1 3.08203,0.7363 205.41452,205.41452 0 0 0 -7.05664,-1.7578 z m 7.05664,1.7578 a 205.41452,205.41452 0 0 1 0.19336,0.049 l 0,0 a 205.41452,205.41452 0 0 0 -0.19336,-0.047 z m 103.847665,28.8321 a 229.45615,229.45615 0 0 1 5.92968,5.5254 l -19.199216,14.9316 a 205.41452,205.41452 0 0 0 -5.929688,-5.5234 l 19.199224,-14.9336 z m 11.7246,11.0547 a 229.45615,229.45615 0 0 1 5.29102,6.0214 l -18.99023,14.7676 a 205.41452,205.41452 0 0 0 -5.42383,-5.916 l 19.12304,-14.873 z"
       id="circle4202"
       inkscape:connector-curvature="0" />
  </g>
</svg>
