<?xml version="1.0" encoding="UTF-8" standalone="no"?>
<!-- Created with Inkscape (http://www.inkscape.org/) -->

<svg
   xmlns:dc="http://purl.org/dc/elements/1.1/"
   xmlns:cc="http://creativecommons.org/ns#"
   xmlns:rdf="http://www.w3.org/1999/02/22-rdf-syntax-ns#"
   xmlns:svg="http://www.w3.org/2000/svg"
   xmlns="http://www.w3.org/2000/svg"
   xmlns:sodipodi="http://sodipodi.sourceforge.net/DTD/sodipodi-0.dtd"
   xmlns:inkscape="http://www.inkscape.org/namespaces/inkscape"
   width="280"
   height="280"
   id="svg2"
   version="1.1"
   inkscape:version="0.48.4 r9939"
   sodipodi:docname="profession-daredevil.svg">
  <defs
     id="defs4" />
  <sodipodi:namedview
     id="base"
     pagecolor="#ffffff"
     bordercolor="#666666"
     borderopacity="1.0"
     inkscape:pageopacity="0.0"
     inkscape:pageshadow="2"
     inkscape:zoom="0.70710678"
     inkscape:cx="308.39425"
     inkscape:cy="310.0756"
     inkscape:document-units="px"
     inkscape:current-layer="layer1"
     showgrid="false"
     borderlayer="true"
     inkscape:showpageshadow="false"
     inkscape:window-width="1920"
     inkscape:window-height="1028"
     inkscape:window-x="0"
     inkscape:window-y="28"
     inkscape:window-maximized="1" />
  <metadata
     id="metadata7">
    <rdf:RDF>
      <cc:Work
         rdf:about="">
        <dc:format>image/svg+xml</dc:format>
        <dc:type
           rdf:resource="http://purl.org/dc/dcmitype/StillImage" />
        <dc:title></dc:title>
      </cc:Work>
    </rdf:RDF>
  </metadata>
  <g
     inkscape:label="Calque 1"
     inkscape:groupmode="layer"
     id="layer1"
     transform="translate(0,-772.36218)">
    <path
       style="fill:#000000;fill-opacity:1;stroke:none"
       d="m 121.46875,799.80619 c -7.61668,0.19473 -14.69389,2.54084 -20.59375,4.96875 -11.48778,4.72745 -15.7372,18.18151 -13,42.375 l -13.8125,5.0625 -0.15625,0.0312 0.03125,0.0312 c -1.9815,0.81516 -2.99387,3.03226 -2.25,5.0625 0.74386,2.03023 2.92965,3.0642 4.96875,2.40625 l 7.28125,19.8125 C 67.08769,894.8326 56.5,916.89432 56.5,941.43119 c 0,46.11578 37.38422,83.50001 83.5,83.50001 46.11578,0 83.5,-37.38423 83.5,-83.50001 0,-46.11578 -37.38422,-83.5 -83.5,-83.5 -2.7475,0 -5.47385,0.14909 -8.15625,0.40625 l -6.0625,-16.59375 c 1.9815,-0.81517 2.99386,-3.03227 2.25,-5.0625 -0.55789,-1.52268 -1.95727,-2.48594 -3.46875,-2.59375 -0.50383,-0.0359 -1.02148,0.023 -1.53125,0.1875 l 0,-0.0312 -0.15625,0.0625 -12.1875,4.46875 c -4.19661,-0.48415 -6.3898,-2.13487 -5.6875,-4.125 0.87749,-2.48659 -1.31936,-9.89143 -2.71875,-14.4375 -1.39938,-4.54606 7.72756,-8.68888 17.59375,-9.375 9.8662,-0.68611 24.91807,8.45722 34.75,20.03125 9.83192,11.57404 17.71179,10.56039 27.75,10.34375 10.03821,-0.21663 23.51254,-7.81065 24.5,-14.5625 0.98746,-6.75184 -2.69937,-13.9189 -9.84375,-9.4375 5.63716,7.29632 -1.88906,12.02462 -15.09375,11.09375 -9.55816,-0.67381 -20.41673,-8.47823 -36.59375,-20.65625 -8.0885,-6.08901 -16.25832,-8.03848 -23.875,-7.84375 z m -11.15625,45.21875 c 0.30218,-0.005 0.59554,-0.0103 0.875,0 8.38359,0.30783 7.14215,7.77688 10.6875,12.34375 0.63201,0.81411 1.21274,1.50992 1.75,2.15625 0.5257,0.63242 0.94415,1.10991 1.375,1.59375 0.30455,0.34374 0.58766,0.63071 0.84375,0.90625 0.12546,0.13418 0.29279,0.35037 0.40625,0.46875 0.14299,0.14951 0.34588,0.3442 0.46875,0.46875 0.64133,0.63909 1.0625,1.03125 1.0625,1.03125 0,0 -0.49915,-0.0877 -1.25,-0.25 -0.31604,-0.0695 -0.72428,-0.14266 -1.125,-0.25 -0.20295,-0.0544 -0.40532,-0.12237 -0.625,-0.1875 -0.39355,-0.11624 -0.81838,-0.2526 -1.25,-0.40625 -0.038,-0.0137 -0.0868,-0.0173 -0.125,-0.0312 -0.54943,-0.20098 -1.11498,-0.44959 -1.6875,-0.71875 -0.30615,-0.14393 -0.63323,-0.30353 -0.9375,-0.46875 -1.52137,-0.82612 -2.96857,-1.92242 -4,-3.375 -3.30059,-4.64824 0.35436,-10.24697 -6.59375,-8.5 -6.9481,1.74697 -20.10969,8.71685 -30.5,9.0625 0,0 19.30882,-13.07174 29.6875,-13.8125 0.32434,-0.0231 0.63532,-0.0267 0.9375,-0.0312 z m 37.53125,29.375 c 18.49232,2.14047 34.69287,11.7607 45.53125,25.75 l -56.625,-12.71875 11.09375,-13.03125 z m -74.78125,75.625 c 19.45357,37.36989 60.81804,67.30726 109.875,43.5 -11.66798,9.62926 -26.62784,15.40626 -42.9375,15.40626 -34.36678,0 -62.71474,-25.68652 -66.9375,-58.90626 z"
       id="path4723"
       inkscape:connector-curvature="0" />
  </g>
</svg>
