<?xml version="1.0" encoding="UTF-8" standalone="no"?>
<!-- Created with Inkscape (http://www.inkscape.org/) -->

<svg
   xmlns:dc="http://purl.org/dc/elements/1.1/"
   xmlns:cc="http://creativecommons.org/ns#"
   xmlns:rdf="http://www.w3.org/1999/02/22-rdf-syntax-ns#"
   xmlns:svg="http://www.w3.org/2000/svg"
   xmlns="http://www.w3.org/2000/svg"
   xmlns:sodipodi="http://sodipodi.sourceforge.net/DTD/sodipodi-0.dtd"
   xmlns:inkscape="http://www.inkscape.org/namespaces/inkscape"
   width="280"
   height="280"
   id="svg2"
   version="1.1"
   inkscape:version="0.91 r13725"
   sodipodi:docname="profession-soulbeast.svg">
  <defs
     id="defs4" />
  <sodipodi:namedview
     id="base"
     pagecolor="#ffffff"
     bordercolor="#666666"
     borderopacity="1.0"
     inkscape:pageopacity="0.0"
     inkscape:pageshadow="2"
     inkscape:zoom="1"
     inkscape:cx="258.43982"
     inkscape:cy="-531.22401"
     inkscape:document-units="px"
     inkscape:current-layer="layer1"
     showgrid="false"
     borderlayer="true"
     inkscape:showpageshadow="false"
     inkscape:window-width="3840"
     inkscape:window-height="1883"
     inkscape:window-x="0"
     inkscape:window-y="49"
     inkscape:window-maximized="1" />
  <metadata
     id="metadata7">
    <rdf:RDF>
      <cc:Work
         rdf:about="">
        <dc:format>image/svg+xml</dc:format>
        <dc:type
           rdf:resource="http://purl.org/dc/dcmitype/StillImage" />
        <dc:title />
      </cc:Work>
    </rdf:RDF>
  </metadata>
  <g
     inkscape:label="Calque 1"
     inkscape:groupmode="layer"
     id="layer1"
     transform="translate(0,-772.36218)">
    <path
       style="opacity:1;fill:#000000;fill-opacity:1;stroke:none;stroke-width:21.14299965;stroke-linecap:round;stroke-linejoin:round;stroke-miterlimit:10;stroke-dasharray:none;stroke-opacity:1"
       d="m 125.13417,797.36218 c 0,0 -38.174703,16.5881 -37.996323,50.3024 10.37978,3.6186 14.480043,13.2215 16.072423,21.4016 a 86.528877,86.528877 0 0 1 17.46384,-4.5763 l 0,-37.8742 c 0,-13.3786 4.46006,-29.2535 4.46006,-29.2535 z m 17.24114,0 c 0,0 4.46006,15.8749 4.46006,29.2535 l 0,37.8781 a 86.528877,86.528877 0 0 1 17.45201,4.6237 c 1.58507,-8.1913 5.68268,-17.8267 16.08424,-21.4529 0.17839,-33.7143 -37.99631,-50.3024 -37.99631,-50.3024 z m -77.356483,29.6103 c 0,0 -31.21671,24.7949 -20.33538,58.1523 12.38606,0 17.58091,5.0059 20.61722,11.9474 a 86.528877,86.528877 0 0 1 14.0976,-14.3932 c -3.94394,-9.0911 -8.19714,-19.6553 -9.91937,-26.6304 -3.56765,-14.4489 -4.46007,-29.0761 -4.46007,-29.0761 z m 137.471813,0 c 0,0 -0.89241,14.6272 -4.46006,29.0761 -1.72991,7.0062 -6.01394,17.6365 -9.97259,26.7545 a 86.528877,86.528877 0 0 1 14.10352,14.3775 c 3.0295,-6.9981 8.21389,-12.0558 20.66452,-12.0558 10.88133,-33.3574 -20.33539,-58.1523 -20.33539,-58.1523 z m -68.7359,45.4954 a 77.447129,77.447129 0 0 0 -77.447133,77.4472 77.447129,77.447129 0 0 0 48.128533,71.54432 77.447129,77.447129 0 0 0 4.08166,1.5038 77.447129,77.447129 0 0 0 3.58896,1.1865 77.447129,77.447129 0 0 0 3.0706,0.7942 77.447129,77.447129 0 0 0 4.81876,1.0781 77.447129,77.447129 0 0 0 13.75862,1.3402 77.447129,77.447129 0 0 0 9.86023,-0.7233 66.599485,66.599485 0 0 1 2.24088,-16.3424 c -0.004,-0.01 -0.01,-0.017 -0.0138,-0.026 a 66.599485,66.599485 0 0 1 0.18723,-0.6937 66.599485,66.599485 0 0 1 0.79622,-2.4321 58.779091,58.779091 0 0 1 -0.16948,0.04 66.599485,66.599485 0 0 1 1.39734,-3.7821 66.599485,66.599485 0 0 1 0.0532,-0.1498 66.599485,66.599485 0 0 1 0.0177,-0.039 66.599485,66.599485 0 0 1 3.27362,-7.31192 66.599485,66.599485 0 0 1 0.21285,-0.4415 48.968062,48.968062 0 0 0 0.23847,-0.1064 66.599485,66.599485 0 0 1 16.27541,-19.7008 l 0,-0.1222 a 66.599485,66.599485 0 0 1 10.99151,-7.2469 48.968062,48.968062 0 0 0 0.0158,-0.039 66.599485,66.599485 0 0 1 1.58064,-0.7332 66.599485,66.599485 0 0 1 4.29057,-1.9905 66.599485,66.599485 0 0 1 1.32443,-0.4849 66.599485,66.599485 0 0 1 23.8652,-4.5251 66.599485,66.599485 0 0 1 0.15571,0 77.447129,77.447129 0 0 0 0.85338,-10.5993 77.447129,77.447129 0 0 0 -0.84945,-10.7058 77.447129,77.447129 0 0 0 -1.27318,-6.8507 77.447129,77.447129 0 0 0 -0.23255,-0.9362 77.447129,77.447129 0 0 0 -1.85853,-6.3698 77.447129,77.447129 0 0 0 -0.43754,-1.2279 77.447129,77.447129 0 0 0 -2.35518,-5.8337 77.447129,77.447129 0 0 0 -0.71345,-1.5018 77.447129,77.447129 0 0 0 -69.72725,-44.0213 z m 0,18.6681 a 58.779091,58.779091 0 0 1 58.12082,50.4167 87.53796,87.53796 0 0 0 -66.98578,66.39452 58.779091,58.779091 0 0 1 -49.914133,-58.03212 58.779091,58.779091 0 0 1 58.779093,-58.7791 z m 0,9.8109 a 48.968062,48.968062 0 0 0 -48.968123,48.9682 48.968062,48.968062 0 0 0 33.715603,46.467 96.871978,96.871978 0 0 1 61.90685,-61.284 48.968062,48.968062 0 0 0 -46.65433,-34.1512 z m 101.08372,43.2231 c 0,0 -5.35046,19.4437 -18.72914,26.9358 -11.04773,6.1867 -34.31857,19.2197 -44.19075,24.7482 a 10.346178,10.346178 0 0 0 -1.65355,5.57752 10.346178,10.346178 0 0 0 8.14559,10.0948 c 14.38311,-8.0717 21.98671,-6.1251 31.81174,1.6772 39.60089,-23.72492 24.61611,-69.03352 24.61611,-69.03352 z"
       id="path4198"
       inkscape:connector-curvature="0" />
  </g>
</svg>
