<?xml version="1.0" encoding="UTF-8" standalone="no"?>
<!-- Created with Inkscape (http://www.inkscape.org/) -->

<svg
   xmlns:dc="http://purl.org/dc/elements/1.1/"
   xmlns:cc="http://creativecommons.org/ns#"
   xmlns:rdf="http://www.w3.org/1999/02/22-rdf-syntax-ns#"
   xmlns:svg="http://www.w3.org/2000/svg"
   xmlns="http://www.w3.org/2000/svg"
   xmlns:sodipodi="http://sodipodi.sourceforge.net/DTD/sodipodi-0.dtd"
   xmlns:inkscape="http://www.inkscape.org/namespaces/inkscape"
   width="280"
   height="280"
   id="svg2"
   version="1.1"
   inkscape:version="0.48.4 r9939"
   sodipodi:docname="profession-necromancer.svg">
  <defs
     id="defs4" />
  <sodipodi:namedview
     id="base"
     pagecolor="#ffffff"
     bordercolor="#666666"
     borderopacity="1.0"
     inkscape:pageopacity="0.0"
     inkscape:pageshadow="2"
     inkscape:zoom="4"
     inkscape:cx="217.58448"
     inkscape:cy="97.806038"
     inkscape:document-units="px"
     inkscape:current-layer="layer1"
     showgrid="false"
     borderlayer="true"
     inkscape:showpageshadow="false"
     inkscape:window-width="1920"
     inkscape:window-height="1028"
     inkscape:window-x="0"
     inkscape:window-y="28"
     inkscape:window-maximized="1"
     showguides="true"
     inkscape:guide-bbox="true" />
  <metadata
     id="metadata7">
    <rdf:RDF>
      <cc:Work
         rdf:about="">
        <dc:format>image/svg+xml</dc:format>
        <dc:type
           rdf:resource="http://purl.org/dc/dcmitype/StillImage" />
        <dc:title></dc:title>
      </cc:Work>
    </rdf:RDF>
  </metadata>
  <g
     inkscape:label="Calque 1"
     inkscape:groupmode="layer"
     id="layer1"
     transform="translate(0,-772.36218)">
    <path
       style="fill:#000000;fill-opacity:1;stroke:none"
       d="m 171.375,33.125 c -5.90441,0.0121 -12.80261,6.06862 -33.375,3.59375 -33.58758,-2.82843 -36.61859,3.19058 -50.9375,10.96875 -14.31891,7.77818 -17.66269,26.51044 -21.375,38.53125 -3.71231,12.02082 -3.18198,13.95466 0,17.84375 3.18198,3.88909 2.2883,10.09714 0.34375,24.0625 0,0 -0.9375,6.1875 -2.4375,12.9375 -1.306094,5.87742 -5,19.375 -6.375,20.875 -1.375,1.5 -2.375,2.625 1.25,5.875 3.625,3.25 4.75,8.25 5.75,12.25 1,4 4.5,-0.25 5.875,-1.5 1.375,-1.25 14.25,-7.875 16.375,-7.875 2.125,0 10.5,5.25 10.5,8.375 0,3.125 -4.375,27 -1.875,41 2.5,14.00004 13.125,25.625 13.125,25.625 0,0 -1.75,-8.62496 -1.5,-18.625 0.25,-10 3,-22.75 3.625,-25.875 0.625,-3.125 3,-5.125 3.875,-5.125 0.875,0 2.625,-0.375 2.625,4.125 0,4.5 4,5.625 7,5.5 3,-0.125 2.625,-3.25 2.625,-5.625 0,-2.375 1.25,-6.125 3,-6.125 1.75,0 3.5,2.125 3.625,6.5 0.125,4.375 2.375,5.25 6.875,5 4.5,-0.25 5,-8 6.5,-10.625 1.5,-2.625 4.75,0.125 4.75,4.125 0,4 1,7.25 4.625,6.875 3.625,-0.375 5.75,-3.375 5.75,-4.5 0,-1.125 0.57468,-5.75 3.09375,-5.75 2.51907,0 3.00184,2.90289 4.0625,6.96875 1.06066,4.06587 4.25612,23.13056 1.78125,44.34375 13.78858,-15.3796 16.94454,-24.18845 15,-42.75 -1.94455,-18.56155 -3.52573,-25.99479 -0.34375,-29 3.18198,-3.0052 7.96755,-5.28002 19.28125,1.4375 11.31371,6.71751 11.48928,4.94514 11.3125,-2.65625 -0.17677,-7.6014 3.35907,-8.50367 6.1875,-10.625 2.82842,-2.12131 2.8177,-6.36796 -0.1875,-8.3125 -3.0052,-1.94454 -8.98315,-12.4078 -11.28125,-25.3125 -2.2981,-12.9047 -4.63388,-26.45529 -3.75,-42.71875 C 207.63388,70.67404 202.17034,63.24784 198.28125,56 194.39216,48.75216 180.59251,35.82935 173.875,33.53125 c -0.83969,-0.28726 -1.65651,-0.40798 -2.5,-0.40625 z m -68.53125,70.8125 c 4.625,0 10.125,5.625 14.125,7.125 4,1.5 5.25,5.125 6.375,15.5 1.125,10.375 -2.875,15 -5.25,18.875 -2.375,3.875 -16.25,10.875 -22.625,11.25 -6.375,0.375 -12.75,-5.625 -14.625,-7.5 -1.875,-1.875 -2.375,-16.125 -1.25,-26.75 1.125,-10.625 5.625,-11.875 11.5,-15.625 0,0 7.124996,-2.875 11.75,-2.875 z m 69.625,1.96875 c 9.79614,-0.14191 19.09375,5.48437 23.78125,11.34375 5,6.25 4,19.5 3,25.75 -1,6.25 -6.5,9.5 -16,12 l -0.0625,0.0625 c -1.48002,0.24332 -2.76216,0.40368 -3.59375,0.375 -3.625,-0.125 -13.875,-3.625 -19.625,-8.75 -5.75,-5.125 -6.25,-16.75 -5.5,-24.5 0.75,-7.75 5.75,-11.75 11.25,-14.625 0,0 3.02807,-0.96052 5.875,-1.625 0.29085,-0.0145 0.58491,-0.0271 0.875,-0.0312 z m -28.59375,22.4375 c 0.39185,-0.0608 0.76563,0.42188 1.09375,1.59375 0.875,3.125 6.75,22 7.25,24.625 0.5,2.625 -0.25,8.375 -3.5,12.125 -3.25,3.75 -4.5,2.375 -5.5,-0.25 -1,-2.625 -4.5,-3.875 -5.875,0.125 -1.375,4 -3.125,6.375 -5.25,3.625 -2.125,-2.75 -9.75,-10.375 -4.625,-25.375 3,-8.375 5.5,-16.625 7,-14.375 1.5,2.25 6,6.125 7.25,2.125 0.78125,-2.5 1.50317,-4.11743 2.15625,-4.21875 z"
       transform="translate(0,772.36218)"
       id="path4860"
       inkscape:connector-curvature="0"
       sodipodi:nodetypes="scssscsssssssscssssssssssssssscsssssssssssssssssscscssccsssccsccssssscsscc" />
  </g>
</svg>
