<?xml version="1.0" encoding="UTF-8" standalone="no"?>
<!-- Created with Inkscape (http://www.inkscape.org/) -->

<svg
   xmlns:dc="http://purl.org/dc/elements/1.1/"
   xmlns:cc="http://creativecommons.org/ns#"
   xmlns:rdf="http://www.w3.org/1999/02/22-rdf-syntax-ns#"
   xmlns:svg="http://www.w3.org/2000/svg"
   xmlns="http://www.w3.org/2000/svg"
   xmlns:sodipodi="http://sodipodi.sourceforge.net/DTD/sodipodi-0.dtd"
   xmlns:inkscape="http://www.inkscape.org/namespaces/inkscape"
   width="280"
   height="280"
   id="svg2"
   version="1.1"
   inkscape:version="0.48.4 r9939"
   sodipodi:docname="profession-berserker.svg">
  <defs
     id="defs4" />
  <sodipodi:namedview
     id="base"
     pagecolor="#ffffff"
     bordercolor="#666666"
     borderopacity="1.0"
     inkscape:pageopacity="0.0"
     inkscape:pageshadow="2"
     inkscape:zoom="0.35355339"
     inkscape:cx="-575.1216"
     inkscape:cy="-186.2798"
     inkscape:document-units="px"
     inkscape:current-layer="layer1"
     showgrid="false"
     borderlayer="true"
     inkscape:showpageshadow="false"
     inkscape:window-width="1920"
     inkscape:window-height="1028"
     inkscape:window-x="0"
     inkscape:window-y="28"
     inkscape:window-maximized="1" />
  <metadata
     id="metadata7">
    <rdf:RDF>
      <cc:Work
         rdf:about="">
        <dc:format>image/svg+xml</dc:format>
        <dc:type
           rdf:resource="http://purl.org/dc/dcmitype/StillImage" />
        <dc:title />
      </cc:Work>
    </rdf:RDF>
  </metadata>
  <g
     inkscape:label="Calque 1"
     inkscape:groupmode="layer"
     id="layer1"
     transform="translate(0,-772.36218)">
    <path
       style="fill:#000000;fill-opacity:1;stroke:none"
       d="m 91.561119,779.83353 c 14.926311,20.7949 7.42728,39.0122 1.55882,53.1731 -5.86848,14.1609 -7.67697,29.6287 5.0806,42.8965 -6.76152,-9.5682 -0.99001,-23.9885 8.833311,-35.853 9.82331,-11.8644 25.22385,-38.0185 -15.472731,-60.2166 z m 96.877781,0 c -40.69658,22.1981 -25.29606,48.3522 -15.47271,60.2166 9.82332,11.8645 15.59483,26.2848 8.83333,35.853 12.75755,-13.2678 10.94906,-28.7356 5.08058,-42.8965 -5.86848,-14.1609 -13.36751,-32.3782 1.5588,-53.1731 z m -113.562951,14.8954 c -8.29928,22.372 -24.71017,36.9715 -24.71017,62.4106 0,25.4392 24.52255,48.1936 30.65679,52.8844 6.13424,4.6909 20.401791,22.7328 24.190581,40.4138 5.77342,-26.1605 -12.116941,-47.4935 -25.287541,-58.1382 -13.17059,-10.6447 -16.04284,-39.5045 -11.89321,-55.0205 4.14963,-15.5162 10.29109,-23.9669 7.04355,-42.5501 z m 130.248131,0 c -3.24753,18.5832 2.89391,27.0339 7.04354,42.5501 4.14965,15.516 1.27738,44.3758 -11.89319,55.0205 -13.17062,10.6447 -31.06096,31.9777 -25.28756,58.1382 3.7888,-17.681 18.05636,-35.7229 24.1906,-40.4138 6.13423,-4.6908 30.65678,-27.4452 30.65678,-52.8844 0,-25.4391 -16.41088,-40.0386 -24.71018,-62.4106 z m -65.12406,43.4738 -26.90408,44.7439 c 13.17058,27.0629 13.58192,58.9827 3.11763,79.7305 19.66568,0 23.78645,10.1038 23.78645,10.1038 0,0 4.12077,-10.1038 23.78644,-10.1038 -10.46428,-20.7478 -10.05296,-52.6676 3.11766,-79.7305 l -26.9041,-44.7439 z m -104.845121,68.7613 c -1.80419,8.1188 3.11041,14.2315 10.50761,19.2833 7.39718,5.0517 12.61488,16.0643 11.89322,37.3537 -2.34544,0.3609 -7.96008,-2.367 -11.02723,-6.6972 -3.06712,-4.3299 -8.4436,-17.5148 -19.62958,-18.417 0,0 0.15146,3.6156 6.46622,11.3737 6.31466,7.758 -0.92374,15.1913 9.17973,28.0012 10.10347,12.8098 21.15232,17.8469 40.81799,16.2232 0,0 -0.5701,-5.225 -9.41065,-10.2769 -8.84054,-5.0514 -3.20426,-13.8994 1.84749,-27.2505 5.05172,-13.3509 -13.24485,-31.5002 -20.03372,-36.8344 -7.57761,-5.9536 -14.29641,-10.0529 -20.61108,-12.7591 z m 209.690201,0 c -6.31465,2.7062 -13.03343,6.8055 -20.61104,12.7591 -6.78889,5.3342 -25.08546,23.4835 -20.03374,36.8344 5.05175,13.3511 10.68803,22.1991 1.84753,27.2505 -8.84061,5.0519 -9.41071,10.2769 -9.41071,10.2769 19.66567,1.6237 30.71454,-3.4134 40.81801,-16.2232 10.10347,-12.8099 2.86506,-20.2432 9.17973,-28.0012 6.31466,-7.7581 6.4662,-11.3737 6.4662,-11.3737 -11.18596,0.9022 -16.56244,14.0871 -19.62959,18.417 -3.0671,4.3302 -8.68172,7.0581 -11.02717,6.6972 -0.72169,-21.2894 4.49601,-32.302 11.89319,-37.3537 7.39716,-5.0518 12.31179,-11.1645 10.50759,-19.2833 z m -153.688141,55.1936 5.60023,26.9047 c 0.0195,0.1173 0.0367,0.3359 0.0575,0.4617 0.53495,3.2407 1.38697,9.5298 0.866,13.56727 9.923061,-6.13417 21.686381,-9.01417 32.331111,-8.83297 -9.56222,-7.2171 -21.68637,-6.8635 -30.887761,-1.2704 l -1.03921,-2.1937 c 1.69562,-1.8852 6.402791,-6.2933 13.971651,-6.2933 9.56221,0 19.46363,5.0808 27.94332,18.07087 8.47968,-12.99007 18.3811,-18.07087 27.94329,-18.07087 7.56887,0 12.276,4.4081 13.97163,6.2933 l -1.0392,2.1937 c -9.20135,-5.5931 -21.32552,-5.9467 -30.88772,1.2704 10.64471,-0.1818 22.40803,2.6988 32.33108,8.83297 -0.52098,-4.03747 0.33105,-10.32657 0.86599,-13.56727 0.0208,-0.125 0.0383,-0.3459 0.0575,-0.4617 l 5.60022,-26.9047 c 0,0 -0.0432,-0.019 -0.17324,0 -0.9102,0.1193 -4.89388,1.354 -10.10345,13.5101 -22.43973,-3.795 -31.33909,3.6018 -38.56637,10.2765 -7.22728,-6.6747 -16.12664,-14.0715 -38.56639,-10.2765 -5.209581,-12.1561 -9.193241,-13.3899 -10.103451,-13.5101 -0.12988,-0.019 -0.17305,0 -0.17305,0 z m 40.644821,41.91557 c -1.62461,0.4269 -2.82897,2.021 -2.82897,3.9257 l 0,18.4746 c 0,0.6043 0.1295,1.1596 0.3464,1.6746 0.34403,0.2333 0.70783,0.4696 1.15469,0.6926 2.30838,1.1543 5.74022,1.9631 9.52612,1.9631 3.7859,0 7.21772,-0.8088 9.52611,-1.9631 0.42936,-0.2149 0.76608,-0.4682 1.09696,-0.6926 0.2178,-0.5108 0.40414,-1.0729 0.40414,-1.6746 l 0,-18.4746 c 0,-1.9047 -1.20436,-3.4988 -2.82897,-3.9257 -2.83193,2.5835 -5.58485,5.811 -8.19824,9.8147 -2.61341,-4.0037 -5.36631,-7.2312 -8.19824,-9.8147 z m 18.59038,28.3473 c -2.87621,1.2796 -6.43626,2.0205 -10.39214,2.0205 -3.90318,0 -7.4688,-0.7157 -10.33441,-1.963 -2.6207,1.3135 -4.27233,3.0735 -4.27233,5.0806 0,4.0357 6.53567,7.3322 14.60674,7.3322 8.07107,0 14.60674,-3.2965 14.60674,-7.3322 0,-1.9991 -1.61002,-3.8254 -4.2146,-5.1381 z"
       id="path4231"
       inkscape:connector-curvature="0" />
  </g>
</svg>
