<?xml version="1.0" encoding="UTF-8" standalone="no"?>
<!-- Created with Inkscape (http://www.inkscape.org/) -->

<svg
   xmlns:dc="http://purl.org/dc/elements/1.1/"
   xmlns:cc="http://creativecommons.org/ns#"
   xmlns:rdf="http://www.w3.org/1999/02/22-rdf-syntax-ns#"
   xmlns:svg="http://www.w3.org/2000/svg"
   xmlns="http://www.w3.org/2000/svg"
   xmlns:sodipodi="http://sodipodi.sourceforge.net/DTD/sodipodi-0.dtd"
   xmlns:inkscape="http://www.inkscape.org/namespaces/inkscape"
   width="280"
   height="280"
   id="svg2"
   version="1.1"
   inkscape:version="0.48.4 r9939"
   sodipodi:docname="profession-herald.svg">
  <defs
     id="defs4" />
  <sodipodi:namedview
     id="base"
     pagecolor="#ffffff"
     bordercolor="#666666"
     borderopacity="1.0"
     inkscape:pageopacity="0.0"
     inkscape:pageshadow="2"
     inkscape:zoom="0.58794643"
     inkscape:cx="-55.131812"
     inkscape:cy="561.00847"
     inkscape:document-units="px"
     inkscape:current-layer="layer1"
     showgrid="false"
     borderlayer="true"
     inkscape:showpageshadow="false"
     inkscape:window-width="1920"
     inkscape:window-height="1028"
     inkscape:window-x="0"
     inkscape:window-y="28"
     inkscape:window-maximized="1"
     showguides="true"
     inkscape:guide-bbox="true" />
  <metadata
     id="metadata7">
    <rdf:RDF>
      <cc:Work
         rdf:about="">
        <dc:format>image/svg+xml</dc:format>
        <dc:type
           rdf:resource="http://purl.org/dc/dcmitype/StillImage" />
        <dc:title></dc:title>
      </cc:Work>
    </rdf:RDF>
  </metadata>
  <g
     inkscape:label="Calque 1"
     inkscape:groupmode="layer"
     id="layer1"
     transform="translate(0,-772.36218)">
    <path
       style="fill:#000000;fill-opacity:1;stroke:none;"
       d="m 85.770267,784.64342 c -24.0243,12.11845 -29.14906,39.32977 -31.0625,55.0625 -1.91344,15.73273 -1.28125,27.65625 -1.28125,27.65625 l 13.1875,-5.96875 c 0,0 1.48666,-13.59062 3.1875,-19.96875 1.70083,-6.37813 6.59375,-15.53125 6.59375,-15.53125 0,0 -1.68043,-19.13914 9.375,-41.25 z m 17.000003,16.6875 c 0,0 -1.5041,24.94795 3.15625,37.125 4.66036,12.17706 12.94523,22.85482 17.90625,26.3125 -12.32739,2.10468 -31.878483,-10.35572 -35.937503,-16.21875 -4.05902,-5.86303 -9,-18.65625 -9,-18.65625 0,0 -7.80845,23.41112 -3.34375,51.6875 4.46469,28.27639 8.07009,34.46968 18.0625,45.3125 -14.03189,-10.84282 -19.34375,-21.5 -19.34375,-21.5 0,0 -5.51218,11.28322 -18.90625,20 -13.39408,8.71678 -26.375,11.6875 -26.375,11.6875 0,0 6.39436,5.74843 17.875,8.9375 11.48064,3.18906 26.98052,3.82885 28.46875,8.71875 1.48823,4.8899 14.45425,23.58645 31.250003,38.46875 -1.27563,3.61428 -11.898423,2.34126 -27.843753,-5.3125 5.52772,16.58318 24.020933,20.82478 32.312503,21.24998 8.29157,0.4252 15.32114,0.2284 23.1875,5.9687 7.86636,5.7404 12.95084,7.2418 11.25,11.2813 -1.70083,4.0395 -24,13.375 -24,13.375 l 0.3125,0.3125 c 31.18486,-1.5657 59.90679,-17.1694 64.40625,-21.9688 4.51003,-4.8107 7.53125,-12.625 7.53125,-12.625 0,0 -7.52395,4.2145 -19.25,3.3125 -11.72605,-0.902 -15.625,-5.1249 -15.625,-5.1249 l 3.3125,-14.71878 c 0,0 -9.33373,4.50849 -13.84375,6.3125 -4.51002,1.804 -14.125,0.90625 -14.125,0.90625 l 3.90625,-15.9375 c 0,0 -9.0094,2.11317 -13.21875,1.8125 -4.20936,-0.30067 -12.625,-18.93931 -12.625,-23.75 0,-4.81069 11.70114,-31.59375 16.8125,-31.59375 5.11136,0 27.38468,3.61317 42.71875,3.3125 15.33407,-0.30067 47.78125,-4.21875 47.78125,-4.21875 0,0 7.223,10.52304 8.125,19.84375 5.11136,-11.12472 9.03125,-23.4375 9.03125,-23.4375 0,0 20.44293,13.83157 34.875,33.375 3.89883,-26.73488 -19.77816,-62.99452 -32.375,-73.21875 l -3.40625,-1.65625 c -6.76503,10.07237 -21.80958,15.1875 -40,15.1875 -18.19041,0 -23.59375,-4.20128 -23.59375,-14.875 0,-10.67371 0.60788,-17.58268 -8.5625,-14.125 -9.17037,3.45768 -14.12848,-3.46555 -18.1875,-10.53125 -4.05902,-7.0657 -11.27895,-12.3196 -20.75,-26 -9.47104,-13.68039 -21.96875,-29.03125 -21.96875,-29.03125 z m 29,75.6875 c 0.16117,-0.0199 0.36318,0.032 0.5625,0.125 3.18907,1.48823 12.72896,16.13572 17.40625,19.75 4.6773,3.61427 10.8499,12.55531 11.0625,14.46875 -10.84282,-4.25209 -14.67561,-3.83041 -26.15625,-5.53125 -11.48064,-1.70083 -14.86781,-8.08604 -16.78125,-11.0625 -1.91344,-2.97647 -3.18292,-8.05635 0.21875,-7.84375 3.40167,0.21261 12.96875,6.35094 12.96875,4.4375 0,-1.79384 -1.69874,-14.04477 0.71875,-14.34375 z m -66.437503,0.96875 c -15.94533,12.33105 -44.19353,10.40781 -57.3749995,7.21875 13.3940695,21.26044 31.8749995,33.15625 31.8749995,33.15625 0,0 14.0225,-6.15364 19.125,-11.46875 5.10251,-5.31511 12.98927,-10.19051 9.375,-16.78125 -3.61428,-6.59074 -3,-12.125 -3,-12.125 z m 70.937503,58.53125 c -5.58087,-0.13952 -6.02726,2.42476 -7.78125,9.28125 25.08732,1.27563 28.71261,12.76676 28.5,29.5625 12.96887,1.06303 20.83041,7.21614 22.53125,12.53125 1.70083,5.31511 5.9375,4.25 5.9375,4.25 0,0 18.09416,-12.95646 30,-12.53125 11.90585,0.42521 20.59676,6.14529 27.1875,28.46873 2.33865,-11.48062 1.28084,-25.70789 -10.625,-35.06248 7.22855,-5.10251 21.0625,-5.96875 21.0625,-5.96875 0,0 -2.76321,-6.56708 -14.03125,-9.96875 -11.26803,-3.40167 -20.83447,0.83603 -27,3.8125 -6.16552,2.97646 -10.625,11.46875 -10.625,11.46875 0,0 0.84636,-12.5429 -4.46875,-27 0,0 0.8274,12.54707 -4.0625,18.5 -4.8899,5.95292 -12.53426,5.3121 -19.125,-6.59375 -6.59074,-11.90585 -16.99988,-17.41135 -29.96875,-19.75 -3.24222,-0.58466 -5.67096,-0.95349 -7.53125,-1 z"
       id="path5927"
       inkscape:connector-curvature="0" />
  </g>
</svg>
