<?xml version="1.0" encoding="UTF-8" standalone="no"?>
<!-- Created with Inkscape (http://www.inkscape.org/) -->

<svg
   xmlns:dc="http://purl.org/dc/elements/1.1/"
   xmlns:cc="http://creativecommons.org/ns#"
   xmlns:rdf="http://www.w3.org/1999/02/22-rdf-syntax-ns#"
   xmlns:svg="http://www.w3.org/2000/svg"
   xmlns="http://www.w3.org/2000/svg"
   xmlns:sodipodi="http://sodipodi.sourceforge.net/DTD/sodipodi-0.dtd"
   xmlns:inkscape="http://www.inkscape.org/namespaces/inkscape"
   width="280"
   height="280"
   id="svg2"
   version="1.1"
   inkscape:version="0.48.4 r9939"
   sodipodi:docname="profession-ranger.svg">
  <defs
     id="defs4" />
  <sodipodi:namedview
     id="base"
     pagecolor="#ffffff"
     bordercolor="#666666"
     borderopacity="1.0"
     inkscape:pageopacity="0.0"
     inkscape:pageshadow="2"
     inkscape:zoom="1.1758929"
     inkscape:cx="523.09903"
     inkscape:cy="73.733422"
     inkscape:document-units="px"
     inkscape:current-layer="layer1"
     showgrid="false"
     borderlayer="true"
     inkscape:showpageshadow="false"
     inkscape:window-width="1920"
     inkscape:window-height="1028"
     inkscape:window-x="0"
     inkscape:window-y="28"
     inkscape:window-maximized="1"
     showguides="true"
     inkscape:guide-bbox="true" />
  <metadata
     id="metadata7">
    <rdf:RDF>
      <cc:Work
         rdf:about="">
        <dc:format>image/svg+xml</dc:format>
        <dc:type
           rdf:resource="http://purl.org/dc/dcmitype/StillImage" />
        <dc:title></dc:title>
      </cc:Work>
    </rdf:RDF>
  </metadata>
  <g
     inkscape:label="Calque 1"
     inkscape:groupmode="layer"
     id="layer1"
     transform="translate(0,-772.36218)">
    <path
       style="fill:#000000;fill-opacity:1;stroke:none"
       d="m 140.75294,796.03417 c -1.72549,-0.006 -3.1198,0.1218 -4.15625,0.28125 -5.52771,0.85042 -17.4477,16.18437 -22.125,22.5625 -4.67729,6.37813 -2.12604,9.9702 0,19.75 0,0 5.95739,19.58134 16.375,32.125 10.41762,12.54366 32.30885,20.83041 39.75,22.53125 7.44116,1.70083 13.62802,-0.21052 20.21875,-4.25 6.59074,-4.03949 15.51895,-11.7181 15.09375,-25.75 -0.42521,-14.03189 -8.29029,-30.60331 -28.0625,-49.3125 -16.06491,-15.20121 -29.61663,-17.91186 -37.09375,-17.9375 z m -0.5,11.25 c 2.61347,-0.0804 5.70517,0.64601 9.53125,1.8125 8.74532,2.66626 21.29336,10.66784 32.3125,22.75 11.01914,12.08217 16.77667,26.77708 13.375,35.28125 -3.40167,8.50418 -7.21457,12.11937 -15.71875,10.84375 -8.50417,-1.27563 -22.94967,-4.89633 -36.34375,-25.09375 -13.39408,-20.19742 -15.75208,-34.42822 -11.5,-40.59375 2.3918,-3.46811 4.98357,-4.8966 8.34375,-5 z m 0.1875,8.90625 c -2.42398,0.0353 -4.42122,0.56198 -5.75,1.625 -4.25209,3.40167 4.32829,24.21822 13.375,35.5 9.04671,11.28178 17.65259,15.94875 25.09375,18.5 7.44115,2.55125 11.9052,0.63271 14.03125,-2.34375 2.12604,-2.97646 2.56406,-7.43999 -0.625,-15.09375 -3.18907,-7.65376 -16.16999,-25.95333 -26.375,-31.90625 -7.01594,-4.09263 -14.41724,-6.3589 -19.75,-6.28125 z m -102.062499,4.15625 c 0,0 4.65573,16.38416 5.71875,23.1875 1.06303,6.80334 2.34375,25.28125 2.34375,25.28125 11.90585,-11.05543 40.20542,-41.22843 41.90625,-46.96875 -18.28398,3.61427 -28.50249,4.88886 -36.15625,2.125 -7.65376,-2.76386 -13.8125,-3.625 -13.8125,-3.625 z m 51.21875,12.125 c 0,0 -21.45072,26.13874 -32.71875,36.34375 l 0.1875,15.75 c 0,0 17.44103,-17.42823 22.96875,-23.59375 5.52771,-6.16553 22.749999,-28.0625 22.749999,-28.0625 l -13.187499,-0.4375 z m 15.531249,6.8125 c 0,0 -27.000919,31.66332 -37.843749,42.71875 0,0 -3.82218,4.67312 -9.5625,8.5 -5.74032,3.82688 -6.81354,10.4277 -4.6875,17.65625 7.79799,16.19718 28.21612,30.08038 45.5,41.03125 8.504179,3.82688 9.345719,0.86323 18.062499,-0.625 8.71678,-1.48823 11.27302,-7.03478 15.3125,-12.5625 4.03949,-5.52771 19.57467,-25.08239 32.96875,-35.5 -23.38649,-7.86637 -37.43385,-22.53989 -44.875,-30.40625 -7.44116,-7.86637 -14.875,-30.8125 -14.875,-30.8125 z m -13.843749,31.9375 c 0.19226,-0.0403 0.3312,-0.003 0.4375,0.15625 0.85042,1.27563 -3.81146,6.58656 -5.9375,8.5 -2.12605,1.91344 -17.02406,16.99948 -18.9375,18.0625 -1.91344,1.06302 -1.6875,0.4375 -1.6875,0.4375 1.06302,-5.52771 15.52968,-17.01739 18.71875,-19.78125 2.79043,-2.41838 6.06045,-7.09305 7.40625,-7.375 z m -45.03125,16.9375 c -13.39408,7.65376 -18.93135,18.72948 -18.71875,22.34375 0.21261,3.61428 3.82769,22.74779 23.8125,39.96875 19.98482,17.22096 44.64031,27.20135 51.656249,24.4375 7.01595,-2.76386 18.71208,-13.81551 19.5625,-20.40625 -11.90585,4.8899 -21.49073,5.75719 -27.656249,3.84375 -6.16553,-1.91344 -35.28988,-16.60383 -43.15625,-34.25 -7.86636,-17.64616 -8.47646,-27.85853 -5.5,-35.9375 z m 124.937499,17.59375 c -1.4982,0.0734 -3.46077,1.31661 -6.96875,4.09375 -5.1025,4.03948 -28.47948,28.93489 -32.09375,34.25 -1.27563,0.95672 -0.43214,1.59218 1.375,4.78125 1.80713,3.18906 4.37344,1.79562 7.5625,-2.03125 3.18907,-3.82688 28.60448,-30.59833 32.21875,-34 3.61428,-3.40167 1.69469,-5.11808 -0.21875,-6.5 -0.59795,-0.43185 -1.194,-0.6271 -1.875,-0.59375 z m 3.65625,14.71875 c -0.77453,0.17168 -2.45765,1.79058 -3.59375,2.6875 -2.01974,1.59454 -14.36494,14.76374 -22.125,24.96875 -1.16932,1.80714 0.0174,2.33224 2.78125,0.3125 2.76385,-2.01974 19.77995,-18.79708 22.4375,-24.75 1.16268,-2.60441 1.10241,-3.35228 0.5,-3.21875 z m 4.6875,5.8125 c -2.69596,0.13661 -5.08274,7.23054 -11.59375,16.625 0,0 -4.13531,5.49248 -10.75,8.875 -6.6147,3.38251 0.89135,9.31708 5.78125,12.71875 4.8899,3.40167 28.46614,19.33957 33.78125,27.84377 5.31511,8.50411 7.86114,6.8018 10.625,3.1875 2.76385,-3.6143 5.76844,-18.48408 6.40625,-25.50002 0.63781,-7.01595 -10.41593,-12.75301 -16.15625,-19.34375 -5.74031,-6.59073 -13.61088,-21.79891 -16.90625,-24.03125 -0.41192,-0.27904 -0.80236,-0.39452 -1.1875,-0.375 z m 45.3125,56.0625 c -3.72493,-0.11337 -6.24008,4.36292 -8.9375,14.68752 -2.23234,9.03571 -3.10839,16.90491 1.25,19.56251 4.35839,2.6575 9.15625,4.873 9.15625,-3.8438 0,-8.7167 3.61218,-23.18081 4.25,-24.03121 0.63781,-0.8504 0.64605,-4.43674 -4.03125,-6.03127 -0.58466,-0.19932 -1.15537,-0.32755 -1.6875,-0.34375 z m 11.6875,9.78122 c -7.44115,32.63481 -4.26334,36.56251 -2.5625,36.56251 1.70083,0 18.5,-16.6875 18.5,-16.6875 0,0 -3.29198,-2.6608 -6.90625,-6.0625 -3.61428,-3.4016 -9.03125,-13.81251 -9.03125,-13.81251 z"
       id="path5295"
       inkscape:connector-curvature="0" />
  </g>
</svg>
