<?xml version="1.0" encoding="UTF-8" standalone="no"?>
<!-- Created with Inkscape (http://www.inkscape.org/) -->

<svg
   xmlns:dc="http://purl.org/dc/elements/1.1/"
   xmlns:cc="http://creativecommons.org/ns#"
   xmlns:rdf="http://www.w3.org/1999/02/22-rdf-syntax-ns#"
   xmlns:svg="http://www.w3.org/2000/svg"
   xmlns="http://www.w3.org/2000/svg"
   xmlns:sodipodi="http://sodipodi.sourceforge.net/DTD/sodipodi-0.dtd"
   xmlns:inkscape="http://www.inkscape.org/namespaces/inkscape"
   width="280"
   height="280"
   id="svg2"
   version="1.1"
   inkscape:version="0.91 r13725"
   sodipodi:docname="profession-scourge.svg">
  <defs
     id="defs4" />
  <sodipodi:namedview
     id="base"
     pagecolor="#ffffff"
     bordercolor="#666666"
     borderopacity="1.0"
     inkscape:pageopacity="0.0"
     inkscape:pageshadow="2"
     inkscape:zoom="0.70710678"
     inkscape:cx="-6.8719779"
     inkscape:cy="-78.686446"
     inkscape:document-units="px"
     inkscape:current-layer="layer1"
     showgrid="false"
     borderlayer="true"
     inkscape:showpageshadow="false"
     inkscape:window-width="3840"
     inkscape:window-height="1883"
     inkscape:window-x="0"
     inkscape:window-y="49"
     inkscape:window-maximized="1" />
  <metadata
     id="metadata7">
    <rdf:RDF>
      <cc:Work
         rdf:about="">
        <dc:format>image/svg+xml</dc:format>
        <dc:type
           rdf:resource="http://purl.org/dc/dcmitype/StillImage" />
        <dc:title />
      </cc:Work>
    </rdf:RDF>
  </metadata>
  <g
     inkscape:label="Calque 1"
     inkscape:groupmode="layer"
     id="layer1"
     transform="translate(0,-772.36218)">
    <path
       style="opacity:1;fill:#000000;fill-opacity:1;stroke:none;stroke-width:21.14299965;stroke-linecap:round;stroke-linejoin:round;stroke-miterlimit:10;stroke-dasharray:none;stroke-opacity:1"
       d="m 26.110745,797.36218 138.388015,186.592 a 87.516977,95.087008 0 0 1 -31.30505,6.4809 87.516977,95.087008 0 0 1 -87.515785,-95.0861 87.516977,95.087008 0 0 1 3.97178,-28.29 98.22581,98.22581 0 0 0 -12.83535,48.4141 98.22581,98.22581 0 0 0 98.225515,98.22552 98.22581,98.22581 0 0 0 48.94243,-13.2392 16.841807,26.894669 84.895188 0 1 11.40737,-2.68872 16.841807,26.894669 84.895188 0 1 13.81861,1.1322 L 184.78399,972.01838 26.110745,797.36218 Z m 118.849395,13.6636 a 98.22581,98.22581 0 0 0 -48.942435,13.2392 16.841807,26.894669 84.895188 0 1 -11.40738,2.6887 16.841807,26.894669 84.895188 0 1 -13.81861,-1.1322 l 24.4243,26.8845 L 253.88925,1027.3622 115.50124,840.77018 a 87.516977,95.087008 0 0 1 31.30504,-6.4809 87.516977,95.087008 0 0 1 87.51579,95.0861 87.516977,95.087008 0 0 1 -3.97177,28.29 98.22581,98.22581 0 0 0 12.83534,-48.4141 98.22581,98.22581 0 0 0 -98.22551,-98.2255 z"
       id="path4196"
       inkscape:connector-curvature="0" />
  </g>
</svg>
