<?xml version="1.0" encoding="UTF-8" standalone="no"?>
<!-- Created with Inkscape (http://www.inkscape.org/) -->

<svg
   xmlns:dc="http://purl.org/dc/elements/1.1/"
   xmlns:cc="http://creativecommons.org/ns#"
   xmlns:rdf="http://www.w3.org/1999/02/22-rdf-syntax-ns#"
   xmlns:svg="http://www.w3.org/2000/svg"
   xmlns="http://www.w3.org/2000/svg"
   xmlns:sodipodi="http://sodipodi.sourceforge.net/DTD/sodipodi-0.dtd"
   xmlns:inkscape="http://www.inkscape.org/namespaces/inkscape"
   width="280"
   height="280"
   id="svg2"
   version="1.1"
   inkscape:version="0.48.4 r9939"
   sodipodi:docname="profession-elementalist.svg">
  <defs
     id="defs4" />
  <sodipodi:namedview
     id="base"
     pagecolor="#ffffff"
     bordercolor="#666666"
     borderopacity="1.0"
     inkscape:pageopacity="0.0"
     inkscape:pageshadow="2"
     inkscape:zoom="0.70710678"
     inkscape:cx="-106.48626"
     inkscape:cy="410.72587"
     inkscape:document-units="px"
     inkscape:current-layer="layer1"
     showgrid="false"
     borderlayer="true"
     inkscape:showpageshadow="false"
     inkscape:window-width="1920"
     inkscape:window-height="1028"
     inkscape:window-x="0"
     inkscape:window-y="28"
     inkscape:window-maximized="1" />
  <metadata
     id="metadata7">
    <rdf:RDF>
      <cc:Work
         rdf:about="">
        <dc:format>image/svg+xml</dc:format>
        <dc:type
           rdf:resource="http://purl.org/dc/dcmitype/StillImage" />
        <dc:title></dc:title>
      </cc:Work>
    </rdf:RDF>
  </metadata>
  <g
     inkscape:label="Calque 1"
     inkscape:groupmode="layer"
     id="layer1"
     transform="translate(0,-772.36218)">
    <path
       style="fill:#000000;fill-opacity:1;stroke:none"
       d="m 33.140625,813.03848 c -11.20007,-0.0235 -16.85937,2.25 -19.09375,4.65625 -3.25,3.5 6.5,26 10.5,35.5 4,9.5 13.25,20 13.25,25.25 0,5.25 1.5,11.25 4.75,16.5 3.25,5.25 15.5,13 24.25,15 -1.75,2.5 0,6.25 0,6.25 0,0 -12.5,9.5 -14.25,18.75 -1.75,9.25 5.75,13 5.75,15.25 0,2.25 -8.75,6.25 -7.25,15.25 1.5,9 18,12 18,12 0,0 0.75,11.25 7.75,19.00002 7,7.75005 17.25,15.50005 19.25,15.25005 2,-0.25 1.25,-20.25005 4.749995,-28.25007 3.5,-8 10.1875,-16.4375 11.25,-16.4375 1.0625,0 11.1875,3.5 15,5.3125 3.69162,1.75503 10.54023,8.33204 12.84375,8.75 l 0,0.0625 c 0.0283,0 0.0635,-0.0286 0.0937,-0.0312 0.0404,0.004 0.0879,0.0312 0.125,0.0312 l 0,-0.0625 c 2.30352,-0.41796 9.15213,-6.99497 12.84375,-8.75 3.8125,-1.8125 13.9375,-5.3125 15,-5.3125 1.0625,0 7.75,8.4375 11.25,16.4375 3.5,8.00002 2.75,28.00007 4.75,28.25007 2,0.25 12.25,-7.5 19.25,-15.25005 7,-7.75004 7.75,-19.00002 7.75,-19.00002 0,0 16.5,-3 18,-12 1.5,-9 -7.25,-13 -7.25,-15.25 0,-2.25 7.5,-6 5.75,-15.25 -1.75,-9.25 -14.25,-18.75 -14.25,-18.75 0,0 1.75,-3.75 0,-6.25 8.75,-2 21,-9.75 24.25,-15 3.25,-5.25 4.75,-11.25 4.75,-16.5 0,-5.25 9.25,-15.75 13.25,-25.25 4,-9.5 13.75,-32 10.5,-35.5 -3.25,-3.5 -13.75,-6.75 -38,-3 -24.25,3.75 -58.25,23.75 -75.75,49 -0.75886,1.48847 -1.10816,-0.006 -3.40625,-6.28125 -1.95271,-5.3324 -3.31989,-8.05206 -7.15625,-8.75 -0.23654,-0.043 -0.49406,-0.0973 -0.75,-0.125 -0.0201,-0.001 -0.0423,10e-4 -0.0625,0 -0.66421,-0.0347 -1.38834,0.021 -2,0.0937 -0.0916,0.0138 -0.19215,0.0153 -0.28125,0.0312 -0.25552,0.0371 -0.49631,0.08 -0.6875,0.125 -3.38782,0.88619 -4.82007,3.61082 -6.65625,8.625 -2.29809,6.2756 -2.64739,7.76972 -3.40625,6.28125 -17.5,-25.25 -51.499995,-45.25 -75.749995,-49 -7.57812,-1.17187 -13.81531,-1.64557 -18.90625,-1.65625 z m 60.28125,91.8125 c 0.66154,-0.0208 1.3282,-0.0211 2,0 2.48048,0.0781 5.014075,0.4545 7.499995,1.25 13.25826,4.24264 21.91513,14.32018 21.03125,24.75 -4.41942,-4.06586 -8.99419,-2.10172 -17.65625,-0.6875 -8.662055,1.41421 -15.567415,-0.55301 -24.406245,-7.09375 -8.83884,-6.54074 -7.23928,-9.71171 -7.0625,-11.65625 0.13465,-1.4812 8.6707,-6.25091 18.59375,-6.5625 z m 91.156245,0 c 10.74876,-0.33832 20.45012,4.98255 20.59375,6.5625 0.17678,1.94454 1.77634,5.11551 -7.0625,11.65625 -8.83883,6.54074 -15.74419,8.50796 -24.40625,7.09375 -8.66206,-1.41422 -13.23683,-3.37836 -17.65625,0.6875 -0.88388,-10.42982 7.77299,-20.50736 21.03125,-24.75 2.48592,-0.7955 5.01952,-1.1719 7.5,-1.25 z"
       id="path4534"
       inkscape:connector-curvature="0" />
  </g>
</svg>
