<?xml version="1.0" encoding="UTF-8" standalone="no"?>
<!-- Created with Inkscape (http://www.inkscape.org/) -->

<svg
   xmlns:dc="http://purl.org/dc/elements/1.1/"
   xmlns:cc="http://creativecommons.org/ns#"
   xmlns:rdf="http://www.w3.org/1999/02/22-rdf-syntax-ns#"
   xmlns:svg="http://www.w3.org/2000/svg"
   xmlns="http://www.w3.org/2000/svg"
   xmlns:sodipodi="http://sodipodi.sourceforge.net/DTD/sodipodi-0.dtd"
   xmlns:inkscape="http://www.inkscape.org/namespaces/inkscape"
   width="280"
   height="280"
   id="svg2"
   version="1.1"
   inkscape:version="0.91 r13725"
   sodipodi:docname="profession-spellbreaker.svg">
  <defs
     id="defs4" />
  <sodipodi:namedview
     id="base"
     pagecolor="#ffffff"
     bordercolor="#666666"
     borderopacity="1.0"
     inkscape:pageopacity="0.0"
     inkscape:pageshadow="2"
     inkscape:zoom="1"
     inkscape:cx="-931.95914"
     inkscape:cy="-504.78737"
     inkscape:document-units="px"
     inkscape:current-layer="layer1"
     showgrid="false"
     borderlayer="true"
     inkscape:showpageshadow="false"
     inkscape:window-width="3840"
     inkscape:window-height="1883"
     inkscape:window-x="0"
     inkscape:window-y="49"
     inkscape:window-maximized="1" />
  <metadata
     id="metadata7">
    <rdf:RDF>
      <cc:Work
         rdf:about="">
        <dc:format>image/svg+xml</dc:format>
        <dc:type
           rdf:resource="http://purl.org/dc/dcmitype/StillImage" />
        <dc:title></dc:title>
      </cc:Work>
    </rdf:RDF>
  </metadata>
  <g
     inkscape:label="Calque 1"
     inkscape:groupmode="layer"
     id="layer1"
     transform="translate(0,-772.36218)">
    <path
       style="fill:#000000;fill-opacity:1;fill-rule:evenodd;stroke:none;stroke-width:1px;stroke-linecap:butt;stroke-linejoin:miter;stroke-opacity:1"
       d="m 140.00001,772.36218 -38.49724,160.01825 c 0,0 22.35832,20.29525 27.23864,24.5544 4.88033,4.25915 8.78439,8.69498 1.77448,11.62326 -7.00991,2.92818 -17.4813,9.58334 -19.3447,16.68202 l 28.82882,67.12209 28.82684,-67.12209 c -1.8634,-7.09868 -12.33282,-13.75384 -19.34272,-16.68202 -7.00993,-2.92828 -3.10586,-7.36411 1.77446,-11.62326 4.88032,-4.25915 27.23865,-24.5544 27.23865,-24.5544 L 140.00001,772.36218 Z m -38.84822,36.13651 -12.544826,15.99966 15.093796,31.72878 a 87.841304,87.339354 0 0 1 4.56265,-1.80782 c -1.69296,-11.06871 -4.81033,-31.15365 -7.11162,-45.92062 z m 77.69643,0 c -2.3013,14.76697 -5.41864,34.85191 -7.11161,45.92062 a 87.841304,87.339354 0 0 1 4.56264,1.80782 l 15.0938,-31.72878 -12.54483,-15.99966 z m -104.915462,9.64688 -0.482344,27.03474 a 107.12043,98.633236 0 0 0 -21.264262,20.86818 l -0.07647,-0.0311 a 107.12043,98.633236 0 0 0 -19.230971,56.32435 107.12043,98.633236 0 0 0 0.341166,6.10572 107.12043,98.633236 0 0 0 0.38627,4.81953 107.12043,98.633236 0 0 0 0.858807,5.17832 107.12043,98.633236 0 0 0 0.852924,4.47248 107.12043,98.633236 0 0 0 1.492118,5.3548 107.12043,98.633236 0 0 0 1.256843,4.11951 107.12043,98.633236 0 0 0 2.129364,5.35089 107.12043,98.633236 0 0 0 1.637221,3.84102 107.12043,98.633236 0 0 0 2.772493,5.26657 107.12043,98.633236 0 0 0 1.962706,3.52349 107.12043,98.633236 0 0 0 3.464631,5.18816 107.12043,98.633236 0 0 0 2.18231,3.10777 107.12043,98.633236 0 0 0 4.133239,4.99401 107.12043,98.633236 0 0 0 2.409763,2.77829 107.12043,98.633236 0 0 0 4.75872,4.68822 107.12043,98.633236 0 0 0 2.578378,2.43124 107.12043,98.633236 0 0 0 5.370477,4.33133 107.12043,98.633236 0 0 0 2.705823,2.08621 107.12043,98.633236 0 0 0 5.946937,3.9038 107.12043,98.633236 0 0 0 2.780333,1.7412 107.12043,98.633236 0 0 0 6.46261,3.4018 107.12043,98.633236 0 0 0 2.845034,1.4196 107.12043,98.633236 0 0 0 6.876328,2.8235 107.12043,98.633236 0 0 0 3.645024,1.4078 107.12043,98.633236 0 0 0 0.84901,0.3274 87.841304,87.339354 0 0 1 -0.84901,-0.4058 87.841304,87.339354 0 0 1 -4.643042,-2.4195 87.841304,87.339354 0 0 1 -4.164611,-2.3667 87.841304,87.339354 0 0 1 -3.335229,-2.1842 87.841304,87.339354 0 0 1 -3.880307,-2.751 87.841304,87.339354 0 0 1 -3.146997,-2.545 87.841304,87.339354 0 0 1 -3.525418,-3.06858 87.841304,87.339354 0 0 1 -2.915629,-2.88421 87.841304,87.339354 0 0 1 -3.19405,-3.39991 87.841304,87.339354 0 0 1 -2.588176,-3.12936 87.841304,87.339354 0 0 1 -2.847002,-3.71172 87.841304,87.339354 0 0 1 -2.276425,-3.39399 87.841304,87.339354 0 0 1 -2.439158,-3.94312 87.841304,87.339354 0 0 1 -1.943099,-3.63522 87.841304,87.339354 0 0 1 -2.015642,-4.13718 87.841304,87.339354 0 0 1 -1.584286,-3.84895 87.841304,87.339354 0 0 1 -1.57252,-4.2705 87.841304,87.339354 0 0 1 -1.203887,-4.03708 87.841304,87.339354 0 0 1 -1.123506,-4.34699 87.841304,87.339354 0 0 1 -0.805871,-4.20976 87.841304,87.339354 0 0 1 -0.670575,-4.36656 87.841304,87.339354 0 0 1 -0.384304,-4.31758 87.841304,87.339354 0 0 1 -0.309793,-5.98807 87.841304,87.339354 0 0 1 0.347048,-6.70575 87.841304,87.339354 0 0 1 0.44509,-4.23325 87.841304,87.339354 0 0 1 0.686256,-4.47438 87.841304,87.339354 0 0 1 0.847041,-4.06861 87.841304,87.339354 0 0 1 1.147037,-4.44698 87.841304,87.339354 0 0 1 1.233312,-3.90578 87.841304,87.339354 0 0 1 1.625456,-4.40973 87.841304,87.339354 0 0 1 1.568594,-3.64496 87.841304,87.339354 0 0 1 2.105832,-4.31949 87.841304,87.339354 0 0 1 1.882314,-3.39408 87.841304,87.339354 0 0 1 2.56858,-4.15485 87.841304,87.339354 0 0 1 2.19015,-3.15285 87.841304,87.339354 0 0 1 2.999936,-3.9136 87.841304,87.339354 0 0 1 2.44505,-2.86273 87.841304,87.339354 0 0 1 23.144608,-18.57607 L 73.932758,818.14587 Z m 132.134492,0 -23.46225,41.23441 a 87.841304,87.339354 0 0 1 23.14461,18.57608 87.841304,87.339354 0 0 1 2.44504,2.86272 87.841304,87.339354 0 0 1 2.99994,3.91361 87.841304,87.339354 0 0 1 2.19016,3.15285 87.841304,87.339354 0 0 1 2.56857,4.15484 87.841304,87.339354 0 0 1 1.88231,3.39409 87.841304,87.339354 0 0 1 2.10585,4.31949 87.841304,87.339354 0 0 1 1.56859,3.64496 87.841304,87.339354 0 0 1 1.62546,4.40973 87.841304,87.339354 0 0 1 1.23331,3.90578 87.841304,87.339354 0 0 1 1.14702,4.44698 87.841304,87.339354 0 0 1 0.84705,4.0686 87.841304,87.339354 0 0 1 0.68625,4.47439 87.841304,87.339354 0 0 1 0.44509,4.23325 87.841304,87.339354 0 0 1 0.34706,6.70575 87.841304,87.339354 0 0 1 -0.3098,5.98807 87.841304,87.339354 0 0 1 -0.38431,4.31757 87.841304,87.339354 0 0 1 -0.67057,4.36657 87.841304,87.339354 0 0 1 -0.80586,4.20976 87.841304,87.339354 0 0 1 -1.12351,4.34699 87.841304,87.339354 0 0 1 -1.20389,4.03708 87.841304,87.339354 0 0 1 -1.57253,4.2705 87.841304,87.339354 0 0 1 -1.58427,3.84895 87.841304,87.339354 0 0 1 -2.01565,4.13718 87.841304,87.339354 0 0 1 -1.94309,3.63522 87.841304,87.339354 0 0 1 -2.43917,3.94312 87.841304,87.339354 0 0 1 -2.27643,3.39399 87.841304,87.339354 0 0 1 -2.847,3.71172 87.841304,87.339354 0 0 1 -2.58817,3.12936 87.841304,87.339354 0 0 1 -3.19405,3.39991 87.841304,87.339354 0 0 1 -2.91563,2.88421 87.841304,87.339354 0 0 1 -3.52542,3.0686 87.841304,87.339354 0 0 1 -3.14699,2.545 87.841304,87.339354 0 0 1 -3.88032,2.751 87.841304,87.339354 0 0 1 -3.33521,2.1842 87.841304,87.339354 0 0 1 -4.16463,2.3667 87.841304,87.339354 0 0 1 -4.64304,2.4195 87.841304,87.339354 0 0 1 -0.84899,0.4058 107.12043,98.633236 0 0 0 0.84899,-0.3274 107.12043,98.633236 0 0 0 3.64503,-1.4078 107.12043,98.633236 0 0 0 6.87632,-2.8235 107.12043,98.633236 0 0 0 2.84504,-1.4196 107.12043,98.633236 0 0 0 6.46261,-3.4018 107.12043,98.633236 0 0 0 2.78033,-1.7412 107.12043,98.633236 0 0 0 5.94695,-3.90382 107.12043,98.633236 0 0 0 2.70581,-2.08621 107.12043,98.633236 0 0 0 5.37048,-4.33133 107.12043,98.633236 0 0 0 2.57838,-2.43124 107.12043,98.633236 0 0 0 4.75874,-4.68822 107.12043,98.633236 0 0 0 2.40974,-2.7783 107.12043,98.633236 0 0 0 4.13325,-4.994 107.12043,98.633236 0 0 0 2.1823,-3.10777 107.12043,98.633236 0 0 0 3.46464,-5.18816 107.12043,98.633236 0 0 0 1.9627,-3.52349 107.12043,98.633236 0 0 0 2.77249,-5.26657 107.12043,98.633236 0 0 0 1.63723,-3.84102 107.12043,98.633236 0 0 0 2.12936,-5.35089 107.12043,98.633236 0 0 0 1.25684,-4.11951 107.12043,98.633236 0 0 0 1.49212,-5.3548 107.12043,98.633236 0 0 0 0.85293,-4.47248 107.12043,98.633236 0 0 0 0.8588,-5.17832 107.12043,98.633236 0 0 0 0.38627,-4.81953 107.12043,98.633236 0 0 0 0.34116,-6.10572 107.12043,98.633236 0 0 0 -19.23097,-56.32435 l -0.0765,0.0311 a 107.12043,98.633236 0 0 0 -21.26425,-20.86818 l -0.48235,-27.03474 z"
       id="path4196"
       inkscape:connector-curvature="0" />
  </g>
</svg>
