<?xml version="1.0" encoding="UTF-8" standalone="no"?>
<!-- Created with Inkscape (http://www.inkscape.org/) -->

<svg
   xmlns:dc="http://purl.org/dc/elements/1.1/"
   xmlns:cc="http://creativecommons.org/ns#"
   xmlns:rdf="http://www.w3.org/1999/02/22-rdf-syntax-ns#"
   xmlns:svg="http://www.w3.org/2000/svg"
   xmlns="http://www.w3.org/2000/svg"
   xmlns:sodipodi="http://sodipodi.sourceforge.net/DTD/sodipodi-0.dtd"
   xmlns:inkscape="http://www.inkscape.org/namespaces/inkscape"
   width="280"
   height="280"
   id="svg2"
   version="1.1"
   inkscape:version="0.48.4 r9939"
   sodipodi:docname="profession-chronomancer.svg">
  <defs
     id="defs4" />
  <sodipodi:namedview
     id="base"
     pagecolor="#ffffff"
     bordercolor="#666666"
     borderopacity="1.0"
     inkscape:pageopacity="0.0"
     inkscape:pageshadow="2"
     inkscape:zoom="0.53727489"
     inkscape:cx="79.245849"
     inkscape:cy="-0.59352122"
     inkscape:document-units="px"
     inkscape:current-layer="layer1"
     showgrid="false"
     borderlayer="true"
     inkscape:showpageshadow="false"
     inkscape:window-width="1920"
     inkscape:window-height="1028"
     inkscape:window-x="0"
     inkscape:window-y="28"
     inkscape:window-maximized="1" />
  <metadata
     id="metadata7">
    <rdf:RDF>
      <cc:Work
         rdf:about="">
        <dc:format>image/svg+xml</dc:format>
        <dc:type
           rdf:resource="http://purl.org/dc/dcmitype/StillImage" />
        <dc:title></dc:title>
      </cc:Work>
    </rdf:RDF>
  </metadata>
  <g
     inkscape:label="Calque 1"
     inkscape:groupmode="layer"
     id="layer1"
     transform="translate(0,-772.36218)">
    <path
       style="fill:#000000;fill-opacity:1;stroke:none"
       d="m 136.26562,802.26843 c -66.09623,0 -119.656245,52.6223 -119.656245,117.5312 0,0.8261 0.01399,1.6468 0.03125,2.4688 l 31.09375,0 c -0.157589,-2.2958 -0.25,-4.6028 -0.25,-6.9375 0,-56.626 47.097012,-102.5313 105.187495,-102.5313 27.95284,0 53.34965,10.6306 72.1875,27.9688 -21.89241,-23.6543 -53.48013,-38.5 -88.59375,-38.5 z m 4.25,29.4687 c -0.89197,-0.01 -1.79416,0.01 -2.6875,0.031 -12.99404,0.3375 -26.07648,3.825 -38.124995,10.7812 -38.55525,22.2599 -51.791134,71.5698 -29.53125,110.125 22.259884,38.5553 71.569745,51.75987 110.124995,29.5 38.55525,-22.2598 51.75988,-71.5697 29.5,-110.125 -14.82543,-25.6784 -41.63009,-40.1109 -69.28125,-40.3125 z m -0.75,10.6875 c 0.64752,-0.045 1.29942,0.087 1.90625,0.4375 0.55824,0.3223 0.99355,0.7865 1.28125,1.3125 0.90375,0.9038 1.46875,2.1463 1.46875,3.5313 l 0,11 c 0,0.4511 -0.10778,0.8973 -0.21875,1.3125 l 2.875,48.25 43.03125,28.375 c 1.25991,-0.3649 2.67533,-0.2419 3.90625,0.4687 1.41857,0.819 2.25372,2.2153 2.4375,3.7188 l 3.03125,2 c 0.43552,0.2815 0.78444,0.6746 1.0625,1.1562 0.58392,1.0114 0.59931,2.184 0.125,3.1563 -0.28456,0.5834 -0.70567,1.0871 -1.3125,1.4375 -1.0306,0.5946 -2.26746,0.5955 -3.25,0.094 l -4.5,-2.25 c -0.88142,0.018 -1.77147,-0.1815 -2.59375,-0.6562 -0.64348,-0.3715 -1.15871,-0.8715 -1.5625,-1.4375 l -50.03125,-25.0625 c -0.14764,-0.055 -0.29129,-0.1459 -0.4375,-0.2188 -0.0724,-0.033 -0.14692,-0.059 -0.21875,-0.094 l -0.0312,-0.031 c -0.13943,-0.069 -0.26947,-0.1397 -0.40625,-0.2187 -0.10021,-0.058 -0.18479,-0.1258 -0.28125,-0.1875 -0.17419,-0.1111 -0.33512,-0.2488 -0.5,-0.375 -0.0946,-0.072 -0.19097,-0.1425 -0.28125,-0.2188 -0.16285,-0.1379 -0.31726,-0.2839 -0.46875,-0.4375 -1.65847,-1.6644 -2.43207,-3.9915 -2.0625,-6.2812 l 2.9375,-49.1875 c -0.77675,-0.8806 -1.25,-2.0406 -1.25,-3.3125 l 0,-11 c 0,-2.4238 1.68623,-4.4103 3.96875,-4.875 0.42464,-0.2316 0.89462,-0.3727 1.375,-0.4063 z m 28.9375,13.4375 c 0.95991,-0.067 1.97543,0.1369 2.875,0.6563 2.39889,1.385 3.1975,4.4448 1.8125,6.8437 -1.385,2.3989 -4.41361,3.1975 -6.8125,1.8125 -2.39889,-1.385 -3.22875,-4.4136 -1.84375,-6.8125 0.86562,-1.4993 2.3689,-2.3881 3.96875,-2.5 z m -58.68749,0.5625 c 1.68575,0.037 3.30984,0.9258 4.21875,2.5 1.385,2.3989 0.58638,5.4588 -1.8125,6.8438 -2.39889,1.385 -5.45875,0.5551 -6.84375,-1.8438 -1.38501,-2.3989 -0.55514,-5.4275 1.84375,-6.8125 0.59972,-0.3462 1.23043,-0.5755 1.875,-0.6562 0.24171,-0.03 0.47792,-0.036 0.71875,-0.031 z m 80.53124,20.875 c 0.24132,-0.018 0.47877,-0.017 0.71875,0 1.59985,0.1119 3.13438,1.0007 4,2.5 1.385,2.3989 0.55514,5.4275 -1.84375,6.8125 -2.39889,1.385 -5.4275,0.5864 -6.8125,-1.8125 -1.385,-2.3989 -0.58639,-5.4587 1.8125,-6.8437 0.67468,-0.3895 1.40105,-0.6029 2.125,-0.6563 z m -102.406245,1 c 0.959908,-0.067 1.944166,0.1369 2.84375,0.6563 2.39889,1.385 3.1975,4.4448 1.8125,6.8437 -1.385,2.3989 -4.41361,3.1975 -6.8125,1.8125 -2.39889,-1.385 -3.22875,-4.4136 -1.84375,-6.8125 0.865625,-1.4993 2.400153,-2.3881 4,-2.5 z m 144.124995,24.1563 c 0.15759,2.2958 0.25,4.6028 0.25,6.9375 0,56.626 -47.09701,102.53117 -105.18749,102.53117 -27.952845,0 -53.349655,-10.6306 -72.187505,-27.96867 21.89241,23.65427 53.480135,38.49997 88.593745,38.49997 66.09623,0 119.65625,-52.62237 119.65625,-117.53127 0,-0.8261 -0.014,-1.6467 -0.0312,-2.4687 l -31.09375,0 z m -39.125,4.3437 c 0.16849,-0.017 0.32688,0 0.5,0 l 11,0 c 2.77,0 5,2.23 5,5 0,2.77 -2.23,5 -5,5 l -11,0 c -2.77,0 -5,-2.23 -5,-5 0,-2.5968 1.9726,-4.7448 4.5,-5 z m -117.812495,1.1563 11,0 c 2.77,0 5,2.23 5,5 0,2.77 -2.23,5 -5,5 l -11,0 c -2.77,0 -5,-2.23 -5,-5 0,-2.77 2.23,-5 5,-5 z m 13.375,29.5 c 0.244247,-0.018 0.478773,-0.017 0.71875,0 1.599847,0.1118 3.103125,1.0007 3.96875,2.5 1.385,2.3989 0.55514,5.4275 -1.84375,6.8125 -2.39889,1.385 -5.4275,0.5864 -6.8125,-1.8125 -1.385,-2.3989 -0.58639,-5.4588 1.8125,-6.8438 0.674688,-0.3895 1.423509,-0.6028 2.15625,-0.6562 z m 80.999995,20.8437 c 0.24132,-0.021 0.47877,-0.017 0.71875,0 1.59985,0.1119 3.10313,1.0007 3.96875,2.5 1.385,2.3989 0.58639,5.4588 -1.8125,6.8438 -2.39889,1.385 -5.45875,0.5551 -6.84375,-1.8438 -1.385,-2.3989 -0.55514,-5.4275 1.84375,-6.8125 0.67468,-0.3895 1.40105,-0.6253 2.125,-0.6875 z m -59.12499,0.5938 c 0.9599,-0.067 1.94416,0.1369 2.84375,0.6562 2.39888,1.385 3.22875,4.4449 1.84375,6.8438 -1.38501,2.3989 -4.44487,3.1975 -6.84375,1.8125 -2.39889,-1.385 -3.22876,-4.4136 -1.84375,-6.8125 0.86562,-1.4993 2.40015,-2.3882 4,-2.5 z m 29.99999,2.125 c 2.77,0 5,2.23 5,5 l 0,11 c 0,2.77 -2.23,5 -5,5 -2.76999,0 -5,-2.23 -5,-5 l 0,-11 c 0,-2.77 2.23001,-5 5,-5 z"
       id="path3895"
       inkscape:connector-curvature="0" />
  </g>
</svg>
