<?xml version="1.0" encoding="UTF-8" standalone="no"?>
<!-- Created with Inkscape (http://www.inkscape.org/) -->

<svg
   xmlns:dc="http://purl.org/dc/elements/1.1/"
   xmlns:cc="http://creativecommons.org/ns#"
   xmlns:rdf="http://www.w3.org/1999/02/22-rdf-syntax-ns#"
   xmlns:svg="http://www.w3.org/2000/svg"
   xmlns="http://www.w3.org/2000/svg"
   xmlns:sodipodi="http://sodipodi.sourceforge.net/DTD/sodipodi-0.dtd"
   xmlns:inkscape="http://www.inkscape.org/namespaces/inkscape"
   width="280"
   height="280"
   id="svg2"
   version="1.1"
   inkscape:version="0.48.4 r9939"
   sodipodi:docname="ihm-arenanet.svg">
  <defs
     id="defs4" />
  <sodipodi:namedview
     id="base"
     pagecolor="#ffffff"
     bordercolor="#666666"
     borderopacity="1.0"
     inkscape:pageopacity="0.0"
     inkscape:pageshadow="2"
     inkscape:zoom="1"
     inkscape:cx="303.0547"
     inkscape:cy="141.30755"
     inkscape:document-units="px"
     inkscape:current-layer="layer1"
     showgrid="false"
     borderlayer="true"
     inkscape:showpageshadow="false"
     inkscape:window-width="1920"
     inkscape:window-height="1000"
     inkscape:window-x="0"
     inkscape:window-y="28"
     inkscape:window-maximized="1" />
  <metadata
     id="metadata7">
    <rdf:RDF>
      <cc:Work
         rdf:about="">
        <dc:format>image/svg+xml</dc:format>
        <dc:type
           rdf:resource="http://purl.org/dc/dcmitype/StillImage" />
        <dc:title></dc:title>
      </cc:Work>
    </rdf:RDF>
  </metadata>
  <g
     inkscape:label="Calque 1"
     inkscape:groupmode="layer"
     id="layer1"
     transform="translate(0,-772.36218)">
    <path
       style="fill:#000000;fill-opacity:1;stroke:none"
       d="m 140,786.86218 c -69.31174,0 -125.5,56.1882 -125.5,125.5 0,69.3117 56.18826,125.50002 125.5,125.50002 69.31174,0 125.5,-56.18832 125.5,-125.50002 0,-69.3118 -56.18826,-125.5 -125.5,-125.5 z m 77.25,71.25 0,18 c -72.58248,1.1498 -113.1292,7.6157 -164.75,34.1875 l 0,-1.875 -10.3125,-12.9375 c 54.89566,-28.4437 99.99974,-36.0335 175.0625,-37.375 z m 0,31.9375 0,67.875 -27.9375,0 0,-22.8125 c 0,-11.08 -8.10026,-20 -18.1875,-20 -10.08724,0 -18.25,8.92 -18.25,20 l 0,22.8125 -30,0 0,-22.8125 c 0,-11.08 -8.16276,-20 -18.25,-20 -10.08724,0 -18.1875,8.92 -18.1875,20 l 0,22.8125 -33.9375,0 0,-31.8125 c 53.13628,-28.6861 90.35496,-35.0042 164.75,-36.0625 z"
       id="path3933"
       inkscape:connector-curvature="0" />
  </g>
</svg>
