<?xml version="1.0" encoding="UTF-8" standalone="no"?>
<!-- Created with Inkscape (http://www.inkscape.org/) -->

<svg
   xmlns:dc="http://purl.org/dc/elements/1.1/"
   xmlns:cc="http://creativecommons.org/ns#"
   xmlns:rdf="http://www.w3.org/1999/02/22-rdf-syntax-ns#"
   xmlns:svg="http://www.w3.org/2000/svg"
   xmlns="http://www.w3.org/2000/svg"
   xmlns:sodipodi="http://sodipodi.sourceforge.net/DTD/sodipodi-0.dtd"
   xmlns:inkscape="http://www.inkscape.org/namespaces/inkscape"
   width="280"
   height="280"
   id="svg2"
   version="1.1"
   inkscape:version="0.48.4 r9939"
   sodipodi:docname="ui-blc-balance.svg">
  <defs
     id="defs4" />
  <sodipodi:namedview
     id="base"
     pagecolor="#ffffff"
     bordercolor="#666666"
     borderopacity="1.0"
     inkscape:pageopacity="0.0"
     inkscape:pageshadow="2"
     inkscape:zoom="0.35355339"
     inkscape:cx="-17.348445"
     inkscape:cy="499.99046"
     inkscape:document-units="px"
     inkscape:current-layer="layer1"
     showgrid="false"
     borderlayer="true"
     inkscape:showpageshadow="false"
     inkscape:window-width="1920"
     inkscape:window-height="1000"
     inkscape:window-x="0"
     inkscape:window-y="28"
     inkscape:window-maximized="1" />
  <metadata
     id="metadata7">
    <rdf:RDF>
      <cc:Work
         rdf:about="">
        <dc:format>image/svg+xml</dc:format>
        <dc:type
           rdf:resource="http://purl.org/dc/dcmitype/StillImage" />
        <dc:title></dc:title>
      </cc:Work>
    </rdf:RDF>
  </metadata>
  <g
     inkscape:label="Calque 1"
     inkscape:groupmode="layer"
     id="layer1"
     transform="translate(0,-772.36218)">
    <path
       style="fill:#000000;fill-opacity:1;stroke:none"
       d="m 156.301,772.3622 c -9.64382,3.43554 -16.35477,10.13856 -21.0059,10.13856 -4.23056,0 -7.65796,-2.64235 -10.61012,-4.71561 1.04357,3.36419 1.26464,5.7016 1.26464,5.7016 0,0 -1.20727,0.96056 -5.2086,-5.46582 -1.53252,-2.46132 -3.93735,-3.95193 -6.98768,-4.92995 2.30786,6.0873 1.74097,9.20735 1.26464,10.15999 -0.60016,1.20034 -3.60101,-0.85738 -7.20202,-3.51527 -3.60101,-2.65789 -5.91594,-0.60017 -7.20202,-0.17148 -0.623987,0.208 -2.389504,1.28309 -4.051134,2.31494 3.074941,0.79249 7.823224,2.34846 11.596114,5.05856 6.08742,4.37266 5.65873,8.23088 5.65873,8.23088 0,0 -12.43206,-8.23088 -28.036441,-8.74531 -5.496995,-0.18122 -8.549376,0.13596 -10.245733,0.6216 0.7515,0.31387 1.915312,0.71436 3.751053,1.15747 3.516321,0.84877 21.077141,11.15776 25.078471,13.82531 4.00132,2.66755 8.25231,11.63898 8.25231,11.63898 0,0 -4.9619,-6.53755 -6.90194,-6.53755 -1.94003,0 -26.326305,-10.55506 -33.116433,-11.76759 -3.542681,-0.63262 -6.653022,-0.076 -8.852485,0.60017 0.453728,0.49366 0.911365,0.93871 1.350379,1.32895 3.273813,2.91005 1.82194,4.97282 1.82194,4.97282 0,0 2.768615,0.605 -11.660415,-0.72878 -3.372961,-0.31178 -6.525752,0.0273 -9.409784,0.70735 2.633916,2.97676 4.877332,5.4697 5.894511,6.45181 3.516322,3.39506 11.29183,1.823 12.98936,10.67442 -12.488991,-0.72751 -15.413794,1.81606 -24.992729,6.66616 -6.946302,3.51711 -9.341447,12.24969 -10.331471,16.97619 8.692641,-0.69371 8.169685,2.35885 10.224298,3.04371 2.546299,0.84877 10.067116,-5.94662 14.189697,-7.15915 4.122581,-1.21252 9.088265,-0.61046 9.088265,1.69333 0,2.3038 -5.094922,4.24531 -9.58126,4.97283 -4.486338,0.72751 -14.548008,6.78405 -27.522011,12.96792 -3.243496,1.54597 -5.252551,3.28217 -6.451811,5.0157 10.058535,0.26302 19.393178,0.49877 21.241677,0.45012 4.607585,-0.12124 4.113547,1.56179 3.022276,3.98684 -1.09127,2.42505 -7.028864,4.12301 -10.181429,8.48809 -2.404206,3.32891 -3.303162,7.22502 -2.207762,11.57468 2.959454,-2.50735 5.239642,-4.60435 6.087423,-5.74447 3.516315,-4.72884 11.534545,-6.79855 17.233408,-8.98109 5.698857,-2.18254 8.838623,-5.57867 13.203706,-8.85249 4.365084,-3.27381 14.072037,-8.72703 24.499734,-10.54581 1.907658,-0.33274 3.60859,-0.46925 5.101432,-0.45013 0.971258,-5.41478 2.886464,-14.71682 5.144304,-18.51948 3.25805,-5.48726 5.31577,-3.94397 7.20202,-7.88793 0,1.54329 2.9151,3.08658 10.46008,4.80135 4.49338,1.02122 11.00269,1.54194 15.60438,1.8005 -0.6524,11.23308 -2.93562,19.6614 -3.94397,21.60607 -1.20034,2.31493 -1.54329,4.28691 6.00169,4.28691 7.54497,0 14.06109,0.42869 11.06024,-3.51527 -2.51467,-3.305 -4.0099,-14.9559 -3.92253,-22.33484 3.79588,-0.10951 7.84168,-0.19897 10.86734,-0.12861 7.3735,0.17148 14.40404,-3.94396 16.11881,-6.00168 0,1.02886 3.42954,3.94396 6.00169,7.88793 1.52406,2.33689 3.0007,4.83675 4.13687,6.79476 4.64171,-0.0519 10.88575,0.0445 14.91847,0.87882 7.03263,1.45503 7.65215,5.80877 7.65215,5.80877 0,0 -5.46436,-1.07909 -12.86075,-1.20033 -7.39639,-0.12126 -9.82985,2.66965 -8.98109,5.33721 0.84877,2.66755 9.46379,4.12342 11.76759,4.60843 2.30379,0.48501 18.3169,7.39389 20.98446,10.91021 2.66755,3.51631 10.53615,4.12343 13.2037,4.60844 2.66756,0.48501 12.62037,8.2477 18.19797,13.8253 5.57761,5.57761 4.37244,-1.33358 0.12861,-8.1237 -4.24383,-6.79014 -12.48923,-9.59051 -16.61181,-10.80304 -4.12257,-1.21252 -5.23004,-4.60843 -5.23004,-4.60843 0,0 7.77089,-0.007 18.56235,-0.12861 4.22404,-0.0475 10.59727,-0.33033 16.82616,-0.66447 -4.67686,-3.32937 -8.94357,-6.17303 -10.76017,-6.83764 -4.97134,-1.81878 -35.16576,-13.59204 -38.56082,-15.04708 -3.39507,-1.45502 2.18528,-3.75777 5.7016,-3.51527 3.51631,0.2425 13.58113,4.86272 16.97619,7.28776 3.39506,2.42505 6.90405,-2.43388 12.23915,-5.10143 5.33511,-2.66755 1.10072,-7.40566 -6.90193,-13.58953 -8.00266,-6.18387 -15.77797,-7.87322 -21.11307,-7.63071 -5.33511,0.2425 3.02753,-6.66449 10.18143,-9.81704 2.12131,-0.93482 4.33914,-3.85302 6.40894,-7.48068 -14.92986,0.0434 -23.38514,2.27207 -23.38514,2.27207 0,0 -0.48185,-1.7051 1.82194,-4.37265 1.05082,-1.21674 1.55214,-2.39994 1.75764,-4.75848 -9.18612,1.22097 -18.11139,3.62212 -23.94244,5.85164 -8.24516,3.15256 -17.44775,7.26632 -17.44775,7.26632 0,0 2.41414,-9.08848 14.29687,-13.33231 5.09388,-1.81924 13.48722,-3.18259 21.41315,-4.15831 -2.79864,-2.40667 -7.90897,-4.3114 -20.81298,-2.74363 -12.97401,1.57629 -16.72782,6.66196 -21.82041,8.35949 -5.0926,1.69753 -1.0898,-6.05758 4.97282,-9.45265 3.75099,-2.10056 9.57444,-2.62918 13.48236,-2.72219 -0.12535,-0.13754 -0.2566,-0.2701 -0.38583,-0.42869 -2.66755,-3.15256 -6.54385,-4.7297 -10.18142,-4.60844 -3.63757,0.12125 -13.22515,6.17316 -13.22515,6.17316 0,0 2.54652,-4.48362 4.24405,-6.66616 1.69753,-2.18254 -0.23893,-3.40074 -2.05772,-3.27949 -1.81878,0.12126 -4.96695,-0.36374 -9.81704,12.36776 -0.97002,-1.69753 -1.25936,-6.04119 -0.12861,-9.32405 0.60099,-1.74479 1.54746,-3.4417 2.70076,-5.05856 z m -88.696322,6.66616 c -2.330313,0.22796 -4.663864,3.18632 -6.880503,5.65873 -1.668111,1.86058 -1.255538,4.47069 -0.02143,6.9448 1.721667,-1.4172 3.554239,-2.83056 4.865651,-3.5367 3.062999,-1.64931 8.43712,-1.59081 8.745312,-1.58616 0.01999,-0.15984 0.0438,-0.22474 0.0643,-0.38582 -0.561579,-1.17721 -1.705459,-3.23308 -3.836791,-5.68017 -0.818452,-0.93971 -1.637054,-1.36164 -2.464978,-1.41468 -0.155234,-0.01 -0.31621,-0.0152 -0.471561,0 z m 127.621532,27.05045 c 1.49103,0.004 3.00337,0.28511 4.4584,0.92168 5.82011,2.5463 11.03629,11.03736 9.58126,18.43375 -1.45503,7.39639 -6.07776,12.98011 -8.74531,11.76759 -2.66756,-1.21253 -7.76226,-4.37266 -5.33722,-4.37266 2.42506,0 4.38002,0.84981 4.50127,-3.51527 0.12125,-4.36508 0.35934,-6.55542 -2.55072,-8.6167 -2.91005,-2.06129 -5.57132,-6.5386 -8.72388,-3.02228 -3.15255,3.51631 -4.36172,6.89878 -6.30176,5.08 -1.94004,-1.81879 -4.14172,-3.7603 -2.80794,-4.97283 1.33378,-1.21252 4.24405,-5.80877 4.24405,-5.80877 2.81912,-3.36475 7.20878,-5.90588 11.68185,-5.89451 z m -109.595043,0.83595 c 3.003839,0.0854 6.302468,1.02143 9.538391,2.40067 7.396392,3.15256 8.367472,8.23047 8.852482,12.11054 0.48501,3.88007 -1.21631,3.99776 -2.18633,2.05772 -0.97001,-1.94004 -8.739429,-5.68815 -13.589524,-6.17316 -4.850095,-0.48501 -4.115441,1.20434 -4.115441,7.63071 0,6.42638 4.370132,13.95518 2.915104,14.6827 -1.455028,0.72751 -8.375676,0.1122 -13.589528,-9.34548 -5.213846,-9.45768 -1.464693,-13.09928 2.657889,-18.79814 2.250748,-3.41022 5.654883,-4.67533 9.516957,-4.56556 z m 80.208223,34.29534 c -1.85667,0.0829 -2.91629,1.35959 -5.1443,3.32236 -2.66755,2.97068 -0.79171,4.36362 2.05772,7.39493 2.84943,3.03131 4.92639,1.01961 6.98768,-0.19291 2.06129,-1.21253 1.33261,-3.8638 1.39325,-5.01569 0.0606,-1.1519 -2.01191,-5.1627 -4.43696,-5.46582 -0.30313,-0.0379 -0.59215,-0.0547 -0.85739,-0.0429 z m -50.17837,0.77164 c -0.90939,0.0606 -3.04813,0.12998 -5.59442,2.97941 -2.54631,2.84943 -1.50652,5.13516 -0.90026,6.04455 0.60626,0.90939 4.17124,2.00014 5.44439,1.75764 1.27315,-0.2425 4.56746,-3.0144 5.65873,-4.65131 1.09127,-1.63691 -0.50593,-3.21834 -1.77907,-5.03712 -0.60627,-0.66689 -1.91997,-1.1538 -2.82937,-1.09317 z m 14.1897,6.08742 c 0,0 -7.54497,7.20203 -10.97451,9.00253 -3.42953,1.80051 -7.97367,4.97283 -8.23088,8.4881 -0.25722,3.51527 6.06599,11.48894 6.75189,15.08995 0.37375,1.96214 1.6246,5.31449 1.58616,8.03797 3.14578,-2.24866 6.66999,-4.37531 10.26717,-5.80878 3.52313,-1.40395 6.8598,-1.99478 9.90278,-2.07915 -2.22264,-2.45839 -3.86351,-6.16631 -6.08742,-8.78818 -3.64871,-4.30162 -6.73046,-7.3092 -8.35949,-7.73789 -1.62903,-0.42869 2.40067,-5.48725 2.9151,-7.71645 0.51443,-2.2292 2.2292,-8.4881 2.2292,-8.4881 z m 26.06446,4.28692 c 0,0 -0.19039,5.76906 2.03629,8.44523 -3.23386,2.23562 -7.30569,5.98037 -9.90278,9.98852 -1.43667,2.18921 -3.98893,7.79948 -5.68017,10.11712 5.26597,0.46444 9.38118,2.31275 11.66042,3.60101 1.57786,0.89184 4.69701,2.99407 7.86649,5.20861 0.6678,-1.54226 1.36576,-3.14778 1.90768,-4.26548 1.37181,-2.82937 2.9151,-8.65958 5.31578,-15.26143 2.40067,-6.60185 0.0857,-7.63071 -1.1146,-8.65957 -1.20034,-1.02886 -5.74447,-3.51528 -12.08911,-9.17401 z m -56.780223,7.95223 c -3.855441,0.94486 -8.912804,1.17454 -15.497207,3.19376 -9.093931,2.7888 -30.071046,11.89136 -33.223611,13.22514 -3.152558,1.33377 -4.839388,7.39745 -6.173162,8.85248 -1.333773,1.45503 -7.162746,7.86421 -17.469189,23.02075 -2.735766,4.02318 -4.766531,7.96936 -6.280334,11.59611 9.400168,-10.04084 18.047923,-15.84016 18.047923,-15.84016 0,0 -1.541109,7.12571 -5.058562,16.05451 6.909708,-4.29219 14.985513,-13.87339 17.89788,-16.16168 3.395067,-2.66755 9.221921,-2.90607 12.131977,-5.93738 2.910056,-3.03131 11.765908,-8.49315 14.918473,-11.4032 3.152558,-2.91006 13.21191,-11.39796 17.94075,-16.61181 2.571273,-2.83499 2.949482,-6.87947 2.765062,-9.98852 z m 90.754043,5.1443 c -3.73995,0.13367 -6.96269,1.31094 -9.51696,2.70076 -2.29856,2.51601 2.87139,4.67044 9.6027,6.51612 7.51764,2.06129 31.64817,21.57391 37.83205,27.75779 4.10876,4.10877 10.34582,10.77964 14.9399,15.73299 0.0558,-2.17763 0.10718,-4.12285 0.10718,-5.18717 0,-3.75883 -3.27949,-10.67443 -3.27949,-10.67443 0,0 6.29169,6.19251 12.83931,13.22514 3.75745,4.03577 5.52619,4.94204 6.34464,4.99426 -0.93643,-2.76479 -2.59528,-7.30408 -4.62987,-11.06025 -3.15256,-5.82011 -9.46318,-15.38942 -23.77096,-27.3934 -14.30777,-12.00398 -29.34018,-16.49055 -39.52538,-16.61181 -0.31829,-0.004 -0.63179,-0.0111 -0.94312,0 z m -88.26763,15.77586 c -4.423901,1.35915 -9.326605,2.89849 -11.317463,3.62245 -4.001327,1.45502 -34.310266,24.96961 -38.796604,28.12218 -4.486338,3.15255 -3.265411,2.42569 -3.386665,12.73214 -0.121248,10.30645 3.261205,17.09158 5.079997,21.82043 1.818785,4.72884 -0.480807,8.60703 -1.693332,11.27459 -0.457144,1.00568 -0.936702,3.39956 -1.371814,5.98021 3.413292,-0.82027 6.568436,-1.89378 8.530966,-3.30092 6.426371,-4.60758 15.042252,-27.05128 16.376025,-31.65885 1.333773,-4.60761 11.638563,-24.2354 15.518642,-28.35798 2.106618,-2.23828 6.993423,-11.85972 11.060248,-20.23425 z m 79.2008,0.0857 c -0.31184,0.0141 -0.61116,0.0606 -0.90025,0.10717 -0.70145,1.61365 0.10464,5.62212 1.69333,12.15341 2.18255,8.97267 6.55522,14.1811 16.74041,25.70007 10.1852,11.519 14.91364,24.13283 16.24742,35.04554 1.33377,10.9127 6.53714,7.99698 10.41721,9.08826 3.88008,1.09128 6.30177,6.19463 6.30177,6.19463 l 0.96456,-10.54582 c 0,0 13.71835,-2.79157 17.96218,-5.7016 2.28767,-1.56867 4.14695,-7.56946 5.38008,-12.77501 -6.22053,1.14238 -11.16825,3.7777 -13.86818,5.98021 -4.60759,3.75884 -5.57993,1.45612 -9.58126,-3.51527 -4.00132,-4.97131 -2.43262,-19.77403 -4.37265,-26.32165 -1.94004,-6.54763 -10.29618,-15.63402 -14.66126,-20.36286 -4.36509,-4.72884 -20.62723,-12.00779 -28.87239,-14.55408 -1.28831,-0.39786 -2.42391,-0.53946 -3.45097,-0.493 z m -25.16421,10.80303 c -1.33377,0 -4.59078,5.81614 -6.77333,5.93738 -2.18254,0.12126 -15.76366,0 -16.97619,0 -1.21253,0 -3.52452,-1.56115 -4.73704,-3.62244 -1.21253,-2.06129 -3.75169,-3.1679 -4.11545,-0.62161 -0.36375,2.5463 0.47388,10.92072 -2.31493,12.86076 -2.7888,1.94004 -5.44922,5.10038 -4.11544,8.6167 1.33377,3.51632 17.33281,17.94073 21.09163,17.94073 3.75883,0 8.1233,0.96439 12.00337,-3.27946 3.88008,-4.24385 12.97465,-13.95288 12.73215,-17.4692 -0.24251,-3.51631 -3.15215,-7.01773 -3.87966,-7.86649 -0.72752,-0.84877 -1.32895,-2.19138 -1.32895,-5.10144 0,-4.24383 -0.25238,-7.39493 -1.58616,-7.39493 z m -54.42241,7.71645 c -3.467064,3.35339 -8.126243,8.1171 -9.581264,10.48152 -1.94004,3.15256 -9.098143,13.8127 -10.674425,18.90532 -1.576282,5.09258 -1.103672,8.12998 -3.043712,11.76755 -1.940039,3.63757 -5.457204,6.42599 -4.608436,16.24742 0.775253,8.97084 -5.216273,14.80358 -6.816199,26.55749 8.311243,-3.25888 10.037897,-8.5451 13.375183,-15.77586 3.63757,-7.88141 5.331115,-20.37171 5.937381,-25.46429 0.606259,-5.09258 5.582239,-19.02426 6.794764,-21.69182 1.212526,-2.66754 6.653968,-11.51437 7.866498,-17.94075 0.2051,-1.08705 0.47026,-2.12287 0.75021,-3.08658 z m 74.91388,4.02971 c 2.02071,7.46622 7.08783,24.6929 13.58953,36.39591 8.48766,15.27782 1.93355,11.15675 16.84759,29.70833 5.41821,6.73972 10.39652,11.64396 14.57551,15.19716 -3.8849,-6.0855 -7.55656,-11.82551 -8.74531,-13.6324 -3.03131,-4.60758 -7.89234,-18.91751 -10.43864,-30.07276 -2.5463,-11.15517 -12.35809,-20.12412 -15.02565,-22.54916 -2.66755,-2.42505 -7.88247,-12.72795 -8.85248,-14.42548 -0.2286,-0.40005 -0.97286,-0.57319 -1.95055,-0.6216 z m -66.683,13.56809 c -0.57114,7.80674 -1.15406,17.24748 -0.96456,21.60608 0.34295,7.88793 5.31578,21.60606 7.88793,27.77922 2.57215,6.17317 8.91679,23.49231 8.91679,23.49231 l 4.43696,-43.31933 c -8.28031,-0.32094 -14.37162,-10.89762 -17.64067,-21.3274 -1.0767,-3.43519 -1.91393,-6.02699 -2.63645,-8.23088 z m -9.667001,3.12945 c -0.260631,0.30872 -0.519561,0.60854 -0.750211,0.90025 -4.122581,5.21385 -4.010792,9.20914 -5.465819,12.96791 -1.455028,3.75884 -1.093795,21.96205 -1.457552,25.35715 -0.363757,3.39503 -4.887086,19.11965 -9.774172,24.52117 -4.887086,5.40151 -15.261427,9.174 -20.491466,11.74615 -5.23004,2.57215 0,5.14427 1.714767,8.14517 1.714767,3.0008 4.887086,-2.0577 8.916788,-4.2012 4.029703,-2.14346 7.973667,-1.45756 9.688434,2.6579 1.714767,4.1154 -0.771645,9.4312 -3.515273,11.5747 -2.743627,2.1434 -1.286075,6.7733 1.629029,11.0602 2.915104,4.2869 4.887086,3.0866 6.087423,2.4007 1.200337,-0.6859 6.087423,-3.8582 9.602695,-5.8302 3.515273,-1.972 1.971983,-7.6307 2.657889,-9.174 0.685907,-1.5433 3.772489,-2.8294 5.487259,-0.6859 1.71476,2.1434 5.91594,3.0866 5.91594,3.0866 0,0 -0.34295,-3.5153 -2.05772,-6.1732 -1.71477,-2.6579 -10.717292,-11.146 -11.317461,-23.57806 5.875111,3.97421 9.998401,11.18714 11.574671,14.3397 1.57629,3.15256 9.84227,19.51116 12.02481,22.78496 2.18254,3.2739 3.38435,10.6766 6.17316,16.0117 1.03935,1.9883 2.2609,3.4867 3.38666,4.587 -0.44161,-8.4161 -6.97695,-36.0369 -9.15256,-45.20556 -2.40068,-10.11713 -10.46008,-26.75037 -12.68928,-31.03729 -2.2292,-4.28691 -6.51611,-17.31914 -8.74531,-28.12217 -1.281048,-6.20815 -0.415255,-13.25314 0.557299,-18.13368 z m 73.777851,0.27865 c -2.53187,5.73328 -9.11099,19.87433 -14.14683,23.68523 -2.68029,2.0283 -5.11138,3.17411 -7.03054,3.81536 -0.0322,5.78734 0.1286,12.56067 0.85738,16.50463 1.45755,7.88793 2.05772,15.34717 0.94312,15.94734 -1.1146,0.60016 -4.37265,3.51527 -7.03054,-8.57384 -1.77682,-8.0817 -4.05836,-19.36459 -5.7016,-27.54348 -1.51106,10.47613 -6.58926,38.44878 -9.81705,47.69199 -3.77248,10.80302 -0.51443,12.00342 3.25806,31.55172 2.00675,10.3986 5.389,20.8512 8.14515,28.4437 0.0945,-14.9608 1.80958,-28.2995 3.85822,-34.4454 2.57215,-7.7164 10.11713,-28.12217 12.17485,-33.95238 2.05772,-5.8302 12.86075,-29.83694 14.40404,-37.55339 1.10341,-5.51703 0.51533,-18.41173 0.0857,-25.57148 z m 9.75274,20.74866 c -0.87174,3.84389 -2.16561,9.40255 -3.66532,14.93994 -2.22919,8.23088 -19.89129,40.63998 -22.46345,57.44475 -0.86602,5.658 -1.10765,12.9271 -1.05029,20.0841 2.57683,-5.0532 5.12043,-9.9626 6.53755,-12.5392 3.77249,-6.859 12.00337,-28.63659 14.06109,-32.58055 2.05772,-3.94397 9.25974,-9.25974 7.71645,-1.71477 -0.90174,4.40853 -3.92263,13.91882 -6.36607,21.34882 5.12531,-4.7378 12.56263,-12.0259 16.4832,-17.74781 4.73275,-6.90728 8.7859,-13.60208 10.54581,-16.56897 -5.19695,-5.94798 -10.09849,-11.85747 -12.83931,-15.92586 -2.74135,-4.06921 -5.95368,-10.34108 -8.95966,-16.74045 z"
       id="path4399"
       inkscape:connector-curvature="0" />
  </g>
</svg>
