<?xml version="1.0" encoding="UTF-8" standalone="no"?>
<!-- Created with Inkscape (http://www.inkscape.org/) -->

<svg
   xmlns:dc="http://purl.org/dc/elements/1.1/"
   xmlns:cc="http://creativecommons.org/ns#"
   xmlns:rdf="http://www.w3.org/1999/02/22-rdf-syntax-ns#"
   xmlns:svg="http://www.w3.org/2000/svg"
   xmlns="http://www.w3.org/2000/svg"
   xmlns:sodipodi="http://sodipodi.sourceforge.net/DTD/sodipodi-0.dtd"
   xmlns:inkscape="http://www.inkscape.org/namespaces/inkscape"
   width="280"
   height="280"
   id="svg2"
   version="1.1"
   inkscape:version="0.48.4 r9939"
   sodipodi:docname="ui-mail.svg">
  <defs
     id="defs4" />
  <sodipodi:namedview
     id="base"
     pagecolor="#ffffff"
     bordercolor="#666666"
     borderopacity="1.0"
     inkscape:pageopacity="0.0"
     inkscape:pageshadow="2"
     inkscape:zoom="0.70710678"
     inkscape:cx="20.602679"
     inkscape:cy="301.79474"
     inkscape:document-units="px"
     inkscape:current-layer="layer1"
     showgrid="false"
     borderlayer="true"
     inkscape:showpageshadow="false"
     inkscape:window-width="1920"
     inkscape:window-height="1000"
     inkscape:window-x="0"
     inkscape:window-y="28"
     inkscape:window-maximized="1" />
  <metadata
     id="metadata7">
    <rdf:RDF>
      <cc:Work
         rdf:about="">
        <dc:format>image/svg+xml</dc:format>
        <dc:type
           rdf:resource="http://purl.org/dc/dcmitype/StillImage" />
        <dc:title></dc:title>
      </cc:Work>
    </rdf:RDF>
  </metadata>
  <g
     inkscape:label="Calque 1"
     inkscape:groupmode="layer"
     id="layer1"
     transform="translate(0,-772.36218)">
    <path
       style="fill:#000000;fill-opacity:1;stroke:none"
       d="m 72.749573,826.48289 c -16.962794,0 -4.622885,0.70316 -4.622885,33.92196 0,33.2188 22.672225,44.16726 31.860395,44.16726 l 15.430427,0 18.92883,0 c -1.27764,0.84525 -2.33827,1.91874 -3.12357,3.0611 l -6.74691,9.808 -0.18741,0.24989 c -1.65692,2.41077 -2.31144,5.20629 -2.31144,7.80892 0,2.60263 0.64956,5.39091 2.31144,7.80892 0.39294,0.56808 0.62249,0.87272 0.62471,0.8746 l 6.30961,9.18329 c 1.75839,2.56498 4.84262,4.79988 8.74599,4.8103 3.61415,0.01 6.49624,-1.94279 8.30869,-4.24806 l 0.0625,0 a 3.9238284,3.9238284 0 0 0 0.43729,-0.49977 3.9238284,3.9238284 0 0 0 0,-0.0625 l 6.93433,-10.05789 c 1.65616,-2.41307 2.31624,-5.19636 2.31144,-7.80892 -0.004,-2.60325 -0.64641,-5.39919 -2.31144,-7.80892 l -6.93433,-9.99542 0,-0.0625 a 3.9238284,3.9238284 0 0 0 -0.0625,-0.0625 3.9238284,3.9238284 0 0 0 -0.4373,-0.56224 3.9238284,3.9238284 0 0 0 -0.0625,0 c -0.71281,-0.89459 -1.61014,-1.75183 -2.62379,-2.43638 l 19.05376,0 15.43043,0 c 9.18819,0 31.79793,-10.94846 31.79793,-44.16726 0,-33.2188 12.3399,-33.92196 -4.62288,-33.92196 l -26.73775,0 -81.025367,0 -26.73774,0 z m -8.433639,31.48558 c -11.661918,14.84245 -12.374847,44.84101 -15.555371,61.097 -3.180523,16.25601 -8.845189,43.1169 5.997251,61.84665 14.842439,18.72974 28.241369,17.30457 42.730419,17.30457 l 84.961057,0 c 14.48906,0 27.95046,1.42517 42.79289,-17.30457 14.84244,-18.72975 9.17778,-45.59064 5.99725,-61.84665 -3.18052,-16.25599 -3.89345,-46.25455 -15.55537,-61.097 l 0.68719,1.74919 c 5.65425,22.26366 4.22188,29.69632 -0.12494,41.85582 -4.25975,11.91592 -19.33746,16.25953 -27.92471,16.42997 -0.17552,0.004 -0.39234,0 -0.56224,0 l -18.42905,0 c 0.80385,2.47265 1.18361,5.04629 1.18695,7.49657 0.008,4.42181 -1.13262,9.09727 -3.93569,13.18146 l -11.74462,17.11715 a 6.6411591,6.6411591 0 0 1 -0.0625,0 6.6411591,6.6411591 0 0 1 -0.68719,0.8746 l -0.0625,0.0625 c -3.06759,3.90172 -7.93906,7.13773 -14.05606,7.12174 -6.60653,-0.0176 -11.8296,-3.77999 -14.80571,-8.12128 l -10.68255,-15.5554 c -0.004,-0.003 -0.39694,-0.47534 -1.06201,-1.43684 a 6.6411591,6.6411591 0 0 1 0,-0.0625 c -2.81275,-4.09253 -3.9357,-8.77646 -3.9357,-13.18146 0,-2.46557 0.31868,-5.00877 1.12449,-7.49657 l -18.429057,0 c -0.17292,0 -0.38344,0.004 -0.56224,0 -8.58891,-0.17352 -23.66652,-4.51847 -27.924703,-16.42997 -4.34683,-12.1595 -5.779205,-19.59216 -0.124942,-41.85582 l 0.749656,-1.74919 z"
       id="path4089"
       inkscape:connector-curvature="0" />
  </g>
</svg>
