<?xml version="1.0" encoding="UTF-8" standalone="no"?>
<!-- Created with Inkscape (http://www.inkscape.org/) -->

<svg
   xmlns:dc="http://purl.org/dc/elements/1.1/"
   xmlns:cc="http://creativecommons.org/ns#"
   xmlns:rdf="http://www.w3.org/1999/02/22-rdf-syntax-ns#"
   xmlns:svg="http://www.w3.org/2000/svg"
   xmlns="http://www.w3.org/2000/svg"
   xmlns:sodipodi="http://sodipodi.sourceforge.net/DTD/sodipodi-0.dtd"
   xmlns:inkscape="http://www.inkscape.org/namespaces/inkscape"
   width="280"
   height="280"
   id="svg2"
   version="1.1"
   inkscape:version="0.48.4 r9939"
   sodipodi:docname="ui-blc-lion.svg">
  <defs
     id="defs4" />
  <sodipodi:namedview
     id="base"
     pagecolor="#ffffff"
     bordercolor="#666666"
     borderopacity="1.0"
     inkscape:pageopacity="0.0"
     inkscape:pageshadow="2"
     inkscape:zoom="1"
     inkscape:cx="313.79662"
     inkscape:cy="226.01668"
     inkscape:document-units="px"
     inkscape:current-layer="layer1"
     showgrid="false"
     borderlayer="true"
     inkscape:showpageshadow="false"
     inkscape:window-width="1920"
     inkscape:window-height="1000"
     inkscape:window-x="0"
     inkscape:window-y="28"
     inkscape:window-maximized="1" />
  <metadata
     id="metadata7">
    <rdf:RDF>
      <cc:Work
         rdf:about="">
        <dc:format>image/svg+xml</dc:format>
        <dc:type
           rdf:resource="http://purl.org/dc/dcmitype/StillImage" />
        <dc:title></dc:title>
      </cc:Work>
    </rdf:RDF>
  </metadata>
  <g
     inkscape:label="Calque 1"
     inkscape:groupmode="layer"
     id="layer1"
     transform="translate(0,-772.36218)">
    <path
       style="font-size:medium;font-style:normal;font-variant:normal;font-weight:normal;font-stretch:normal;text-indent:0;text-align:start;text-decoration:none;line-height:normal;letter-spacing:normal;word-spacing:normal;text-transform:none;direction:ltr;block-progression:tb;writing-mode:lr-tb;text-anchor:start;baseline-shift:baseline;color:#000000;fill:#000000;fill-opacity:1;stroke:none;stroke-width:30;marker:none;visibility:visible;display:inline;overflow:visible;enable-background:accumulate;font-family:Sans;-inkscape-font-specification:Sans"
       d="m 154.61219,772.36259 a 13.551807,13.551807 0 0 0 -4.4039,0.76222 c -6.04427,2.15323 -10.64354,5.09252 -13.6916,6.9446 -0.55637,0.33807 -0.69694,0.30438 -1.15744,0.50814 -0.45694,-0.27022 -0.60292,-0.3271 -1.38327,-0.87513 a 13.551807,13.551807 0 0 0 -6.0977,-2.3431 c -2.46536,-1.73821 -5.07078,-2.94346 -7.42452,-3.69814 a 13.551807,13.551807 0 0 0 -14.67966,4.40389 c -0.4972,0.0408 -1.04218,-0.005 -1.4962,0.0847 -4.25101,0.84254 -7.397237,2.50339 -4.12159,1.41151 -3.289066,1.09638 -3.132413,1.40895 -4.008678,1.91965 -0.876264,0.5107 -1.726499,1.00811 -2.512479,1.49619 a 13.551807,13.551807 0 0 0 -2.56894,2.08903 c -1.137021,-0.0351 -1.998522,0.004 -2.992392,0 -0.222058,-0.26864 -0.355297,-0.48949 -0.592832,-0.76221 -2.358989,-2.70848 -6.819576,-5.59549 -11.574344,-5.90009 -0.439224,-0.0283 -1.255859,-0.10297 -2.59717,0.0282 -6.269187,0.61327 -9.156032,3.57913 -11.094432,5.39195 -1.9384,1.81281 -3.110054,3.30169 -3.895755,4.17805 -2.927544,3.26533 -4.257271,7.73208 -4.375667,11.37674 -0.683332,0.1267 -1.439766,0.18566 -2.089028,0.33876 a 13.551807,13.551807 0 0 0 -7.198677,21.93479 c -0.435483,0.21931 -0.894254,0.43027 -1.326815,0.64929 -13.21956,6.69344 -15.379574,19.36084 -16.486383,24.64489 a 13.551807,13.551807 0 0 0 0.395221,6.91637 c -2.856798,1.86026 -5.455822,3.96721 -7.339827,6.69054 a 13.551807,13.551807 0 0 0 8.723103,21.05966 c -0.885676,3.95446 -0.997072,8.1515 0,12.11072 a 13.551807,13.551807 0 0 0 1.213894,3.10531 c -1.219222,1.71687 -1.935571,2.506 -3.302922,4.51681 -3.03487,4.46304 -5.291859,8.84567 -6.972837,12.87293 a 13.551807,13.551807 0 0 0 18.20842,17.5309 13.551807,13.551807 0 0 0 6.380004,1.41151 c 1.120428,6.92652 3.158915,11.61383 4.262746,14.31266 -0.113471,0.14551 -0.111238,-0.004 -0.677522,1.24213 -2.287854,5.03308 -1.822372,6.16519 -2.258409,8.75133 a 13.551807,13.551807 0 0 0 15.103108,15.69594 c -0.115488,0.6498 -0.27422,1.23809 -0.366992,1.91965 a 13.551807,13.551807 0 0 0 -0.08469,2.79478 c -2.114815,1.56086 -4.256606,3.82328 -5.504871,7.53743 -1.938981,5.7694 0.394956,11.2 1.863187,13.4658 2.936462,4.53151 4.08062,5.53911 2.73832,3.19001 1.046941,1.8322 2.847209,4.1431 5.787172,5.7872 1.543436,0.863 3.292686,1.3518 4.99673,1.6091 0.04623,0.5999 0.01119,1.2895 0.11292,1.8067 0.908865,4.62 2.740961,7.7837 4.742658,10.7274 2.44629,3.5975 6.535885,7.6562 12.562398,8.5538 6.026513,0.8975 10.507361,-2.0239 10.868591,-2.2302 2.95475,-1.6885 6.1407,-3.8531 8.58195,-5.2226 1.61895,-0.9082 2.93514,-2.0235 4.03691,-3.2182 0.26764,0.6593 0.58969,1.4552 0.93159,2.5407 0.82826,2.6296 1.84257,6.1529 3.92399,10.1346 1.66343,3.1822 3.67896,5.6983 5.58956,7.5657 a 13.551807,13.551807 0 0 0 8.89248,3.8393 13.551807,13.551807 0 0 0 26.08462,-5.025 c 0.007,-1.0957 0.10697,-2.1333 0.14115,-3.2182 a 13.551807,13.551807 0 0 0 10.19107,-7.2552 c 2.30197,-4.5142 4.65362,-8.9948 5.73072,-10.9532 0.76496,-1.3909 1.48913,-3.0935 2.23017,-4.6862 a 13.551807,13.551807 0 0 0 9.00541,-3.5853 c 4.91832,-4.5465 11.85596,-10.98661 16.8816,-18.32131 1.13271,-1.6531 1.46761,-2.3659 2.48425,-3.924 0.50142,0.4445 1.06747,1.0554 1.55266,1.468 a 13.551807,13.551807 0 0 0 22.24532,-11.54616 13.551807,13.551807 0 0 0 9.20302,-11.51788 c 3.23666,-0.77894 6.55488,-1.59839 11.26381,-4.82735 6.26761,-4.29773 6.60383,-7.76003 7.79151,-10.84036 1.18768,-3.08033 1.95728,-6.05011 2.59717,-8.75133 a 13.551807,13.551807 0 0 0 -1.91965,-10.64275 13.551807,13.551807 0 0 0 4.4039,-14.93373 c -0.96009,-2.83465 -2.56324,-7.40965 -5.10965,-12.11072 -0.89,-1.64308 -2.00538,-3.56239 -3.41584,-5.67425 0.10431,-0.1712 0.30889,-0.33704 0.39522,-0.50814 1.98428,-3.93276 1.67842,-6.31737 1.55266,-8.07381 -0.25979,-3.62804 -0.97679,-6.09765 -1.94788,-8.24319 a 13.551807,13.551807 0 0 0 5.2508,-24.30613 c -2.21361,-1.57582 -4.36138,-3.06509 -6.35178,-4.34743 -0.31742,-0.20451 -0.58886,-0.37346 -0.87513,-0.56461 0.67435,-1.17345 1.22571,-2.47038 1.58089,-3.89575 1.41246,-5.66846 -0.55449,-10.36922 -2.23018,-13.127 -3.35139,-5.51557 -6.92866,-7.89981 -10.95328,-11.00974 -0.82484,-0.63738 -1.65471,-1.04115 -2.48425,-1.60912 0.66467,-1.17072 1.2447,-2.33883 1.89141,-3.4723 a 13.551807,13.551807 0 0 0 -11.80018,-20.26922 c -2.32849,0.006 -4.29306,0.14703 -6.35178,0.25407 a 13.551807,13.551807 0 0 0 -6.06947,-5.27903 13.551807,13.551807 0 0 0 -1.72204,-1.83496 c -4.86401,-4.18278 -12.33537,-6.23824 -22.01948,-6.06947 -4.86906,-4.9898 -11.26254,-7.64783 -17.92612,-7.62213 -3.4704,-2.94344 -6.81838,-3.54647 -10.02169,-3.44407 a 13.551807,13.551807 0 0 0 -6.91637,-1.83496 z m 0.14115,13.55045 c -1.04185,1.46062 -1.91311,2.9971 -2.45602,4.57328 -1.02148,2.96562 -0.76336,6.87909 0.11292,8.41257 4.38139,-11.50117 7.22123,-11.06958 8.86425,-11.17912 1.64303,-0.10953 3.39668,0.99254 1.86319,2.96416 -1.53349,1.97163 -3.81106,6.04125 -3.81106,6.04125 0,0 8.65528,-5.48003 11.94133,-5.58957 3.28605,-0.10954 6.79325,1.33015 9.20302,4.17806 0.11674,0.14326 0.22552,0.24274 0.33876,0.36699 -3.53027,0.084 -8.8069,0.55845 -12.19541,2.45602 -5.47675,3.06698 -9.08905,10.08721 -4.48859,8.55372 4.60046,-1.53348 8.0126,-6.1417 19.73285,-7.56567 11.65701,-1.41626 16.27306,0.31016 18.80125,2.48425 -7.15999,0.88143 -14.76423,2.11117 -19.36585,3.75461 -10.73443,3.83372 -12.90116,12.05425 -12.90116,12.05425 0,0 8.30402,-3.7297 15.7524,-6.57761 5.26756,-2.01407 13.32586,-4.17605 21.62426,-5.27903 -0.18564,2.13062 -0.63161,3.19182 -1.58089,4.29098 -2.08116,2.40976 -1.63734,3.95221 -1.63734,3.95221 0,0 7.62903,-1.99336 21.11612,-2.03257 -1.86978,3.2771 -3.87086,5.90252 -5.78717,6.747 -6.46258,2.8479 -14.02256,9.08332 -9.20302,8.86425 4.81954,-0.21907 11.85424,1.30187 19.08355,6.88815 7.22931,5.58628 11.0584,9.87033 6.23886,12.2801 -4.81954,2.40976 -7.99923,6.82043 -11.0662,4.62973 -3.06698,-2.19069 -12.15245,-6.38678 -15.32895,-6.60584 -3.17652,-0.21907 -8.23309,1.87559 -5.16611,3.19 3.06697,1.31443 30.34502,11.93566 34.83595,13.57868 1.64105,0.60039 5.51448,3.17476 9.73939,6.1824 -5.62695,0.30185 -11.40019,0.54992 -15.21603,0.59283 -9.74861,0.10986 -16.76868,0.11292 -16.76868,0.11292 0,0 1.01847,3.08271 4.74265,4.17805 3.72419,1.09536 11.15647,3.63366 14.99019,9.76762 3.83372,6.13395 4.92569,12.37844 -0.11292,7.33983 -5.0386,-5.0386 -14.02015,-12.0678 -16.42992,-12.50594 -2.40977,-0.43814 -9.53157,-0.97332 -11.94134,-4.14982 -2.40977,-3.17652 -16.86124,-9.41417 -18.9424,-9.85231 -2.08117,-0.43814 -9.876,-1.76829 -10.64275,-4.17806 -0.76674,-2.40977 1.42041,-4.93689 8.10204,-4.82735 6.68163,0.10953 11.6308,1.10098 11.6308,1.10098 0,0 -0.56335,-3.93638 -6.91637,-5.2508 -3.64301,-0.7537 -9.27261,-0.83733 -13.46576,-0.79045 -1.02638,-1.76879 -2.37783,-4.0431 -3.75461,-6.15416 -2.32358,-3.56284 -5.42018,-6.18455 -5.42018,-7.11399 -1.54906,1.85887 -7.87755,5.57509 -14.5385,5.42018 -2.73327,-0.0636 -6.39502,0.014 -9.82408,0.11293 -0.0789,6.66586 1.2571,17.19891 3.52876,20.18452 2.71086,3.56283 -3.17761,3.16177 -9.99346,3.16177 -6.81585,0 -6.50452,-1.7763 -5.42018,-3.86752 0.91091,-1.75674 2.99587,-9.35945 3.58523,-19.507 -4.157,-0.23358 -10.0559,-0.71482 -14.11506,-1.63735 -6.81586,-1.54906 -9.45708,-2.95329 -9.45708,-4.34744 -1.70397,3.56283 -3.54973,2.18523 -6.49293,7.14222 -2.03965,3.43518 -3.78057,11.82071 -4.65797,16.71222 -1.34858,-0.0173 -2.878196,0.12287 -4.601505,0.42346 -9.42,1.64301 -18.189147,6.5561 -22.132404,9.51354 -3.943257,2.95745 -6.764967,6.04573 -11.913106,8.01735 -5.148144,1.97163 -12.406509,3.83018 -15.583019,8.10204 -0.765855,1.02995 -2.831409,2.92929 -5.504871,5.19434 -0.989545,-3.92932 -0.167534,-7.46615 2.004337,-10.47337 2.847912,-3.94325 8.217202,-5.45965 9.203015,-7.65036 0.985815,-2.1907 1.424004,-3.72297 -2.73832,-3.61345 -1.669866,0.0439 -10.10996,-0.15762 -19.196473,-0.39522 1.083367,-1.56601 2.913576,-3.14848 5.843632,-4.54505 11.72024,-5.58628 20.817931,-11.05829 24.870725,-11.71549 4.052794,-0.65722 8.638413,-2.40742 8.638413,-4.48859 0,-2.08116 -4.490772,-2.61977 -8.214961,-1.52443 -3.724189,1.09536 -10.516236,7.23145 -12.816469,6.4647 -1.856063,-0.61868 -1.378631,-3.36499 -9.231246,-2.73832 0.894352,-4.26975 3.069131,-12.15172 9.344166,-15.32895 8.65326,-4.3814 11.273758,-6.69845 22.555856,-6.04124 -1.533486,-7.99605 -8.538978,-6.5595 -11.715495,-9.62647 -0.918882,-0.8872 -2.956106,-3.15454 -5.33549,-5.84363 2.605329,-0.61434 5.450253,-0.90272 8.497263,-0.62107 13.034658,1.20489 10.52983,0.6493 10.52983,0.6493 0,0 1.320096,-1.85976 -1.637347,-4.48859 -0.396589,-0.35253 -0.804013,-0.76794 -1.213894,-1.21389 1.986914,-0.61083 4.788792,-1.10786 7.98912,-0.53638 6.133954,1.09536 28.171363,10.64275 29.923913,10.64275 1.75256,0 6.23886,5.9001 6.23886,5.9001 0,0 -3.83811,-8.12007 -7.45275,-10.52983 -3.61466,-2.40977 -19.492264,-11.71096 -22.66878,-12.47771 -1.658341,-0.40029 -2.708735,-0.76098 -3.387613,-1.04452 1.532427,-0.4387 4.293691,-0.72831 9.259476,-0.5646 14.096427,0.46472 25.322407,7.90443 25.322407,7.90443 0,0 0.3895,-3.50264 -5.10965,-7.45275 -3.40829,-2.4482 -7.69558,-3.82914 -10.47337,-4.54504 1.50106,-0.93214 3.10622,-1.92936 3.66991,-2.11726 1.1618,-0.38726 3.23991,-2.23166 6.49293,0.16938 3.25302,2.40104 5.97899,4.24611 6.52116,3.16177 0.43029,-0.86058 0.9274,-3.67574 -1.15744,-9.17478 2.75556,0.8835 4.93912,2.23689 6.32355,4.46035 3.61465,5.80536 4.68619,4.94027 4.68619,4.94027 0,0 -0.18648,-2.09879 -1.1292,-5.13788 2.66687,1.87291 5.74827,4.23452 9.57001,4.23452 4.20166,0 10.28698,-6.04301 18.99886,-9.14656 z m -80.14528,6.01302 c 0.140339,-0.0137 0.283219,-0.009 0.423452,0 0.747916,0.0479 1.490819,0.44968 2.230178,1.29858 1.925368,2.21061 2.964994,4.0462 3.472303,5.10965 -0.01852,0.14552 -0.0384,0.2226 -0.05646,0.36699 -0.278409,-0.004 -5.137429,-0.0784 -7.90443,1.41151 -1.184682,0.6379 -2.848606,1.93798 -4.403897,3.21823 -1.114848,-2.23502 -1.47868,-4.61453 0.02823,-6.29531 2.002431,-2.23349 4.105505,-4.90372 6.210624,-5.10965 z m 115.29176,24.44727 c -4.04081,-0.0103 -8.01137,2.2959 -10.55806,5.33549 0,0 -2.60617,4.12722 -3.81106,5.22257 -1.20489,1.09536 0.75992,2.87379 2.51248,4.51682 1.17663,1.10309 2.07509,0.0536 3.38761,-1.69381 -0.0573,0.0459 -0.11164,0.0936 -0.16938,0.14115 -0.0857,-0.0978 -0.26115,-0.36279 -0.33876,-0.45168 -0.10774,-0.12341 -0.0512,-0.0641 -0.14115,-0.16938 a 13.551807,13.551807 0 0 0 -0.2823,-0.45168 13.551807,13.551807 0 0 0 -0.0565,-0.0847 c 0.0286,0.0102 0.0505,0.0148 0.0847,0.0282 0.24627,0.0967 0.54282,0.35122 0.90336,0.98805 0.64244,-0.8553 1.37899,-1.86383 2.31487,-2.9077 2.84791,-3.17651 5.24737,0.87623 7.8762,2.73832 2.62884,1.86209 2.4244,3.82003 2.31487,7.76328 -0.10954,3.94325 -1.87443,3.19 -4.06514,3.19 -2.19069,0 2.41757,2.85686 4.82735,3.95222 2.40977,1.09534 6.59001,-3.96112 7.90443,-10.64275 1.31442,-6.68163 -3.40897,-14.35553 -8.66664,-16.65577 -1.31442,-0.57505 -2.68997,-0.81506 -4.03691,-0.81867 z m -100.273343,0.76221 c -2.953667,0.19444 -5.53251,1.42601 -7.311597,4.1216 -3.72419,5.14814 -7.109558,8.42257 -2.39956,16.96629 4.710004,8.54373 10.937448,9.09801 12.251867,8.44081 1.314419,-0.65722 -2.6254,-7.43457 -2.6254,-13.23992 0,-5.80535 -0.655024,-7.35452 3.726374,-6.91638 4.381399,0.43814 11.403829,3.837 12.280099,5.58956 0.87628,1.75256 2.41425,1.64193 1.97611,-1.86319 -0.43814,-3.50511 -1.33573,-8.07714 -8.017355,-10.92505 -2.923214,-1.24595 -5.896624,-2.09657 -8.610183,-2.17372 -0.436107,-0.0124 -0.848403,-0.0278 -1.270355,0 z m 73.737043,30.96843 c 0.23961,-0.0107 0.48838,0.0222 0.76221,0.0565 2.19071,0.27383 4.06342,3.87146 4.00868,4.91204 -0.0548,1.04058 0.61997,3.44969 -1.24213,4.54505 -1.86209,1.09534 -3.74947,2.90775 -6.32354,0.16938 -2.57407,-2.73838 -4.27295,-4.00693 -1.86319,-6.69054 2.01271,-1.77309 2.98072,-2.9175 4.65797,-2.99239 z m -45.33755,0.70575 c 0.82152,-0.0548 2.02126,0.38561 2.56894,0.98806 1.15011,1.64302 2.59493,3.06632 1.60911,4.54505 -0.98581,1.47872 -3.95953,3.98722 -5.10965,4.20628 -1.15011,0.21907 -4.39259,-0.75938 -4.94027,-1.58088 -0.54767,-0.82151 -1.48157,-2.90257 0.81868,-5.47665 2.30022,-2.57407 4.23168,-2.62711 5.05319,-2.68186 z m 12.81647,5.50487 c 0,0 -1.53962,5.63659 -2.00434,7.65036 -0.46472,2.01378 -4.09701,6.58558 -2.6254,6.97284 1.47161,0.38726 4.24133,3.11514 7.53744,7.00107 2.009,2.3685 3.49702,5.71184 5.50487,7.93266 -2.74892,0.0762 -5.76628,0.62314 -8.94895,1.89141 -3.24956,1.29495 -6.44592,3.19122 -9.2877,5.22257 0.0347,-2.46029 -1.07387,-5.48261 -1.41151,-7.25513 -0.61961,-3.25302 -6.33006,-10.45958 -6.0977,-13.63514 0.23235,-3.17557 4.32641,-6.02385 7.42452,-7.65036 3.09812,-1.62651 9.90877,-8.13028 9.90877,-8.13028 z m 23.54391,3.86753 c 5.73151,5.11189 9.8407,7.34199 10.92505,8.27142 1.08431,0.92944 3.18496,1.85587 1.01628,7.81974 -2.16868,5.96387 -3.55987,11.24857 -4.79912,13.80452 -0.48955,1.00969 -1.11877,2.44608 -1.72203,3.8393 -2.8632,-2.00054 -5.68861,-3.88054 -7.11399,-4.6862 -2.05898,-1.16377 -5.77275,-2.85513 -10.52983,-3.27469 1.5278,-2.09367 3.84004,-7.14067 5.13788,-9.11833 2.34612,-3.62081 5.99936,-7.01405 8.92071,-9.03363 -2.0115,-2.41756 -1.83495,-7.62213 -1.83495,-7.62213 z m -51.29411,7.17045 c 0.1666,2.8086 -0.16146,6.47261 -2.48425,9.03363 -4.271862,4.71 -13.356177,12.36135 -16.204083,14.99019 -2.847912,2.62883 -10.865153,7.56561 -13.493991,10.30399 -2.628838,2.73837 -7.886302,2.95395 -10.953282,5.36372 -2.630926,2.06716 -9.933874,10.74579 -16.175852,14.62319 3.177539,-8.06595 4.573278,-14.51027 4.573278,-14.51027 0,0 -7.797004,5.24214 -16.288772,14.31266 1.367514,-3.27627 3.20286,-6.83897 5.674251,-10.47337 9.310464,-13.69186 14.575749,-19.49116 15.780631,-20.80559 1.204882,-1.31442 2.713425,-6.78424 5.561331,-7.98912 2.847912,-1.20488 21.79348,-9.45026 30.008604,-11.96956 5.948109,-1.82409 10.519269,-2.02592 14.002135,-2.87947 z m 81.98023,4.65796 c 0.28125,-0.01 0.58761,-0.004 0.87514,0 9.20093,0.10955 22.75774,4.14624 35.68285,14.99019 12.92513,10.84396 18.63521,19.50013 21.48312,24.75781 1.83797,3.39318 3.33211,7.49584 4.17805,9.99345 -0.73936,-0.0472 -2.33637,-0.87105 -5.73071,-4.51681 -5.91488,-6.35302 -11.60258,-11.94134 -11.60258,-11.94134 0,0 2.96417,6.25911 2.96417,9.6547 0,0.96147 -0.0343,2.71901 -0.0847,4.6862 -4.15013,-4.47468 -9.78229,-10.51627 -13.494,-14.22798 -5.58629,-5.58629 -27.39549,-23.20624 -34.18666,-25.06833 -6.08082,-1.66732 -10.74307,-3.62722 -8.66664,-5.9001 2.30744,-1.25551 5.20342,-2.30703 8.58195,-2.42779 z m -79.72182,14.25621 c -3.67382,7.56524 -8.090419,16.2429 -9.993461,18.26488 -3.505121,3.72419 -12.825481,21.47059 -14.030363,25.63294 -1.204882,4.16231 -8.987228,24.43478 -14.792577,28.5971 -1.772878,1.27115 -4.623376,2.22316 -7.706819,2.96416 0.393064,-2.33127 0.829157,-4.48346 1.242125,-5.39195 1.09535,-2.40978 3.167449,-5.91921 1.524425,-10.19107 -1.64303,-4.27187 -4.682808,-10.39415 -4.573277,-19.70462 0.109536,-9.31047 -1.003942,-8.64175 3.048852,-11.48965 4.052793,-2.84792 31.447141,-24.09269 35.061793,-25.4071 1.798469,-0.654 6.222912,-2.04688 10.219302,-3.27469 z m 71.53509,0.0565 c 0.92781,-0.042 1.96973,0.0923 3.13354,0.45168 7.44838,2.30023 22.14136,8.88337 26.08462,13.15523 3.94326,4.27186 11.48736,12.49114 13.23992,18.40603 1.75256,5.91488 0.33757,19.27885 3.95222,23.76975 3.61465,4.49097 4.47608,6.55737 8.63841,3.16177 2.43902,-1.98966 6.91477,-4.35996 12.53417,-5.39195 -1.11396,4.70251 -2.78898,10.12904 -4.85558,11.54612 -3.83372,2.62881 -16.23231,5.13788 -16.23231,5.13788 l -0.87513,9.54177 c 0,0 -2.16913,-4.63197 -5.67426,-5.61779 -3.50511,-0.98582 -8.22397,1.67141 -9.42885,-8.18673 -1.20489,-9.85814 -5.47872,-21.26834 -14.67966,-31.67418 -9.20093,-10.40582 -13.13147,-15.09957 -15.1031,-23.20515 -1.43517,-5.90013 -2.15809,-9.5238 -1.52443,-10.98151 0.26115,-0.0421 0.50874,-0.10018 0.79044,-0.11292 z m -22.72523,9.76762 c 1.20488,0 1.43973,2.85681 1.43973,6.69053 0,2.62884 0.52845,3.83476 1.18567,4.60151 0.6572,0.76674 3.28145,3.93748 3.50053,7.11399 0.21906,3.17651 -7.98453,11.94689 -11.48965,15.78063 -3.50512,3.83374 -7.44478,2.96416 -10.84037,2.96416 -3.39558,0 -17.85044,-13.02757 -19.05532,-16.20408 -1.20489,-3.17652 1.20708,-6.03895 3.72638,-7.79151 2.5193,-1.75256 1.76042,-9.33057 2.08902,-11.63081 0.32861,-2.30022 2.60279,-1.29749 3.69815,0.5646 1.09534,1.8621 3.19562,3.2747 4.29097,3.2747 1.09536,0 13.35733,0.10954 15.32895,0 1.97164,-0.10953 4.92106,-5.36372 6.12594,-5.36372 z m -49.14862,6.97283 c -0.2529,0.87058 -0.49225,1.81278 -0.67753,2.79478 -1.09535,5.80536 -6.018632,13.79433 -7.113984,16.20409 -1.09535,2.40977 -5.606491,14.99124 -6.154163,19.59169 -0.547679,4.60045 -2.077673,15.88776 -5.363721,23.00754 -3.014782,6.532 -4.574413,11.31225 -12.082486,14.2562 1.445315,-10.61805 6.854499,-15.89166 6.154164,-23.99559 -0.766746,-8.87232 2.425495,-11.39361 4.178056,-14.67965 1.752561,-3.28605 1.314365,-6.0423 2.73832,-10.64276 1.423956,-4.60048 7.902136,-14.2313 9.654697,-17.07921 1.314413,-2.13593 5.534627,-6.42776 8.666647,-9.45709 z m 67.66757,3.64169 c 0.88321,0.0437 1.54375,0.20321 1.75026,0.5646 0.87627,1.53349 5.57936,10.85161 7.98912,13.04231 2.40978,2.19069 11.27845,10.27673 13.57869,20.35391 2.30023,10.07724 6.69048,22.99504 9.42885,27.15736 1.07387,1.63228 4.39495,6.83914 7.90443,12.33656 -3.77515,-3.20983 -8.26062,-7.65965 -13.15523,-13.74806 -13.4728,-16.75882 -7.54858,-13.01718 -15.21603,-26.81861 -5.87339,-10.57207 -10.45466,-26.14336 -12.28009,-32.88807 z m 79.97589,2.20195 c 1.53631,0.46871 1.14133,0.70745 0,0 z M 112.4364,916.9572 c 0.6527,1.99092 1.39868,4.34953 2.37134,7.45275 2.95314,9.42188 8.46988,18.96301 15.95001,19.25294 l -4.00868,39.12693 c 0,0 -5.75022,-15.6242 -8.07381,-21.20082 -2.32359,-5.5766 -6.80418,-17.97089 -7.11399,-25.09656 -0.17119,-3.9374 0.35919,-12.48291 0.87513,-19.53524 z m -8.7231,2.82301 c -0.87857,4.40891 -1.66539,10.79348 -0.50814,16.4017 2.01378,9.75906 5.89065,21.53446 7.90443,25.40709 2.01378,3.87265 9.29274,18.89306 11.46143,28.03249 1.96536,8.2826 7.87248,33.21791 8.27142,40.82071 -1.01697,-0.9939 -2.13817,-2.3254 -3.07709,-4.1215 -2.5193,-4.8196 -3.5897,-11.5246 -5.56133,-14.4821 -1.97162,-2.9574 -9.44463,-17.73181 -10.86859,-20.57971 -1.42394,-2.8479 -5.16601,-9.36751 -10.47337,-12.95766 0.54217,11.23066 8.69847,18.91266 10.24753,21.31376 1.54906,2.40101 1.83496,5.56131 1.83496,5.56131 0,0 -3.78644,-0.8585 -5.33549,-2.7948 -1.54906,-1.9363 -4.32065,-0.7731 -4.94027,0.6211 -0.61962,1.3941 0.74778,6.5182 -2.42779,8.2996 -3.17557,1.7815 -7.582305,4.6594 -8.666645,5.2791 -1.084341,0.6196 -2.871473,1.6989 -5.504871,-2.1738 -2.633399,-3.8726 -3.946458,-8.0571 -1.467966,-9.9934 2.478493,-1.9364 4.73906,-6.75571 3.190002,-10.47341 -1.549057,-3.7177 -5.111047,-4.3359 -8.751333,-2.3995 -3.640285,1.9363 -6.524753,6.5218 -8.073811,3.811 -1.549058,-2.7109 -6.249053,-5.0444 -1.524426,-7.368 4.724626,-2.3236 14.075906,-5.73503 18.490721,-10.61456 4.414815,-4.87953 8.507419,-19.06545 8.836024,-22.1324 0.328604,-3.06701 0.0124,-19.52725 1.326815,-22.92285 1.314418,-3.39553 1.21608,-7.00549 4.94027,-11.71549 0.20836,-0.26352 0.44208,-0.53979 0.67752,-0.81868 z m 66.62306,0.25408 c 0.38811,6.46785 0.94032,18.13657 -0.0565,23.12045 -1.39415,6.97076 -11.15521,28.63757 -13.01408,33.90436 -1.85887,5.2668 -8.68616,23.7154 -11.00974,30.6861 -1.85067,5.552 -3.38694,17.5946 -3.47231,31.1096 -2.4898,-6.8588 -5.55523,-16.2957 -7.36806,-25.6894 -3.40793,-17.65921 -6.34385,-18.75331 -2.93593,-28.5124 2.91587,-8.34998 7.49922,-33.61539 8.86426,-43.07914 1.48444,7.38851 3.53276,17.57001 5.13788,24.87072 2.40104,10.92086 5.34488,8.30545 6.35177,7.76328 1.00689,-0.54217 0.46979,-7.29991 -0.8469,-14.42558 -0.65836,-3.56283 -0.7913,-9.67743 -0.76222,-14.9055 1.7337,-0.57928 3.9305,-1.61178 6.35178,-3.44407 4.54919,-3.44263 10.47281,-16.21919 12.76001,-21.39842 z m 8.83602,18.74479 c 2.71549,5.78095 5.59738,11.45536 8.07381,15.13134 2.47596,3.67523 6.90784,9.02416 11.60258,14.39735 -1.58984,2.68018 -5.23816,8.72217 -9.51355,14.96196 -3.5417,5.16896 -10.27548,11.75476 -14.9055,16.03466 2.20732,-6.712 4.94435,-15.29862 5.75895,-19.28113 1.39415,-6.81585 -5.11397,-2.03841 -6.97284,1.52443 -1.85887,3.5628 -9.29562,23.24781 -12.70355,29.44401 -1.28017,2.3276 -3.57228,6.7554 -5.90009,11.3203 -0.0518,-6.4654 0.14926,-13.0125 0.93159,-18.1238 2.3236,-15.18081 18.28368,-44.47966 20.29745,-51.91513 1.35478,-5.00228 2.54365,-10.02156 3.33115,-13.49399 z"
       id="path4468"
       inkscape:connector-curvature="0" />
  </g>
</svg>
