<?xml version="1.0" encoding="UTF-8" standalone="no"?>
<!-- Created with Inkscape (http://www.inkscape.org/) -->

<svg
   xmlns:dc="http://purl.org/dc/elements/1.1/"
   xmlns:cc="http://creativecommons.org/ns#"
   xmlns:rdf="http://www.w3.org/1999/02/22-rdf-syntax-ns#"
   xmlns:svg="http://www.w3.org/2000/svg"
   xmlns="http://www.w3.org/2000/svg"
   xmlns:sodipodi="http://sodipodi.sourceforge.net/DTD/sodipodi-0.dtd"
   xmlns:inkscape="http://www.inkscape.org/namespaces/inkscape"
   width="280"
   height="280"
   id="svg2"
   version="1.1"
   inkscape:version="0.48.4 r9939"
   sodipodi:docname="ui-shield.svg">
  <defs
     id="defs4" />
  <sodipodi:namedview
     id="base"
     pagecolor="#ffffff"
     bordercolor="#666666"
     borderopacity="1.0"
     inkscape:pageopacity="0.0"
     inkscape:pageshadow="2"
     inkscape:zoom="0.35355339"
     inkscape:cx="-610.44224"
     inkscape:cy="574.38311"
     inkscape:document-units="px"
     inkscape:current-layer="layer1"
     showgrid="false"
     borderlayer="true"
     inkscape:showpageshadow="false"
     inkscape:window-width="1920"
     inkscape:window-height="1000"
     inkscape:window-x="0"
     inkscape:window-y="28"
     inkscape:window-maximized="1" />
  <metadata
     id="metadata7">
    <rdf:RDF>
      <cc:Work
         rdf:about="">
        <dc:format>image/svg+xml</dc:format>
        <dc:type
           rdf:resource="http://purl.org/dc/dcmitype/StillImage" />
        <dc:title></dc:title>
      </cc:Work>
    </rdf:RDF>
  </metadata>
  <g
     inkscape:label="Calque 1"
     inkscape:groupmode="layer"
     id="layer1"
     transform="translate(0,-772.36218)">
    <path
       style="fill:#000000;fill-opacity:1;stroke:none"
       d="m 116.32514,799.36353 c -1.29253,0.0394 -2.96713,0.94761 -5.15752,3.60405 -5.84104,7.08381 -5.83478,6.5867 -11.433533,6.5867 l -25.84972,0 c -3.72833,0 -14.03793,4.4794 -14.16764,14.16764 -0.12964,9.68822 2.48555,13.17342 -5.219652,14.29191 -7.705206,1.1185 -29.329493,8.69943 -24.855502,14.9133 4.47399,6.21388 16.653186,15.90753 16.653186,17.77169 0,1.86416 -17.026019,18.76588 -14.664746,43.00002 12.054918,2.23699 20.754344,-0.62137 26.346834,-8.45087 -3.479772,19.01448 -0.869945,64.00291 14.78902,74.06939 9.98287,-6.38673 15.41041,-10.62572 15.41041,-10.62572 0,0 0.88488,6.55018 15.472553,21.31359 7.35652,7.44514 16.84189,15.73917 26.59539,25.35257 1.62559,1.6023 3.21296,3.2309 4.84682,4.909 0.20159,0.2071 0.41982,0.4131 0.62139,0.6214 1.4249,1.4699 2.86886,2.9411 4.28757,4.474 1.41289,-1.5276 2.86656,-3.0074 4.28758,-4.474 0.21686,-0.2255 0.40461,-0.4595 0.62139,-0.6835 1.21702,-1.2483 2.3899,-2.4604 3.60404,-3.6662 0.42318,-0.4244 0.82053,-0.8235 1.24278,-1.2428 0.54899,-0.54 1.06877,-1.0217 1.61561,-1.5535 9.16953,-8.9162 18.0467,-16.72036 24.97978,-23.73697 14.58767,-14.76341 15.41041,-21.31359 15.41041,-21.31359 0,0 5.48968,4.23899 15.47255,10.62572 15.65896,-10.06648 18.26879,-55.05491 14.78902,-74.06939 5.59249,7.8295 14.29192,10.68786 26.34683,8.45087 2.36128,-24.23414 -14.66474,-41.13586 -14.66474,-43.00002 0,-1.86416 12.17919,-11.55781 16.65318,-17.77169 4.47399,-6.21387 -17.15029,-13.7948 -24.8555,-14.9133 -7.7052,-1.11849 -5.09001,-4.60369 -5.21965,-14.29191 -0.12965,-9.68824 -10.43931,-14.16764 -14.16764,-14.16764 l -25.84972,0 c -5.59875,0 -5.59249,0.49711 -11.43353,-6.5867 -2.19039,-2.65644 -3.86499,-3.56468 -5.15752,-3.60405 -2.15422,-0.0656 -3.26229,2.2836 -4.03902,2.98266 -1.24277,1.1185 -5.71676,5.09538 -11.43353,5.09538 l -16.40463,0 c -5.71677,0 -10.19076,-3.97688 -11.43353,-5.09538 -0.77673,-0.69906 -1.8848,-3.04828 -4.03902,-2.98266 z m -22.991343,28.27313 c 0,0 -11.26777,16.14789 -15.72111,23.86128 -4.40984,7.63808 -9.13439,27.18586 -9.13439,36.35117 0,4.78014 0.68746,6.13514 1.36705,6.77313 0.67959,0.63799 2.54884,1.14596 5.65463,2.36127 3.59603,1.40714 8.73879,4.79169 14.10549,9.07226 5.36669,4.28057 10.718253,9.35899 13.919093,14.22978 4.83727,7.36108 7.86813,16.54247 8.94798,26.59538 3.87135,-1.76478 10.9023,-5.24137 14.16763,-8.94798 4.59827,-5.21965 6.95954,-8.45087 6.95954,-15.53469 l 0,-8.8237 c -0.30733,-0.23657 -0.6261,-0.44583 -0.93208,-0.68353 -0.0227,-0.0179 -0.0396,-0.0441 -0.062,-0.062 -2.40714,-1.87116 -4.7567,-3.77871 -6.8974,-5.59248 -0.0217,-0.0179 -0.0406,-0.0441 -0.062,-0.062 -4.29052,-3.63976 -7.78232,-6.9881 -9.32081,-9.44509 -4.41585,-7.05219 -0.0964,-8.41186 4.9711,-8.63729 1.68916,-0.0752 3.47977,0 5.03324,0 l 0.99422,0 25.35261,0 0.99422,0 c 1.55347,0 3.34722,-0.0732 5.03324,0 5.05809,0.21934 9.32481,1.5851 4.90896,8.63729 -1.5384,2.45683 -4.984,5.8056 -9.25867,9.44509 -0.0231,0.0199 -0.039,0.0423 -0.062,0.062 -2.133,1.81377 -4.49607,3.72132 -6.89741,5.59248 -0.0229,0.0179 -0.0392,0.0442 -0.062,0.062 -0.3037,0.23657 -0.62597,0.4475 -0.93209,0.68353 l 0,8.8237 c 0,7.08382 2.36128,10.31504 6.95954,15.53469 3.26534,3.70661 10.29629,7.1832 14.16764,8.94798 1.07984,-10.05291 4.11068,-19.2343 8.94798,-26.59538 3.20081,-4.87079 8.55238,-9.94921 13.91908,-14.22978 5.36668,-4.28057 10.50947,-7.66512 14.1055,-9.07226 3.10578,-1.21531 4.97504,-1.72328 5.65463,-2.36127 0.67959,-0.63799 1.36705,-1.99299 1.36705,-6.77313 0,-9.16531 -4.72455,-28.71309 -9.1344,-36.35117 -4.45333,-7.71339 -15.65896,-23.86128 -15.65896,-23.86128 17.05113,16.34991 30.6517,39.54616 30.75868,60.21245 0,5.41063 -0.1203,9.52384 -2.48555,11.74423 -2.36521,2.22039 -5.77773,1.96098 -8.38873,2.98266 -2.12073,0.82986 -7.41728,4.1563 -12.48989,8.20232 -5.07261,4.04601 -10.16035,8.9098 -12.67631,12.73844 -5.32703,8.10635 -8.45087,19.27276 -8.45087,31.44221 0,7.29338 -3.91283,12.14163 -8.32659,14.47833 -4.41376,2.3367 -9.161,2.67197 -12.05492,2.67197 l -3.66619,0 -17.89596,0 -3.66618,0 c -2.8939,0 -7.64116,-0.33527 -12.05492,-2.67197 -4.41378,-2.3367 -8.3266,-7.18495 -8.3266,-14.47833 0,-12.16945 -3.12384,-23.33586 -8.450873,-31.44221 -2.51595,-3.82864 -7.66581,-8.69243 -12.73844,-12.73844 -5.07262,-4.04602 -10.30702,-7.37246 -12.42775,-8.20232 -2.61098,-1.02168 -6.08567,-0.76227 -8.45087,-2.98266 -2.36521,-2.22039 -2.48555,-6.3336 -2.48555,-11.74423 0.10705,-20.66629 13.83182,-43.86254 30.88296,-60.21245 z m 3.60405,24.42053 c 1.32822,-0.10877 2.54769,0.1553 3.666183,0.86994 4.47399,2.85839 13.2977,12.80059 13.2977,12.80059 0,0 -4.34972,7.7052 -9.81793,7.7052 -5.468213,0 -6.400293,-1.30491 -11.557803,-2.98266 -5.15752,-1.67774 -13.42198,-5.59248 -8.20232,-10.68786 3.91474,-3.82155 8.62951,-7.37898 12.61417,-7.70521 z m 85.192233,0 c 4.17944,-0.24929 9.30528,3.56522 13.54625,7.70521 5.21965,5.09538 -3.0448,9.01012 -8.20232,10.68786 -5.15751,1.67775 -6.08959,2.98266 -11.5578,2.98266 -5.46822,0 -9.81793,-7.7052 -9.81793,-7.7052 0,0 8.82371,-9.9422 13.2977,-12.80059 0.83888,-0.53594 1.76961,-0.81241 2.7341,-0.86994 z m -42.06794,81.7746 c -1.24597,1.33047 -3.08464,2.87137 -5.84104,4.59827 -7.88249,4.93843 -17.39911,9.39793 -21.50001,11.24712 0.1199,1.73666 0.24856,3.5046 0.24856,5.28179 0,5.38293 2.17676,7.61849 5.15751,9.19654 2.98073,1.57804 6.93292,1.98844 9.25868,1.98844 l 3.66618,0 17.89597,0 3.66618,0 c 2.32576,0 6.27793,-0.4104 9.25868,-1.98844 2.98075,-1.57805 5.15751,-3.81361 5.15751,-9.19654 0,-1.77719 0.12866,-3.54513 0.24856,-5.28179 -4.1009,-1.84919 -13.61752,-6.30869 -21.50001,-11.24712 -2.74075,-1.7171 -4.47093,-3.27299 -5.71677,-4.59827 z"
       id="path4354"
       inkscape:connector-curvature="0" />
  </g>
</svg>
