<?xml version="1.0" encoding="UTF-8" standalone="no"?>
<!-- Created with Inkscape (http://www.inkscape.org/) -->

<svg
   xmlns:dc="http://purl.org/dc/elements/1.1/"
   xmlns:cc="http://creativecommons.org/ns#"
   xmlns:rdf="http://www.w3.org/1999/02/22-rdf-syntax-ns#"
   xmlns:svg="http://www.w3.org/2000/svg"
   xmlns="http://www.w3.org/2000/svg"
   xmlns:sodipodi="http://sodipodi.sourceforge.net/DTD/sodipodi-0.dtd"
   xmlns:inkscape="http://www.inkscape.org/namespaces/inkscape"
   width="280"
   height="280"
   id="svg2"
   version="1.1"
   inkscape:version="0.48.4 r9939"
   sodipodi:docname="ui-chevron-top.svg">
  <defs
     id="defs4" />
  <sodipodi:namedview
     id="base"
     pagecolor="#ffffff"
     bordercolor="#666666"
     borderopacity="1.0"
     inkscape:pageopacity="0.0"
     inkscape:pageshadow="2"
     inkscape:zoom="1.1758929"
     inkscape:cx="5.1015183"
     inkscape:cy="158.83425"
     inkscape:document-units="px"
     inkscape:current-layer="layer1"
     showgrid="false"
     borderlayer="true"
     inkscape:showpageshadow="false"
     inkscape:window-width="1920"
     inkscape:window-height="1000"
     inkscape:window-x="0"
     inkscape:window-y="28"
     inkscape:window-maximized="1" />
  <metadata
     id="metadata7">
    <rdf:RDF>
      <cc:Work
         rdf:about="">
        <dc:format>image/svg+xml</dc:format>
        <dc:type
           rdf:resource="http://purl.org/dc/dcmitype/StillImage" />
        <dc:title></dc:title>
      </cc:Work>
    </rdf:RDF>
  </metadata>
  <g
     inkscape:label="Calque 1"
     inkscape:groupmode="layer"
     id="layer1"
     transform="translate(0,-772.36218)">
    <path
       style="fill:#000000;fill-opacity:1;stroke:none"
       d="m 140,789.00974 c -22.38165,0 -40.51576,12.15627 -40.51576,27.07737 0,0.0686 -7.7e-4,0.13198 0,0.20058 l 0,44.12607 c 0,20.77837 25.62236,59.5702 40.51576,59.5702 14.8934,0 40.51576,-38.36328 40.51576,-58.86819 l 0,-44.82808 c 7.7e-4,-0.0686 0,-0.13181 0,-0.20058 0,-14.9211 -18.13411,-27.07737 -40.51576,-27.07737 z m -88.65329,54.55589 c -14.65134,0 -26.57593,7.33294 -26.57593,16.3467 0,0.0413 -4.9e-4,0.15913 0,0.20056 l 0,26.57595 c 0,12.55207 16.8265,36.00286 26.57593,36.00286 9.74939,0 26.47564,-23.11453 26.47564,-35.50144 l 0,-27.07737 c 5.1e-4,-0.0413 0,-0.15912 0,-0.20056 0,-9.01376 -11.82432,-16.3467 -26.47564,-16.3467 z m 177.30658,0 c -14.65132,0 -26.47564,7.33294 -26.47564,16.3467 0,0.0413 -5.1e-4,0.15913 0,0.20056 l 0,27.07737 c 0,12.38691 16.72625,35.50144 26.47564,35.50144 9.74943,0 26.57593,-23.45079 26.57593,-36.00286 l 0,-26.57595 c 4.9e-4,-0.0413 0,-0.15912 0,-0.20056 0,-9.01376 -11.92459,-16.3467 -26.57593,-16.3467 z m -116.03152,63.18051 c -0.19004,12.94891 -0.65906,24.90108 -1.80515,26.7765 -2.65347,4.34204 -43.69277,18.10048 -58.16619,23.1662 -14.47342,5.06569 -15.92657,15.95672 -15.44413,28.9828 0.16356,4.41619 -2.92561,20.26416 -6.91976,38.91116 33.18726,7.113 70.37841,11.1318 109.71346,11.1318 39.33505,0 76.5262,-4.0188 109.71346,-11.1318 -3.99415,-18.647 -7.08334,-34.49497 -6.91976,-38.91116 0.48244,-13.02608 -0.97071,-23.91711 -15.44413,-28.9828 -14.47342,-5.06572 -55.51272,-18.8242 -58.16619,-23.1662 -1.1372,-1.86089 -1.6119,-13.64329 -1.80515,-26.47563 -3.34457,4.34288 -6.86487,8.23983 -10.5301,11.43265 -5.07982,4.42509 -10.36932,7.92264 -16.84813,7.92264 -6.50957,0 -11.77014,-3.54921 -16.84813,-8.02293 -3.66593,-3.22968 -7.18376,-7.23462 -10.5301,-11.63323 z m -77.32091,11.33237 c -6.51063,6.05922 -14.27406,13.47177 -20.25788,19.4556 -11.25769,11.25767 -8.52436,17.7612 -8.52436,37.20629 0,11.6191 -1.96284,22.78219 -6.51862,40.3152 8.11011,0.9704 16.52543,1.7697 25.17191,2.3066 1.46772,-6.9633 2.85338,-13.5149 3.81089,-18.75359 1.22995,-6.72912 1.82121,-12.30557 1.80516,-12.7364 -0.25249,-6.81733 -0.15536,-13.63806 2.60745,-20.15759 2.76278,-6.51953 8.62182,-12.05846 17.14899,-15.04298 7.31195,-2.55919 21.12524,-7.26681 33.39543,-11.83381 1.23791,-0.46075 2.31666,-0.94833 3.51003,-1.40401 -5.92622,-5.92135 -13.70348,-13.22054 -20.1576,-19.25502 -1.53476,1.64189 -3.08792,3.10588 -4.71346,4.41261 -3.38933,2.72462 -6.88765,4.91403 -11.23209,4.91403 -4.36577,0 -7.94386,-2.15915 -11.33239,-4.91403 -1.62514,-1.32124 -3.17836,-2.85586 -4.71346,-4.5129 z m 209.39828,0 c -1.5351,1.65704 -3.08832,3.19166 -4.71346,4.5129 -3.38853,2.75488 -6.96662,4.91403 -11.33239,4.91403 -4.34444,0 -7.84276,-2.18941 -11.23209,-4.91403 -1.62554,-1.30671 -3.1787,-2.7707 -4.71346,-4.41261 -6.45412,6.03449 -14.23138,13.33365 -20.1576,19.25502 1.19337,0.45568 2.27212,0.94326 3.51003,1.40401 11.8637,4.41572 24.81448,8.8244 32.29226,11.43266 l 1.10317,0.40115 c 8.52717,2.98452 14.38621,8.52345 17.14899,15.04298 2.76276,6.51953 2.86001,13.34026 2.60745,20.15759 -0.0154,0.43083 0.57521,6.00728 1.80516,12.7364 0.95751,5.23869 2.34317,11.79029 3.81089,18.75359 8.64648,-0.5369 17.0618,-1.3362 25.17191,-2.3066 -4.5558,-17.53301 -6.51862,-28.6961 -6.51862,-40.3152 0,-19.44509 2.73331,-25.94862 -8.52436,-37.20629 -5.98382,-5.98383 -13.74725,-13.3964 -20.25788,-19.4556 z"
       id="path5549"
       inkscape:connector-curvature="0" />
  </g>
</svg>
