<?xml version="1.0" encoding="UTF-8" standalone="no"?>
<!-- Created with Inkscape (http://www.inkscape.org/) -->

<svg
   xmlns:dc="http://purl.org/dc/elements/1.1/"
   xmlns:cc="http://creativecommons.org/ns#"
   xmlns:rdf="http://www.w3.org/1999/02/22-rdf-syntax-ns#"
   xmlns:svg="http://www.w3.org/2000/svg"
   xmlns="http://www.w3.org/2000/svg"
   xmlns:sodipodi="http://sodipodi.sourceforge.net/DTD/sodipodi-0.dtd"
   xmlns:inkscape="http://www.inkscape.org/namespaces/inkscape"
   width="280"
   height="280"
   id="svg2"
   version="1.1"
   inkscape:version="0.48.4 r9939"
   sodipodi:docname="ui-finisher.svg">
  <defs
     id="defs4" />
  <sodipodi:namedview
     id="base"
     pagecolor="#ffffff"
     bordercolor="#666666"
     borderopacity="1.0"
     inkscape:pageopacity="0.0"
     inkscape:pageshadow="2"
     inkscape:zoom="1.6629635"
     inkscape:cx="142.37896"
     inkscape:cy="-51.304072"
     inkscape:document-units="px"
     inkscape:current-layer="layer1"
     showgrid="false"
     borderlayer="true"
     inkscape:showpageshadow="false"
     inkscape:window-width="3840"
     inkscape:window-height="1899"
     inkscape:window-x="0"
     inkscape:window-y="41"
     inkscape:window-maximized="1"
     showguides="true"
     inkscape:guide-bbox="true" />
  <metadata
     id="metadata7">
    <rdf:RDF>
      <cc:Work
         rdf:about="">
        <dc:format>image/svg+xml</dc:format>
        <dc:type
           rdf:resource="http://purl.org/dc/dcmitype/StillImage" />
        <dc:title />
      </cc:Work>
    </rdf:RDF>
  </metadata>
  <g
     inkscape:label="Calque 1"
     inkscape:groupmode="layer"
     id="layer1"
     transform="translate(0,-772.36218)">
    <path
       style="fill:#000000;fill-opacity:1;stroke:none"
       d="m 55.424123,777.36218 0,6.78013 25.412947,0 0,263.21989 59.16292,-102.4554 59.16295,102.4554 0,-263.21989 25.41294,0 0,-6.78013 -61.62387,0 -5.625,0 -1.60714,0 -9.39174,0 -12.65625,0 -16.62387,0 -13.56028,0 -48.063608,0 z m 36.41182,6.78013 18.431927,0 4.97209,0 0,14.66518 -23.404017,0 0,-14.66518 z m 34.453127,0 27.42187,0 0,14.66518 -5.92634,0 -21.49553,0 0,-14.66518 z m 38.47097,0 4.97209,0 18.43193,0 0,14.66518 -23.40402,0 0,-14.66518 z m -36.86383,55.64732 12.05356,7.68415 12.00335,-7.68415 -7.53349,25.21205 25.21206,-7.63394 -7.68415,12.05358 7.68415,12.00334 -25.1116,-7.5837 7.5837,25.16183 -12.05357,-7.68416 -12.00334,7.68416 7.53347,-25.16183 -25.21203,7.63394 7.68414,-12.00335 -7.68414,-12.05359 25.16181,7.58372 -7.63392,-25.21205 z"
       id="path3048"
       inkscape:connector-curvature="0" />
  </g>
</svg>
