<?xml version="1.0" encoding="UTF-8" standalone="no"?>
<!-- Created with Inkscape (http://www.inkscape.org/) -->

<svg
   xmlns:dc="http://purl.org/dc/elements/1.1/"
   xmlns:cc="http://creativecommons.org/ns#"
   xmlns:rdf="http://www.w3.org/1999/02/22-rdf-syntax-ns#"
   xmlns:svg="http://www.w3.org/2000/svg"
   xmlns="http://www.w3.org/2000/svg"
   xmlns:sodipodi="http://sodipodi.sourceforge.net/DTD/sodipodi-0.dtd"
   xmlns:inkscape="http://www.inkscape.org/namespaces/inkscape"
   width="280"
   height="280"
   id="svg2"
   version="1.1"
   inkscape:version="0.48.4 r9939"
   sodipodi:docname="ui-friends-blocked.svg">
  <defs
     id="defs4" />
  <sodipodi:namedview
     id="base"
     pagecolor="#ffffff"
     bordercolor="#666666"
     borderopacity="1.0"
     inkscape:pageopacity="0.0"
     inkscape:pageshadow="2"
     inkscape:zoom="0.8314818"
     inkscape:cx="289.4149"
     inkscape:cy="45.218871"
     inkscape:document-units="px"
     inkscape:current-layer="layer1"
     showgrid="false"
     borderlayer="true"
     inkscape:showpageshadow="false"
     inkscape:window-width="1920"
     inkscape:window-height="1000"
     inkscape:window-x="0"
     inkscape:window-y="28"
     inkscape:window-maximized="1" />
  <metadata
     id="metadata7">
    <rdf:RDF>
      <cc:Work
         rdf:about="">
        <dc:format>image/svg+xml</dc:format>
        <dc:type
           rdf:resource="http://purl.org/dc/dcmitype/StillImage" />
        <dc:title />
      </cc:Work>
    </rdf:RDF>
  </metadata>
  <g
     inkscape:label="Calque 1"
     inkscape:groupmode="layer"
     id="layer1"
     transform="translate(0,-772.36218)">
    <path
       style="fill:#000000;fill-opacity:1;stroke:none"
       d="m 89.337332,820.85529 c -20.89826,0 -37.87331,22.02529 -37.87331,49.22907 0,18.90534 8.20979,35.35642 20.21574,43.61358 0.30438,0.9805 0.43676,1.89375 0.43676,2.68295 0,5.97053 -0.32084,5.60744 -22.33714,22.39954 -22.01631,16.7921 -21.27645,25.33856 -21.27645,46.60851 0,21.26996 15.66096,18.34386 15.66096,18.34386 l 42.86486,0 4.55478,0 42.864848,0 c 0,0 15.72335,2.9261 15.72335,-18.34386 0,-21.26995 0.67747,-29.81641 -21.33883,-46.60851 -22.01629,-16.7921 -22.33715,-16.42901 -22.33715,-22.39954 0,-0.7892 0.19318,-1.70245 0.49916,-2.68295 12.00595,-8.25716 20.15334,-24.70824 20.15334,-43.61358 0,-27.20378 -16.91264,-49.22907 -37.810918,-49.22907 z m 107.006148,56.71638 0,35.43993 -69.63199,0 0,16.53448 c 1.97777,1.50777 3.2959,2.51805 5.80267,4.42999 8.6617,6.60641 14.41932,12.42816 18.03194,18.4687 l 45.79738,0 0,35.43994 L 251.5,932.72819 196.34348,877.57167 z"
       id="path5717"
       inkscape:connector-curvature="0" />
  </g>
</svg>
