<?xml version="1.0" encoding="UTF-8" standalone="no"?>
<!-- Created with Inkscape (http://www.inkscape.org/) -->

<svg
   xmlns:dc="http://purl.org/dc/elements/1.1/"
   xmlns:cc="http://creativecommons.org/ns#"
   xmlns:rdf="http://www.w3.org/1999/02/22-rdf-syntax-ns#"
   xmlns:svg="http://www.w3.org/2000/svg"
   xmlns="http://www.w3.org/2000/svg"
   xmlns:sodipodi="http://sodipodi.sourceforge.net/DTD/sodipodi-0.dtd"
   xmlns:inkscape="http://www.inkscape.org/namespaces/inkscape"
   width="280"
   height="280"
   id="svg2"
   version="1.1"
   inkscape:version="0.48.4 r9939"
   sodipodi:docname="ui-friends.svg">
  <defs
     id="defs4" />
  <sodipodi:namedview
     id="base"
     pagecolor="#ffffff"
     bordercolor="#666666"
     borderopacity="1.0"
     inkscape:pageopacity="0.0"
     inkscape:pageshadow="2"
     inkscape:zoom="1.1758929"
     inkscape:cx="187.71428"
     inkscape:cy="54.224505"
     inkscape:document-units="px"
     inkscape:current-layer="layer1"
     showgrid="false"
     borderlayer="true"
     inkscape:showpageshadow="false"
     inkscape:window-width="1920"
     inkscape:window-height="1000"
     inkscape:window-x="0"
     inkscape:window-y="28"
     inkscape:window-maximized="1" />
  <metadata
     id="metadata7">
    <rdf:RDF>
      <cc:Work
         rdf:about="">
        <dc:format>image/svg+xml</dc:format>
        <dc:type
           rdf:resource="http://purl.org/dc/dcmitype/StillImage" />
        <dc:title></dc:title>
      </cc:Work>
    </rdf:RDF>
  </metadata>
  <g
     inkscape:label="Calque 1"
     inkscape:groupmode="layer"
     id="layer1"
     transform="translate(0,-772.36218)">
    <path
       style="fill:#000000;fill-opacity:1;stroke:none"
       d="m 199.93241,808.87185 c -17.94586,0.22633 -35.67832,8.13538 -47.80798,23.21745 -19.41949,24.14627 -17.8859,58.38102 2.18444,80.69937 -4.87053,4.04531 -10.51654,8.74612 -13.29386,10.79737 -4.74503,3.50456 -16.14673,14.2925 -22.21885,23.27986 -6.07213,8.98736 -15.2652,19.37166 -24.902586,28.9594 -9.63739,9.58774 -11.35564,10.97174 -12.42009,12.29527 -1.06443,1.32352 -6.72553,5.53693 6.17884,15.91523 l 5.42988,4.3064 2.05962,1.6852 c 12.904366,10.3782 15.786926,4.0072 16.851366,2.6837 1.06445,-1.3235 2.06417,-3.3224 9.36188,-14.79177 7.29771,-11.46942 15.42945,-22.66135 22.90539,-30.51971 7.47592,-7.85835 15.63186,-21.32631 18.03721,-26.71256 1.40787,-3.15262 4.77017,-9.66627 7.67674,-15.29106 26.10351,14.81671 59.84439,8.91762 79.26388,-15.22865 21.56385,-26.81257 17.32587,-66.0009 -9.4867,-87.56475 -11.73049,-9.43418 -25.86128,-13.90678 -39.81918,-13.73075 z m -94.99183,17.28827 c -15.150376,0 -27.461496,15.9783 -27.461496,35.69995 0,13.70559 5.9631,25.65703 14.66694,31.64314 0.22067,0.7108 0.31206,1.36265 0.31206,1.93479 0,4.32839 -0.26633,4.05363 -16.22725,16.22725 -15.96093,12.17357 -15.41589,18.34528 -15.41589,33.76516 0,15.41987 11.35908,13.29387 11.35908,13.29387 l 31.143836,0 1.12342,0 c 4.27493,-4.92891 8.08281,-9.71792 11.04701,-14.10523 l 0.18724,-0.24965 c 6.5621,-9.61372 17.57694,-19.98484 22.9678,-23.9664 0.59359,-0.43841 1.66767,-1.35268 2.62133,-2.12203 -1.99874,-2.05939 -4.51799,-4.20652 -7.67674,-6.61572 -15.96094,-12.17362 -16.22725,-11.89886 -16.22725,-16.22725 0,-0.57214 0.15262,-1.22399 0.37447,-1.93479 8.70384,-5.98611 14.60453,-17.93755 14.60453,-31.64314 0,-19.72165 -12.24869,-35.69995 -27.39909,-35.69995 z m 95.24148,2.80856 c 9.45565,-0.1197 19.01938,2.91149 26.9622,9.29946 18.15501,14.60107 21.02954,41.19927 6.42849,59.35429 -14.60107,18.15501 -41.19928,21.02956 -59.35429,6.42849 -18.15503,-14.60107 -21.02956,-41.19928 -6.42849,-59.35429 8.21311,-10.2122 20.23484,-15.57406 32.39209,-15.72795 z m -148.791406,8.30086 c -11.80465,0 -21.40749,12.46962 -21.40749,27.83598 0,10.67889 4.6398,19.9888 11.42149,24.65294 0.17196,0.55384 0.24965,1.05212 0.24965,1.4979 0,3.37251 -0.17122,3.1845 -12.60733,12.66974 -12.43616,9.48518 -12.04561,14.26107 -12.04561,26.27566 0,12.0146 8.86258,10.42289 8.86258,10.42289 l 24.21605,0 2.55891,0 4.993,0 c 0.0308,-5.39288 0.27056,-9.94765 1.93479,-14.41729 2.1409,-5.7497 6.52811,-10.84581 14.72935,-17.10102 1.27371,-0.97144 1.84953,-1.42411 2.93339,-2.24685 -1.05958,-0.93032 -2.15278,-1.90959 -3.4951,-2.93339 -12.43617,-9.48524 -12.66974,-9.29723 -12.66974,-12.66974 0,-0.44578 0.13916,-0.94406 0.31206,-1.4979 6.78171,-4.66414 11.35908,-13.97405 11.35908,-24.65294 0,-15.36636 -9.54047,-27.83598 -21.34508,-27.83598 z"
       id="path5717"
       inkscape:connector-curvature="0" />
  </g>
</svg>
