<?xml version="1.0" encoding="UTF-8" standalone="no"?>
<!-- Created with Inkscape (http://www.inkscape.org/) -->

<svg
   xmlns:dc="http://purl.org/dc/elements/1.1/"
   xmlns:cc="http://creativecommons.org/ns#"
   xmlns:rdf="http://www.w3.org/1999/02/22-rdf-syntax-ns#"
   xmlns:svg="http://www.w3.org/2000/svg"
   xmlns="http://www.w3.org/2000/svg"
   xmlns:sodipodi="http://sodipodi.sourceforge.net/DTD/sodipodi-0.dtd"
   xmlns:inkscape="http://www.inkscape.org/namespaces/inkscape"
   width="280"
   height="280"
   id="svg2"
   version="1.1"
   inkscape:version="0.48.4 r9939"
   sodipodi:docname="ic-ui-golds.svg.2016_08_18_11_25_39.0.svg">
  <defs
     id="defs4" />
  <sodipodi:namedview
     id="base"
     pagecolor="#ffffff"
     bordercolor="#666666"
     borderopacity="1.0"
     inkscape:pageopacity="0.0"
     inkscape:pageshadow="2"
     inkscape:zoom="1.6629636"
     inkscape:cx="234.08843"
     inkscape:cy="49.472486"
     inkscape:document-units="px"
     inkscape:current-layer="layer1"
     showgrid="false"
     borderlayer="true"
     inkscape:showpageshadow="false"
     inkscape:window-width="2560"
     inkscape:window-height="1028"
     inkscape:window-x="1920"
     inkscape:window-y="0"
     inkscape:window-maximized="1"
     showguides="true"
     inkscape:guide-bbox="true" />
  <metadata
     id="metadata7">
    <rdf:RDF>
      <cc:Work
         rdf:about="">
        <dc:format>image/svg+xml</dc:format>
        <dc:type
           rdf:resource="http://purl.org/dc/dcmitype/StillImage" />
        <dc:title />
      </cc:Work>
    </rdf:RDF>
  </metadata>
  <g
     inkscape:label="Calque 1"
     inkscape:groupmode="layer"
     id="layer1"
     transform="translate(0,-772.36218)">
    <path
       style="font-size:medium;font-style:normal;font-variant:normal;font-weight:normal;font-stretch:normal;text-indent:0;text-align:start;text-decoration:none;line-height:normal;letter-spacing:normal;word-spacing:normal;text-transform:none;direction:ltr;block-progression:tb;writing-mode:lr-tb;text-anchor:start;baseline-shift:baseline;color:#000000;fill:#000000;fill-opacity:1;stroke:none;stroke-width:1;marker:none;visibility:visible;display:inline;overflow:visible;enable-background:accumulate;font-family:Sans;-inkscape-font-specification:Sans"
       d="M 117.84375 13.21875 C 100.16081 13.21875 84.199141 14.91968 72.5 17.78125 C 66.653332 19.21131 61.907712 20.90591 58.40625 22.9375 C 54.901603 24.97094 52.28125 27.61159 52.28125 30.96875 L 52.28125 40.4375 C 49.966261 41.26496 47.764184 42.11953 46.03125 43.125 C 42.530013 45.15646 39.96875 47.75428 39.96875 51.09375 L 39.96875 56.78125 L 39.96875 65.28125 L 39.96875 71.8125 L 39.96875 80.34375 L 39.96875 86.875 L 39.96875 95.375 L 39.96875 101.90625 L 39.96875 110.40625 L 39.96875 116.9375 L 39.96875 125.46875 L 39.96875 132 L 39.96875 140.5 L 39.96875 147.03125 L 39.96875 155.5625 L 39.96875 162.09375 L 39.96875 170.59375 L 39.96875 177.125 L 39.96875 185.625 L 39.96875 192.15625 L 39.96875 200.6875 L 39.96875 215.71875 C 39.96875 219.05822 42.530013 221.65604 46.03125 223.6875 C 49.538514 225.72246 54.342918 227.41417 60.1875 228.84375 C 70.800246 231.43945 85.019031 233.05625 100.75 233.34375 L 100.75 243.46875 C 100.75 247.13275 102.5691 250.5019 105.53125 253.3125 C 108.48451 256.1147 112.58884 258.49185 117.53125 260.46875 C 127.41564 264.42255 140.83115 266.78125 155.65625 266.78125 C 170.48135 266.78125 183.83608 264.42195 193.71875 260.46875 C 198.66116 258.49185 202.7655 256.1147 205.71875 253.3125 C 208.67383 250.5086 210.5625 247.14845 210.5625 243.46875 L 210.5625 228.40625 L 210.5625 225.40625 L 210.5625 217.6875 C 215.44946 216.95739 219.99344 216.01471 223.875 214.84375 C 228.53334 213.43846 232.33025 211.7723 235.15625 209.75 C 237.9937 207.71952 240.03125 205.11304 240.03125 202.03125 L 240.03125 187 L 240.03125 182.53125 L 240.03125 171.96875 L 240.03125 167.5 L 240.03125 156.90625 L 240.03125 152.4375 L 240.03125 141.875 L 240.03125 137.40625 L 240.03125 126.8125 L 240.03125 122.34375 L 240.03125 111.78125 L 240.03125 107.3125 L 240.03125 96.75 L 240.03125 92.28125 L 240.03125 81.6875 C 240.03125 81.6825 240.03225 81.65565 240.03125 81.59375 C 239.97865 78.55813 237.95552 76.00317 235.15625 74 C 232.33025 71.9777 228.53334 70.31154 223.875 68.90625 C 214.55695 66.09526 201.90029 64.40625 187.90625 64.40625 C 181.96519 64.40625 176.34925 64.74924 171.0625 65.3125 L 171.0625 65.28125 L 171.0625 56.78125 L 171.0625 55.78125 C 173.37892 54.95288 175.5679 54.10599 177.3125 53.09375 C 180.80719 51.06608 183.4375 48.48282 183.4375 45.125 L 183.4375 30.96875 C 183.4375 30.63121 183.3837 30.36051 183.375 30.28125 C 183.03444 27.21401 180.57874 24.83262 177.3125 22.9375 C 173.81103 20.90591 169.06541 19.21131 163.21875 17.78125 C 151.6612 14.95432 135.89572 13.26046 118.46875 13.21875 L 117.84375 13.21875 z M 117.84375 17.71875 C 135.23054 17.71875 150.90959 19.45191 162.09375 22.1875 C 167.68354 23.55474 172.18039 25.20276 175.0625 26.875 C 177.50302 28.29101 178.51473 29.6704 178.75 30.53125 C 178.52513 31.38047 177.52928 32.69374 175.0625 34.125 C 172.18039 35.79724 167.68355 37.44525 162.09375 38.8125 C 150.90959 41.54808 135.23054 43.28125 117.84375 43.28125 C 100.45696 43.28125 84.7779 41.54808 73.59375 38.8125 C 68.00436 37.44535 63.539684 35.79801 60.65625 34.125 C 58.181358 32.68904 57.156932 31.36387 56.9375 30.53125 C 57.162065 29.68378 58.199302 28.30056 60.65625 26.875 C 63.539684 25.20199 68.004362 23.55464 73.59375 22.1875 C 84.777898 19.45191 100.45696 17.71875 117.84375 17.71875 z M 56.78125 36.78125 C 57.272811 37.21563 57.714649 37.66123 58.40625 38.0625 C 61.907714 40.09409 66.653335 41.78868 72.5 43.21875 C 84.199141 46.08032 100.16081 47.78125 117.84375 47.78125 C 135.5267 47.78125 151.51941 46.08037 163.21875 43.21875 C 169.0654 41.78868 173.81103 40.09409 177.3125 38.0625 C 178.00562 37.66034 178.4465 37.21529 178.9375 36.78125 L 178.9375 45.125 C 178.9375 45.93514 177.95119 47.51144 175.0625 49.1875 C 172.18268 50.85843 167.68525 52.47608 162.09375 53.84375 C 150.90874 56.57955 135.22994 58.34375 117.84375 58.34375 C 100.45756 58.34375 84.778748 56.57955 73.59375 53.84375 C 68.002659 52.47618 63.537397 50.85919 60.65625 49.1875 C 57.767566 47.51144 56.78125 45.93513 56.78125 45.125 L 56.78125 36.78125 z M 52.3125 45.25 C 52.38115 48.54279 54.958003 51.09303 58.40625 53.09375 C 61.907712 55.12534 66.653332 56.81994 72.5 58.25 C 84.198321 61.11137 100.16022 62.84375 117.84375 62.84375 C 120.35985 62.84375 122.7551 62.76005 125.1875 62.6875 C 119.00629 63.19456 112.43387 63.46875 105.53125 63.46875 C 88.145065 63.46875 72.43418 61.70434 61.25 58.96875 C 55.660511 57.60159 51.230092 55.9872 48.34375 54.3125 C 45.874716 52.87993 44.879032 51.53828 44.65625 50.6875 C 44.870374 49.83639 45.859991 48.47236 48.34375 47.03125 C 49.353564 46.44535 50.836124 45.83937 52.3125 45.25 z M 44.46875 56.9375 C 44.939256 57.36924 45.34472 57.82042 46.03125 58.21875 C 49.538511 60.25371 54.342913 61.94544 60.1875 63.375 C 71.885819 66.23636 87.84772 67.96875 105.53125 67.96875 C 123.21478 67.96875 139.14624 66.23616 150.84375 63.375 C 156.68834 61.94544 161.49274 60.2537 165 58.21875 C 165.50999 57.92284 165.97098 57.61194 166.40625 57.3125 C 166.42435 57.3001 166.45075 57.29365 166.46875 57.28125 C 166.49705 57.27325 166.5343 57.28925 166.5625 57.28125 L 166.5625 65.28125 C 166.5625 66.13149 165.63346 67.67073 162.75 69.34375 C 159.86788 71.01599 155.37103 72.66401 149.78125 74.03125 C 138.59709 76.76684 122.91804 78.5 105.53125 78.5 C 88.144467 78.5 72.433331 76.76664 61.25 74.03125 C 55.66221 72.66451 51.232372 71.01977 48.34375 69.34375 C 45.455069 67.66769 44.46875 66.09137 44.46875 65.28125 L 44.46875 56.9375 z M 187.90625 68.90625 C 201.53601 68.90625 213.82339 70.56059 222.53125 73.1875 C 226.88447 74.50074 230.33558 76.08501 232.53125 77.65625 C 234.73773 79.23521 235.53125 80.64405 235.53125 81.6875 C 235.53125 82.73095 234.73527 84.1728 232.53125 85.75 C 230.33805 87.31946 226.88655 88.87363 222.53125 90.1875 C 213.82234 92.81473 201.53525 94.5 187.90625 94.5 C 181.95654 94.5 176.31527 94.14017 171.0625 93.5625 L 171.0625 86.875 L 171.0625 80.34375 L 171.0625 71.8125 L 171.0625 69.84375 C 176.31534 69.26606 181.95644 68.90625 187.90625 68.90625 z M 44.46875 72.03125 C 44.941045 72.45406 45.360108 72.89184 46.03125 73.28125 C 49.540471 75.31734 54.344554 76.97709 60.1875 78.40625 C 71.88582 81.26762 87.84772 83 105.53125 83 C 123.21478 83 139.14623 81.26742 150.84375 78.40625 C 156.6867 76.97709 161.49078 75.31734 165 73.28125 C 165.67114 72.89184 166.0902 72.45406 166.5625 72.03125 L 166.5625 80.34375 C 166.5625 81.19399 165.63574 82.70065 162.75 84.375 C 159.86788 86.04724 155.37104 87.69525 149.78125 89.0625 C 138.59709 91.79808 122.91804 93.53125 105.53125 93.53125 C 88.144468 93.53125 72.433332 91.79788 61.25 89.0625 C 55.662208 87.69575 51.232371 86.05102 48.34375 84.375 C 45.452791 82.69762 44.46875 81.15387 44.46875 80.34375 L 44.46875 72.03125 z M 44.46875 87.0625 C 44.940454 87.48497 45.358159 87.92197 46.03125 88.3125 C 49.538516 90.34748 54.342916 92.03919 60.1875 93.46875 C 71.88582 96.33012 87.84772 98.0625 105.53125 98.0625 C 123.21478 98.0625 139.14623 96.32992 150.84375 93.46875 C 156.68834 92.03919 161.49273 90.34748 165 88.3125 C 165.67309 87.92197 166.0908 87.48497 166.5625 87.0625 L 166.5625 95.375 C 166.5625 96.22525 165.63346 97.76448 162.75 99.4375 C 159.87017 101.10843 155.37274 102.72608 149.78125 104.09375 C 138.59624 106.82955 122.91744 108.59375 105.53125 108.59375 C 88.145065 108.59375 72.43418 106.82935 61.25 104.09375 C 55.660508 102.72658 51.230088 101.1122 48.34375 99.4375 C 45.455066 97.76144 44.46875 96.18513 44.46875 95.375 L 44.46875 87.0625 z M 235.53125 89.0625 L 235.53125 92.28125 L 235.53125 96.75 C 235.53125 97.79345 234.73773 99.20228 232.53125 100.78125 C 230.33805 102.35071 226.88655 103.90488 222.53125 105.21875 C 213.82234 107.84598 201.53525 109.53125 187.90625 109.53125 C 181.95644 109.53125 176.31534 109.17143 171.0625 108.59375 L 171.0625 101.90625 L 171.0625 98.09375 C 176.34241 98.6576 181.97022 99 187.90625 99 C 201.90029 99 214.55695 97.311 223.875 94.5 C 228.53334 93.09471 232.33025 91.42854 235.15625 89.40625 C 235.32252 89.28727 235.40163 89.18394 235.53125 89.0625 z M 44.46875 102.09375 C 44.940454 102.51622 45.35816 102.95322 46.03125 103.34375 C 49.538513 105.37871 54.342915 107.07044 60.1875 108.5 C 71.88582 111.36137 87.84772 113.09375 105.53125 113.09375 C 123.21478 113.09375 139.14623 111.36117 150.84375 108.5 C 156.68834 107.07044 161.49274 105.37871 165 103.34375 C 165.67309 102.95322 166.0908 102.51622 166.5625 102.09375 L 166.5625 110.40625 C 166.5625 111.2565 165.63346 112.79572 162.75 114.46875 C 162.52173 114.6012 162.16553 114.79692 161.8125 114.96875 C 159.78422 114.87815 157.73863 114.84375 155.65625 114.84375 C 140.83115 114.84375 127.41563 117.20249 117.53125 121.15625 C 115.726 121.87836 114.09339 122.68161 112.5625 123.5 C 110.25564 123.5711 107.89849 123.625 105.53125 123.625 C 88.144467 123.625 72.433331 121.89164 61.25 119.15625 C 55.662207 117.7895 51.23237 116.14477 48.34375 114.46875 C 45.455064 112.79268 44.46875 111.21638 44.46875 110.40625 L 44.46875 102.09375 z M 235.53125 104.09375 L 235.53125 107.3125 L 235.53125 111.78125 C 235.53125 112.82467 234.73773 114.23354 232.53125 115.8125 C 230.33558 117.38373 226.88446 118.96802 222.53125 120.28125 C 216.4667 122.11075 208.62235 123.49047 199.84375 124.15625 C 197.99111 123.09208 195.97075 122.05705 193.71875 121.15625 C 187.42119 118.63723 179.65516 116.8376 171.0625 115.8125 L 171.0625 113.125 C 176.34925 113.68826 181.96519 114.03125 187.90625 114.03125 C 201.90029 114.03125 214.55695 112.34224 223.875 109.53125 C 228.53334 108.12596 232.33025 106.4598 235.15625 104.4375 C 235.32252 104.31852 235.40163 104.21519 235.53125 104.09375 z M 44.46875 117.15625 C 44.941046 117.57906 45.36011 118.01684 46.03125 118.40625 C 49.538511 120.44121 54.342912 122.13295 60.1875 123.5625 C 71.88664 126.42407 87.84831 128.125 105.53125 128.125 C 105.61565 128.125 105.69748 128.12487 105.78125 128.125 C 105.69585 128.1956 105.6122 128.23569 105.53125 128.3125 C 102.56911 131.12313 100.75 134.49217 100.75 138.15625 L 100.75 138.5625 C 85.293201 138.27771 71.382946 136.66598 61.25 134.1875 C 55.660511 132.82034 51.230092 131.20595 48.34375 129.53125 C 45.455069 127.8552 44.46875 126.27887 44.46875 125.46875 L 44.46875 117.15625 z M 235.53125 119.15625 L 235.53125 122.34375 L 235.53125 126.8125 C 235.53125 127.85595 234.73526 129.29781 232.53125 130.875 C 230.33805 132.44447 226.88655 133.99863 222.53125 135.3125 C 219.10091 136.34733 214.98511 137.17712 210.5625 137.875 L 210.5625 137.71875 L 210.5625 137.3125 L 210.5625 137.09375 L 210.40625 136.96875 C 210.0513 133.76769 208.35391 130.8129 205.71875 128.3125 C 205.60788 128.2073 205.49283 128.1293 205.375 128.03125 C 212.29742 127.27102 218.68466 126.15954 223.875 124.59375 C 228.53334 123.18846 232.33025 121.5223 235.15625 119.5 C 235.32196 119.38142 235.40147 119.27788 235.53125 119.15625 z M 155.65625 119.34375 C 169.99747 119.34375 182.88244 121.68423 192.03125 125.34375 C 196.6059 127.1736 200.27318 129.36222 202.625 131.59375 C 204.9909 133.83864 206.0625 135.99478 206.0625 138.15625 C 206.0625 140.31772 204.9909 142.47386 202.625 144.71875 C 200.27318 146.95028 196.6059 149.1389 192.03125 150.96875 C 182.88244 154.62827 169.99747 156.96875 155.65625 156.96875 C 141.31504 156.96875 128.36575 154.62754 119.21875 150.96875 C 114.64482 149.13919 111.00963 146.95176 108.65625 144.71875 C 106.29585 142.47907 105.25 140.33413 105.25 138.15625 C 105.25 135.97837 106.29585 133.83343 108.65625 131.59375 C 111.00963 129.36074 114.64482 127.17331 119.21875 125.34375 C 128.36575 121.68496 141.31504 119.34375 155.65625 119.34375 z M 44.46875 132.1875 C 44.940453 132.60997 45.358158 133.04697 46.03125 133.4375 C 49.538511 135.47246 54.342912 137.1642 60.1875 138.59375 C 70.80147 141.1899 85.018907 142.776 100.75 143.0625 L 100.75 147.875 L 100.75 153.1875 L 100.75 153.59375 C 85.292748 153.30896 71.383271 151.69731 61.25 149.21875 C 55.660511 147.85159 51.230092 146.2372 48.34375 144.5625 C 45.455069 142.88645 44.46875 141.31012 44.46875 140.5 L 44.46875 132.1875 z M 235.53125 134.1875 L 235.53125 137.40625 L 235.53125 141.875 C 235.53125 142.91845 234.73773 144.3273 232.53125 145.90625 C 230.33558 147.47749 226.88447 149.06176 222.53125 150.375 C 219.09972 151.4102 214.98646 152.23958 210.5625 152.9375 L 210.5625 150.1875 L 210.5625 142.46875 C 215.44946 141.73864 219.99344 140.79596 223.875 139.625 C 228.53334 138.21971 232.33025 136.55355 235.15625 134.53125 C 235.32252 134.41227 235.40163 134.30894 235.53125 134.1875 z M 44.46875 147.21875 C 44.940454 147.64122 45.358157 148.07822 46.03125 148.46875 C 49.538511 150.50371 54.342913 152.19544 60.1875 153.625 C 70.800827 156.22097 85.017898 157.83783 100.75 158.125 L 100.75 162.9375 L 100.75 168.25 L 100.75 168.65625 C 85.292313 168.37147 71.383581 166.75986 61.25 164.28125 C 55.662208 162.9145 51.232371 161.26977 48.34375 159.59375 C 45.452791 157.91637 44.46875 156.37262 44.46875 155.5625 L 44.46875 147.21875 z M 206.0625 147.5625 L 206.0625 150.28125 L 206.0625 153.1875 C 206.0625 155.34897 204.9909 157.50512 202.625 159.75 C 200.27318 161.98153 196.6059 164.17015 192.03125 166 C 182.88244 169.65952 169.99747 172 155.65625 172 C 141.31504 172 128.36575 169.65879 119.21875 166 C 114.64482 164.17044 111.00963 161.98301 108.65625 159.75 C 106.29585 157.51033 105.25 155.36538 105.25 153.1875 L 105.25 148.25 L 105.25 147.65625 C 105.35199 147.77691 105.40481 147.88002 105.53125 148 C 108.48451 150.80221 112.58885 153.17928 117.53125 155.15625 C 127.41563 159.11001 140.83115 161.46875 155.65625 161.46875 C 170.48135 161.46875 183.83609 159.10932 193.71875 155.15625 C 198.66115 153.17928 202.7655 150.80221 205.71875 148 C 205.87749 147.84938 205.93948 147.71372 206.0625 147.5625 z M 235.53125 149.21875 L 235.53125 152.4375 L 235.53125 156.90625 C 235.53125 157.9497 234.73526 159.39156 232.53125 160.96875 C 230.33805 162.53822 226.88655 164.09238 222.53125 165.40625 C 219.10091 166.44108 214.98511 167.27087 210.5625 167.96875 L 210.5625 165.21875 L 210.5625 157.53125 C 215.45149 156.79909 219.99553 155.82659 223.875 154.65625 C 228.53334 153.25097 232.33025 151.58479 235.15625 149.5625 C 235.32252 149.44352 235.40163 149.34019 235.53125 149.21875 z M 44.46875 162.28125 C 44.940454 162.70372 45.358159 163.14072 46.03125 163.53125 C 49.538516 165.56623 54.342916 167.25794 60.1875 168.6875 C 70.801904 171.28374 85.018291 172.86972 100.75 173.15625 L 100.75 177.96875 L 100.75 183.28125 L 100.75 183.6875 C 85.292313 183.40271 71.383581 181.79111 61.25 179.3125 C 55.660508 177.94533 51.230088 176.33095 48.34375 174.65625 C 45.455066 172.98019 44.46875 171.40388 44.46875 170.59375 L 44.46875 162.28125 z M 206.0625 162.59375 L 206.0625 165.3125 L 206.0625 168.25 C 206.0625 170.41147 204.9909 172.56762 202.625 174.8125 C 200.27482 177.04248 196.60771 179.20067 192.03125 181.03125 C 182.88154 184.69114 169.99675 187.0625 155.65625 187.0625 C 141.31576 187.0625 128.36665 184.69041 119.21875 181.03125 C 114.64301 179.20096 111.00798 177.04395 108.65625 174.8125 C 106.29585 172.57283 105.25 170.42788 105.25 168.25 L 105.25 163.3125 L 105.25 162.6875 C 105.35197 162.80806 105.40452 162.91101 105.53125 163.03125 C 108.48451 165.83345 112.58884 168.21053 117.53125 170.1875 C 127.41563 174.14126 140.83115 176.5 155.65625 176.5 C 170.48135 176.5 183.83609 174.14057 193.71875 170.1875 C 198.66115 168.21053 202.7655 165.83345 205.71875 163.03125 C 205.87749 162.88063 205.93948 162.74497 206.0625 162.59375 z M 235.53125 164.28125 L 235.53125 167.5 L 235.53125 171.96875 C 235.53125 173.0122 234.73773 174.42104 232.53125 176 C 230.33805 177.56946 226.88655 179.12363 222.53125 180.4375 C 219.09722 181.47345 214.98468 182.33108 210.5625 183.03125 L 210.5625 180.28125 L 210.5625 172.5625 C 215.44946 171.83239 219.99344 170.88971 223.875 169.71875 C 228.53334 168.31347 232.33025 166.64729 235.15625 164.625 C 235.32252 164.50602 235.40163 164.40269 235.53125 164.28125 z M 44.46875 177.3125 C 44.940454 177.73497 45.35816 178.17197 46.03125 178.5625 C 49.538513 180.59746 54.342915 182.28919 60.1875 183.71875 C 70.801907 186.315 85.018292 187.90097 100.75 188.1875 L 100.75 193 L 100.75 198.3125 L 100.75 198.75 C 85.291858 198.46521 71.383898 196.8537 61.25 194.375 C 55.662207 193.00825 51.23237 191.36352 48.34375 189.6875 C 45.455064 188.01143 44.46875 186.43513 44.46875 185.625 L 44.46875 177.3125 z M 206.0625 177.65625 L 206.0625 180.375 L 206.0625 183.28125 C 206.0625 185.44271 204.9909 187.59886 202.625 189.84375 C 200.27318 192.07528 196.6059 194.2639 192.03125 196.09375 C 182.88244 199.75328 169.99747 202.09375 155.65625 202.09375 C 141.31504 202.09375 128.36575 199.75255 119.21875 196.09375 C 114.64482 194.26419 111.00963 192.07675 108.65625 189.84375 C 106.29585 187.60407 105.25 185.45912 105.25 183.28125 L 105.25 178.34375 L 105.25 177.75 C 105.35197 177.87056 105.40452 177.97351 105.53125 178.09375 C 108.48451 180.89596 112.58885 183.27303 117.53125 185.25 C 127.41563 189.20376 140.83115 191.5625 155.65625 191.5625 C 170.48135 191.5625 183.83609 189.20307 193.71875 185.25 C 198.66115 183.27303 202.7655 180.89596 205.71875 178.09375 C 205.87749 177.94313 205.93948 177.80747 206.0625 177.65625 z M 235.53125 179.3125 L 235.53125 182.53125 L 235.53125 187 C 235.53125 188.04342 234.73773 189.45229 232.53125 191.03125 C 230.33558 192.60248 226.88446 194.18677 222.53125 195.5 C 219.09971 196.5352 214.98646 197.36458 210.5625 198.0625 L 210.5625 195.3125 L 210.5625 187.625 C 215.45149 186.89284 219.99553 185.92034 223.875 184.75 C 228.53334 183.34471 232.33025 181.67854 235.15625 179.65625 C 235.32252 179.53727 235.40163 179.43394 235.53125 179.3125 z M 44.46875 192.375 C 44.941046 192.79781 45.36011 193.23559 46.03125 193.625 C 49.540471 195.66109 54.344553 197.32085 60.1875 198.75 C 70.801234 201.34609 85.017351 202.96278 100.75 203.25 L 100.75 208.0625 L 100.75 213.375 L 100.75 213.78125 C 85.291527 213.49644 71.384136 211.88501 61.25 209.40625 C 55.66221 208.03951 51.232372 206.39477 48.34375 204.71875 C 45.452791 203.04137 44.46875 201.49762 44.46875 200.6875 L 44.46875 192.375 z M 206.0625 192.6875 L 206.0625 195.40625 L 206.0625 198.3125 C 206.0625 200.47397 204.9909 202.63011 202.625 204.875 C 200.27318 207.10653 196.6059 209.29515 192.03125 211.125 C 182.88244 214.78453 169.99747 217.125 155.65625 217.125 C 141.31504 217.125 128.36575 214.7838 119.21875 211.125 C 114.64482 209.29544 111.00963 207.108 108.65625 204.875 C 106.29585 202.63532 105.25 200.49038 105.25 198.3125 L 105.25 193.375 L 105.25 192.78125 C 105.35197 192.90181 105.40452 193.00476 105.53125 193.125 C 108.48451 195.92721 112.58885 198.30428 117.53125 200.28125 C 127.41563 204.23501 140.83115 206.59375 155.65625 206.59375 C 170.48135 206.59375 183.83609 204.23432 193.71875 200.28125 C 198.66115 198.30428 202.7655 195.92721 205.71875 193.125 C 205.87749 192.97438 205.93948 192.83872 206.0625 192.6875 z M 235.53125 194.375 L 235.53125 202.03125 C 235.53125 203.0747 234.73526 204.51656 232.53125 206.09375 C 230.33805 207.66322 226.88655 209.21738 222.53125 210.53125 C 219.10091 211.56608 214.98511 212.39587 210.5625 213.09375 L 210.5625 210.375 L 210.5625 202.65625 C 215.44965 201.92614 219.99329 200.98351 223.875 199.8125 C 228.53334 198.40721 232.33025 196.74105 235.15625 194.71875 C 235.32196 194.60017 235.40147 194.49663 235.53125 194.375 z M 44.46875 207.40625 C 44.940453 207.82872 45.358158 208.26572 46.03125 208.65625 C 49.538511 210.69121 54.342912 212.38295 60.1875 213.8125 C 70.801121 216.40856 85.019711 217.99439 100.75 218.28125 L 100.75 223.09375 L 100.75 228.40625 L 100.75 228.8125 C 85.291531 228.5277 71.384132 226.9163 61.25 224.4375 C 55.660511 223.07034 51.230092 221.45595 48.34375 219.78125 C 45.455069 218.1052 44.46875 216.52887 44.46875 215.71875 L 44.46875 207.40625 z M 206.0625 207.71875 L 206.0625 210.46875 L 206.0625 213.375 C 206.0625 215.53647 204.9909 217.69261 202.625 219.9375 C 200.27482 222.16748 196.60771 224.32567 192.03125 226.15625 C 182.88154 229.81612 169.99675 232.1875 155.65625 232.1875 C 141.31576 232.1875 128.36665 229.81542 119.21875 226.15625 C 114.64301 224.32596 111.00798 222.16895 108.65625 219.9375 C 106.29585 217.69782 105.25 215.55288 105.25 213.375 L 105.25 208.4375 L 105.25 207.8125 C 105.35193 207.93296 105.4041 208.0356 105.53125 208.15625 C 108.48313 210.95716 112.58715 213.36609 117.53125 215.34375 C 127.41648 219.29784 140.83185 221.625 155.65625 221.625 C 170.48065 221.625 183.83524 219.29715 193.71875 215.34375 C 198.66285 213.36609 202.76688 210.95716 205.71875 208.15625 C 205.87749 208.00563 205.93948 207.86997 206.0625 207.71875 z M 206.0625 222.78125 L 206.0625 225.5 L 206.0625 228.40625 C 206.0625 230.56785 204.99089 232.72385 202.625 234.96875 C 200.27318 237.20035 196.6059 239.38895 192.03125 241.21875 C 182.88243 244.87825 169.99746 247.21865 155.65625 247.21875 C 141.31505 247.21865 128.36576 244.87745 119.21875 241.21875 C 114.64483 239.38915 111.00963 237.20175 108.65625 234.96875 C 106.29585 232.72905 105.25 230.58425 105.25 228.40625 L 105.25 223.46875 L 105.25 222.875 C 105.35197 222.99556 105.40452 223.09851 105.53125 223.21875 C 108.48451 226.02097 112.58885 228.398 117.53125 230.375 C 127.41563 234.3287 140.83114 236.6875 155.65625 236.6875 C 170.48135 236.6875 183.83609 234.328 193.71875 230.375 C 198.66114 228.398 202.7655 226.02097 205.71875 223.21875 C 205.87749 223.06813 205.93948 222.93247 206.0625 222.78125 z M 206.0625 237.8125 L 206.0625 243.46875 C 206.0625 245.63005 204.99087 247.78655 202.625 250.03125 C 200.27483 252.26135 196.60771 254.4194 192.03125 256.25 C 182.88244 259.9095 169.99747 262.25 155.65625 262.25 C 141.31504 262.25 128.36575 259.9088 119.21875 256.25 C 114.64301 254.4197 111.00797 252.26285 108.65625 250.03125 C 106.29587 247.79175 105.25 245.64655 105.25 243.46875 L 105.25 237.90625 C 105.35197 238.02685 105.40453 238.1297 105.53125 238.25 C 108.48449 241.052 112.58885 243.42925 117.53125 245.40625 C 127.41563 249.35995 140.83113 251.71875 155.65625 251.71875 C 170.48136 251.71875 183.83609 249.35935 193.71875 245.40625 C 198.66115 243.42925 202.76551 241.052 205.71875 238.25 C 205.87748 238.0994 205.93949 237.9637 206.0625 237.8125 z "
       transform="translate(0,772.36218)"
       id="path8" />
  </g>
</svg>
