<?xml version="1.0" encoding="UTF-8" standalone="no"?>
<!-- Created with Inkscape (http://www.inkscape.org/) -->

<svg
   xmlns:dc="http://purl.org/dc/elements/1.1/"
   xmlns:cc="http://creativecommons.org/ns#"
   xmlns:rdf="http://www.w3.org/1999/02/22-rdf-syntax-ns#"
   xmlns:svg="http://www.w3.org/2000/svg"
   xmlns="http://www.w3.org/2000/svg"
   xmlns:sodipodi="http://sodipodi.sourceforge.net/DTD/sodipodi-0.dtd"
   xmlns:inkscape="http://www.inkscape.org/namespaces/inkscape"
   width="280"
   height="280"
   id="svg2"
   version="1.1"
   inkscape:version="0.91 r13725"
   sodipodi:docname="ui-guild-treasury.svg">
  <defs
     id="defs4" />
  <sodipodi:namedview
     id="base"
     pagecolor="#ffffff"
     bordercolor="#666666"
     borderopacity="1.0"
     inkscape:pageopacity="0.0"
     inkscape:pageshadow="2"
     inkscape:zoom="0.8314818"
     inkscape:cx="661.71545"
     inkscape:cy="39.902299"
     inkscape:document-units="px"
     inkscape:current-layer="layer1"
     showgrid="false"
     borderlayer="true"
     inkscape:showpageshadow="false"
     inkscape:window-width="2560"
     inkscape:window-height="925"
     inkscape:window-x="0"
     inkscape:window-y="33"
     inkscape:window-maximized="1" />
  <metadata
     id="metadata7">
    <rdf:RDF>
      <cc:Work
         rdf:about="">
        <dc:format>image/svg+xml</dc:format>
        <dc:type
           rdf:resource="http://purl.org/dc/dcmitype/StillImage" />
        <dc:title />
      </cc:Work>
    </rdf:RDF>
  </metadata>
  <g
     inkscape:label="Calque 1"
     inkscape:groupmode="layer"
     id="layer1"
     transform="translate(0,-772.36218)">
    <path
       style="fill:#000000;fill-opacity:1;fill-rule:evenodd;stroke:none;stroke-width:1px;stroke-linecap:butt;stroke-linejoin:miter;stroke-opacity:1"
       d="m 80.827148,814.60659 c -18.536447,0.1782 -43.059277,9.87078 -48.826172,51.88672 -3.537646,25.77428 -5.018448,37.68323 -5.722656,43.7539 l 21.28125,2.04102 c 0.08079,-11.69577 0.919509,-37.859 6.443359,-56.70508 3.677028,-12.54515 11.233265,-22.80204 19.773438,-29.88281 7.672304,-6.36122 16.126975,-10.18462 23.427734,-10.73633 -3.882667,-0.092 -12.540526,-0.29882 -14.603516,-0.3457 -0.584662,-0.0133 -1.175487,-0.0175 -1.773437,-0.0117 z m 42.931642,0.98633 c -8.95471,0.8293 -18.169,1.47245 -24.177736,1.30078 -7.0748,-0.20214 -16.271768,3.50285 -24.527344,10.34766 -8.255576,6.84481 -15.579337,16.78733 -19.130859,28.90429 -5.447555,18.58578 -6.268437,44.84724 -6.353516,56.33399 l 93.328125,8.94726 c 0.18018,-11.78528 1.01582,-40.34955 5.06055,-58.55078 2.58953,-11.6529 8.38683,-23.24866 15.61914,-31.99219 5.70808,-6.90082 12.32459,-12.05926 19.06445,-13.93359 -19.39183,-0.42701 -38.48469,-0.87234 -58.88281,-1.35742 z m 80.72851,1.81836 c -5.73237,0.43164 -11.53184,0.75586 -16.43554,0.75586 -7.60529,0 -15.92141,5.51085 -22.9336,13.98828 -7.01219,8.47743 -12.69601,19.84398 -15.20898,31.15234 -3.99597,17.98196 -4.82639,46.75406 -5.00781,58.31055 l 30.51171,2.92578 c -0.20964,-8.4037 -0.34015,-28.96115 2.28321,-54.21094 1.76496,-16.98771 7.16333,-30.72358 14.3164,-40.39453 4.12069,-5.57117 8.86672,-9.85641 13.90625,-12.49609 -0.35512,-0.007 -1.06199,-0.0242 -1.43164,-0.0312 z m 12.9043,5.0332 c -5.68877,0 -12.81256,3.95783 -18.94727,12.25195 -6.1347,8.29412 -11.1543,20.70955 -12.79101,36.46289 -2.52685,24.32094 -2.45031,44.33936 -2.25391,52.83008 l 70.25782,-18.05664 0.30273,-2.87109 c 0,0 -2.55213,-35.29254 -9.35547,-55.27735 -4.00836,-11.77457 -9.34496,-20.15091 -15.31445,-25.04882 -3.71097,-0.25941 -7.37084,-0.29102 -11.89844,-0.29102 z m 35.37305,91.97656 -69.2168,17.78906 0,76.9649 61.9082,-25.32427 7.3086,-69.42969 z m -226.724611,3.8418 15.740234,76.21875 12.001953,1.40231 -6.042969,-75.54098 -21.699218,-2.08008 z m 23.720703,2.27344 6.046875,75.58592 87.712893,10.2539 -0.66993,-76.91795 -26.6582,-2.55469 0,29.73438 c 0,8.92939 -11.05552,17.6461 -27.63867,14.45703 -15.677397,-3.01488 -18.42895,-31.09624 -17.605468,-48.52734 l -21.1875,-2.03125 z m 95.091798,9.11523 0.66992,76.95899 30.02539,3.5098 0,-77.52738 -30.69531,-2.94141 z m -51.833986,7 c -6.803341,0 -8.291824,3.19071 -7.441406,7.01758 0.850417,3.82688 3.826172,6.16406 3.826172,6.16406 l -2.97461,13.60742 14.03125,1.27539 -5.740234,-15.09375 c 0,0 3.189453,-0.85176 3.189453,-6.80468 0,-5.95293 -3.402394,-6.16602 -4.890625,-6.16602 z"
       id="path4196"
       inkscape:connector-curvature="0" />
  </g>
</svg>
