<?xml version="1.0" encoding="UTF-8" standalone="no"?>
<!-- Created with Inkscape (http://www.inkscape.org/) -->

<svg
   xmlns:dc="http://purl.org/dc/elements/1.1/"
   xmlns:cc="http://creativecommons.org/ns#"
   xmlns:rdf="http://www.w3.org/1999/02/22-rdf-syntax-ns#"
   xmlns:svg="http://www.w3.org/2000/svg"
   xmlns="http://www.w3.org/2000/svg"
   xmlns:sodipodi="http://sodipodi.sourceforge.net/DTD/sodipodi-0.dtd"
   xmlns:inkscape="http://www.inkscape.org/namespaces/inkscape"
   width="280"
   height="280"
   id="svg2"
   version="1.1"
   inkscape:version="0.91 r13725"
   sodipodi:docname="ui-guild-members.svg">
  <defs
     id="defs4" />
  <sodipodi:namedview
     id="base"
     pagecolor="#ffffff"
     bordercolor="#666666"
     borderopacity="1.0"
     inkscape:pageopacity="0.0"
     inkscape:pageshadow="2"
     inkscape:zoom="0.4157409"
     inkscape:cx="-749.00622"
     inkscape:cy="5.0738373"
     inkscape:document-units="px"
     inkscape:current-layer="layer1"
     showgrid="false"
     borderlayer="true"
     inkscape:showpageshadow="false"
     inkscape:window-width="2560"
     inkscape:window-height="925"
     inkscape:window-x="0"
     inkscape:window-y="33"
     inkscape:window-maximized="1" />
  <metadata
     id="metadata7">
    <rdf:RDF>
      <cc:Work
         rdf:about="">
        <dc:format>image/svg+xml</dc:format>
        <dc:type
           rdf:resource="http://purl.org/dc/dcmitype/StillImage" />
        <dc:title />
      </cc:Work>
    </rdf:RDF>
  </metadata>
  <g
     inkscape:label="Calque 1"
     inkscape:groupmode="layer"
     id="layer1"
     transform="translate(0,-772.36218)">
    <path
       style="opacity:1;fill:#000000;fill-opacity:1;stroke:none"
       d="M 140 35.484375 C 116.12998 35.484375 96.771484 60.670007 96.771484 91.742188 C 96.771484 113.33587 106.11296 132.11749 119.82617 141.54883 C 120.17383 142.66875 120.39063 143.71772 120.39062 144.61914 C 120.39062 151.43867 119.97712 150.99974 94.830078 170.17969 C 69.683038 189.35963 70.521484 199.13705 70.521484 223.43164 C 70.521484 247.72616 88.439453 244.35547 88.439453 244.35547 L 137.43164 244.35547 L 142.56836 244.35547 L 191.55859 244.35547 C 191.55859 244.35547 209.47656 247.72616 209.47656 223.43164 C 209.47656 199.13705 210.31696 189.35963 185.16992 170.17969 C 160.02288 150.99974 159.60742 151.43867 159.60742 144.61914 C 159.60742 143.71772 159.8223 142.66875 160.17188 141.54883 C 173.88508 132.11749 183.22656 113.33587 183.22656 91.742188 C 183.22656 60.670007 163.87003 35.484375 140 35.484375 z M 57.296875 74.587891 C 43.506358 74.587891 32.322266 89.138398 32.322266 107.08984 C 32.322266 119.56523 37.718041 130.41643 45.640625 135.86523 C 45.84148 136.51225 45.966797 137.11788 45.966797 137.63867 C 45.966797 141.57854 45.727516 141.32534 31.199219 152.40625 C 16.670925 163.48715 17.15625 169.13605 17.15625 183.17188 C 17.15625 197.20763 27.507813 195.25977 27.507812 195.25977 L 55.8125 195.25977 L 58.779297 195.25977 L 62.626953 195.25977 C 62.981564 193.97684 63.39379 192.69269 63.875 191.40039 C 67.68565 181.16684 75.497988 172.34985 88.765625 162.23047 C 90.061399 161.24217 90.582017 160.83571 91.744141 159.94922 C 89.743555 157.63161 87.043095 155.19054 83.392578 152.40625 C 68.864282 141.32534 68.623047 141.57854 68.623047 137.63867 C 68.623047 137.11788 68.74726 136.51225 68.949219 135.86523 C 76.871797 130.41643 82.269531 119.56523 82.269531 107.08984 C 82.269531 89.138398 71.087397 74.587891 57.296875 74.587891 z M 222.70312 74.587891 C 208.91261 74.587891 197.72852 89.138398 197.72852 107.08984 C 197.72852 119.56523 203.12429 130.41643 211.04688 135.86523 C 211.24774 136.51225 211.37305 137.11788 211.37305 137.63867 C 211.37305 141.57854 211.13376 141.32534 196.60547 152.40625 C 192.95495 155.19054 190.25645 157.63161 188.25586 159.94922 C 189.41835 160.83603 189.94008 161.2418 191.23633 162.23047 C 204.50406 172.34992 212.31494 181.16672 216.125 191.40039 C 216.60614 192.6927 217.01853 193.97682 217.37305 195.25977 L 221.21875 195.25977 L 224.18555 195.25977 L 252.49023 195.25977 C 252.49023 195.25977 262.8418 197.20763 262.8418 183.17188 C 262.8418 169.13605 263.32712 163.48715 248.79883 152.40625 C 234.27053 141.32534 234.0293 141.57854 234.0293 137.63867 C 234.0293 137.11788 234.15351 136.51225 234.35547 135.86523 C 242.27805 130.41643 247.67578 119.56523 247.67578 107.08984 C 247.67578 89.138398 236.49364 74.587891 222.70312 74.587891 z "
       transform="translate(0,772.36218)"
       id="path5717" />
  </g>
</svg>
