<?xml version="1.0" encoding="UTF-8" standalone="no"?>
<!-- Created with Inkscape (http://www.inkscape.org/) -->

<svg
   xmlns:dc="http://purl.org/dc/elements/1.1/"
   xmlns:cc="http://creativecommons.org/ns#"
   xmlns:rdf="http://www.w3.org/1999/02/22-rdf-syntax-ns#"
   xmlns:svg="http://www.w3.org/2000/svg"
   xmlns="http://www.w3.org/2000/svg"
   xmlns:sodipodi="http://sodipodi.sourceforge.net/DTD/sodipodi-0.dtd"
   xmlns:inkscape="http://www.inkscape.org/namespaces/inkscape"
   width="280"
   height="280"
   id="svg2"
   version="1.1"
   inkscape:version="0.48.4 r9939"
   sodipodi:docname="ihm-hero.svg">
  <defs
     id="defs4" />
  <sodipodi:namedview
     id="base"
     pagecolor="#ffffff"
     bordercolor="#666666"
     borderopacity="1.0"
     inkscape:pageopacity="0.0"
     inkscape:pageshadow="2"
     inkscape:zoom="1.4142136"
     inkscape:cx="133.29825"
     inkscape:cy="102.45447"
     inkscape:document-units="px"
     inkscape:current-layer="layer1"
     showgrid="false"
     borderlayer="true"
     inkscape:showpageshadow="false"
     inkscape:window-width="1920"
     inkscape:window-height="1000"
     inkscape:window-x="0"
     inkscape:window-y="28"
     inkscape:window-maximized="1" />
  <metadata
     id="metadata7">
    <rdf:RDF>
      <cc:Work
         rdf:about="">
        <dc:format>image/svg+xml</dc:format>
        <dc:type
           rdf:resource="http://purl.org/dc/dcmitype/StillImage" />
        <dc:title />
      </cc:Work>
    </rdf:RDF>
  </metadata>
  <g
     inkscape:label="Calque 1"
     inkscape:groupmode="layer"
     id="layer1"
     transform="translate(0,-772.36218)">
    <path
       style="fill:#000000;fill-opacity:1;stroke:none"
       d="m 139.96875,791.01992 c -23.23556,19.641 -50.210019,42.59401 -60.999999,52.4375 -20.152546,18.38478 -10.25,60.125 -10.25,60.125 0,0 8.53128,0.35722 26.5625,2.125 18.031219,1.76776 34.249999,12.375 34.249999,12.375 l 0,35.6875 7,6.6875 3.5,3.3125 6.25,-6 4.1875,-4 0,-35.6875 c 0,0 16.21878,-10.60724 34.25,-12.375 18.03122,-1.76778 26.5625,-2.125 26.5625,-2.125 0,0 9.90256,-41.74022 -10.25,-60.125 -10.78998,-9.8435 -37.76444,-32.7965 -61,-52.4375 -0.0122,-0.0103 -0.0503,0.0103 -0.0625,0 z m -70.499999,122.4375 c 0,0 -25.832102,64.74696 -25.125002,75 0.70712,10.25306 12.364664,27.21878 54.437502,45.24998 l 0,-105.74998 c 0,0 -11.63484,-11.67156 -29.3125,-14.5 z m 141.062499,0 c -17.67766,2.82844 -29.3125,14.5 -29.3125,14.5 l 0,105.74998 c 42.07284,-18.0312 53.73038,-34.99692 54.4375,-45.24998 0.7071,-10.25304 -25.125,-75 -25.125,-75 z"
       id="path3131"
       inkscape:connector-curvature="0" />
  </g>
</svg>
