<?xml version="1.0" encoding="UTF-8" standalone="no"?>
<!-- Created with Inkscape (http://www.inkscape.org/) -->

<svg
   xmlns:dc="http://purl.org/dc/elements/1.1/"
   xmlns:cc="http://creativecommons.org/ns#"
   xmlns:rdf="http://www.w3.org/1999/02/22-rdf-syntax-ns#"
   xmlns:svg="http://www.w3.org/2000/svg"
   xmlns="http://www.w3.org/2000/svg"
   xmlns:sodipodi="http://sodipodi.sourceforge.net/DTD/sodipodi-0.dtd"
   xmlns:inkscape="http://www.inkscape.org/namespaces/inkscape"
   width="280"
   height="280"
   id="svg2"
   version="1.1"
   inkscape:version="0.91 r13725"
   sodipodi:docname="ui-home-cat.svg">
  <defs
     id="defs4" />
  <sodipodi:namedview
     id="base"
     pagecolor="#ffffff"
     bordercolor="#666666"
     borderopacity="1.0"
     inkscape:pageopacity="0.0"
     inkscape:pageshadow="2"
     inkscape:zoom="2.0000001"
     inkscape:cx="80.504937"
     inkscape:cy="117.08266"
     inkscape:document-units="px"
     inkscape:current-layer="layer1"
     showgrid="false"
     borderlayer="true"
     inkscape:showpageshadow="false"
     inkscape:window-width="1920"
     inkscape:window-height="885"
     inkscape:window-x="0"
     inkscape:window-y="33"
     inkscape:window-maximized="1" />
  <metadata
     id="metadata7">
    <rdf:RDF>
      <cc:Work
         rdf:about="">
        <dc:format>image/svg+xml</dc:format>
        <dc:type
           rdf:resource="http://purl.org/dc/dcmitype/StillImage" />
        <dc:title />
      </cc:Work>
    </rdf:RDF>
  </metadata>
  <g
     inkscape:label="Calque 1"
     inkscape:groupmode="layer"
     id="layer1"
     transform="translate(0,-772.36218)">
    <path
       style="opacity:1;fill:#000000;fill-opacity:1;stroke:none;stroke-width:20;stroke-linecap:butt;stroke-linejoin:miter;stroke-miterlimit:4;stroke-dasharray:none;stroke-opacity:0.46567161"
       d="m 62.915037,823.55983 c -0.785482,0.037 -1.492609,0.19516 -2.111328,0.48242 -9.617394,4.46522 -8.211683,38.30213 -2.9375,74.26562 a 95.459412,68.235802 0 0 0 -8.785156,13.91992 l -26.503906,-9.875 -6.982422,18.74219 29.017578,10.81055 a 95.459412,68.235802 0 0 0 -0.07227,1.03125 95.459412,68.235802 0 0 0 0.0293,0.59375 l -30.322265,2.88672 1.896484,19.91015 32.810547,-3.125 a 95.459412,68.235802 0 0 0 0.820312,1.76368 l -28.580078,17.9375 10.630859,16.9414 29.419922,-18.4668 a 95.459412,68.235802 0 0 0 78.753906,29.79492 95.459412,68.235802 0 0 0 78.82617,-29.75195 l 29.34961,18.42383 10.63086,-16.9414 -28.56445,-17.92969 a 95.459412,68.235802 0 0 0 0.89844,-1.76172 l 32.71679,3.11523 1.89649,-19.91015 -30.33399,-2.88867 a 95.459412,68.235802 0 0 0 0.041,-0.5918 95.459412,68.235802 0 0 0 -0.0508,-1.03906 l 28.99609,-10.80274 -6.98242,-18.74219 -26.57227,9.90039 a 95.459412,68.235802 0 0 0 -8.71875,-13.93554 c 5.27537,-35.96717 6.68272,-69.80976 -2.93554,-74.27539 -9.31308,-4.32392 -38.64907,20.76358 -53.86719,43.17968 a 95.459412,68.235802 0 0 0 -25.33008,-2.52148 95.459412,68.235802 0 0 0 -25.36914,2.45898 C 100.41244,846.24877 73.941758,823.04 62.914996,823.55983 Z m 34.304688,81.09179 a 14.849242,14.849242 0 0 1 14.849605,14.84961 14.849242,14.849242 0 0 1 -14.849605,14.84961 14.849242,14.849242 0 0 1 -14.84961,-14.84961 14.849242,14.849242 0 0 1 14.84961,-14.84961 z m 85.560545,0 a 14.849242,14.849242 0 0 1 14.84766,14.84961 14.849242,14.849242 0 0 1 -14.84766,14.84961 14.849242,14.849242 0 0 1 -14.84961,-14.84961 14.849242,14.849242 0 0 1 14.84961,-14.84961 z"
       id="path4146"
       inkscape:connector-curvature="0" />
  </g>
</svg>
