<?xml version="1.0" encoding="UTF-8" standalone="no"?>
<!-- Created with Inkscape (http://www.inkscape.org/) -->

<svg
   xmlns:dc="http://purl.org/dc/elements/1.1/"
   xmlns:cc="http://creativecommons.org/ns#"
   xmlns:rdf="http://www.w3.org/1999/02/22-rdf-syntax-ns#"
   xmlns:svg="http://www.w3.org/2000/svg"
   xmlns="http://www.w3.org/2000/svg"
   xmlns:sodipodi="http://sodipodi.sourceforge.net/DTD/sodipodi-0.dtd"
   xmlns:inkscape="http://www.inkscape.org/namespaces/inkscape"
   width="280"
   height="280"
   id="svg2"
   version="1.1"
   inkscape:version="0.91 r13725"
   sodipodi:docname="ui-home-node.svg">
  <defs
     id="defs4" />
  <sodipodi:namedview
     id="base"
     pagecolor="#ffffff"
     bordercolor="#666666"
     borderopacity="1.0"
     inkscape:pageopacity="0.0"
     inkscape:pageshadow="2"
     inkscape:zoom="0.7071068"
     inkscape:cx="230.29634"
     inkscape:cy="-27.646748"
     inkscape:document-units="px"
     inkscape:current-layer="layer1"
     showgrid="false"
     borderlayer="true"
     inkscape:showpageshadow="false"
     inkscape:window-width="1920"
     inkscape:window-height="885"
     inkscape:window-x="0"
     inkscape:window-y="33"
     inkscape:window-maximized="1" />
  <metadata
     id="metadata7">
    <rdf:RDF>
      <cc:Work
         rdf:about="">
        <dc:format>image/svg+xml</dc:format>
        <dc:type
           rdf:resource="http://purl.org/dc/dcmitype/StillImage" />
        <dc:title />
      </cc:Work>
    </rdf:RDF>
  </metadata>
  <g
     inkscape:label="Calque 1"
     inkscape:groupmode="layer"
     id="layer1"
     transform="translate(0,-772.36218)">
    <path
       style="fill:#000000;fill-opacity:1;fill-rule:evenodd;stroke:none;stroke-width:8;stroke-linecap:round;stroke-linejoin:round;stroke-miterlimit:4;stroke-dasharray:none;stroke-opacity:1"
       d="m 163.73437,793.88379 c -1.51815,0 -3.07874,0.12004 -4.51953,0.4082 -1.63708,0.32741 -4.27836,2.68723 -6.14649,5.41211 -1.86587,2.7216 -2.97194,5.30042 -2.97461,5.30664 l -0.002,0.004 c -0.0881,0.23362 -1.40707,3.71895 -3.56641,7.94726 -2.23253,4.37166 -5.11398,9.46257 -9.32812,12.74024 -5.35453,4.16462 -17.58202,17.18831 -18.45313,18.11718 -2.1e-4,5e-4 -0.002,0.003 -0.002,0.004 -0.14042,0.32661 -0.66223,1.5163 -1.36328,3.4707 -0.2338,0.65186 -0.48752,1.39074 -0.75391,2.20899 -1.02824,3.15852 -2.00148,7.05567 -2.22851,10.01758 -0.0324,0.42313 -0.0488,0.82694 -0.0488,1.20703 0,-0.5037 0.58682,2.16467 2.00391,5.09961 1.1657,2.41429 2.93349,5.55675 4.76953,8.75586 1.94799,0.11233 3.86072,0.31863 5.67773,0.5664 2.83607,0.38674 2.69466,-0.003 3.6582,-1.02929 0.48177,-0.51291 1.04729,-1.32443 2.10157,-2.28711 1.05427,-0.96269 2.94863,-2.02344 5.01172,-2.02344 0.26767,0 0.53863,0.0273 0.81054,0.0664 0.0254,0.004 0.0508,0.007 0.0762,0.0117 1.46175,0.22885 2.9247,0.98389 3.8418,1.99024 0.13338,0.14636 0.22983,0.2982 0.3457,0.44726 0.0472,0.0563 0.0886,0.11288 0.13282,0.16993 0.1075,0.14703 0.21972,0.29263 0.3125,0.4414 0.0103,0.0165 0.0251,0.0323 0.0351,0.0488 0.13805,0.22796 0.25931,0.45536 0.3711,0.68164 0.0312,0.0652 0.0607,0.1301 0.0898,0.1953 0.11575,0.24939 0.20383,0.49646 0.29297,0.74415 0.0233,0.0681 0.0467,0.13526 0.0684,0.20312 0.25988,0.77767 0.41941,1.549 0.51953,2.31641 l 7.43555,-2.79687 c 0.37218,-1.43542 1.07769,-4.16499 2.26367,-8.65625 1.4619,-5.53615 2.93948,-11.14266 3.65234,-13.28125 1.39773,-4.19321 5.55014,-13.7749 10.01367,-18.73438 2.09067,-2.32295 4.6482,-3.15665 7.28321,-3.56054 0.27837,-0.0508 0.5571,-0.11757 0.83398,-0.16211 0.12202,-0.0196 0.24491,-0.0287 0.36719,-0.0469 l -0.98633,-11.32617 -5.39258,-24.10156 c -1.57893,-0.28603 -3.70294,-0.57617 -6.20312,-0.57617 z m -55.45117,18.80468 c -0.29315,0.16443 -0.47934,0.25868 -0.82813,0.46094 -1.6906,0.9804 -3.97287,2.37328 -6.35742,3.94141 -4.769091,3.13626 -10.11657,7.33708 -11.615231,9.29687 -3.04073,3.97635 -6.720966,5.711 -9.275391,8.26563 -2.554424,2.55464 -4.629239,5.69336 -5.111328,13.24609 -0.42108,6.59694 0.299259,11.66597 1.425782,15.4043 a 4.0004,4.0004 0 0 1 0.002,0.006 c 1.544117,5.11914 4.141944,7.75432 4.769531,8.13086 2.053776,1.23226 5.138795,3.39165 8.527344,5.60743 3.388548,2.21577 7.062666,4.44903 9.402343,5.47266 0.191459,0.0838 0.95725,0.32212 1.45704,0.49217 0.37209,-0.59663 0.76122,-1.17949 1.18554,-1.73437 0.3222,-0.42133 0.66466,-0.81295 1.01758,-1.1875 0.029,-0.0307 0.0567,-0.0634 0.0859,-0.0937 2.5632,-2.67524 5.86616,-4.16633 9.20702,-4.88867 -1.13957,-2.06767 -2.17178,-4.02673 -3.02929,-5.80274 -1.57685,-3.26581 -2.79883,-5.43212 -2.79883,-8.57812 0,-4.73748 1.37241,-9.70955 2.67187,-13.70117 1.29947,-3.99161 2.61329,-6.99415 2.61329,-6.99415 a 4.0004,4.0004 0 0 1 0.72851,-1.11328 c 0,0 4.25457,-4.64291 9.21289,-9.63476 l -0.5664,-6.4668 c -0.98794,-0.80666 -3.23239,-2.64363 -6.5293,-5.28125 -1.97748,-1.58204 -3.97781,-3.16423 -5.49219,-4.32422 -0.29392,-0.22513 -0.45054,-0.33393 -0.70312,-0.52344 z m 75.91797,24.75977 c -1.12528,-0.008 -2.30366,0.007 -3.45118,0.0586 -3.6452,0.16891 -6.83314,1.34693 -6.97265,1.50196 -1.90042,2.11157 -7.64555,13.74328 -8.36914,15.91406 -0.3478,1.04338 -2.05227,7.28086 -3.50782,12.79297 -1.45555,5.5121 -2.77929,10.63086 -2.77929,10.63086 a 4.0004,4.0004 0 0 1 -1.42188,2.1582 4.0004,4.0004 0 0 1 -0.32617,0.23047 4.0004,4.0004 0 0 0 -0.002,0 4.0004,4.0004 0 0 1 -0.71485,0.35351 l -12.16797,4.57813 c -0.0338,0.49924 -0.0684,1.00588 -0.0976,1.47461 -0.30288,4.84611 -1.23128,11.33187 -1.70508,14.81445 l 2.61523,0.43555 a 4.0004,4.0004 0 0 1 2.4004,1.36914 4.0004,4.0004 0 0 1 0.24218,0.31641 4.0004,4.0004 0 0 1 0.69922,2.25976 c 0,0 -0.0222,7.32537 2.77734,24.82227 1.38121,8.63246 2.8392,13.3126 3.80469,15.61523 0.48215,1.14987 0.83721,1.70081 0.95703,1.86719 l 0.002,0.002 a 4.0004,4.0004 0 0 1 0.10742,0.10742 4.0004,4.0004 0 0 1 0.19531,0.20118 4.0004,4.0004 0 0 1 0.006,0.008 4.0004,4.0004 0 0 1 0.23242,0.29492 4.0004,4.0004 0 0 1 0.12696,0.19531 4.0004,4.0004 0 0 1 0.0879,0.13477 4.0004,4.0004 0 0 1 0.082,0.1582 4.0004,4.0004 0 0 1 0.11133,0.2207 4.0004,4.0004 0 0 1 0.002,0.004 4.0004,4.0004 0 0 1 0.13867,0.35938 4.0004,4.0004 0 0 1 0.0391,0.13476 4.0004,4.0004 0 0 1 0.0684,0.2461 4.0004,4.0004 0 0 1 0.0215,0.12109 4.0004,4.0004 0 0 1 0.0488,0.28711 4.0004,4.0004 0 0 1 0,0.004 c 0.69823,-0.98747 1.23584,-2.2601 1.46093,-3.9961 0.031,-0.23942 0.0515,-0.49244 0.0703,-0.75 0.004,-0.0533 0.0124,-0.10214 0.0156,-0.15625 6.5e-4,-0.0106 0.001,-0.0226 0.002,-0.0332 0.0178,-0.30633 0.0274,-0.62494 0.0274,-0.95703 0,-5.11296 2.83227,-9.16283 5.28515,-12.25391 2.45289,-3.09108 4.91016,-5.24414 4.91016,-5.24414 a 4.0004,4.0004 0 0 1 0.59375,-0.42773 4.0004,4.0004 0 0 1 0.49023,-0.25391 4.0004,4.0004 0 0 1 0.76172,-0.23633 4.0004,4.0004 0 0 1 0.39649,-0.0606 4.0004,4.0004 0 0 1 0.39843,-0.0195 4.0004,4.0004 0 0 1 0.4004,0.0195 l 17.67773,1.76758 c 1.62611,0.16261 3.29042,0.64112 5.63867,1.41211 2.34825,0.77099 5.17256,1.84495 8.20117,3.20899 6.05723,2.72806 12.92331,6.5654 18.23633,11.68164 0.71673,0.69017 1.40625,1.38279 2.08008,2.07617 4.15379,4.24074 7.12382,8.02099 9.2168,10.98633 0.97616,1.34171 1.79976,2.52662 2.47265,3.54101 l 6.93946,-6.57422 c -2.6994,-4.39298 -7.33204,-13.28861 -7.33204,-23.41211 0,-5.31087 -1.94912,-15.44196 -3.95703,-23.86523 -1.9631,-8.23531 -3.83918,-14.68016 -3.92578,-14.97852 l -13.78125,-26.25195 c -1.54262,-0.35769 -3.66822,-0.90402 -6.28515,-1.85547 -2.12752,-0.7735 -4.35726,-1.73699 -6.375,-3.08203 -2.01775,-1.34504 -4.06677,-3.13426 -4.80079,-6.07031 -0.60719,-2.42879 -2.35304,-7.60082 -4.36523,-11.78906 -1.0061,-2.09412 -2.10641,-3.97293 -2.99414,-5.09375 -0.64311,-0.81197 -1.12364,-0.94167 -0.94336,-0.95312 -1.14603,-0.009 -2.38839,-0.0414 -3.76562,-0.0508 z m -114.107423,31.5957 c -1.876385,0.47119 -3.506146,1.12736 -4.208984,2.12305 -3.777517,5.35148 -9.834898,17.91538 -16.484375,25.73828 -3.46384,4.07511 -6.872791,6.1547 -8.853516,8.37891 -1.980725,2.2242 -3.273437,4.54664 -3.273437,10.95118 0,11.6177 2.347741,17.78211 3.054687,19.50391 l 4.175781,1.4746 a 4.0004,4.0004 0 0 1 2.462891,5.03711 c 0,0 -0.540332,3.14382 0.05469,4.21484 0.529614,0.95331 1.006962,1.27892 1.291015,1.44336 0.130483,0.0756 0.129638,0.0898 0.107422,0.0918 a 4.0004,4.0004 0 0 1 2.601563,6.26368 c 0.01937,-0.0427 -0.02688,0.006 -0.0957,0.45312 -0.158935,1.03318 -0.238053,3.6147 0.759766,8.4375 0.782218,3.78072 1.407883,6.80263 2.484375,9.08594 0.46798,0.99262 1.054655,1.84621 1.755859,2.67383 0.63934,-1.4958 1.342663,-2.9666 2.126954,-4.39258 1.362383,-2.47706 3.019964,-4.87668 4.888671,-7.17969 1.59146,-13.36779 7.580079,-29.72461 7.580079,-29.72461 a 4.0004,4.0004 0 0 1 6.476562,-1.58398 l 0.222656,0.20508 c 0.872007,-2.43171 1.15906,-3.42877 2.726563,-7.29688 2.791385,-6.88829 5.813419,-14.2726 9.810547,-18.51954 0.210306,-0.22344 0.420799,-0.48715 0.630859,-0.76171 0.08751,-0.11577 0.17479,-0.23338 0.261719,-0.35743 0.04679,-0.0657 0.09387,-0.13909 0.140625,-0.20703 1.790344,-2.65283 3.476037,-6.99804 5.25,-11.51953 0.394145,-1.08128 0.791636,-2.16179 1.199219,-3.23829 -0.434277,-0.16113 -0.84516,-0.32422 -1.22461,-0.49023 -3.317177,-1.45127 -7.068481,-3.81306 -10.574219,-6.10547 -3.505737,-2.2924 -6.783867,-4.5543 -8.265625,-5.44336 -0.354647,-0.21279 -0.701463,-0.4491 -1.042968,-0.70703 -2.348064,-1.76026 -4.376197,-4.57073 -6.039063,-8.54883 z m 66.400383,10.32227 c -0.0577,0.066 -0.0967,0.11302 -0.20703,0.23047 -1.7759,1.8907 -5.62821,4.15244 -10.57031,3.47851 -1.03854,-0.14161 -2.08278,-0.25634 -3.11914,-0.35351 -0.83169,-0.0771 -1.65946,-0.14412 -2.46875,-0.17969 l -0.002,0 c -0.6455,-0.0283 -1.27575,-0.0356 -1.89649,-0.0312 -0.33633,0.003 -0.66885,0.009 -0.99219,0.0215 -0.23095,0.009 -0.45795,0.022 -0.68359,0.0371 -0.24299,0.016 -0.47977,0.0379 -0.71484,0.0606 -0.26301,0.0259 -0.52751,0.0507 -0.78125,0.0859 -0.16616,0.0224 -0.32256,0.0537 -0.48438,0.0801 -0.40958,0.067 -0.80173,0.14515 -1.17773,0.23437 -0.26664,0.0647 -0.53237,0.13086 -0.78516,0.20899 -0.11808,0.0356 -0.2331,0.0748 -0.34765,0.11328 -1.16111,0.39871 -2.17045,0.95035 -3.01368,1.6914 -0.0983,0.0874 -0.19684,0.17467 -0.29101,0.26758 -0.0755,0.0736 -0.15006,0.14763 -0.22266,0.22461 -0.17837,0.19102 -0.35232,0.38801 -0.51562,0.60156 -1.01578,1.32834 -2.1069,3.7407 -3.23242,6.54297 -2.02716,5.40991 -3.98523,12.38452 -8.046877,17.61719 -0.03194,0.0417 -0.06346,0.0835 -0.0957,0.125 -0.402481,0.51149 -0.817952,1.0108 -1.263672,1.48437 -0.414931,0.44087 -0.969003,1.2483 -1.607422,2.31641 l 0,0.002 c -0.957467,1.60205 -2.105854,3.78766 -3.267578,6.19532 l 0,0.002 c -0.387098,0.80229 -0.77687,1.62878 -1.160156,2.4668 l 0,0.002 c -0.766809,1.6766 -1.513529,3.39831 -2.185547,5.05664 -2.688933,6.63547 -4.691406,12.55078 -4.691406,12.55078 a 4.0004,4.0004 0 0 1 -6.472656,1.6836 c -0.306814,0.95066 -0.658627,2.11279 -1.001953,3.22851 -0.64223,2.1405 -1.295999,4.51197 -2.109375,7.80469 8.876742,-7.4389 18.842857,-13.01468 25.144531,-15.58203 0.358288,-0.14597 0.716608,-0.2702 1.076172,-0.38282 0.127163,-0.04 0.255084,-0.0739 0.382812,-0.10937 0.244434,-0.0673 0.490917,-0.12517 0.738277,-0.17383 0.18582,-0.037 0.37116,-0.0762 0.5586,-0.10156 0.0124,-0.002 0.0247,-0.004 0.0371,-0.006 0.73602,-0.0961 1.48497,-0.10287 2.2539,0.0195 0.35449,0.0564 0.70274,0.15556 1.04492,0.27539 0.008,0.003 0.017,0.005 0.0254,0.008 0.10974,0.0389 0.21848,0.0784 0.32618,0.12305 0.65561,0.25403 1.27302,0.59769 1.79491,1.03516 0.34952,0.29297 0.64182,0.61267 0.90625,0.94141 0.0899,0.10866 0.18246,0.21653 0.26172,0.32813 0.0583,0.082 0.0979,0.16408 0.15235,0.24608 0.0736,0.11325 0.14496,0.22515 0.21093,0.33985 1.22835,2.03688 1.35847,4.04596 1.29297,5.96289 -0.015,0.79998 -0.0624,1.59048 -0.14258,2.36328 -0.0706,0.6812 -0.22156,1.17391 -0.32617,1.82422 0.0169,-0.003 0.0378,-0.006 0.0547,-0.01 3.02015,-0.5972 6.6594,-1.23537 10.62891,-1.63086 2.39169,-0.23859 4.89926,-0.38867 7.45703,-0.38867 9.06782,0 14.18186,6.22337 16.49023,10.08984 0.45293,-0.0904 1.08745,-0.16995 1.42969,-0.26172 0.19743,-0.0529 0.35317,-0.11895 0.49023,-0.18359 0.0147,-0.007 0.0367,-0.0127 0.0508,-0.0195 0.14499,-0.0711 0.2569,-0.13969 0.3418,-0.18944 0.53408,-0.6935 1.25812,-1.84983 1.91797,-3.07619 0.53665,-1.07462 0.89414,-1.97154 1.23437,-2.77733 -0.34977,-0.6012 -0.68589,-1.09025 -1.07226,-2.01172 -1.33228,-3.17737 -2.87894,-8.39815 -4.32617,-17.44336 -2.08696,-13.04348 -2.52389,-19.35075 -2.68164,-22.66601 l -3.22071,-0.53711 a 4.0004,4.0004 0 0 1 -3.30468,-4.4961 c 0,0 1.76672,-12.88268 2.09179,-18.08398 0.11872,-1.90328 0.2185,-3.84316 0.22071,-5.51758 -0.0311,-0.62032 -0.0875,-1.17014 -0.13282,-1.75781 z m 36.91993,55.54101 c -0.67906,0.64183 -1.41558,1.25161 -2.83399,3.03907 -1.7203,2.16789 -3.14989,4.88824 -3.48047,6.60937 -0.0472,0.24589 -0.0723,0.47131 -0.0723,0.67188 0,8.12152 -4.71487,13.25977 -8.77539,15.51562 -0.37111,0.20618 -0.69875,0.35974 -1,0.47852 -0.001,4.6e-4 -0.003,10e-4 -0.004,0.002 -0.29953,0.11785 -0.57319,0.20055 -0.83789,0.26367 -0.002,4.4e-4 -0.004,0.002 -0.006,0.002 -0.0638,0.0152 -0.12643,0.022 -0.18945,0.0352 -0.4602,0.0958 -0.9072,0.15067 -1.43164,0.23633 -0.0406,0.007 -0.0986,0.0112 -0.14063,0.0176 -0.62513,0.0991 -1.3037,0.18714 -2.02734,0.26953 -0.33622,0.47025 -0.68952,0.93144 -1.07422,1.37109 -0.75375,0.86143 -1.4497,1.3479 -2.13281,1.67188 1.04381,0.80949 1.78997,1.78727 2.26562,2.67187 l 3.13281,-0.34765 a 4.0004,4.0004 0 0 1 1.03711,0.0215 4.0004,4.0004 0 0 0 0.002,0 4.0004,4.0004 0 0 1 2.40625,1.31445 4.0004,4.0004 0 0 1 0.46484,0.65039 4.0004,4.0004 0 0 1 0.18164,0.35547 c 0,0 6.29622,13.32452 6.71094,24.10743 0.23757,6.17676 -3.09953,11.42916 -7.1875,15.75976 -0.49611,0.5255 -1.00785,1.0389 -1.5293,1.5429 -0.38813,0.3759 -0.78762,0.7405 -1.1875,1.1055 -0.0937,0.085 -0.18306,0.1751 -0.27734,0.2598 -0.005,0 -0.0105,0.01 -0.0156,0.014 -3.10319,2.7942 -6.48669,5.2498 -9.66601,7.4356 1.48442,0.3142 2.8773,0.6365 4.28906,0.916 3.89383,0.7708 7.70653,1.293 8.04102,1.293 2.17192,0 3.84679,0.6752 5.63085,1.459 1.78407,0.7839 3.5776,1.7706 5.25977,2.7753 2.85062,1.7027 5.05194,3.2513 6.27148,4.1368 0.11612,0.062 0.3821,0.1849 0.71485,0.1953 0.77043,0.024 1.93669,-0.028 3.16601,-0.1485 2.3189,-0.228 4.98565,-0.7507 6.0918,-1.0781 0.0161,-0.035 0.59309,-0.3073 1.16016,-0.707 0.77811,-0.5485 1.82396,-1.3464 3.00586,-2.2871 2.36378,-1.8814 5.29005,-4.345 8.11914,-6.7793 5.39636,-4.6435 9.97574,-8.7639 10.43164,-9.1738 0.60632,-1.3367 5.07802,-11.03505 12.72851,-18.68555 6.32192,-6.32192 8.86073,-10.2323 9.46485,-11.19141 l 0.29297,-12.56054 0.004,-0.20508 c -0.71652,-1.21442 -5.52411,-9.24249 -13.95117,-17.35742 -4.23293,-4.07616 -10.4487,-7.66338 -15.9707,-10.15039 -2.76101,-1.24352 -5.35186,-2.22396 -7.41211,-2.9004 -2.06025,-0.67643 -3.7978,-1.03853 -3.93946,-1.05273 l -15.73046,-1.57227 z m -72.2832,10.19727 c -8.017717,3.2995 -26.580552,15.18032 -34.541019,26.80664 -0.06897,0.10228 -0.139657,0.20451 -0.207031,0.30664 -0.174345,0.26069 -0.342615,0.521 -0.50586,0.78125 -0.286591,0.46125 -0.565428,0.92258 -0.816406,1.37891 -0.313918,0.57076 -0.612193,1.16453 -0.902344,1.76758 -0.05312,0.11041 -0.105866,0.22066 -0.158203,0.33203 -0.143886,0.30617 -0.277809,0.62424 -0.416015,0.9375 -0.242869,0.55063 -0.479388,1.10842 -0.705079,1.67773 -0.09992,0.25184 -0.198135,0.50459 -0.294921,0.75977 -0.255225,0.67374 -0.502322,1.35607 -0.736329,2.04882 -0.05127,0.15143 -0.103976,0.30091 -0.154297,0.45313 -1.523542,4.62029 -2.610583,9.57805 -3.503906,14.15234 -0.721518,3.69457 -1.327683,7.12867 -2.046875,10.05867 -0.360753,1.4697 -0.658525,2.8156 -1.148437,4.0742 0.424985,0.4937 0.82954,0.9597 1.33789,1.5547 1.530931,1.7918 3.23786,3.9391 4.851563,6.0234 2.98421,3.8545 5.238202,6.9566 5.623047,7.4844 0.233606,0.1697 0.742398,0.5595 1.666015,1.0215 1.11012,0.5552 2.201825,0.4388 1.580079,0.6719 2.005955,-0.7521 7.925781,-3.9844 7.925781,-3.9844 a 4.0004,4.0004 0 0 1 5.162109,1.0859 c 0,0 1.297174,1.7041 3.320313,3.2305 2.023138,1.5264 4.285021,2.4882 6.34375,1.998 1.697982,-0.4043 6.567161,-3.2152 10.800785,-6.3222 a 4.0004,4.0004 0 0 1 4.5957,-0.096 c 3.74529,2.514 8.22878,5.0945 10.42187,5.7871 3.8209,1.2066 7.23042,1.5749 9.67773,1.7461 1.28596,-3.9227 4.12484,-10.5279 10.14454,-15.4239 0.0553,-0.046 0.11011,-0.091 0.16601,-0.1367 0.18724,-0.1498 0.37499,-0.2989 0.56836,-0.4453 0.35361,-0.2699 0.71435,-0.5357 1.08984,-0.791 4.34117,-2.952 8.99836,-6.3745 12.33594,-9.9102 3.33759,-3.5357 5.12771,-6.94534 5.01172,-9.96095 -0.0906,-2.35602 -0.62596,-5.0631 -1.33203,-7.70703 -0.23528,-0.88112 -0.48895,-1.75393 -0.75195,-2.60547 -1.05201,-3.40615 -2.24483,-6.45273 -2.92774,-8.1543 l -3.27929,0.36524 a 4.0004,4.0004 0 0 1 -0.0176,0.002 4.0004,4.0004 0 0 1 -0.008,0 4.0004,4.0004 0 0 1 -0.2832,0.0156 4.0004,4.0004 0 0 1 -0.1543,0.004 4.0004,4.0004 0 0 1 -0.25,-0.0117 4.0004,4.0004 0 0 1 -0.1582,-0.0117 4.0004,4.0004 0 0 1 -0.21289,-0.0312 4.0004,4.0004 0 0 1 -0.19141,-0.0332 4.0004,4.0004 0 0 1 -0.17968,-0.0449 4.0004,4.0004 0 0 1 -0.21875,-0.0625 4.0004,4.0004 0 0 1 -0.15039,-0.0527 4.0004,4.0004 0 0 1 -0.22266,-0.0879 4.0004,4.0004 0 0 1 -0.14453,-0.0703 4.0004,4.0004 0 0 1 -0.21289,-0.10937 4.0004,4.0004 0 0 1 -0.15235,-0.0918 4.0004,4.0004 0 0 1 -0.16992,-0.10938 4.0004,4.0004 0 0 1 -0.17578,-0.13281 4.0004,4.0004 0 0 1 -0.14258,-0.11328 4.0004,4.0004 0 0 1 -0.16211,-0.15039 4.0004,4.0004 0 0 1 -0.125,-0.12305 4.0004,4.0004 0 0 1 -0.13281,-0.15039 4.0004,4.0004 0 0 1 -0.13476,-0.16015 4.0004,4.0004 0 0 1 -0.11524,-0.16016 4.0004,4.0004 0 0 1 -0.10937,-0.16016 4.0004,4.0004 0 0 1 -0.10743,-0.1875 4.0004,4.0004 0 0 1 -0.0879,-0.16015 4.0004,4.0004 0 0 1 -0.0937,-0.20899 4.0004,4.0004 0 0 1 -0.0645,-0.15039 4.0004,4.0004 0 0 1 -0.0293,-0.0723 c -0.35892,-1.00133 -0.62853,-1.55453 -0.92187,-1.96289 -0.95792,-0.0147 -2.31825,-0.0505 -3.59375,-0.0801 a 4.0004,4.0004 0 0 1 -3.83203,-4.77539 c 0.33556,-1.69206 0.43344,-2.30989 0.52148,-2.83399 -0.0246,-0.0484 -0.0434,-0.087 -0.0703,-0.13867 -0.12174,-0.23046 -0.29085,-0.51689 -0.45703,-0.79883 -0.0932,-0.15847 -0.18334,-0.31382 -0.29102,-0.48437 -0.24388,-0.3865 -0.51743,-0.79294 -0.83008,-1.21094 -1.73719,-2.29662 -4.5887,-4.86328 -8.67968,-4.86328 -9.42554,0 -22.39062,3.06836 -22.39062,3.06836 a 4.0004,4.0004 0 0 1 -4.761723,-5.08399 c 0,0 0.202623,-0.76407 0.351563,-1.31445 0.0971,-0.37467 0.19137,-0.72725 0.30469,-1.2168 0.002,-0.008 0.004,-0.0174 0.006,-0.0254 0.24585,-1.0651 0.49974,-2.33935 0.6582,-3.57617 0.01,-0.0781 0.0204,-0.15649 0.0293,-0.23437 0.0243,-0.20537 0.0368,-0.40233 0.0547,-0.60352 0.0655,-0.96276 -0.0155,-1.63345 -0.0859,-2.20703 z"
       id="path4151"
       inkscape:connector-curvature="0" />
  </g>
</svg>
