<?xml version="1.0" encoding="UTF-8" standalone="no"?>
<!-- Created with Inkscape (http://www.inkscape.org/) -->

<svg
   xmlns:dc="http://purl.org/dc/elements/1.1/"
   xmlns:cc="http://creativecommons.org/ns#"
   xmlns:rdf="http://www.w3.org/1999/02/22-rdf-syntax-ns#"
   xmlns:svg="http://www.w3.org/2000/svg"
   xmlns="http://www.w3.org/2000/svg"
   xmlns:sodipodi="http://sodipodi.sourceforge.net/DTD/sodipodi-0.dtd"
   xmlns:inkscape="http://www.inkscape.org/namespaces/inkscape"
   width="280"
   height="280"
   id="svg2"
   version="1.1"
   inkscape:version="0.48.4 r9939"
   sodipodi:docname="ui-exit.svg">
  <defs
     id="defs4" />
  <sodipodi:namedview
     id="base"
     pagecolor="#ffffff"
     bordercolor="#666666"
     borderopacity="1.0"
     inkscape:pageopacity="0.0"
     inkscape:pageshadow="2"
     inkscape:zoom="0.90509668"
     inkscape:cx="-75.102205"
     inkscape:cy="-29.837324"
     inkscape:document-units="px"
     inkscape:current-layer="layer1"
     showgrid="false"
     borderlayer="true"
     inkscape:showpageshadow="false"
     inkscape:window-width="1920"
     inkscape:window-height="1000"
     inkscape:window-x="0"
     inkscape:window-y="28"
     inkscape:window-maximized="1" />
  <metadata
     id="metadata7">
    <rdf:RDF>
      <cc:Work
         rdf:about="">
        <dc:format>image/svg+xml</dc:format>
        <dc:type
           rdf:resource="http://purl.org/dc/dcmitype/StillImage" />
        <dc:title></dc:title>
      </cc:Work>
    </rdf:RDF>
  </metadata>
  <g
     inkscape:label="Calque 1"
     inkscape:groupmode="layer"
     id="layer1"
     transform="translate(0,-772.36218)">
    <path
       style="fill:#000000;fill-opacity:1;stroke:none"
       d="m 140,796.36217 c -64.02831,0 -116,51.97162 -116,116.00002 0,64.0282 51.97169,116.00001 116,116.00001 64.02831,0 116,-51.97181 116,-116.00001 0,-64.0284 -51.97169,-116.00002 -116,-116.00002 z m -14.46882,6.92258 6.48602,48.70754 c -16.40791,2.1488 -30.74517,10.8539 -40.35053,23.3871 l -39.04086,-29.8731 c 17.33132,-22.62451 43.24937,-38.32861 72.90537,-42.22154 z m 81.32473,21.70323 c 22.6245,17.3313 38.32858,43.24931 42.22151,72.90541 l -48.70753,6.486 c -2.14877,-16.4079 -10.85395,-30.7452 -23.38709,-40.3506 l 29.87311,-39.04081 z M 140,857.48049 c 30.34877,0 54.88172,24.5329 54.88172,54.8817 0,30.3488 -24.53295,54.8817 -54.88172,54.8817 -30.34877,0 -54.88172,-24.5329 -54.88172,-54.8817 0,-30.3488 24.53295,-54.8817 54.88172,-54.8817 z m -60.36989,62.8645 c 2.14877,16.4079 10.85395,30.7452 23.38709,40.3505 l -29.87311,39.0409 c -22.6245,-17.3314 -38.32858,-43.2494 -42.22151,-72.9054 l 48.70753,-6.486 z m 108.70322,29 39.04086,29.8731 c -17.33132,22.62451 -43.24937,38.32851 -72.90537,42.22151 l -6.48602,-48.70751 c 16.40791,-2.1488 30.74517,-10.854 40.35053,-23.3871 z"
       id="path4912"
       inkscape:connector-curvature="0" />
  </g>
</svg>
