<?xml version="1.0" encoding="UTF-8" standalone="no"?>
<!-- Created with Inkscape (http://www.inkscape.org/) -->

<svg
   xmlns:dc="http://purl.org/dc/elements/1.1/"
   xmlns:cc="http://creativecommons.org/ns#"
   xmlns:rdf="http://www.w3.org/1999/02/22-rdf-syntax-ns#"
   xmlns:svg="http://www.w3.org/2000/svg"
   xmlns="http://www.w3.org/2000/svg"
   xmlns:sodipodi="http://sodipodi.sourceforge.net/DTD/sodipodi-0.dtd"
   xmlns:inkscape="http://www.inkscape.org/namespaces/inkscape"
   width="280"
   height="280"
   id="svg2"
   version="1.1"
   inkscape:version="0.48.4 r9939"
   sodipodi:docname="ui-help.svg">
  <defs
     id="defs4" />
  <sodipodi:namedview
     id="base"
     pagecolor="#ffffff"
     bordercolor="#666666"
     borderopacity="1.0"
     inkscape:pageopacity="0.0"
     inkscape:pageshadow="2"
     inkscape:zoom="0.58794643"
     inkscape:cx="381.46216"
     inkscape:cy="-204.45926"
     inkscape:document-units="px"
     inkscape:current-layer="layer1"
     showgrid="false"
     borderlayer="true"
     inkscape:showpageshadow="false"
     inkscape:window-width="1920"
     inkscape:window-height="1000"
     inkscape:window-x="0"
     inkscape:window-y="28"
     inkscape:window-maximized="1" />
  <metadata
     id="metadata7">
    <rdf:RDF>
      <cc:Work
         rdf:about="">
        <dc:format>image/svg+xml</dc:format>
        <dc:type
           rdf:resource="http://purl.org/dc/dcmitype/StillImage" />
        <dc:title></dc:title>
      </cc:Work>
    </rdf:RDF>
  </metadata>
  <g
     inkscape:label="Calque 1"
     inkscape:groupmode="layer"
     id="layer1"
     transform="translate(0,-772.36218)">
    <path
       style="fill:#000000;fill-opacity:1;stroke:none"
       d="m 121.85246,807.17559 c -12.51989,12.51988 -13.55956,33.49543 -4.99567,55.2937 0.0998,0.25408 0.15373,0.51429 0.2562,0.76857 0.0169,0.0603 0.0697,0.11 0.0854,0.17082 0.01,0.0242 -0.01,0.0612 0,0.0854 1.18816,4.79613 -1.41653,11.10378 -4.95297,15.11504 l -2.56187,2.56187 c -3.02779,3.02779 -3.02777,7.90287 2e-5,10.93066 l 13.27899,13.27898 -88.384519,88.38452 c -4.541676,4.54171 -4.541683,11.85435 7e-6,16.39605 4.197216,4.1972 10.729716,4.4999 15.285775,0.9394 l 5.379972,5.3798 7.173252,7.1733 c 6.055599,6.0556 15.805675,6.0556 21.86126,0 6.055592,-6.0555 6.055592,-15.8057 0,-21.8613 l -7.173231,-7.17327 6.063073,-6.0631 7.173252,7.17323 c 6.0556,6.05564 15.805749,6.05564 21.861319,0 6.05557,-6.05555 6.05556,-15.80569 -2e-5,-21.86129 l -12.467789,-12.46777 39.623609,-39.62361 13.27904,13.27904 c 3.02784,3.02784 7.90291,3.02784 10.93069,5e-5 l 2.3057,-2.30568 c 3.59721,-3.29699 9.21367,-5.83722 13.87677,-5.42263 22.91884,9.95895 45.36856,9.37 58.49606,-3.75745 8.9688,-8.96883 12.04881,-22.34116 9.94861,-37.18978 -0.53868,-21.1435 -6.94948,-53.79376 -10.1621,-64.21755 -0.0336,-0.13546 -0.092,-0.2504 -0.12813,-0.3843 -1.00727,-3.75511 -2.73928,-7.00911 -5.33728,-9.607 -2.69031,-2.6904 -6.0684,-4.4824 -9.99119,-5.4653 -11.517,-3.5359 -49.73413,-10.9006 -70.06718,-10.1194 -0.0557,10e-6 -0.1154,0 -0.17082,-10e-6 -12.13029,-0.4176 -22.88678,2.98959 -30.48623,10.58902 z m 18.70163,19.7264 c 8.99691,-8.99691 21.1313,-11.58031 27.96707,-6.27661 0.036,0.0218 0.0496,0.064 0.0854,0.085 16.2156,10.59867 24.35294,17.34358 30.6998,24.0389 0.11908,0.10494 0.22231,0.23646 0.34153,0.34153 0.10501,0.11915 0.23703,0.22289 0.34161,0.3416 6.70959,6.36043 13.48607,14.49951 24.12423,30.78519 5.30393,6.83595 2.72032,18.97017 -6.27659,27.96707 -7.03178,7.03179 -15.96329,10.12203 -22.80063,8.62496 -0.0968,-0.022 -0.20226,-0.0198 -0.29886,-0.0427 -0.59134,-0.14193 -1.15229,-0.29927 -1.70792,-0.51239 -0.0598,-0.018 -0.11068,-0.0667 -0.17081,-0.0854 -4.6335,-1.44422 -9.21525,-4.09151 -13.10829,-7.98458 -2.48401,-2.48398 -4.48132,-5.24353 -5.97766,-8.11254 -1.79249,-3.47605 -4.17589,-7.01141 -7.08785,-10.41829 -0.56089,-0.6562 -1.10778,-1.31915 -1.70792,-1.9641 -0.0672,-0.0728 -0.14595,-0.14029 -0.21348,-0.21346 -0.55076,-0.60465 -1.12352,-1.20018 -1.70794,-1.79336 -0.11546,-0.11405 -0.22571,-0.22854 -0.34153,-0.34154 -0.47526,-0.47525 -0.96867,-0.9128 -1.45177,-1.36635 -4.05128,-3.80353 -8.3802,-6.83587 -12.59585,-9.00922 -0.0343,-0.018 -0.0513,-0.0675 -0.0854,-0.0854 -0.14068,-0.0721 -0.28658,-0.10066 -0.42701,-0.1708 -2.68865,-1.46394 -5.26139,-3.3827 -7.60018,-5.7215 -3.89292,-3.89293 -6.54022,-8.47468 -7.9845,-13.10824 -0.0234,-0.0586 -0.0627,-0.11163 -0.0854,-0.17081 -0.005,-0.0164 -0.0373,-0.026 -0.0427,-0.0427 -0.23794,-0.62836 -0.36498,-1.29092 -0.51236,-1.9641 -1.49706,-6.83731 1.59316,-15.76885 8.62496,-22.80064 z"
       id="path5055"
       inkscape:connector-curvature="0" />
  </g>
</svg>
