<?xml version="1.0" encoding="UTF-8" standalone="no"?>
<!-- Created with Inkscape (http://www.inkscape.org/) -->

<svg
   xmlns:dc="http://purl.org/dc/elements/1.1/"
   xmlns:cc="http://creativecommons.org/ns#"
   xmlns:rdf="http://www.w3.org/1999/02/22-rdf-syntax-ns#"
   xmlns:svg="http://www.w3.org/2000/svg"
   xmlns="http://www.w3.org/2000/svg"
   xmlns:sodipodi="http://sodipodi.sourceforge.net/DTD/sodipodi-0.dtd"
   xmlns:inkscape="http://www.inkscape.org/namespaces/inkscape"
   width="280"
   height="280"
   id="svg2"
   version="1.1"
   inkscape:version="0.48.4 r9939"
   sodipodi:docname="ihm-pvp-chest.svg">
  <defs
     id="defs4" />
  <sodipodi:namedview
     id="base"
     pagecolor="#ffffff"
     bordercolor="#666666"
     borderopacity="1.0"
     inkscape:pageopacity="0.0"
     inkscape:pageshadow="2"
     inkscape:zoom="0.58794642"
     inkscape:cx="39.320292"
     inkscape:cy="248.99588"
     inkscape:document-units="px"
     inkscape:current-layer="layer1"
     showgrid="false"
     borderlayer="true"
     inkscape:showpageshadow="false"
     inkscape:window-width="1920"
     inkscape:window-height="1000"
     inkscape:window-x="0"
     inkscape:window-y="28"
     inkscape:window-maximized="1" />
  <metadata
     id="metadata7">
    <rdf:RDF>
      <cc:Work
         rdf:about="">
        <dc:format>image/svg+xml</dc:format>
        <dc:type
           rdf:resource="http://purl.org/dc/dcmitype/StillImage" />
        <dc:title></dc:title>
      </cc:Work>
    </rdf:RDF>
  </metadata>
  <g
     inkscape:label="Calque 1"
     inkscape:groupmode="layer"
     id="layer1"
     transform="translate(0,-772.36218)">
    <path
       style="fill:#000000;fill-opacity:1;stroke:none"
       d="m 37.9375,794.14343 0,236.43747 204.125,0 0,-236.43747 -204.125,0 z M 70,848.58093 c 0.33698,-0.034 0.65374,0 1,0 5.54,0 10,4.46 10,10 0,5.54 -4.46,10 -10,10 -5.54,0 -10,-4.46 -10,-10 0,-5.1938 3.9452,-9.4897 9,-10 z m 36.125,0 104.625,0 0,20 -104.625,0 0,-20 z M 70,903.14343 c 0.33698,-0.034 0.65374,0 1,0 5.54,0 10,4.46 10,10 0,5.54 -4.46,10 -10,10 -5.54,0 -10,-4.46 -10,-10 0,-5.1936 3.9452,-9.4896 9,-10 z m 36.125,0 104.625,0 0,20 -104.625,0 0,-20 z M 70,957.70593 c 0.33698,-0.034 0.65374,0 1,0 5.54,0 10,4.46 10,10 0,5.54 -4.46,10 -10,10 -5.54,0 -10,-4.46 -10,-10 0,-5.1936 3.9452,-9.4896 9,-10 z m 36.125,0 104.625,0 0,20 -104.625,0 0,-20 z"
       id="rect3858"
       inkscape:connector-curvature="0" />
  </g>
</svg>
