<?xml version="1.0" encoding="UTF-8" standalone="no"?>
<!-- Created with Inkscape (http://www.inkscape.org/) -->

<svg
   xmlns:dc="http://purl.org/dc/elements/1.1/"
   xmlns:cc="http://creativecommons.org/ns#"
   xmlns:rdf="http://www.w3.org/1999/02/22-rdf-syntax-ns#"
   xmlns:svg="http://www.w3.org/2000/svg"
   xmlns="http://www.w3.org/2000/svg"
   xmlns:sodipodi="http://sodipodi.sourceforge.net/DTD/sodipodi-0.dtd"
   xmlns:inkscape="http://www.inkscape.org/namespaces/inkscape"
   width="280"
   height="280"
   id="svg2"
   version="1.1"
   inkscape:version="0.48.4 r9939"
   sodipodi:docname="ui-mastery.svg">
  <defs
     id="defs4" />
  <sodipodi:namedview
     id="base"
     pagecolor="#ffffff"
     bordercolor="#666666"
     borderopacity="1.0"
     inkscape:pageopacity="0.0"
     inkscape:pageshadow="2"
     inkscape:zoom="2.8284271"
     inkscape:cx="-143.17159"
     inkscape:cy="251.53638"
     inkscape:document-units="px"
     inkscape:current-layer="layer1"
     showgrid="false"
     borderlayer="true"
     inkscape:showpageshadow="false"
     inkscape:window-width="3840"
     inkscape:window-height="1899"
     inkscape:window-x="0"
     inkscape:window-y="41"
     inkscape:window-maximized="1" />
  <metadata
     id="metadata7">
    <rdf:RDF>
      <cc:Work
         rdf:about="">
        <dc:format>image/svg+xml</dc:format>
        <dc:type
           rdf:resource="http://purl.org/dc/dcmitype/StillImage" />
        <dc:title />
      </cc:Work>
    </rdf:RDF>
  </metadata>
  <g
     inkscape:label="Calque 1"
     inkscape:groupmode="layer"
     id="layer1"
     transform="translate(0,-772.36218)">
    <path
       style="fill:#000000;fill-opacity:1;stroke:none"
       d="m 140.00002,772.36207 c -0.82281,4.81801 -1.78784,10.34722 -2.83479,16.20341 -0.0517,0.29215 -0.10887,0.51145 -0.16107,0.80533 -1.00699,5.62104 -2.08131,11.53698 -3.18914,17.42752 0.004,0.0201 -0.004,0.0453 0,0.0644 -3.22789,17.1839 -6.64927,33.86403 -9.11642,41.26553 -6.04469,18.13402 -13.33624,28.30584 -15.9457,29.47538 -2.60945,1.16954 -28.312372,-14.77982 -37.883108,-22.83939 8.059566,14.3561 10.770325,27.51696 10.727105,35.17717 -0.04141,7.34287 -0.708473,13.59985 -6.249424,16.62218 -5.540952,3.02235 -16.636293,7.06359 -29.733088,6.05615 -13.096796,-1.00745 -18.651634,-3.02807 -18.651634,-3.02807 0,0 12.352118,9.28896 19.907961,15.33364 7.555844,6.04467 16.379034,16.88563 18.393926,19.90796 -6.062577,13.2596 -9.584622,16.61886 -18.651634,26.1896 -9.067013,9.57075 -36.497929,30.21632 -36.497929,30.21632 0,0 24.935914,-6.02681 31.988035,-7.53797 7.052121,-1.51117 25.41625,-5.28014 30.957202,-3.76898 5.540952,1.51117 8.568799,6.03552 8.568799,9.30971 0,3.27424 1.760725,10.81354 -15.365854,47.83714 23.674978,-21.4083 27.71179,-28.1985 43.327193,-28.7023 8.95464,-0.2888 16.57984,7.9498 23.54809,20.2623 0.0234,0.041 0.041,0.087 0.0644,0.1289 0.56635,1.0022 1.15001,2.0398 1.70731,3.0925 0.31849,0.6019 0.61824,1.251 0.9342,1.8684 0.25493,0.4981 0.48759,0.9742 0.74092,1.4818 0.0169,0.034 0.0475,0.063 0.0644,0.097 0.5545,1.1129 1.12738,2.2593 1.67511,3.4147 0.004,0.01 -0.004,0.024 0,0.032 0.55977,1.1812 1.1211,2.3871 1.67509,3.6079 0.81686,-1.8011 1.6487,-3.5691 2.48044,-5.283 0.55514,-1.1443 1.11254,-2.251 1.67511,-3.3502 0.89492,-1.7483 1.78998,-3.4715 2.70593,-5.0898 6.96825,-12.3125 14.59345,-20.5511 23.54809,-20.2623 15.61541,0.5038 19.65223,7.294 43.3272,28.7023 -17.12658,-37.0236 -15.36585,-44.5629 -15.36585,-47.83714 0,-3.27419 3.02784,-7.79854 8.5688,-9.30971 5.54095,-1.51117 23.90507,2.25781 30.9572,3.76898 7.05211,1.51117 31.98803,7.53797 31.98803,7.53797 0,0 -27.43092,-20.64555 -36.49792,-30.21629 -9.06702,-9.57073 -12.58905,-12.93 -18.65164,-26.1896 2.01491,-3.02233 10.83809,-13.86328 18.39394,-19.90796 7.55584,-6.04467 19.90796,-15.33364 19.90796,-15.33364 0,0 -5.55484,2.02062 -18.65164,3.02807 -13.09679,1.00744 -24.19213,-3.0338 -29.73308,-6.05615 -5.54096,-3.02234 -6.20802,-9.27931 -6.24943,-16.62218 -0.0432,-7.66022 2.66754,-20.82107 10.72711,-35.17717 -9.57073,8.05957 -35.27366,24.00893 -37.88311,22.83939 -2.60947,-1.16954 -9.90102,-11.34135 -15.9457,-29.47538 -2.46566,-7.39697 -5.88888,-24.06151 -9.11643,-41.23332 0.004,-0.0201 -0.004,-0.0453 0,-0.0644 -1.16181,-6.17705 -2.28037,-12.31873 -3.31799,-18.13622 -0.16765,-0.93994 -0.32016,-1.68839 -0.48321,-2.6093 -0.8413,-4.77791 -1.70271,-9.73127 -2.38381,-13.72296 z m 0,65.16797 c 1.29952,5.66417 2.57806,10.63341 3.83341,14.39945 3.27101,9.81302 6.92883,17.58433 10.34054,23.38702 1.70586,2.90134 3.30728,5.32059 4.9931,7.3769 0.0347,0.0423 0.0626,0.0865 0.0966,0.12885 5.32368,1.59862 10.36057,3.84054 15.04372,6.63599 1.23276,-0.22365 2.10996,-0.48631 2.93143,-0.77312 1.80249,-0.62946 3.36503,-1.3654 5.08974,-2.22274 1.32715,-0.65968 2.95583,-1.70811 4.41325,-2.51265 -0.20839,2.08067 -0.42924,4.20123 -0.41877,6.05614 0.0161,2.8555 0.0512,5.88559 0.61206,9.18086 5.55206,5.42599 10.17287,11.75392 13.59411,18.8127 4.19836,2.07161 9.85679,4.15684 16.4289,5.4763 -4.38976,4.47154 -8.13537,8.92198 -10.69489,12.40221 0.63203,3.69379 0.96641,7.46905 0.96641,11.33916 0,2.91162 -0.21837,5.7855 -0.57985,8.60101 5.1761,9.8229 10.14388,15.27247 17.42752,22.96825 -0.16033,-0.0251 -0.22608,-0.0423 -0.38656,-0.0644 -3.30535,-0.50593 -6.61075,-0.89398 -9.79291,-1.09526 -3.18217,-0.20129 -5.89105,-0.51651 -10.14726,0.64427 -1.8513,0.50483 -3.59837,1.17589 -5.21859,1.96503 -3.23481,5.71202 -7.28388,10.90905 -11.98344,15.43028 -0.18372,1.14898 -0.25771,2.33664 -0.25771,3.5757 0,-0.45597 -0.19993,4.39551 0.96641,10.85591 -4.74297,-2.0645 -9.86267,-3.407 -15.26921,-3.7367 -6.35155,3.4565 -13.31174,5.8937 -20.68109,7.1514 -4.46536,3.6799 -8.05179,8.1374 -11.30695,13.1109 -3.25514,-4.9735 -6.84159,-9.431 -11.30695,-13.1109 -7.37122,-1.2545 -14.35951,-3.6971 -20.7133,-7.1514 -0.0104,6e-4 -0.0219,-8e-4 -0.0322,0 -5.38994,0.3345 -10.474975,1.6779 -15.204791,3.7367 1.16634,-6.4604 0.966406,-11.31188 0.966406,-10.85591 0,-1.23906 -0.106195,-2.42672 -0.289922,-3.5757 -4.699564,-4.52123 -8.748625,-9.71826 -11.983433,-15.43028 -1.620215,-0.78914 -3.335086,-1.4602 -5.186379,-1.96503 -4.256216,-1.16078 -6.965092,-0.84556 -10.147261,-0.64427 -3.182168,0.20128 -6.487555,0.58933 -9.792913,1.09526 -0.160477,0.0232 -0.226218,0.0393 -0.386563,0.0644 7.283652,-7.69578 12.219221,-13.14535 17.395306,-22.96825 -0.361472,-2.81551 -0.612057,-5.68939 -0.612057,-8.60101 0,-3.87202 0.398198,-7.64366 1.030833,-11.33916 -2.559667,-3.48133 -6.301904,-7.92735 -10.694892,-12.40221 6.571771,-1.31936 12.198399,-3.40479 16.396687,-5.4763 3.427764,-7.07227 8.060073,-13.41207 13.626323,-18.84492 0.555868,-3.28337 0.596039,-6.302 0.612057,-9.14864 0.01047,-1.85491 -0.210375,-3.97547 -0.418776,-6.05614 1.457432,0.80454 3.0861,1.85297 4.41325,2.51265 1.72471,0.85734 3.287265,1.59328 5.089745,2.22274 0.81707,0.2853 1.67713,0.55017 2.89922,0.77312 4.69282,-2.80069 9.74023,-5.06929 15.07593,-6.6682 0.0286,-0.0353 0.0676,-0.0614 0.0966,-0.0966 1.68583,-2.0563 3.28724,-4.47556 4.9931,-7.3769 3.41171,-5.80269 7.06953,-13.57399 10.34054,-23.38702 1.25678,-3.77026 2.53135,-8.72733 3.83341,-14.39945 z m 0,49.5122 c -33.245,0 -60.20708,26.92987 -60.20708,60.17487 0,33.24501 26.96208,60.20709 60.20708,60.20709 33.245,0 60.20709,-26.96208 60.20709,-60.20709 0,-33.245 -26.96209,-60.17487 -60.20709,-60.17487 z"
       id="path4188"
       inkscape:connector-curvature="0" />
  </g>
</svg>
