<?xml version="1.0" encoding="UTF-8" standalone="no"?>
<!-- Created with Inkscape (http://www.inkscape.org/) -->

<svg
   xmlns:dc="http://purl.org/dc/elements/1.1/"
   xmlns:cc="http://creativecommons.org/ns#"
   xmlns:rdf="http://www.w3.org/1999/02/22-rdf-syntax-ns#"
   xmlns:svg="http://www.w3.org/2000/svg"
   xmlns="http://www.w3.org/2000/svg"
   xmlns:sodipodi="http://sodipodi.sourceforge.net/DTD/sodipodi-0.dtd"
   xmlns:inkscape="http://www.inkscape.org/namespaces/inkscape"
   width="280"
   height="280"
   id="svg2"
   version="1.1"
   inkscape:version="0.48.4 r9939"
   sodipodi:docname="ihm-masteries.svg">
  <defs
     id="defs4" />
  <sodipodi:namedview
     id="base"
     pagecolor="#ffffff"
     bordercolor="#666666"
     borderopacity="1.0"
     inkscape:pageopacity="0.0"
     inkscape:pageshadow="2"
     inkscape:zoom="1"
     inkscape:cx="436.16077"
     inkscape:cy="50.409042"
     inkscape:document-units="px"
     inkscape:current-layer="layer1"
     showgrid="false"
     borderlayer="true"
     inkscape:showpageshadow="false"
     inkscape:window-width="1920"
     inkscape:window-height="1000"
     inkscape:window-x="0"
     inkscape:window-y="28"
     inkscape:window-maximized="1" />
  <metadata
     id="metadata7">
    <rdf:RDF>
      <cc:Work
         rdf:about="">
        <dc:format>image/svg+xml</dc:format>
        <dc:type
           rdf:resource="http://purl.org/dc/dcmitype/StillImage" />
        <dc:title></dc:title>
      </cc:Work>
    </rdf:RDF>
  </metadata>
  <g
     inkscape:label="Calque 1"
     inkscape:groupmode="layer"
     id="layer1"
     transform="translate(0,-772.36218)">
    <path
       style="fill:#000000;fill-opacity:1;stroke:none"
       d="m 140,776.56192 c -0.7982,4.6739 -1.73306,10.01706 -2.74869,15.69808 -0.0502,0.28342 -0.10207,0.50898 -0.15271,0.79407 -0.97687,5.45291 -2.00995,11.17478 -3.08464,16.88913 0.004,0.0195 -0.004,0.042 0,0.0606 -3.13135,16.66992 -6.46353,32.8592 -8.85689,40.03932 -5.86388,17.59162 -12.95289,27.45182 -15.4843,28.58638 -2.5314,1.13456 -27.456365,-14.32378 -36.740833,-22.14228 7.818499,13.9267 10.456412,26.68327 10.414485,34.11436 -0.04017,7.12324 -0.702443,13.19372 -6.077661,16.12565 -5.375218,2.93194 -16.125655,6.87168 -28.830716,5.89437 -12.705061,-0.97731 -18.080279,-2.96243 -18.080279,-2.96243 0,0 11.972077,9.04014 19.30192,14.90402 7.329843,5.86387 15.881326,16.36998 17.835951,19.30191 -5.881241,12.863 -9.284468,16.12566 -18.080279,25.41013 -8.795812,9.28446 -35.427574,29.3194 -35.427574,29.3194 0,0 24.188481,-5.86391 31.029668,-7.32987 6.841187,-1.46597 24.677138,-5.13089 30.052356,-3.66493 5.375218,1.46597 8.307155,5.86388 8.307155,9.04014 0,3.17626 1.710297,10.50613 -14.904014,46.42233 22.966842,-20.7679 26.876091,-27.3647 42.024431,-27.8534 8.6868,-0.2802 16.08486,7.7242 22.84468,19.6684 0.0227,0.04 0.0384,0.082 0.0611,0.1222 0.54941,0.9723 1.10859,1.9718 1.64922,2.993 0.30896,0.5839 0.60972,1.203 0.91623,1.8019 0.24731,0.4832 0.48723,0.943 0.73298,1.4354 0.0164,0.033 0.0447,0.059 0.0611,0.092 0.53791,1.0796 1.08733,2.2082 1.61868,3.329 0.004,0.01 -0.004,0.022 0,0.03 0.54304,1.1459 1.08124,2.2974 1.61867,3.4817 0.79243,-1.7472 1.60587,-3.4376 2.41274,-5.1003 0.53853,-1.11 1.07293,-2.2015 1.61867,-3.2679 0.86816,-1.696 1.73797,-3.3472 2.62653,-4.9171 6.75982,-11.9442 14.15788,-19.9486 22.84468,-19.6684 15.14834,0.4887 19.05759,7.0855 42.02443,27.8534 -16.61431,-35.9162 -14.90401,-43.24607 -14.90401,-46.42233 0,-3.17626 2.93193,-7.57417 8.30715,-9.04014 5.37522,-1.46597 23.21117,2.19895 30.05236,3.66492 6.84118,1.46597 31.02967,7.32988 31.02967,7.32988 0,0 -26.63177,-20.03494 -35.42758,-29.31941 -8.79581,-9.28446 -12.19904,-12.54712 -18.08028,-25.41012 1.95463,-2.93193 10.50611,-13.43804 17.83595,-19.30192 7.32985,-5.86387 19.30192,-14.90401 19.30192,-14.90401 0,0 -5.37521,1.98512 -18.08028,2.96243 -12.70506,0.97731 -23.45549,-2.96243 -28.83071,-5.89437 -5.37522,-2.93194 -6.03749,-9.00241 -6.07766,-16.12565 -0.0419,-7.4311 2.59598,-20.18766 10.41448,-34.11436 -9.28446,7.8185 -34.20943,23.27684 -36.74083,22.14228 -2.53141,-1.13456 -9.62042,-10.99476 -15.4843,-28.58639 -2.39191,-7.17572 -5.72588,-23.35053 -8.85689,-40.00872 0.004,-0.0195 -0.004,-0.042 0,-0.0606 -1.12706,-5.99229 -2.20022,-11.94813 -3.20681,-17.59162 -0.16263,-0.91183 -0.29994,-1.64159 -0.45811,-2.53495 -0.81614,-4.635 -1.6604,-9.41299 -2.32112,-13.28529 z m -17.16405,29.16662 C 53.610022,814.01106 0,871.77521 0,941.78879 c 0,21.59753 5.1132398,42.02444 14.201571,60.19631 -4.4524597,-14.00021 -6.8717281,-28.97665 -6.8717281,-44.55931 0,-70.24814 49.0221751,-128.39041 112.9406671,-138.44245 0.59502,-2.93438 1.18829,-5.91646 1.77137,-8.97906 -0.003,-0.0127 0.003,-0.0479 0,-0.0606 0.0634,-0.33316 0.12021,-0.61345 0.18325,-0.94672 l 0.24433,-1.16056 0,-0.0606 c 0.12953,-0.68881 0.2376,-1.3569 0.36649,-2.0463 z m 34.29756,0 c 0.12907,0.69457 0.23578,1.38192 0.36649,2.07679 l 0,0.0606 c 0.14346,0.76318 0.28225,1.40567 0.42757,2.16846 0.58006,3.04462 1.17792,5.99874 1.77138,8.91797 63.93509,10.03671 112.97121,68.21231 112.97121,138.47295 0,15.61677 -2.46167,30.62438 -6.93281,44.65099 C 274.85538,983.88057 280,963.42347 280,941.78832 280,871.76457 226.37401,813.99749 157.13351,805.72806 z M 140,839.78181 c 1.26065,5.49475 2.5082,10.30381 3.726,13.9572 3.17317,9.51951 6.70779,17.06289 10.01746,22.69202 1.65483,2.81456 3.22062,5.1518 4.85602,7.1466 0.0337,0.041 0.0586,0.0811 0.0916,0.12216 5.16444,1.5508 10.05553,3.73226 14.5986,6.4441 1.19589,-0.21696 2.04342,-0.48523 2.84032,-0.76347 1.74857,-0.61063 3.24398,-1.30618 4.9171,-2.13787 1.28745,-0.63995 2.89245,-1.6628 4.30628,-2.44328 -0.20216,2.01844 -0.43772,4.06444 -0.42757,5.86387 0.0156,2.77009 0.0667,5.72128 0.61082,8.91798 5.386,5.2637 9.87482,11.41588 13.19372,18.26352 4.07278,2.00965 9.53633,4.00356 15.91186,5.28355 -4.25846,4.3378 -7.87044,8.65703 -10.3534,12.03316 0.61312,3.58331 0.91623,7.271 0.91623,11.02535 0,2.82453 -0.19908,5.60635 -0.54974,8.33765 5.02127,9.52909 9.85393,14.79885 16.91972,22.26444 -0.15554,-0.0244 -0.24135,-0.0391 -0.39703,-0.0606 -3.20649,-0.4908 -6.41127,-0.87372 -9.49825,-1.06898 -3.08699,-0.19527 -5.7053,-0.48465 -9.83421,0.64141 -1.79592,0.48973 -3.49805,1.12801 -5.06981,1.89354 -3.13805,5.54117 -7.04659,10.57911 -11.60558,14.9651 -0.17823,1.11462 -0.27487,2.27967 -0.27487,3.48167 0,-0.44233 -0.18468,4.26937 0.94677,10.53657 -4.6011,-2.0028 -9.56756,-3.3144 -14.81239,-3.6343 -6.16157,3.3532 -12.91652,5.7128 -20.06545,6.9328 -4.3318,3.5699 -7.80643,7.9109 -10.96422,12.7356 -3.15778,-4.8247 -6.63242,-9.1657 -10.96422,-12.7356 -7.15074,-1.2169 -13.93225,-3.5818 -20.09599,-6.9328 -0.0101,6e-4 -0.0205,-7e-4 -0.0305,0 -5.22872,0.3245 -10.162964,1.6371 -14.751309,3.6343 1.131454,-6.2672 0.946771,-10.9789 0.946771,-10.53657 0,-1.202 -0.127178,-2.36705 -0.30541,-3.48167 -4.558996,-4.38599 -8.467532,-9.42393 -11.605585,-14.9651 -1.571753,-0.76553 -3.243348,-1.40381 -5.039267,-1.89354 -4.12891,-1.12606 -6.747218,-0.83668 -9.834206,-0.64141 -3.086987,0.19526 -6.291761,0.57818 -9.498254,1.06898 -0.155677,0.0225 -0.241485,0.0362 -0.397034,0.0606 7.065793,-7.46559 11.867915,-12.73535 16.88918,-22.26444 -0.35066,-2.7313 -0.580279,-5.51312 -0.580279,-8.33765 0,-3.7562 0.363599,-7.44038 0.977312,-11.02535 -2.483106,-3.3772 -6.091813,-7.69214 -10.353403,-12.03316 6.375204,-1.27989 11.808612,-3.274 15.881326,-5.28355 3.325237,-6.86073 7.8245,-13.02376 13.224259,-18.29411 0.539242,-3.18516 0.595281,-6.1259 0.61082,-8.88739 0.01016,-1.79943 -0.225407,-3.84543 -0.427574,-5.86387 1.413839,0.78048 3.01883,1.80333 4.306283,2.44328 1.67312,0.83169 3.16853,1.52724 4.9171,2.13787 0.79263,0.27677 1.62424,0.54719 2.80978,0.76347 4.55246,-2.71692 9.45303,-4.9236 14.62914,-6.47469 0.0277,-0.0342 0.0634,-0.0577 0.0916,-0.0919 1.6354,-1.99479 3.20119,-4.33203 4.85603,-7.14659 3.30966,-5.62913 6.84428,-13.17251 10.01745,-22.69203 1.21919,-3.65749 2.46288,-8.45473 3.726,-13.95719 z m 0,48.01048 c -32.25062,0 -58.394415,26.14379 -58.394415,58.39441 0,32.25063 26.143795,58.3944 58.394415,58.3944 32.25062,0 58.39442,-26.14377 58.39442,-58.3944 0,-32.25062 -26.1438,-58.39441 -58.39442,-58.39441 z"
       id="path4188"
       inkscape:connector-curvature="0" />
  </g>
</svg>
