<?xml version="1.0" encoding="UTF-8" standalone="no"?>
<!-- Created with Inkscape (http://www.inkscape.org/) -->

<svg
   xmlns:dc="http://purl.org/dc/elements/1.1/"
   xmlns:cc="http://creativecommons.org/ns#"
   xmlns:rdf="http://www.w3.org/1999/02/22-rdf-syntax-ns#"
   xmlns:svg="http://www.w3.org/2000/svg"
   xmlns="http://www.w3.org/2000/svg"
   xmlns:sodipodi="http://sodipodi.sourceforge.net/DTD/sodipodi-0.dtd"
   xmlns:inkscape="http://www.inkscape.org/namespaces/inkscape"
   width="280"
   height="280"
   id="svg2"
   version="1.1"
   inkscape:version="0.48.4 r9939"
   sodipodi:docname="ui-options.svg">
  <defs
     id="defs4" />
  <sodipodi:namedview
     id="base"
     pagecolor="#ffffff"
     bordercolor="#666666"
     borderopacity="1.0"
     inkscape:pageopacity="0.0"
     inkscape:pageshadow="2"
     inkscape:zoom="0.8314818"
     inkscape:cx="145.79753"
     inkscape:cy="441.73941"
     inkscape:document-units="px"
     inkscape:current-layer="layer1"
     showgrid="false"
     borderlayer="true"
     inkscape:showpageshadow="false"
     inkscape:window-width="1920"
     inkscape:window-height="1000"
     inkscape:window-x="0"
     inkscape:window-y="28"
     inkscape:window-maximized="1" />
  <metadata
     id="metadata7">
    <rdf:RDF>
      <cc:Work
         rdf:about="">
        <dc:format>image/svg+xml</dc:format>
        <dc:type
           rdf:resource="http://purl.org/dc/dcmitype/StillImage" />
        <dc:title />
      </cc:Work>
    </rdf:RDF>
  </metadata>
  <g
     inkscape:label="Calque 1"
     inkscape:groupmode="layer"
     id="layer1"
     transform="translate(0,-772.36218)">
    <path
       style="fill:#000000;fill-opacity:1;stroke:none"
       d="m 129.89512,808.03508 -7.54096,12.7137 c -3.03439,-0.38207 -6.1483,-0.62322 -9.28599,-0.62322 -3.30934,0 -6.52928,0.26123 -9.72224,0.68554 l -8.039542,-12.65137 c -3.583504,0.74238 -7.062622,1.76149 -10.470104,2.92913 l -0.186966,14.77033 c -5.905753,2.48183 -11.390314,5.67176 -16.390698,9.53527 l -13.274596,-6.91775 c -2.732215,2.43467 -5.236146,5.07529 -7.603289,7.79026 l 7.229357,12.90066 c -3.81725,5.02192 -6.974148,10.53665 -9.410629,16.45302 l -15.019613,0.68554 c -1.148834,3.4746 -1.987326,6.99764 -2.679848,10.53243 l 12.776019,7.54097 c -0.376345,3.01475 -0.62322,6.10708 -0.62322,9.22366 0,3.26715 0.272563,6.5053 0.685542,9.65992 l -12.713697,8.10186 c 0.74237,3.58349 1.761475,7.06262 2.929136,10.47011 l 14.832647,0.18696 c 2.47585,5.90436 5.681296,11.38884 9.535273,16.3907 l -6.917747,13.33692 c 2.434655,2.73222 5.012964,5.23615 7.727934,7.60329 l 12.900663,-7.22936 c 5.019755,3.82544 10.536391,6.969 16.45302,9.41063 l 0.685543,14.95729 c 3.474572,1.14884 6.997623,1.98733 10.532425,2.67985 l 7.54097,-12.7137 c 3.0337,0.38207 6.08597,0.62322 9.22366,0.62322 3.30934,0 6.59085,-0.26123 9.78456,-0.68554 l 8.03955,12.65137 c 3.58348,-0.74236 7.06261,-1.76147 10.4701,-2.92913 l 0.18696,-14.77033 c 5.88482,-2.47686 11.34114,-5.6875 16.32838,-9.53527 l 13.33692,6.91775 c 2.73219,-2.43465 5.23615,-5.07529 7.60329,-7.79026 l -7.22936,-12.90066 c 3.82314,-5.02302 6.97009,-10.5352 9.41063,-16.45302 l 14.95729,-0.62322 c 1.14882,-3.47456 2.04965,-6.99764 2.74217,-10.53243 l -12.77602,-7.54097 c 0.38207,-3.03439 0.62322,-6.1483 0.62322,-9.28598 0,-3.28823 -0.26654,-6.54806 -0.68554,-9.72224 l 12.65137,-8.03954 c -0.74237,-3.58347 -1.76147,-7.06262 -2.92913,-10.47011 l -14.77033,-0.18696 c -2.47982,-5.90486 -5.67593,-11.38846 -9.53527,-16.3907 l 6.91775,-13.2746 c -2.43465,-2.73218 -5.0753,-5.23619 -7.79026,-7.60329 l -12.83834,7.22936 c -5.0414,-3.84652 -10.57034,-7.02121 -16.51534,-9.47295 l -0.62322,-14.95729 c -3.47459,-1.14886 -6.99762,-1.98733 -10.53243,-2.67985 z m -16.82695,36.39608 c 27.15538,0 49.17209,22.01671 49.17209,49.17209 0,27.15538 -22.01671,49.17209 -49.17209,49.17209 -27.155378,0 -49.172093,-22.01671 -49.172093,-49.17209 0,-27.15538 22.016715,-49.17209 49.172093,-49.17209 z m 0,3.61467 c -25.166848,0 -45.557415,20.39058 -45.557415,45.55742 0,25.16684 20.390567,45.55742 45.557415,45.55742 25.16685,0 45.61974,-20.39058 45.61974,-45.55742 0,-25.16684 -20.45289,-45.55742 -45.61974,-45.55742 z m 0,8.97438 c 20.20101,0 36.58304,16.38204 36.58304,36.58304 0,20.201 -16.38203,36.58304 -36.58304,36.58304 -20.201007,0 -36.520718,-16.38204 -36.520718,-36.58304 0,-20.201 16.319711,-36.58304 36.520718,-36.58304 z m 108.0041,74.78645 -8.91205,11.90351 c -1.32365,-0.17268 -2.68045,-0.31161 -4.05093,-0.31161 -1.89127,0 -3.74995,0.17367 -5.54666,0.49858 l -9.84689,-11.21797 c -5.57855,2.0604 -10.63457,5.17985 -14.89497,9.16134 l 5.85828,13.64853 c -1.94359,2.5283 -3.52147,5.35056 -4.61184,8.41348 l -14.64568,2.86681 c -1.00492,5.86136 -0.88161,11.83214 0.43626,17.5125 l 14.77032,1.74501 c 1.24187,3.0125 2.90878,5.7809 4.98577,8.22651 l -4.7988,14.14715 c 4.57365,3.8009 9.81527,6.5899 15.39354,8.2888 l 8.84974,-11.8412 c 1.32291,0.1734 2.68045,0.3116 4.05093,0.3116 1.89127,0 3.74858,-0.1723 5.54666,-0.4986 l 9.84688,11.218 c 5.57855,-2.0604 10.63457,-5.1799 14.89497,-9.1613 l -5.85827,-13.64858 c 1.95911,-2.53414 3.57201,-5.3435 4.67415,-8.41347 l 14.64568,-2.92913 c 1.00493,-5.86139 0.8193,-11.76981 -0.49857,-17.45018 l -14.64568,-1.80733 c -1.24817,-3.01769 -2.95817,-5.78049 -5.04809,-8.22652 l 4.73648,-14.08477 c -4.57364,-3.80097 -9.75298,-6.65229 -15.33123,-8.35117 z m -12.96298,29.54065 c 7.12001,0 12.90066,5.78066 12.90066,12.90067 0,7.12001 -5.78065,12.90066 -12.90066,12.90066 -7.12001,0 -12.83834,-5.78065 -12.83834,-12.90066 0,-7.12001 5.71833,-12.90067 12.83834,-12.90067 z"
       id="path3064"
       inkscape:connector-curvature="0" />
  </g>
</svg>
