<?xml version="1.0" encoding="UTF-8" standalone="no"?>
<!-- Created with Inkscape (http://www.inkscape.org/) -->

<svg
   xmlns:dc="http://purl.org/dc/elements/1.1/"
   xmlns:cc="http://creativecommons.org/ns#"
   xmlns:rdf="http://www.w3.org/1999/02/22-rdf-syntax-ns#"
   xmlns:svg="http://www.w3.org/2000/svg"
   xmlns="http://www.w3.org/2000/svg"
   xmlns:sodipodi="http://sodipodi.sourceforge.net/DTD/sodipodi-0.dtd"
   xmlns:inkscape="http://www.inkscape.org/namespaces/inkscape"
   width="280"
   height="90"
   id="svg2"
   version="1.1"
   inkscape:version="0.48.4 r9939"
   sodipodi:docname="ui-pip-under-5.svg">
  <defs
     id="defs4">
    <linearGradient
       id="linearGradient3838">
      <stop
         style="stop-color:#e7ebc4;stop-opacity:1;"
         offset="0"
         id="stop3840" />
      <stop
         id="stop3848"
         offset="0.46329388"
         style="stop-color:#e3e6c1;stop-opacity:1" />
      <stop
         id="stop3846"
         offset="0.52525848"
         style="stop-color:#afaf8f;stop-opacity:1" />
      <stop
         style="stop-color:#afac91;stop-opacity:1"
         offset="1"
         id="stop3842" />
    </linearGradient>
  </defs>
  <sodipodi:namedview
     id="base"
     pagecolor="#ffffff"
     bordercolor="#666666"
     borderopacity="1.0"
     inkscape:pageopacity="0.0"
     inkscape:pageshadow="2"
     inkscape:zoom="2.3517857"
     inkscape:cx="-94.601259"
     inkscape:cy="35.183535"
     inkscape:document-units="px"
     inkscape:current-layer="layer1"
     showgrid="false"
     borderlayer="true"
     inkscape:showpageshadow="false"
     inkscape:window-width="3840"
     inkscape:window-height="1899"
     inkscape:window-x="0"
     inkscape:window-y="41"
     inkscape:window-maximized="1" />
  <metadata
     id="metadata7">
    <rdf:RDF>
      <cc:Work
         rdf:about="">
        <dc:format>image/svg+xml</dc:format>
        <dc:type
           rdf:resource="http://purl.org/dc/dcmitype/StillImage" />
        <dc:title></dc:title>
      </cc:Work>
    </rdf:RDF>
  </metadata>
  <g
     inkscape:label="Calque 1"
     inkscape:groupmode="layer"
     id="layer1"
     transform="translate(0,-962.36218)">
    <path
       style="fill:#000000;fill-opacity:1;stroke:none"
       d="M 63.4375 0.65625 L 36.71875 27.375 L 67.25 44.96875 L 36.71875 62.625 L 63.4375 89.34375 L 84.5 89.34375 L 195.5 89.34375 L 216.5625 89.34375 L 243.28125 62.625 L 212.75 44.96875 L 243.28125 27.375 L 216.5625 0.65625 L 195.5 0.65625 L 84.5 0.65625 L 63.4375 0.65625 z M 141.25 14.15625 C 143.93985 14.15632 146.40978 14.52182 148.625 15.28125 C 150.84015 16.00916 152.73018 17.01509 154.3125 18.3125 C 155.89474 19.61002 157.11428 21.13455 157.96875 22.875 C 158.82314 24.61556 159.24995 26.50599 159.25 28.53125 L 148.9375 28.53125 C 148.93746 27.64523 148.81563 26.73067 148.5625 25.78125 C 148.34095 24.80029 147.94498 23.9158 147.34375 23.15625 C 146.74245 22.36517 145.94974 21.72513 144.96875 21.21875 C 143.98771 20.71247 142.73732 20.46881 141.25 20.46875 C 139.54112 20.46881 138.01699 20.74333 136.65625 21.28125 C 135.29547 21.81928 134.10638 22.82482 133.09375 24.34375 C 132.08107 25.86279 131.19658 27.99728 130.46875 30.71875 C 129.77253 33.44031 129.19342 36.97666 128.71875 41.34375 C 129.35164 40.58425 130.11391 39.85255 131 39.15625 C 131.88606 38.46015 132.92285 37.85013 134.09375 37.34375 C 135.26462 36.80581 136.57554 36.379 138.03125 36.0625 C 139.48693 35.74609 141.07197 35.59379 142.8125 35.59375 C 144.14158 35.59379 145.54428 35.74648 147 36.03125 C 148.45567 36.3161 149.8888 36.77337 151.28125 37.40625 C 152.67361 38.03916 153.98453 38.8624 155.21875 39.875 C 156.48453 40.8561 157.58223 42.07555 158.5 43.53125 C 159.44932 44.95535 160.18073 46.6013 160.71875 48.5 C 161.28832 50.3987 161.56245 52.56365 161.5625 54.96875 C 161.56245 58.57635 160.95288 61.686 159.71875 64.3125 C 158.48453 66.9391 156.86903 69.1037 154.84375 70.8125 C 152.8184 72.5214 150.47069 73.8022 147.8125 74.625 C 145.18588 75.4478 142.47228 75.84375 139.6875 75.84375 C 136.90266 75.84375 134.21952 75.4169 131.65625 74.5625 C 129.09294 73.6764 126.83701 72.12145 124.875 69.90625 C 122.91297 67.69105 121.35838 64.70375 120.1875 60.90625 C 119.01661 57.07715 118.43749 52.19895 118.4375 46.28125 C 118.43749 40.39515 118.98575 35.42607 120.125 31.34375 C 121.26423 27.22987 122.85007 23.9067 124.84375 21.375 C 126.86906 18.84341 129.27768 16.98305 132.0625 15.84375 C 134.87894 14.70458 137.92719 14.15632 141.25 14.15625 z M 25.03125 30.5625 L 0 45.03125 L 25.03125 59.4375 L 50.03125 45.03125 L 25.03125 30.5625 z M 254.96875 30.5625 L 229.96875 45.03125 L 254.96875 59.4375 L 280 45.03125 L 254.96875 30.5625 z M 140.125 41.90625 C 138.60599 41.90625 137.17324 42.2721 135.8125 43 C 134.45172 43.6962 133.23178 44.67215 132.1875 45.90625 C 131.17482 47.10885 130.3825 48.5419 129.78125 50.1875 C 129.21162 51.8331 128.90624 53.5704 128.90625 55.4375 C 128.90624 57.3046 129.21162 59.0728 129.78125 60.75 C 130.3825 62.3956 131.17482 63.85965 132.1875 65.09375 C 133.23178 66.32795 134.45172 67.30335 135.8125 68.03125 C 137.17324 68.72745 138.60599 69.0625 140.125 69.0625 C 141.67561 69.0625 143.13921 68.72745 144.5 68.03125 C 145.86073 67.30335 147.01895 66.32795 148 65.09375 C 149.01262 63.85965 149.80534 62.3956 150.375 60.75 C 150.97623 59.0728 151.28121 57.3046 151.28125 55.4375 C 151.28121 53.5704 150.97623 51.8331 150.375 50.1875 C 149.80534 48.5419 149.01262 47.10885 148 45.90625 C 147.01895 44.67215 145.86073 43.6962 144.5 43 C 143.13921 42.2721 141.67561 41.90625 140.125 41.90625 z "
       transform="translate(0,962.36218)"
       id="path3054" />
  </g>
</svg>
