<?xml version="1.0" encoding="UTF-8" standalone="no"?>
<!-- Created with Inkscape (http://www.inkscape.org/) -->

<svg
   xmlns:dc="http://purl.org/dc/elements/1.1/"
   xmlns:cc="http://creativecommons.org/ns#"
   xmlns:rdf="http://www.w3.org/1999/02/22-rdf-syntax-ns#"
   xmlns:svg="http://www.w3.org/2000/svg"
   xmlns="http://www.w3.org/2000/svg"
   xmlns:sodipodi="http://sodipodi.sourceforge.net/DTD/sodipodi-0.dtd"
   xmlns:inkscape="http://www.inkscape.org/namespaces/inkscape"
   width="280"
   height="280"
   id="svg2"
   version="1.1"
   inkscape:version="0.48.4 r9939"
   sodipodi:docname="ihm-pvp-chest.svg">
  <defs
     id="defs4" />
  <sodipodi:namedview
     id="base"
     pagecolor="#ffffff"
     bordercolor="#666666"
     borderopacity="1.0"
     inkscape:pageopacity="0.0"
     inkscape:pageshadow="2"
     inkscape:zoom="0.8314818"
     inkscape:cx="-52.482855"
     inkscape:cy="82.065038"
     inkscape:document-units="px"
     inkscape:current-layer="layer1"
     showgrid="false"
     borderlayer="true"
     inkscape:showpageshadow="false"
     inkscape:window-width="1920"
     inkscape:window-height="1000"
     inkscape:window-x="0"
     inkscape:window-y="28"
     inkscape:window-maximized="1" />
  <metadata
     id="metadata7">
    <rdf:RDF>
      <cc:Work
         rdf:about="">
        <dc:format>image/svg+xml</dc:format>
        <dc:type
           rdf:resource="http://purl.org/dc/dcmitype/StillImage" />
        <dc:title />
      </cc:Work>
    </rdf:RDF>
  </metadata>
  <g
     inkscape:label="Calque 1"
     inkscape:groupmode="layer"
     id="layer1"
     transform="translate(0,-772.36218)">
    <path
       style="fill:#000000;fill-opacity:1;stroke:none"
       d="m 44.416985,791.3156 c -9.07779,0.82525 -30.97645,15.2469 -38.8163399,41.24235 -3.95045,13.09889 -6.33263,25.26882 -5.3979,45.2453 l 34.0855999,9.09758 c 0.6147,-16.87327 4.67867,-45.84885 18.68036,-69.80876 6.13572,-10.49953 13.14822,-18.09247 20.19663,-23.47175 -15.82075,-1.60242 -26.73402,-2.48784 -28.74835,-2.30472 z m 60.225975,5.70115 c -2.13987,0.20479 -4.6204,0.63629 -7.460015,1.45561 -9.04043,2.60844 -20.58732,8.94959 -30.81047,26.44363 -12.78443,21.87694 -16.59067,52.68924 -16.6789,66.10907 l 81.393015,21.77354 c 0.91385,-16.98562 4.1824,-41.47595 15.22328,-64.59281 6.83178,-14.30401 15.72912,-29.43689 29.41551,-40.09 0.76784,-0.59767 1.56548,-1.13408 2.36537,-1.69821 -24.68079,-3.50098 -50.78479,-6.80332 -73.44779,-9.40083 z m 103.2272,13.88897 c -8.97578,1.00072 -16.16412,4.48154 -22.562,9.46148 -10.54199,8.20558 -18.61575,21.16822 -24.98802,34.51015 -10.3743,21.72119 -13.17515,46.2556 -13.82832,62.04549 l 44.82074,12.0088 c 0.91184,-5.1826 2.35833,-12.81595 4.48814,-21.77354 3.70428,-15.57952 9.16924,-34.03307 16.5576,-45.91245 12.09771,-19.45129 22.66,-30.96586 32.56933,-36.75422 3.67503,-2.14671 7.23993,-3.50895 10.73514,-4.12423 -10.4736,-2.98082 -27.70221,-6.2295 -47.79261,-9.46148 z m 51.55295,12.91856 c -3.94277,0.13017 -8.05798,1.37627 -12.55466,4.00293 -8.99336,5.25333 -19.31245,16.31086 -31.23502,35.48056 -6.87682,11.05687 -12.40838,29.34995 -16.07239,44.76009 -1.7908,7.53173 -3.14238,14.32841 -4.06359,19.34752 l 78.96699,-45.6092 3.45708,-13.34311 c 0,0 9.2693,-30.39073 -11.34165,-43.60773 -2.33541,-0.70132 -4.72143,-1.11147 -7.15676,-1.03106 z M 1.5370551,894.17889 c 1.97432,17.98033 5.98649,41.38115 12.7366199,73.75104 l 19.89337,7.94522 0,-72.96258 -32.6299899,-8.73368 z m 267.5294849,8.73368 -71.74957,41.42431 -2.78993,1.57691 -1.57691,-0.42455 -9.88604,85.21396 64.35021,-43.78965 21.65224,-84.00098 z m -219.372965,4.18488 0,74.9034 81.029115,32.26605 0,-85.39591 -81.029115,-21.77354 z m 43.72903,25.35192 c 5.64021,0 10.189295,4.61342 10.189295,10.31059 0,4.77723 -3.21768,8.77339 -7.581315,9.94669 l 4.912695,29.0516 -22.319405,-9.70408 c 0,0 4.45833,-11.10835 8.49108,-21.22769 -2.38484,-1.88835 -3.94229,-4.76833 -3.94229,-8.06652 0,-5.69717 4.60974,-10.31059 10.24994,-10.31059 z m 52.826615,0.54586 0,87.45807 32.56934,12.9792 10.31058,-88.91367 -42.87992,-11.5236 z"
       id="path4739"
       inkscape:connector-curvature="0" />
  </g>
</svg>
