<?xml version="1.0" encoding="UTF-8" standalone="no"?>
<!-- Created with Inkscape (http://www.inkscape.org/) -->

<svg
   xmlns:dc="http://purl.org/dc/elements/1.1/"
   xmlns:cc="http://creativecommons.org/ns#"
   xmlns:rdf="http://www.w3.org/1999/02/22-rdf-syntax-ns#"
   xmlns:svg="http://www.w3.org/2000/svg"
   xmlns="http://www.w3.org/2000/svg"
   xmlns:sodipodi="http://sodipodi.sourceforge.net/DTD/sodipodi-0.dtd"
   xmlns:inkscape="http://www.inkscape.org/namespaces/inkscape"
   width="280"
   height="90"
   id="svg2"
   version="1.1"
   inkscape:version="0.48.4 r9939"
   sodipodi:docname="ui-pip-under-7.svg">
  <defs
     id="defs4">
    <linearGradient
       id="linearGradient3838">
      <stop
         style="stop-color:#e7ebc4;stop-opacity:1;"
         offset="0"
         id="stop3840" />
      <stop
         id="stop3848"
         offset="0.46329388"
         style="stop-color:#e3e6c1;stop-opacity:1" />
      <stop
         id="stop3846"
         offset="0.52525848"
         style="stop-color:#afaf8f;stop-opacity:1" />
      <stop
         style="stop-color:#afac91;stop-opacity:1"
         offset="1"
         id="stop3842" />
    </linearGradient>
  </defs>
  <sodipodi:namedview
     id="base"
     pagecolor="#ffffff"
     bordercolor="#666666"
     borderopacity="1.0"
     inkscape:pageopacity="0.0"
     inkscape:pageshadow="2"
     inkscape:zoom="2.3517857"
     inkscape:cx="-94.601259"
     inkscape:cy="35.183535"
     inkscape:document-units="px"
     inkscape:current-layer="layer1"
     showgrid="false"
     borderlayer="true"
     inkscape:showpageshadow="false"
     inkscape:window-width="3840"
     inkscape:window-height="1899"
     inkscape:window-x="0"
     inkscape:window-y="41"
     inkscape:window-maximized="1" />
  <metadata
     id="metadata7">
    <rdf:RDF>
      <cc:Work
         rdf:about="">
        <dc:format>image/svg+xml</dc:format>
        <dc:type
           rdf:resource="http://purl.org/dc/dcmitype/StillImage" />
        <dc:title></dc:title>
      </cc:Work>
    </rdf:RDF>
  </metadata>
  <g
     inkscape:label="Calque 1"
     inkscape:groupmode="layer"
     id="layer1"
     transform="translate(0,-962.36218)">
    <path
       style="fill:#000000;fill-opacity:1;stroke:none"
       d="M 63.4375 0.65625 L 36.71875 27.375 L 67.25 44.96875 L 36.71875 62.625 L 63.4375 89.34375 L 84.5 89.34375 L 195.5 89.34375 L 216.5625 89.34375 L 243.28125 62.625 L 212.75 44.96875 L 243.28125 27.375 L 216.5625 0.65625 L 195.5 0.65625 L 84.5 0.65625 L 63.4375 0.65625 z M 139.96875 14.15625 C 143.22821 14.15632 146.09411 14.55267 148.5625 15.34375 C 151.06246 16.13495 153.1665 17.2014 154.84375 18.59375 C 156.52092 19.95456 157.77053 21.57047 158.625 23.4375 C 159.47938 25.27299 159.90621 27.25479 159.90625 29.375 C 159.90621 30.86238 159.72346 32.35685 159.34375 33.8125 C 158.99561 35.26824 158.35518 36.60919 157.4375 37.875 C 156.51974 39.1092 155.30059 40.2065 153.75 41.1875 C 152.19933 42.1369 150.21713 42.8687 147.84375 43.375 C 150.1222 43.9447 152.10439 44.7374 153.75 45.75 C 155.39553 46.7627 156.73651 47.9518 157.8125 49.3125 C 158.8884 50.6733 159.68113 52.16735 160.1875 53.78125 C 160.72543 55.36355 160.99995 57.04085 161 58.78125 C 160.99995 61.21805 160.48176 63.4739 159.4375 65.5625 C 158.4248 67.6511 156.99205 69.44975 155.125 70.96875 C 153.28952 72.48775 151.0945 73.6764 148.53125 74.5625 C 145.99957 75.4169 143.1942 75.84375 140.15625 75.84375 C 136.89673 75.84375 133.97031 75.4169 131.34375 74.5625 C 128.74879 73.6764 126.52293 72.48775 124.6875 70.96875 C 122.85204 69.41815 121.44976 67.6195 120.46875 65.5625 C 119.48774 63.4739 119 61.21805 119 58.78125 C 119 57.07245 119.27452 55.42605 119.8125 53.84375 C 120.35046 52.22985 121.17365 50.73535 122.28125 49.40625 C 123.42048 48.04545 124.82238 46.85635 126.53125 45.84375 C 128.2401 44.83105 130.28321 44.03845 132.625 43.46875 C 130.47309 42.99415 128.61351 42.3236 127.03125 41.4375 C 125.44896 40.5198 124.1068 39.4526 123.0625 38.25 C 122.04984 37.01588 121.31882 35.67488 120.8125 34.1875 C 120.30617 32.7002 120.03124 31.0839 120.03125 29.375 C 120.03124 27.25479 120.48852 25.27299 121.40625 23.4375 C 122.35561 21.57047 123.69738 19.95456 125.40625 18.59375 C 127.14675 17.2014 129.21953 16.13495 131.65625 15.34375 C 134.12459 14.55267 136.8991 14.15632 139.96875 14.15625 z M 140.0625 20.5625 C 138.67007 20.56256 137.39001 20.77577 136.1875 21.21875 C 134.98495 21.63019 133.9177 22.27063 133 23.125 C 132.08226 23.94784 131.35046 24.95377 130.8125 26.15625 C 130.30616 27.35883 130.06248 28.73106 130.0625 30.25 C 130.06248 31.73738 130.30616 33.07876 130.8125 34.28125 C 131.35046 35.45217 132.08226 36.45811 133 37.3125 C 133.9177 38.13535 134.98495 38.77575 136.1875 39.21875 C 137.39001 39.66185 138.67007 39.8751 140.0625 39.875 C 141.45488 39.8751 142.76619 39.66185 143.96875 39.21875 C 145.20289 38.77575 146.26974 38.13535 147.1875 37.3125 C 148.10518 36.45811 148.83699 35.45217 149.375 34.28125 C 149.91294 33.07876 150.18747 31.73738 150.1875 30.25 C 150.18747 28.60447 149.91294 27.17133 149.375 25.96875 C 148.83699 24.73463 148.10518 23.72869 147.1875 22.9375 C 146.26974 22.14641 145.20289 21.53605 143.96875 21.15625 C 142.76619 20.74491 141.45488 20.56256 140.0625 20.5625 z M 25.03125 30.5625 L 0 45.03125 L 25.03125 59.4375 L 50.03125 45.03125 L 25.03125 30.5625 z M 254.96875 30.5625 L 229.96875 45.03125 L 254.96875 59.4375 L 280 45.03125 L 254.96875 30.5625 z M 140.15625 47.375 C 138.5423 47.3751 137.07949 47.61905 135.71875 48.09375 C 134.35797 48.53675 133.16889 49.2073 132.15625 50.125 C 131.14357 51.0111 130.35085 52.1084 129.78125 53.4375 C 129.21162 54.7666 128.90624 56.322 128.90625 58.0625 C 128.90624 59.9296 129.24207 61.5451 129.875 62.9375 C 130.50789 64.3299 131.33068 65.48845 132.375 66.40625 C 133.41928 67.29225 134.60876 67.96325 135.90625 68.40625 C 137.23534 68.84935 138.57632 69.0625 139.96875 69.0625 C 141.39277 69.0625 142.76461 68.84935 144.09375 68.40625 C 145.45448 67.93155 146.67441 67.2302 147.71875 66.3125 C 148.79466 65.3948 149.6483 64.23615 150.28125 62.84375 C 150.94577 61.45135 151.28122 59.83585 151.28125 57.96875 C 151.28122 56.22825 150.97584 54.67285 150.40625 53.34375 C 149.8366 52.01465 149.04387 50.91735 148.03125 50.03125 C 147.0502 49.14515 145.89198 48.47435 144.53125 48.03125 C 143.17046 47.58825 141.70685 47.3751 140.15625 47.375 z "
       transform="translate(0,962.36218)"
       id="path3054" />
  </g>
</svg>
