<?xml version="1.0" encoding="UTF-8" standalone="no"?>
<!-- Created with Inkscape (http://www.inkscape.org/) -->

<svg
   xmlns:dc="http://purl.org/dc/elements/1.1/"
   xmlns:cc="http://creativecommons.org/ns#"
   xmlns:rdf="http://www.w3.org/1999/02/22-rdf-syntax-ns#"
   xmlns:svg="http://www.w3.org/2000/svg"
   xmlns="http://www.w3.org/2000/svg"
   xmlns:sodipodi="http://sodipodi.sourceforge.net/DTD/sodipodi-0.dtd"
   xmlns:inkscape="http://www.inkscape.org/namespaces/inkscape"
   width="280"
   height="90"
   id="svg2"
   version="1.1"
   inkscape:version="0.48.4 r9939"
   sodipodi:docname="ui-pip-under-8.svg">
  <defs
     id="defs4">
    <linearGradient
       id="linearGradient3838">
      <stop
         style="stop-color:#e7ebc4;stop-opacity:1;"
         offset="0"
         id="stop3840" />
      <stop
         id="stop3848"
         offset="0.46329388"
         style="stop-color:#e3e6c1;stop-opacity:1" />
      <stop
         id="stop3846"
         offset="0.52525848"
         style="stop-color:#afaf8f;stop-opacity:1" />
      <stop
         style="stop-color:#afac91;stop-opacity:1"
         offset="1"
         id="stop3842" />
    </linearGradient>
  </defs>
  <sodipodi:namedview
     id="base"
     pagecolor="#ffffff"
     bordercolor="#666666"
     borderopacity="1.0"
     inkscape:pageopacity="0.0"
     inkscape:pageshadow="2"
     inkscape:zoom="2.3517857"
     inkscape:cx="-94.601259"
     inkscape:cy="35.183535"
     inkscape:document-units="px"
     inkscape:current-layer="layer1"
     showgrid="false"
     borderlayer="true"
     inkscape:showpageshadow="false"
     inkscape:window-width="3840"
     inkscape:window-height="1899"
     inkscape:window-x="0"
     inkscape:window-y="41"
     inkscape:window-maximized="1" />
  <metadata
     id="metadata7">
    <rdf:RDF>
      <cc:Work
         rdf:about="">
        <dc:format>image/svg+xml</dc:format>
        <dc:type
           rdf:resource="http://purl.org/dc/dcmitype/StillImage" />
        <dc:title></dc:title>
      </cc:Work>
    </rdf:RDF>
  </metadata>
  <g
     inkscape:label="Calque 1"
     inkscape:groupmode="layer"
     id="layer1"
     transform="translate(0,-962.36218)">
    <path
       style="fill:#000000;fill-opacity:1;stroke:none"
       d="M 63.4375 0.65625 L 36.71875 27.375 L 67.25 44.96875 L 36.71875 62.625 L 63.4375 89.34375 L 84.5 89.34375 L 195.5 89.34375 L 216.5625 89.34375 L 243.28125 62.625 L 212.75 44.96875 L 243.28125 27.375 L 216.5625 0.65625 L 195.5 0.65625 L 84.5 0.65625 L 63.4375 0.65625 z M 140.3125 14.15625 C 142.17956 14.15632 144.00907 14.33907 145.78125 14.71875 C 147.58501 15.06692 149.26183 15.67648 150.8125 16.5625 C 152.39474 17.41699 153.82749 18.57561 155.125 20.03125 C 156.45407 21.487 157.58184 23.31611 158.53125 25.53125 C 159.51222 27.71484 160.27487 30.30621 160.78125 33.3125 C 161.31917 36.28722 161.56245 39.73225 161.5625 43.65625 C 161.56245 49.57405 161.01419 54.57405 159.875 58.65625 C 158.76736 62.73855 157.18152 66.0617 155.15625 68.625 C 153.16254 71.1566 150.75392 73.01705 147.9375 74.15625 C 145.15266 75.29545 142.1044 75.84375 138.75 75.84375 C 136.06011 75.84375 133.59017 75.4778 131.375 74.75 C 129.19144 73.9905 127.33227 72.985 125.75 71.6875 C 124.19936 70.3584 122.97942 68.803 122.125 67.0625 C 121.27056 65.322 120.84374 63.46245 120.84375 61.46875 L 131.15625 61.46875 C 131.15624 62.35485 131.24722 63.26945 131.46875 64.21875 C 131.7219 65.13645 132.14911 65.99015 132.71875 66.78125 C 133.32 67.54075 134.11271 68.1812 135.09375 68.6875 C 136.07474 69.1939 137.29428 69.4375 138.75 69.4375 C 140.45883 69.4375 141.98296 69.1939 143.34375 68.6875 C 144.70448 68.1496 145.89356 67.11275 146.90625 65.59375 C 147.95052 64.07475 148.83462 61.97115 149.5625 59.28125 C 150.29032 56.55975 150.90028 53.02335 151.375 48.65625 C 150.74205 49.41575 149.94894 50.14765 149.03125 50.84375 C 148.14514 51.50835 147.1396 52.11835 145.96875 52.65625 C 144.79783 53.16265 143.45606 53.5586 141.96875 53.875 C 140.51303 54.1915 138.92799 54.34375 137.1875 54.34375 C 135.82672 54.34375 134.39318 54.2223 132.9375 53.9375 C 131.51343 53.6527 130.11114 53.1954 128.71875 52.5625 C 127.32633 51.9296 126.01581 51.106 124.75 50.125 C 123.51581 49.1124 122.41811 47.89285 121.46875 46.46875 C 120.55102 45.04475 119.78836 43.3987 119.21875 41.5 C 118.68077 39.6013 118.43749 37.43635 118.4375 35.03125 C 118.43749 31.39205 119.04707 28.25162 120.28125 25.625 C 121.51542 22.99847 123.13093 20.83392 125.15625 19.125 C 127.18155 17.4162 129.52965 16.1662 132.15625 15.375 C 134.78281 14.55228 137.49602 14.15632 140.3125 14.15625 z M 139.9375 20.9375 C 138.41849 20.93755 136.95449 21.30346 135.59375 22.03125 C 134.23297 22.72751 133.07514 23.67212 132.0625 24.90625 C 131.08147 26.10883 130.28875 27.54198 129.6875 29.1875 C 129.11787 30.83312 128.81249 32.6017 128.8125 34.46875 C 128.81249 36.33588 129.11787 38.07325 129.6875 39.71875 C 130.28875 41.36435 131.08147 42.8283 132.0625 44.0625 C 133.07514 45.2967 134.23297 46.2722 135.59375 47 C 136.95449 47.6962 138.41849 48.03125 139.9375 48.03125 C 141.4881 48.03125 142.92046 47.6962 144.28125 47 C 145.64198 46.2722 146.83145 45.2967 147.8125 44.0625 C 148.82512 42.8283 149.61785 41.36435 150.1875 39.71875 C 150.78873 38.07325 151.09372 36.33588 151.09375 34.46875 C 151.09372 32.6017 150.78873 30.83312 150.1875 29.1875 C 149.61785 27.54198 148.82512 26.10883 147.8125 24.90625 C 146.83145 23.67212 145.64198 22.72751 144.28125 22.03125 C 142.92046 21.30346 141.4881 20.93755 139.9375 20.9375 z M 25.03125 30.5625 L 0 45.03125 L 25.03125 59.4375 L 50.03125 45.03125 L 25.03125 30.5625 z M 254.96875 30.5625 L 229.96875 45.03125 L 254.96875 59.4375 L 280 45.03125 L 254.96875 30.5625 z "
       transform="translate(0,962.36218)"
       id="path3054" />
  </g>
</svg>
