<?xml version="1.0" encoding="UTF-8" standalone="no"?>
<!-- Created with Inkscape (http://www.inkscape.org/) -->

<svg
   xmlns:dc="http://purl.org/dc/elements/1.1/"
   xmlns:cc="http://creativecommons.org/ns#"
   xmlns:rdf="http://www.w3.org/1999/02/22-rdf-syntax-ns#"
   xmlns:svg="http://www.w3.org/2000/svg"
   xmlns="http://www.w3.org/2000/svg"
   xmlns:sodipodi="http://sodipodi.sourceforge.net/DTD/sodipodi-0.dtd"
   xmlns:inkscape="http://www.inkscape.org/namespaces/inkscape"
   width="280"
   height="280"
   id="svg2"
   version="1.1"
   inkscape:version="0.48.4 r9939"
   sodipodi:docname="ihm-swords.svg">
  <defs
     id="defs4" />
  <sodipodi:namedview
     id="base"
     pagecolor="#ffffff"
     bordercolor="#666666"
     borderopacity="1.0"
     inkscape:pageopacity="0.0"
     inkscape:pageshadow="2"
     inkscape:zoom="1.6629636"
     inkscape:cx="315.23428"
     inkscape:cy="87.672555"
     inkscape:document-units="px"
     inkscape:current-layer="layer1"
     showgrid="false"
     borderlayer="true"
     inkscape:showpageshadow="false"
     inkscape:window-width="1920"
     inkscape:window-height="1000"
     inkscape:window-x="0"
     inkscape:window-y="28"
     inkscape:window-maximized="1" />
  <metadata
     id="metadata7">
    <rdf:RDF>
      <cc:Work
         rdf:about="">
        <dc:format>image/svg+xml</dc:format>
        <dc:type
           rdf:resource="http://purl.org/dc/dcmitype/StillImage" />
        <dc:title></dc:title>
      </cc:Work>
    </rdf:RDF>
  </metadata>
  <g
     inkscape:label="Calque 1"
     inkscape:groupmode="layer"
     id="layer1"
     transform="translate(0,-772.36218)">
    <path
       style="fill:#000000;fill-opacity:1;stroke:none"
       d="m 276.66299,782.81512 c -1.91913,0.20657 -4.29485,1.54491 -5.80887,2.84264 -3.46061,2.96623 -27.19047,6.92121 -43.99912,6.92121 -16.80865,0 -32.13419,-2.96623 -47.45972,-2.96623 -15.32554,0 -19.77489,18.53895 -19.77489,18.53895 l -39.24078,0 c 0,0 -4.44935,-18.53895 -19.77489,-18.53895 -15.32553,0 -30.65107,2.96623 -47.45972,2.96623 -16.80865,0 -40.53851,-3.95498 -43.99912,-6.92121 -1.7303,-1.48312 -4.54203,-2.93532 -6.55043,-2.78084 -2.00837,0.15444 -3.21342,1.91569 -1.60671,6.983 3.21342,10.13463 4.94373,20.51645 16.80866,20.51645 11.86493,0 49.93158,-0.24719 53.88655,-1.73031 3.95498,-1.48311 15.07835,-3.70779 17.05584,2.22468 1.97749,5.93246 -13.59523,11.86493 -19.28051,13.84242 C 63.774,826.69065 0,825.7019 0,825.7019 l 0,27.43765 c 0,0 41.77444,5.93247 46.71816,8.40433 4.94372,2.47186 7.66277,5.43809 7.66277,19.03332 l -51.90907,0 0,17.30303 c 0,0 13.59523,8.65151 27.19047,10.38181 13.59523,1.7303 19.52769,3.21342 21.258,4.44935 1.7303,1.23593 4.20216,2.71905 4.20216,16.06709 l -37.81947,0 0,16.31428 c 0,0 4.44935,9.64026 17.05584,9.64026 12.60649,0 18.53896,-0.74156 26.94328,9.88744 3.21832,4.07021 13.53977,15.79426 29.10616,31.45443 0.01,0.01 -0.01,0.0519 0,0.0618 1.63983,1.6504 3.49614,3.45685 5.2527,5.19091 1.0652,1.0505 2.04427,2.0723 3.15162,3.1516 1.21924,1.1894 2.43831,2.3623 3.70779,3.5842 2.47807,2.384 5.06105,4.7968 7.72457,7.292 1.85075,1.7341 3.68513,3.4715 5.62348,5.2527 0.43386,0.3988 0.85964,0.7732 1.29773,1.1741 0.6372,0.583 1.26941,1.1429 1.91569,1.7303 1.76299,1.6033 3.48621,3.1872 5.3145,4.8202 0.46085,0.4114 0.89454,0.8226 1.35952,1.2359 2.056,1.8281 4.16896,3.6416 6.30325,5.4999 2.60441,2.2663 5.25124,4.5547 7.97175,6.8594 2.71406,-2.3008 5.37013,-4.5936 7.97175,-6.8594 2.11773,-1.8434 4.20113,-3.6868 6.24145,-5.4999 0.46275,-0.4116 0.96262,-0.8261 1.42132,-1.2359 1.76071,-1.5721 3.49107,-3.1523 5.1909,-4.6966 0.0216,-0.02 0.0404,-0.042 0.0618,-0.062 0.98469,-0.8947 1.94063,-1.7728 2.90444,-2.6572 1.18447,-1.0881 2.36992,-2.142 3.5224,-3.2134 0.86982,-0.8076 1.62061,-1.5509 2.47186,-2.3483 2.23705,-2.0971 4.38221,-4.16 6.48863,-6.1797 2.12001,-2.0316 4.13574,-3.99 6.11786,-5.9324 2.44581,-2.3969 4.94053,-4.80158 7.16839,-7.04482 l 0,-0.0618 c 15.55807,-15.66716 25.88799,-27.44621 29.10616,-31.51622 8.40432,-10.629 14.33679,-9.88744 26.94328,-9.88744 12.60649,0 17.05584,-9.64026 17.05584,-9.64026 l 0,-16.31428 -37.81947,0 c 0,-13.34804 2.47186,-14.83116 4.20216,-16.06709 1.73031,-1.23593 7.66277,-2.71905 21.258,-4.44935 13.59524,-1.7303 27.19047,-10.38181 27.19047,-10.38181 l 0,-17.30303 -51.90907,0 c 0,-13.59523 2.71905,-16.56146 7.66277,-19.03332 C 238.22556,859.07202 280,853.13955 280,853.13955 l 0,-27.43765 c 0,0 -63.774,0.98875 -69.45928,-0.98874 -5.68528,-1.97749 -21.258,-7.90996 -19.28051,-13.84242 1.97749,-5.93247 13.10086,-3.70779 17.05584,-2.22468 3.95497,1.48312 42.02162,1.73031 53.88655,1.73031 11.86493,0 13.59524,-10.38182 16.80866,-20.51645 1.60671,-5.06731 0.46348,-6.8903 -1.54492,-7.0448 -0.25102,-0.0198 -0.52919,-0.0295 -0.80335,0 z m -176.30545,41.40367 0.0618,0 14.52218,0 50.17877,0 14.58398,0 32.87574,18.97152 0,91.76783 c 0,0 -1.82401,2.67795 -4.75833,6.73582 -0.5604,0.77499 -1.02048,1.40435 -1.6685,2.28647 -2.16039,2.95278 -4.62543,6.24419 -7.66277,10.13463 -0.80108,1.02613 -1.55925,1.9598 -2.41006,3.02802 -1.85853,2.33457 -3.80008,4.75875 -5.87067,7.2302 -0.12557,0.14989 -0.2446,0.28228 -0.37078,0.43257 -2.18309,2.59724 -4.49588,5.21614 -6.85942,7.84816 -0.74062,0.82477 -1.46961,1.65091 -2.22467,2.47186 -0.13744,0.1495 -0.29474,0.28327 -0.43258,0.43258 -1.51568,1.64044 -3.01011,3.28002 -4.57294,4.88192 -3.77625,3.87068 -12.3873,11.28388 -23.60627,20.57823 -0.67378,0.5589 -1.47006,1.2196 -2.16287,1.7921 -3.16646,2.614 -6.39265,5.3088 -9.88745,8.1571 -4.29864,-3.5027 -8.38433,-6.8146 -12.17391,-9.9492 -3.74158,-3.09868 -7.12699,-5.978 -10.19642,-8.58971 -3.07767,-2.61904 -5.78479,-4.96725 -8.03355,-6.983 -2.26104,-2.02078 -4.05213,-3.71159 -5.3145,-5.00552 -1.23789,-1.26884 -2.44265,-2.54376 -3.64599,-3.83138 -0.26789,-0.28712 -0.53689,-0.57696 -0.80336,-0.86516 -0.94684,-1.02232 -1.85937,-2.06449 -2.78084,-3.08982 -2.37423,-2.64183 -4.68473,-5.26016 -6.85941,-7.84816 -1.70021,-2.02336 -3.32802,-3.99994 -4.88193,-5.93246 -0.4746,-0.59024 -0.89988,-1.15163 -1.35952,-1.73031 -0.9187,-1.15348 -1.73489,-2.17122 -2.59546,-3.27521 -1.008,-1.29692 -1.9289,-2.50307 -2.84264,-3.70779 -0.0273,-0.0358 -0.0345,-0.0878 -0.0618,-0.12359 -0.56566,-0.74633 -1.01813,-1.33459 -1.54491,-2.03929 -1.80856,-2.40449 -3.36288,-4.52022 -4.69654,-6.36504 -2.91604,-4.0337 -4.75833,-6.67402 -4.75833,-6.67402 l 0,-91.76783 32.81395,-18.97152 z m 39.67336,16.80865 -11.30876,7.78636 0,0.0618 -34.42066,23.79166 0,51.4147 40.90929,55.49327 0,0.0618 4.82013,6.48864 4.82013,-6.55043 40.90929,-55.49327 0,-51.4147 -34.42066,-23.79166 -11.30876,-7.84815 z"
       id="path4617"
       inkscape:connector-curvature="0" />
  </g>
</svg>
