<?xml version="1.0" encoding="UTF-8" standalone="no"?>
<!-- Created with Inkscape (http://www.inkscape.org/) -->

<svg
   xmlns:dc="http://purl.org/dc/elements/1.1/"
   xmlns:cc="http://creativecommons.org/ns#"
   xmlns:rdf="http://www.w3.org/1999/02/22-rdf-syntax-ns#"
   xmlns:svg="http://www.w3.org/2000/svg"
   xmlns="http://www.w3.org/2000/svg"
   xmlns:sodipodi="http://sodipodi.sourceforge.net/DTD/sodipodi-0.dtd"
   xmlns:inkscape="http://www.inkscape.org/namespaces/inkscape"
   width="280"
   height="280"
   id="svg2"
   version="1.1"
   inkscape:version="0.48.4 r9939"
   sodipodi:docname="ihm-traits.svg">
  <defs
     id="defs4" />
  <sodipodi:namedview
     id="base"
     pagecolor="#ffffff"
     bordercolor="#666666"
     borderopacity="1.0"
     inkscape:pageopacity="0.0"
     inkscape:pageshadow="2"
     inkscape:zoom="1.4142136"
     inkscape:cx="229.86573"
     inkscape:cy="189.43362"
     inkscape:document-units="px"
     inkscape:current-layer="layer1"
     showgrid="false"
     borderlayer="true"
     inkscape:showpageshadow="false"
     inkscape:window-width="1920"
     inkscape:window-height="1000"
     inkscape:window-x="0"
     inkscape:window-y="28"
     inkscape:window-maximized="1" />
  <metadata
     id="metadata7">
    <rdf:RDF>
      <cc:Work
         rdf:about="">
        <dc:format>image/svg+xml</dc:format>
        <dc:type
           rdf:resource="http://purl.org/dc/dcmitype/StillImage" />
        <dc:title></dc:title>
      </cc:Work>
    </rdf:RDF>
  </metadata>
  <g
     inkscape:label="Calque 1"
     inkscape:groupmode="layer"
     id="layer1"
     transform="translate(0,-772.36218)">
    <path
       style="fill:#000000;fill-opacity:1;stroke:none"
       d="m 18.3125,802.1095 -17.25,17.25 51.625,51.625 -31.1875,31.125 17.25,17.25 79.5,-79.5 -17.25,-17.25 -31.125,31.125 -51.5625,-51.625 z m 243.375,0 -51.625,51.625 -31.125,-31.125 -17.25,17.1875 79.5,79.5 17.25,-17.1875 -31.125,-31.125 51.625,-51.625 -17.25,-17.25 z m -92.5,65.9375 c 0,0 -9.5,21.3125 -21.75,34.0625 -12.25,12.75 -74.18748,78.25 -77.4375,83.5 -3.25,5.25 -11.8125,15.25 -11.5625,37 21.75,0.25 31.75002,-8.3125 37,-11.5625 5.25002,-3.25 70.75,-65.18748 83.5,-77.4375 12.75,-12.24998 34,-21.8125 34,-21.8125 l 0,-15.6875 -1.9375,-2 -24.0625,-24 -2.0625,-2.0625 -15.6875,0 z M 95,868.172 l -1.9375,1.9375 -24.0625,24 -2,2.0625 0,15.75 c 0,0 21.3125,9.43752 34.0625,21.6875 0.79694,0.7657 3.25608,3.05976 4.4375,4.1875 12.1732,-12.98025 22.74712,-24.22653 30.3125,-32.1875 -0.8341,-0.87291 -2.70774,-2.87055 -3.3125,-3.5 -12.25,-12.74998 -21.75,-33.9375 -21.75,-33.9375 l -15.75,0 z m 79.25,78.125 c -7.74872,7.37148 -17.89034,16.99867 -29.875,28.25 19.09242,17.88381 37.5012,34.8371 40.1875,36.5 5.24998,3.25 15.25,11.8125 37,11.5625 0.25,-21.75 -8.3125,-31.75002 -11.5625,-37 -1.63668,-2.64385 -18.1787,-20.54529 -35.75,-39.3125 z"
       id="rect4471"
       inkscape:connector-curvature="0" />
  </g>
</svg>
