<?xml version="1.0" encoding="UTF-8" standalone="no"?>
<!-- Created with Inkscape (http://www.inkscape.org/) -->

<svg
   xmlns:dc="http://purl.org/dc/elements/1.1/"
   xmlns:cc="http://creativecommons.org/ns#"
   xmlns:rdf="http://www.w3.org/1999/02/22-rdf-syntax-ns#"
   xmlns:svg="http://www.w3.org/2000/svg"
   xmlns="http://www.w3.org/2000/svg"
   xmlns:sodipodi="http://sodipodi.sourceforge.net/DTD/sodipodi-0.dtd"
   xmlns:inkscape="http://www.inkscape.org/namespaces/inkscape"
   width="280"
   height="280"
   id="svg2"
   version="1.1"
   inkscape:version="0.48.4 r9939"
   sodipodi:docname="ui-graphics.svg">
  <defs
     id="defs4" />
  <sodipodi:namedview
     id="base"
     pagecolor="#ffffff"
     bordercolor="#666666"
     borderopacity="1.0"
     inkscape:pageopacity="0.0"
     inkscape:pageshadow="2"
     inkscape:zoom="0.8314818"
     inkscape:cx="543.05551"
     inkscape:cy="187.06525"
     inkscape:document-units="px"
     inkscape:current-layer="layer1"
     showgrid="false"
     borderlayer="true"
     inkscape:showpageshadow="false"
     inkscape:window-width="1920"
     inkscape:window-height="1000"
     inkscape:window-x="0"
     inkscape:window-y="28"
     inkscape:window-maximized="1" />
  <metadata
     id="metadata7">
    <rdf:RDF>
      <cc:Work
         rdf:about="">
        <dc:format>image/svg+xml</dc:format>
        <dc:type
           rdf:resource="http://purl.org/dc/dcmitype/StillImage" />
        <dc:title></dc:title>
      </cc:Work>
    </rdf:RDF>
  </metadata>
  <g
     inkscape:label="Calque 1"
     inkscape:groupmode="layer"
     id="layer1"
     transform="translate(0,-772.36218)">
    <path
       style="fill:#000000;fill-opacity:1;stroke:none"
       d="m 225.94965,810.6608 -18.67794,8.40507 c 21.401,24.72873 34.36741,56.98186 34.36741,92.33128 0,36.23293 -13.61909,69.20857 -35.98616,94.13685 l 18.80246,8.5296 C 247.57976,986.20488 261.5,950.3987 261.5,911.39715 261.5,873.27417 248.14488,838.2647 225.94965,810.6608 z m -43.89316,19.86087 -19.61183,8.84089 c 20.22232,17.36959 32.99769,43.12903 32.99769,71.97233 0,29.81438 -13.63725,56.35241 -35.05227,73.7156 l 19.73636,8.90315 c 21.71632,-20.8895 35.30131,-50.19671 35.30131,-82.61875 0,-31.47421 -12.75836,-60.05985 -33.37126,-80.81322 z m -62.07302,20.42122 c -20.020079,8.30525 -35.796749,20.01904 -45.013829,33.74481 l -28.20369,0 c -15.673136,0 -28.265952,12.46706 -28.265952,27.95465 0,15.48759 12.592816,27.95465 28.265952,27.95465 l 28.14143,0 c 9.21359,13.75308 25.01637,25.50422 45.076089,33.80707 l 0,-123.46118 z m 33.309,21.41737 -18.67794,8.46733 c 7.26415,8.07501 11.70484,18.7855 11.70484,30.56956 0,12.68709 -5.10327,24.12487 -13.38586,32.3751 l 18.80246,8.52959 c 9.00733,-11.2348 14.44428,-25.45101 14.44428,-40.90469 0,-14.59366 -4.7663,-28.11632 -12.88778,-39.03689 z"
       id="rect4162"
       inkscape:connector-curvature="0" />
  </g>
</svg>
