<?xml version="1.0" encoding="UTF-8" standalone="no"?>
<!-- Created with Inkscape (http://www.inkscape.org/) -->

<svg
   xmlns:dc="http://purl.org/dc/elements/1.1/"
   xmlns:cc="http://creativecommons.org/ns#"
   xmlns:rdf="http://www.w3.org/1999/02/22-rdf-syntax-ns#"
   xmlns:svg="http://www.w3.org/2000/svg"
   xmlns="http://www.w3.org/2000/svg"
   xmlns:sodipodi="http://sodipodi.sourceforge.net/DTD/sodipodi-0.dtd"
   xmlns:inkscape="http://www.inkscape.org/namespaces/inkscape"
   width="280"
   height="280"
   id="svg2"
   version="1.1"
   inkscape:version="0.48.4 r9939"
   sodipodi:docname="ui-wallet.svg">
  <defs
     id="defs4" />
  <sodipodi:namedview
     id="base"
     pagecolor="#ffffff"
     bordercolor="#666666"
     borderopacity="1.0"
     inkscape:pageopacity="0.0"
     inkscape:pageshadow="2"
     inkscape:zoom="0.58794642"
     inkscape:cx="1195.1166"
     inkscape:cy="401.8842"
     inkscape:document-units="px"
     inkscape:current-layer="layer1"
     showgrid="false"
     borderlayer="true"
     inkscape:showpageshadow="false"
     inkscape:window-width="2560"
     inkscape:window-height="1028"
     inkscape:window-x="1920"
     inkscape:window-y="0"
     inkscape:window-maximized="1"
     showguides="true"
     inkscape:guide-bbox="true" />
  <metadata
     id="metadata7">
    <rdf:RDF>
      <cc:Work
         rdf:about="">
        <dc:format>image/svg+xml</dc:format>
        <dc:type
           rdf:resource="http://purl.org/dc/dcmitype/StillImage" />
        <dc:title />
      </cc:Work>
    </rdf:RDF>
  </metadata>
  <g
     inkscape:label="Calque 1"
     inkscape:groupmode="layer"
     id="layer1"
     transform="translate(0,-772.36218)">
    <path
       style="font-size:medium;font-style:normal;font-variant:normal;font-weight:normal;font-stretch:normal;text-indent:0;text-align:start;text-decoration:none;line-height:normal;letter-spacing:normal;word-spacing:normal;text-transform:none;direction:ltr;block-progression:tb;writing-mode:lr-tb;text-anchor:start;baseline-shift:baseline;color:#000000;fill:#000000;fill-opacity:1;stroke:none;stroke-width:4;marker:none;visibility:visible;display:inline;overflow:visible;enable-background:accumulate;font-family:Sans;-inkscape-font-specification:Sans"
       d="M 147.875 25.625 C 118.35453 25.625 91.636999 30.49811 71.84375 38.6875 C 61.949502 42.7812 53.762384 47.69342 47.71875 53.625 C 41.658338 59.57305 37.625 66.92553 37.625 75.15625 L 37.625 86.59375 C 31.995782 89.62878 27.038505 92.97214 23.09375 96.84375 C 17.033339 102.79181 13 110.14429 13 118.375 L 13 161.59375 C 13 169.82448 17.033337 177.17696 23.09375 183.125 C 28.985638 188.90765 36.950112 193.80433 46.53125 197.84375 L 46.53125 204.8125 C 46.53125 213.04324 50.564599 220.39571 56.625 226.34375 C 62.662983 232.2698 70.848459 237.24695 80.75 241.34375 C 100.5469 249.53465 127.23259 254.34375 156.75 254.34375 C 186.2674 254.34375 212.92319 249.53405 232.71875 241.34375 C 242.6203 237.24695 250.80577 232.2698 256.84375 226.34375 C 262.89928 220.40049 267 213.05368 267 204.8125 L 267 161.59375 C 267 153.3526 262.89928 145.97452 256.84375 140.03125 C 255.28257 138.49902 253.43424 137.13262 251.59375 135.75 C 255.53967 130.65981 258.09375 124.78218 258.09375 118.375 L 258.09375 75.15625 C 258.09375 66.91509 253.99304 59.56827 247.9375 53.625 C 241.89387 47.69344 233.70676 42.7812 223.8125 38.6875 C 204.02057 30.49866 177.39549 25.625 147.875 25.625 z M 147.875 38.28125 C 176.20726 38.28125 201.69735 43.13209 219.65625 50.5625 C 228.63721 54.27833 235.74347 58.63894 240.21875 63.03125 C 244.72248 67.4515 246.5 71.41354 246.5 75.15625 C 246.5 78.89898 244.72248 82.89225 240.21875 87.3125 C 235.73658 91.71158 228.62945 96.13113 219.65625 99.84375 C 201.70123 107.27254 176.21041 112.0625 147.875 112.0625 C 119.53961 112.0625 93.9536 107.27195 76 99.84375 C 67.026785 96.13113 59.919666 91.71158 55.4375 87.3125 C 50.939719 82.89807 49.21875 78.917 49.21875 75.15625 C 49.21875 71.39553 50.939721 67.44567 55.4375 63.03125 C 59.91278 58.63894 67.01902 54.27833 76 50.5625 C 93.95748 43.13267 119.54276 38.28125 147.875 38.28125 z M 246.5 97.96875 L 246.5 118.375 C 246.5 122.11772 244.71559 126.18027 240.21875 130.59375 C 235.74347 134.98607 228.63722 139.34666 219.65625 143.0625 C 201.70124 150.49128 176.21041 155.28125 147.875 155.28125 C 119.53961 155.28125 93.953599 150.4907 76 143.0625 C 67.019017 139.34666 59.912778 134.98607 55.4375 130.59375 C 50.946611 126.1861 49.21875 122.13574 49.21875 118.375 L 49.21875 98 C 55.103815 103.34089 62.698519 107.87242 71.84375 111.65625 C 91.636999 119.84563 118.35453 124.6875 147.875 124.6875 C 177.39549 124.6875 204.02057 119.84508 223.8125 111.65625 C 232.98082 107.86287 240.60924 103.32747 246.5 97.96875 z M 37.625 101.03125 L 37.625 118.375 C 37.625 126.60573 41.658338 133.98946 47.71875 139.9375 C 48.898376 141.09526 50.406852 142.09992 51.75 143.1875 C 51.632375 143.1393 51.491936 143.1109 51.375 143.0625 C 42.401792 139.34987 35.294674 134.93035 30.8125 130.53125 C 26.314714 126.11685 24.59375 122.13574 24.59375 118.375 C 24.59375 114.61428 26.314711 110.66442 30.8125 106.25 C 32.604981 104.49076 34.993947 102.73925 37.625 101.03125 z M 24.59375 141.21875 C 30.478815 146.55963 38.073526 151.09118 47.21875 154.875 C 67.012017 163.06437 93.729528 167.90625 123.25 167.90625 C 127.21214 167.90625 131.09334 167.82735 134.9375 167.65625 C 134.9991 167.65925 135.06342 167.65325 135.125 167.65625 C 139.31382 167.85621 143.57705 167.90625 147.875 167.90625 C 176.47122 167.90625 202.28734 163.38404 221.875 155.65625 L 221.875 161.59375 C 221.875 165.33647 220.0906 169.39901 215.59375 173.8125 C 211.11847 178.20483 204.01222 182.56542 195.03125 186.28125 C 177.07624 193.71005 151.5854 198.46875 123.25 198.46875 C 94.914596 198.46875 69.328587 193.70947 51.375 186.28125 C 42.394027 182.56542 35.287787 178.20483 30.8125 173.8125 C 26.321598 169.40484 24.59375 165.35449 24.59375 161.59375 L 24.59375 141.21875 z M 242.65625 144.375 C 245.16454 146.04049 247.39816 147.74265 249.125 149.4375 C 253.62873 153.85774 255.40625 157.85104 255.40625 161.59375 C 255.40625 165.33646 253.62873 169.32974 249.125 173.75 C 244.64282 178.14908 237.5357 182.56863 228.5625 186.28125 C 223.63828 188.31863 218.05681 190.10199 212.0625 191.6875 C 216.34958 189.09101 220.14662 186.23218 223.3125 183.125 C 229.36803 177.18174 233.46875 169.83492 233.46875 161.59375 L 233.46875 150.3125 C 236.82943 148.47518 239.88887 146.48364 242.65625 144.375 z M 255.40625 184.375 L 255.40625 204.8125 C 255.40625 208.55524 253.62184 212.58652 249.125 217 C 244.64971 221.39231 237.54346 225.78415 228.5625 229.5 C 210.60749 236.9288 185.08541 241.6875 156.75 241.6875 C 128.41459 241.6875 102.85985 236.9282 84.90625 229.5 C 75.925277 225.78415 68.819029 221.39231 64.34375 217 C 59.852851 212.59235 58.125 208.57326 58.125 204.8125 L 58.125 201.96875 C 76.385362 207.74876 98.800166 211.125 123.25 211.125 C 128.95138 211.125 134.51153 210.94201 139.96875 210.59375 C 140.05035 210.59875 140.13711 210.58875 140.21875 210.59375 C 145.62301 210.94231 151.10961 211.125 156.75 211.125 C 186.27047 211.125 212.92684 206.25132 232.71875 198.0625 C 241.89198 194.26711 249.5143 189.73749 255.40625 184.375 z "
       transform="translate(0,772.36218)"
       id="path3911" />
  </g>
</svg>
