<?xml version="1.0" encoding="UTF-8" standalone="no"?>
<!-- Created with Inkscape (http://www.inkscape.org/) -->

<svg
   xmlns:dc="http://purl.org/dc/elements/1.1/"
   xmlns:cc="http://creativecommons.org/ns#"
   xmlns:rdf="http://www.w3.org/1999/02/22-rdf-syntax-ns#"
   xmlns:svg="http://www.w3.org/2000/svg"
   xmlns="http://www.w3.org/2000/svg"
   xmlns:sodipodi="http://sodipodi.sourceforge.net/DTD/sodipodi-0.dtd"
   xmlns:inkscape="http://www.inkscape.org/namespaces/inkscape"
   width="280"
   height="280"
   id="svg2"
   version="1.1"
   inkscape:version="0.48.4 r9939"
   sodipodi:docname="weapon-harpoon.svg">
  <defs
     id="defs4" />
  <sodipodi:namedview
     id="base"
     pagecolor="#ffffff"
     bordercolor="#666666"
     borderopacity="1.0"
     inkscape:pageopacity="0.0"
     inkscape:pageshadow="2"
     inkscape:zoom="1.4142136"
     inkscape:cx="382.02777"
     inkscape:cy="70.548253"
     inkscape:document-units="px"
     inkscape:current-layer="layer1"
     showgrid="false"
     borderlayer="true"
     inkscape:showpageshadow="false"
     inkscape:window-width="1920"
     inkscape:window-height="1000"
     inkscape:window-x="0"
     inkscape:window-y="28"
     inkscape:window-maximized="1" />
  <metadata
     id="metadata7">
    <rdf:RDF>
      <cc:Work
         rdf:about="">
        <dc:format>image/svg+xml</dc:format>
        <dc:type
           rdf:resource="http://purl.org/dc/dcmitype/StillImage" />
        <dc:title></dc:title>
      </cc:Work>
    </rdf:RDF>
  </metadata>
  <g
     inkscape:label="Calque 1"
     inkscape:groupmode="layer"
     id="layer1"
     transform="translate(0,-772.36218)">
    <path
       style="fill:#000000;fill-opacity:1;stroke:none"
       d="m 194.7446,834.4046 c -5.8199,6.10442 -7.85439,13.19412 -7.60093,23.88239 l -43.2085,43.2085 -14.35965,14.35964 -24.85406,24.85407 -44.093819,44.09382 -39.213748,39.21368 c -1.914057,1.914 -1.914057,4.996 0,6.9101 1.914058,1.9139 4.995983,1.9138 6.909943,0 l 39.213703,-39.21388 44.093821,-44.09381 24.85406,-24.85408 14.35965,-14.35963 43.2301,-43.23009 c 15.69086,0.36362 23.64201,-4.15342 32.10947,-18.46241 7.38143,-12.47366 25.95856,-41.89019 31.97991,-51.41396 0.75295,-1.18652 1.38402,-2.19198 1.8571,-2.93675 -0.67585,0.42796 -1.99156,1.23802 -3.00151,1.87858 l -0.0215,0.0214 c -9.57467,6.04969 -38.89484,24.54512 -51.34925,31.9151 -4.5858,2.71369 -8.16395,5.35237 -10.90473,8.22714 z"
       id="rect5152"
       inkscape:connector-curvature="0" />
    <path
       style="font-size:medium;font-style:normal;font-variant:normal;font-weight:normal;font-stretch:normal;text-indent:0;text-align:start;text-decoration:none;line-height:normal;letter-spacing:normal;word-spacing:normal;text-transform:none;direction:ltr;block-progression:tb;writing-mode:lr-tb;text-anchor:start;baseline-shift:baseline;color:#000000;fill:#000000;fill-opacity:1;stroke:none;stroke-width:5;marker:none;visibility:visible;display:inline;overflow:visible;enable-background:accumulate;font-family:Sans;-inkscape-font-specification:Sans"
       d="m 215.77766,981.46408 c -1.05662,0.003 -2.10862,0.0461 -3.125,0.125 -8.13104,0.63087 -14.94952,3.55645 -20.15625,6.5625 -4.28437,2.47359 -10.59473,4.81829 -17.09375,4.9375 -6.49903,0.11939 -13.12482,-1.74979 -19.4375,-8.0625 a 4.8510283,4.8510283 0 1 0 -6.84375,6.875 c 8.13025,8.13042 17.83329,10.97102 26.46875,10.81252 8.63546,-0.1579 16.25215,-3.09376 21.71875,-6.25002 9.08849,-5.24721 20.56017,-9.8756 38.53125,0.5 a 4.8147883,4.8147883 0 1 0 4.8125,-8.3125 c -9.11067,-5.25991 -17.47863,-7.21023 -24.875,-7.1875 z m 7,20.00002 c -1.05662,0 -2.10862,0.046 -3.125,0.125 -8.13104,0.6309 -14.94952,3.5564 -20.15625,6.5625 -4.28437,2.4736 -10.59473,4.8183 -17.09375,4.9375 -6.49903,0.1194 -13.12482,-1.7498 -19.4375,-8.0625 a 4.8510318,4.8510318 0 1 0 -6.84375,6.875 c 8.13025,8.1304 17.83329,10.971 26.46875,10.8125 8.63546,-0.1579 16.25215,-3.0937 21.71875,-6.25 9.08849,-5.2472 20.56017,-9.8756 38.53125,0.5 a 4.8147883,4.8147883 0 1 0 4.8125,-8.3125 c -9.11067,-5.2599 -17.47863,-7.2102 -24.875,-7.1875 z"
       id="path5237"
       inkscape:connector-curvature="0" />
  </g>
</svg>
