<?xml version="1.0" encoding="UTF-8" standalone="no"?>
<!-- Created with Inkscape (http://www.inkscape.org/) -->

<svg
   xmlns:dc="http://purl.org/dc/elements/1.1/"
   xmlns:cc="http://creativecommons.org/ns#"
   xmlns:rdf="http://www.w3.org/1999/02/22-rdf-syntax-ns#"
   xmlns:svg="http://www.w3.org/2000/svg"
   xmlns="http://www.w3.org/2000/svg"
   xmlns:sodipodi="http://sodipodi.sourceforge.net/DTD/sodipodi-0.dtd"
   xmlns:inkscape="http://www.inkscape.org/namespaces/inkscape"
   width="280"
   height="280"
   id="svg2"
   version="1.1"
   inkscape:version="0.48.4 r9939"
   sodipodi:docname="weapon-longbow.svg">
  <defs
     id="defs4" />
  <sodipodi:namedview
     id="base"
     pagecolor="#ffffff"
     bordercolor="#666666"
     borderopacity="1.0"
     inkscape:pageopacity="0.0"
     inkscape:pageshadow="2"
     inkscape:zoom="1.4142136"
     inkscape:cx="-41.197709"
     inkscape:cy="208.09251"
     inkscape:document-units="px"
     inkscape:current-layer="layer1"
     showgrid="false"
     borderlayer="true"
     inkscape:showpageshadow="false"
     inkscape:window-width="1920"
     inkscape:window-height="1000"
     inkscape:window-x="0"
     inkscape:window-y="28"
     inkscape:window-maximized="1" />
  <metadata
     id="metadata7">
    <rdf:RDF>
      <cc:Work
         rdf:about="">
        <dc:format>image/svg+xml</dc:format>
        <dc:type
           rdf:resource="http://purl.org/dc/dcmitype/StillImage" />
        <dc:title></dc:title>
      </cc:Work>
    </rdf:RDF>
  </metadata>
  <g
     inkscape:label="Calque 1"
     inkscape:groupmode="layer"
     id="layer1"
     transform="translate(0,-772.36218)">
    <path
       style="font-size:medium;font-style:normal;font-variant:normal;font-weight:normal;font-stretch:normal;text-indent:0;text-align:start;text-decoration:none;line-height:normal;letter-spacing:normal;word-spacing:normal;text-transform:none;direction:ltr;block-progression:tb;writing-mode:lr-tb;text-anchor:start;baseline-shift:baseline;color:#000000;fill:#000000;fill-opacity:1;stroke:none;stroke-width:3;marker:none;visibility:visible;display:inline;overflow:visible;enable-background:accumulate;font-family:Sans;-inkscape-font-specification:Sans"
       d="m 100.53142,802.37273 c -3.376331,0.31472 -6.480058,3.47185 -5.990299,5.92065 0.391492,1.95746 3.149223,4.65654 6.686849,7.3834 l 0,75.22705 0,42.90728 0,75.22709 c -3.541764,2.729 -6.295042,5.4592 -6.686849,7.4182 -0.835856,4.1793 8.776489,10.3089 12.398529,1.1145 3.62205,-9.1944 36.77767,-19.50335 56.00237,-28.97638 19.22469,-9.47304 22.56812,-21.73226 22.56812,-36.22044 0,-14.48817 -10.37855,-21.17502 -10.37855,-21.17502 l 0,-9.40338 0,-18.84159 0,-9.40338 c 0,0 10.37855,-6.68685 10.37855,-21.17503 0,-14.48817 -3.34343,-26.74739 -22.56812,-36.22043 -19.2247,-9.47303 -52.38032,-19.78193 -56.00237,-28.97635 -1.35826,-3.4479 -3.57034,-4.7572 -5.74651,-4.80617 -0.22668,-0.005 -0.43663,-0.021 -0.66172,0 z m 7.66202,18.11022 c 2.07251,1.29554 4.09407,2.48294 5.85099,3.41308 7.10478,3.76135 55.30582,26.8867 55.16651,44.85761 -0.11447,14.76635 -10.03027,23.26466 -10.03027,23.26466 l 0,10.06511 0,20.58295 0,10.0651 c 0,0 9.9158,8.49832 10.03027,23.26467 0.13931,17.97091 -48.06173,41.09626 -55.16651,44.85757 -1.75692,0.9302 -3.77848,2.0828 -5.85099,3.3783 l 0,-70.42089 0,-42.90728 0,-70.42088 z"
       id="path5030"
       inkscape:connector-curvature="0" />
  </g>
</svg>
