<?xml version="1.0" encoding="UTF-8" standalone="no"?>
<!-- Created with Inkscape (http://www.inkscape.org/) -->

<svg
   xmlns:dc="http://purl.org/dc/elements/1.1/"
   xmlns:cc="http://creativecommons.org/ns#"
   xmlns:rdf="http://www.w3.org/1999/02/22-rdf-syntax-ns#"
   xmlns:svg="http://www.w3.org/2000/svg"
   xmlns="http://www.w3.org/2000/svg"
   xmlns:sodipodi="http://sodipodi.sourceforge.net/DTD/sodipodi-0.dtd"
   xmlns:inkscape="http://www.inkscape.org/namespaces/inkscape"
   width="280"
   height="280"
   id="svg2"
   version="1.1"
   inkscape:version="0.48.4 r9939"
   sodipodi:docname="weapon-sword.svg">
  <defs
     id="defs4" />
  <sodipodi:namedview
     id="base"
     pagecolor="#ffffff"
     bordercolor="#666666"
     borderopacity="1.0"
     inkscape:pageopacity="0.0"
     inkscape:pageshadow="2"
     inkscape:zoom="0.5"
     inkscape:cx="-792.41656"
     inkscape:cy="-131.09975"
     inkscape:document-units="px"
     inkscape:current-layer="layer1"
     showgrid="false"
     borderlayer="true"
     inkscape:showpageshadow="false"
     inkscape:window-width="1920"
     inkscape:window-height="1000"
     inkscape:window-x="0"
     inkscape:window-y="28"
     inkscape:window-maximized="1" />
  <metadata
     id="metadata7">
    <rdf:RDF>
      <cc:Work
         rdf:about="">
        <dc:format>image/svg+xml</dc:format>
        <dc:type
           rdf:resource="http://purl.org/dc/dcmitype/StillImage" />
        <dc:title></dc:title>
      </cc:Work>
    </rdf:RDF>
  </metadata>
  <g
     inkscape:label="Calque 1"
     inkscape:groupmode="layer"
     id="layer1"
     transform="translate(0,-772.36218)">
    <path
       style="font-size:medium;font-style:normal;font-variant:normal;font-weight:normal;font-stretch:normal;text-indent:0;text-align:start;text-decoration:none;line-height:normal;letter-spacing:normal;word-spacing:normal;text-transform:none;direction:ltr;block-progression:tb;writing-mode:lr-tb;text-anchor:start;baseline-shift:baseline;color:#000000;fill:#000000;fill-opacity:1;stroke:none;stroke-width:2;marker:none;visibility:visible;display:inline;overflow:visible;enable-background:accumulate;font-family:Sans;-inkscape-font-specification:Sans"
       d="m 144.96747,824.56181 -0.34639,1.7329 -43.0915,0 -1.03974,0 -4.15897,0 0.23105,1.73291 -40.434377,14.78743 0,-0.11535 -0.231054,0.11535 -0.808685,0.34639 -3.927913,1.38633 0.808685,1.61737 L 18.23475,874.4692 15,877.12632 l 3.003696,2.88818 82.832714,77.63401 -9.12662,2.77264 -3.119214,1.03974 0.462109,3.23475 0.924206,5.1987 0.577639,3.23475 1.03974,-0.11533 -1.50185,1.15526 1.61737,2.88817 2.65712,4.62107 1.61738,2.88817 1.03974,-0.46211 -1.03974,1.61738 2.54159,2.19501 4.04344,3.35027 2.42606,2.07949 0.80869,-0.80869 -0.46211,1.96395 3.11922,1.15528 4.96766,1.84842 3.11921,1.15527 0.46211,-0.92422 0.23106,1.84844 3.23475,0 5.31424,0 3.23475,0 0.11533,-1.15527 0.92422,1.73285 3.11923,-1.03969 4.96765,-1.7329 3.11922,-1.03974 -0.34639,-1.15527 1.50185,1.27079 2.42606,-2.07948 4.15896,-3.35028 2.42606,-2.19501 -1.7329,-2.77264 -10.28188,-15.71164 121.41866,-6.58504 4.15897,-0.23105 -0.69316,-4.15896 -7.7403,-43.43808 0,-0.11534 -0.23105,-1.03974 -0.80869,-4.04345 -1.7329,0.46211 -21.37245,-37.19963 -0.11535,-0.11533 -0.46211,-0.80869 -2.07948,-3.58134 -1.38633,1.03974 -32.92513,-27.72642 -0.11534,-0.11535 -0.80869,-0.57763 -3.23475,-2.65712 -1.03974,1.50185 -41.3586,-15.01848 -3.92791,-1.38632 z m -40.31886,9.12662 36.96859,0 -1.27081,10.74399 -0.11534,0.11535 0,0.23104 -11.78373,96.92699 -22.29667,-95.42513 0,-0.23105 -1.50186,-12.36137 z m 45.63309,0.57763 34.77357,12.70795 -4.62107,9.24215 -0.11534,0.11534 -0.11535,0.23105 -44.36229,87.45379 11.78374,-98.31331 2.65711,-11.43715 z m -54.06655,1.7329 2.42607,10.51294 0.11535,0.69316 0,0.23106 0.11533,0.11534 22.18115,94.61645 -54.066539,-82.71719 -0.231054,-0.3464 -0.115348,-0.11534 -5.083174,-10.28189 34.658035,-12.70794 z m 96.69594,14.55638 28.30406,23.79853 -7.97135,7.39371 -0.11533,0.11534 -0.11535,0.23105 -71.16451,66.65897 44.8244,-88.60906 0.11535,-0.11534 0.11534,-0.23106 6.00739,-9.24214 z M 54.509978,853.67456 138.84454,982.94906 26.205913,877.47308 54.509978,853.67456 z m 172.943632,26.80222 18.48428,32.00092 -9.35767,4.04345 -0.23106,0.11533 -0.23104,0.11535 -48.98337,20.91035 -41.58965,17.6756 72.20425,-67.58318 0.3464,-0.3464 9.35767,-6.93161 z m 22.18114,39.85675 6.58503,36.27541 -108.59519,5.89187 46.44177,-19.87061 44.59335,-18.94639 10.97504,-3.35028 z"
       id="path4561"
       inkscape:connector-curvature="0" />
  </g>
</svg>
