<?xml version="1.0" encoding="UTF-8" standalone="no"?>
<!-- Created with Inkscape (http://www.inkscape.org/) -->

<svg
   xmlns:dc="http://purl.org/dc/elements/1.1/"
   xmlns:cc="http://creativecommons.org/ns#"
   xmlns:rdf="http://www.w3.org/1999/02/22-rdf-syntax-ns#"
   xmlns:svg="http://www.w3.org/2000/svg"
   xmlns="http://www.w3.org/2000/svg"
   xmlns:sodipodi="http://sodipodi.sourceforge.net/DTD/sodipodi-0.dtd"
   xmlns:inkscape="http://www.inkscape.org/namespaces/inkscape"
   width="280"
   height="280"
   id="svg2"
   version="1.1"
   inkscape:version="0.48.4 r9939"
   sodipodi:docname="weapon-staff.svg">
  <defs
     id="defs4" />
  <sodipodi:namedview
     id="base"
     pagecolor="#ffffff"
     bordercolor="#666666"
     borderopacity="1.0"
     inkscape:pageopacity="0.0"
     inkscape:pageshadow="2"
     inkscape:zoom="0.70710678"
     inkscape:cx="98.656203"
     inkscape:cy="55.375677"
     inkscape:document-units="px"
     inkscape:current-layer="layer1"
     showgrid="false"
     borderlayer="true"
     inkscape:showpageshadow="false"
     inkscape:window-width="1920"
     inkscape:window-height="1000"
     inkscape:window-x="0"
     inkscape:window-y="28"
     inkscape:window-maximized="1" />
  <metadata
     id="metadata7">
    <rdf:RDF>
      <cc:Work
         rdf:about="">
        <dc:format>image/svg+xml</dc:format>
        <dc:type
           rdf:resource="http://purl.org/dc/dcmitype/StillImage" />
        <dc:title></dc:title>
      </cc:Work>
    </rdf:RDF>
  </metadata>
  <g
     inkscape:label="Calque 1"
     inkscape:groupmode="layer"
     id="layer1"
     transform="translate(0,-772.36218)">
    <path
       style="fill:#000000;fill-opacity:1;stroke:none"
       d="m 31.11086,1014.1803 c -1.958686,1.9586 -1.958686,5.1123 0,7.071 1.958685,1.9587 5.112381,1.9587 7.071067,0 l 40.128309,-40.12828 82.245354,-82.24536 0,22.0529 6.01042,-6.01041 c 3.75671,-3.75672 -1.60291,-17.53539 3.62392,-25.67682 l 12.41856,-12.41856 2.60745,-2.60746 0,22.0529 6.01041,-6.01041 c 3.75672,-3.75672 -1.6029,-17.53539 3.62392,-25.67682 l 15.02602,-15.02602 0,22.0529 6.01041,-6.01041 c 3.75672,-3.75672 -1.60291,-17.53539 3.62392,-25.67682 l 3.22618,-3.22617 c 7.20868,-7.20868 18.37616,-18.67929 27.62135,-34.69243 -16.01314,9.2452 -26.85874,19.78768 -34.69242,27.62136 L 175.53742,869.7537 71.239169,974.05195 31.11086,1014.1803 z"
       id="rect5152"
       inkscape:connector-curvature="0" />
    <path
       style="font-size:medium;font-style:normal;font-variant:normal;font-weight:normal;font-stretch:normal;text-indent:0;text-align:start;text-decoration:none;line-height:normal;letter-spacing:normal;word-spacing:normal;text-transform:none;direction:ltr;block-progression:tb;writing-mode:lr-tb;text-anchor:start;baseline-shift:baseline;color:#000000;fill:#000000;fill-opacity:1;stroke:none;stroke-width:5;marker:none;visibility:visible;display:inline;overflow:visible;enable-background:accumulate;font-family:Sans;-inkscape-font-specification:Sans"
       d="m 215.77766,981.46408 c -1.05662,0.003 -2.10862,0.0461 -3.125,0.125 -8.13104,0.63087 -14.94952,3.55645 -20.15625,6.5625 -4.28437,2.47359 -10.59473,4.81829 -17.09375,4.9375 -6.49903,0.11939 -13.12482,-1.74979 -19.4375,-8.0625 a 4.8510283,4.8510283 0 1 0 -6.84375,6.875 c 8.13025,8.13042 17.83329,10.97102 26.46875,10.81252 8.63546,-0.1579 16.25215,-3.09376 21.71875,-6.25002 9.08849,-5.24721 20.56017,-9.8756 38.53125,0.5 a 4.8147883,4.8147883 0 1 0 4.8125,-8.3125 c -9.11067,-5.25991 -17.47863,-7.21023 -24.875,-7.1875 z m 7,20.00002 c -1.05662,0 -2.10862,0.046 -3.125,0.125 -8.13104,0.6309 -14.94952,3.5564 -20.15625,6.5625 -4.28437,2.4736 -10.59473,4.8183 -17.09375,4.9375 -6.49903,0.1194 -13.12482,-1.7498 -19.4375,-8.0625 a 4.8510318,4.8510318 0 1 0 -6.84375,6.875 c 8.13025,8.1304 17.83329,10.971 26.46875,10.8125 8.63546,-0.1579 16.25215,-3.0937 21.71875,-6.25 9.08849,-5.2472 20.56017,-9.8756 38.53125,0.5 a 4.8147883,4.8147883 0 1 0 4.8125,-8.3125 c -9.11067,-5.2599 -17.47863,-7.2102 -24.875,-7.1875 z"
       id="path5237"
       inkscape:connector-curvature="0" />
  </g>
</svg>
