<?xml version="1.0" encoding="UTF-8" standalone="no"?>
<!-- Created with Inkscape (http://www.inkscape.org/) -->

<svg
   xmlns:dc="http://purl.org/dc/elements/1.1/"
   xmlns:cc="http://creativecommons.org/ns#"
   xmlns:rdf="http://www.w3.org/1999/02/22-rdf-syntax-ns#"
   xmlns:svg="http://www.w3.org/2000/svg"
   xmlns="http://www.w3.org/2000/svg"
   xmlns:sodipodi="http://sodipodi.sourceforge.net/DTD/sodipodi-0.dtd"
   xmlns:inkscape="http://www.inkscape.org/namespaces/inkscape"
   width="280"
   height="280"
   id="svg2"
   version="1.1"
   inkscape:version="0.48.4 r9939"
   sodipodi:docname="weapon-pistol.svg">
  <defs
     id="defs4" />
  <sodipodi:namedview
     id="base"
     pagecolor="#ffffff"
     bordercolor="#666666"
     borderopacity="1.0"
     inkscape:pageopacity="0.0"
     inkscape:pageshadow="2"
     inkscape:zoom="1.4142136"
     inkscape:cx="227.67306"
     inkscape:cy="211.64106"
     inkscape:document-units="px"
     inkscape:current-layer="layer1"
     showgrid="false"
     borderlayer="true"
     inkscape:showpageshadow="false"
     inkscape:window-width="1920"
     inkscape:window-height="1000"
     inkscape:window-x="0"
     inkscape:window-y="28"
     inkscape:window-maximized="1" />
  <metadata
     id="metadata7">
    <rdf:RDF>
      <cc:Work
         rdf:about="">
        <dc:format>image/svg+xml</dc:format>
        <dc:type
           rdf:resource="http://purl.org/dc/dcmitype/StillImage" />
        <dc:title></dc:title>
      </cc:Work>
    </rdf:RDF>
  </metadata>
  <g
     inkscape:label="Calque 1"
     inkscape:groupmode="layer"
     id="layer1"
     transform="translate(0,-772.36218)">
    <path
       style="fill:#000000;fill-opacity:1;stroke:none"
       d="m 40.517016,845.63224 11.78286,0 22.45334,-22.45335 0.0412,-9.35213 -24.47209,-16.31473 -30.32233,-3.7079 0,25.37847 20.51701,26.44964 z m 15.32596,5.35584 17.0975,12.89523 3.08991,-3.08991 155.978664,155.9787 c -0.0431,3.6341 1.34697,7.2796 4.11988,10.0525 5.46083,5.4608 14.31463,5.4609 19.77546,0 5.46085,-5.4608 5.46081,-14.3146 -3e-5,-19.7755 -2.7729,-2.7729 -6.41837,-4.163 -10.05251,-4.1198 L 89.873176,846.9506 l 3.13111,-3.13111 -12.89523,-17.0975 -8.73414,8.73414 -6.7566,6.7566 -8.77534,8.77535 z"
       id="rect4405"
       inkscape:connector-curvature="0" />
  </g>
</svg>
