<?xml version="1.0" encoding="UTF-8" standalone="no"?>
<!-- Created with Inkscape (http://www.inkscape.org/) -->

<svg
   xmlns:dc="http://purl.org/dc/elements/1.1/"
   xmlns:cc="http://creativecommons.org/ns#"
   xmlns:rdf="http://www.w3.org/1999/02/22-rdf-syntax-ns#"
   xmlns:svg="http://www.w3.org/2000/svg"
   xmlns="http://www.w3.org/2000/svg"
   xmlns:sodipodi="http://sodipodi.sourceforge.net/DTD/sodipodi-0.dtd"
   xmlns:inkscape="http://www.inkscape.org/namespaces/inkscape"
   width="280"
   height="280"
   id="svg2"
   version="1.1"
   inkscape:version="0.48.4 r9939"
   sodipodi:docname="weapon-warhorn.svg">
  <defs
     id="defs4" />
  <sodipodi:namedview
     id="base"
     pagecolor="#ffffff"
     bordercolor="#666666"
     borderopacity="1.0"
     inkscape:pageopacity="0.0"
     inkscape:pageshadow="2"
     inkscape:zoom="0.70710678"
     inkscape:cx="90.492826"
     inkscape:cy="78.146775"
     inkscape:document-units="px"
     inkscape:current-layer="layer1"
     showgrid="false"
     borderlayer="true"
     inkscape:showpageshadow="false"
     inkscape:window-width="1920"
     inkscape:window-height="1000"
     inkscape:window-x="0"
     inkscape:window-y="28"
     inkscape:window-maximized="1" />
  <metadata
     id="metadata7">
    <rdf:RDF>
      <cc:Work
         rdf:about="">
        <dc:format>image/svg+xml</dc:format>
        <dc:type
           rdf:resource="http://purl.org/dc/dcmitype/StillImage" />
        <dc:title></dc:title>
      </cc:Work>
    </rdf:RDF>
  </metadata>
  <g
     inkscape:label="Calque 1"
     inkscape:groupmode="layer"
     id="layer1"
     transform="translate(0,-772.36218)">
    <path
       style="fill:#000000;fill-opacity:1;stroke:none"
       d="m 275,777.36212 -18.53172,0 -48.62699,48.62714 -91.76858,91.76856 -42.10386,42.10387 -19.198762,-19.19878 -25.202889,25.20303 31.13306,0 6.078341,6.07835 0.11122,0.1112 -44.624238,44.62411 c -4.53672,-0.5447 -9.268,0.8919 -12.7497376,4.3736 -6.021123,6.0211 -6.021125,15.7719 -1.5e-5,21.7932 6.0213126,6.0211 15.7720636,6.0211 21.7932206,-2e-4 3.48172,-3.4817 4.918343,-8.2129 4.373542,-12.7498 l 44.624078,-44.62404 0.11122,0.11121 6.07835,6.07833 -2e-5,31.1331 25.20302,-25.20296 -19.19876,-19.19877 42.10386,-42.10385 91.76857,-91.76858 48.627,-48.62714 2e-5,-18.53148 z"
       id="path4878"
       inkscape:connector-curvature="0" />
  </g>
</svg>
