<?xml version="1.0" encoding="UTF-8" standalone="no"?>
<!-- Created with Inkscape (http://www.inkscape.org/) -->

<svg
   xmlns:dc="http://purl.org/dc/elements/1.1/"
   xmlns:cc="http://creativecommons.org/ns#"
   xmlns:rdf="http://www.w3.org/1999/02/22-rdf-syntax-ns#"
   xmlns:svg="http://www.w3.org/2000/svg"
   xmlns="http://www.w3.org/2000/svg"
   xmlns:sodipodi="http://sodipodi.sourceforge.net/DTD/sodipodi-0.dtd"
   xmlns:inkscape="http://www.inkscape.org/namespaces/inkscape"
   width="280"
   height="280"
   id="svg2"
   version="1.1"
   inkscape:version="0.48.4 r9939"
   sodipodi:docname="weapon-axe.svg">
  <defs
     id="defs4" />
  <sodipodi:namedview
     id="base"
     pagecolor="#ffffff"
     bordercolor="#666666"
     borderopacity="1.0"
     inkscape:pageopacity="0.0"
     inkscape:pageshadow="2"
     inkscape:zoom="1"
     inkscape:cx="308.76225"
     inkscape:cy="333.81305"
     inkscape:document-units="px"
     inkscape:current-layer="layer1"
     showgrid="false"
     borderlayer="true"
     inkscape:showpageshadow="false"
     inkscape:window-width="1920"
     inkscape:window-height="1000"
     inkscape:window-x="0"
     inkscape:window-y="28"
     inkscape:window-maximized="1" />
  <metadata
     id="metadata7">
    <rdf:RDF>
      <cc:Work
         rdf:about="">
        <dc:format>image/svg+xml</dc:format>
        <dc:type
           rdf:resource="http://purl.org/dc/dcmitype/StillImage" />
        <dc:title></dc:title>
      </cc:Work>
    </rdf:RDF>
  </metadata>
  <g
     inkscape:label="Calque 1"
     inkscape:groupmode="layer"
     id="layer1"
     transform="translate(0,-772.36218)">
    <path
       style="fill:#000000;fill-opacity:1;stroke:none"
       d="m 228.65522,802.36218 c -8.51784,0 -16.09081,7.20059 -28.0426,19.15238 -11.95179,11.95178 -21.47341,24.29854 -30.78649,27.71333 -9.31309,3.41479 -13.2814,1.64539 -16.46337,-1.53658 -3.18197,-3.18197 -6.64319,-4.99092 -8.6707,-2.96341 -2.0275,2.0275 0.43902,5.15854 6.36583,11.08533 l 19.04263,19.04263 8.1768,8.1768 19.04263,19.04263 c 5.92681,5.92681 9.05782,8.39335 11.08533,6.36583 2.0275,-2.02749 0.21856,-5.48873 -2.96341,-8.6707 -3.18196,-3.18197 -4.95137,-7.15028 -1.53658,-16.46337 3.41481,-9.31308 15.76155,-18.88958 27.71333,-30.84137 11.95181,-11.9518 19.15239,-19.46988 19.15239,-27.98772 0,-8.24148 -3.45952,-10.10494 -7.62803,-14.15849 -0.14137,-0.14137 -0.24821,-0.24436 -0.38415,-0.38415 -1.43511,-1.47582 -2.58779,-2.89086 -3.84145,-4.06096 -2.28732,-2.13486 -4.9385,-3.51218 -10.26216,-3.51218 z m -75.89611,64.81078 c -13.65859,10.51973 -35.03378,28.04743 -46.1523,42.80474 -17.074,22.66185 -30.40235,49.82912 -32.59747,61.02421 -2.19511,11.19509 -12.29264,34.90239 -44.78035,43.24379 0,0 6.92325,7.1357 22.44505,8.067 15.52182,0.9313 31.66187,-11.47 40.66452,-22.33527 9.00264,-10.86526 27.62296,-47.78359 38.79866,-60.20103 11.1757,-12.41745 33.83654,-16.78673 41.59744,-23.92676 3.7452,-3.44559 8.23245,-10.46366 11.85362,-16.84751 l -10.70119,-10.70119 -8.1768,-8.1768 -12.95118,-12.95118 z"
       id="path4249"
       inkscape:connector-curvature="0" />
  </g>
</svg>
