<?xml version="1.0" encoding="UTF-8" standalone="no"?>
<!-- Created with Inkscape (http://www.inkscape.org/) -->

<svg
   xmlns:dc="http://purl.org/dc/elements/1.1/"
   xmlns:cc="http://creativecommons.org/ns#"
   xmlns:rdf="http://www.w3.org/1999/02/22-rdf-syntax-ns#"
   xmlns:svg="http://www.w3.org/2000/svg"
   xmlns="http://www.w3.org/2000/svg"
   xmlns:xlink="http://www.w3.org/1999/xlink"
   xmlns:sodipodi="http://sodipodi.sourceforge.net/DTD/sodipodi-0.dtd"
   xmlns:inkscape="http://www.inkscape.org/namespaces/inkscape"
   width="280"
   height="280"
   id="svg2"
   version="1.1"
   inkscape:version="0.48.4 r9939"
   sodipodi:docname="magi.svg">
  <defs
     id="defs4">
    <linearGradient
       inkscape:collect="always"
       id="linearGradient4824">
      <stop
         style="stop-color:#c6f556;stop-opacity:1"
         offset="0"
         id="stop4826" />
      <stop
         style="stop-color:#3a830d;stop-opacity:1"
         offset="1"
         id="stop4828" />
    </linearGradient>
    <linearGradient
       inkscape:collect="always"
       id="linearGradient4757">
      <stop
         style="stop-color:#2d034b;stop-opacity:1;"
         offset="0"
         id="stop4759" />
      <stop
         style="stop-color:#2d034b;stop-opacity:0;"
         offset="1"
         id="stop4761" />
    </linearGradient>
    <linearGradient
       inkscape:collect="always"
       id="linearGradient4747">
      <stop
         style="stop-color:#b466af;stop-opacity:1;"
         offset="0"
         id="stop4749" />
      <stop
         style="stop-color:#793e81;stop-opacity:1"
         offset="1"
         id="stop4751" />
    </linearGradient>
    <linearGradient
       inkscape:collect="always"
       id="linearGradient4648">
      <stop
         style="stop-color:#3083cf;stop-opacity:1;"
         offset="0"
         id="stop4650" />
      <stop
         style="stop-color:#001084;stop-opacity:1"
         offset="1"
         id="stop4652" />
    </linearGradient>
    <linearGradient
       id="linearGradient4351">
      <stop
         style="stop-color:#fb0d00;stop-opacity:0.67843139"
         offset="0"
         id="stop4353" />
      <stop
         id="stop4359"
         offset="0.60000002"
         style="stop-color:#8d1f18;stop-opacity:1" />
      <stop
         style="stop-color:#000000;stop-opacity:1"
         offset="1"
         id="stop4355" />
    </linearGradient>
    <linearGradient
       id="linearGradient3893">
      <stop
         style="stop-color:#e48713;stop-opacity:1;"
         offset="0"
         id="stop3895" />
      <stop
         id="stop3901"
         offset="0.5"
         style="stop-color:#f8d260;stop-opacity:1;" />
      <stop
         style="stop-color:#fffeeb;stop-opacity:1"
         offset="1"
         id="stop3897" />
    </linearGradient>
    <linearGradient
       inkscape:collect="always"
       id="linearGradient5815">
      <stop
         style="stop-color:#00edff;stop-opacity:1;"
         offset="0"
         id="stop5817" />
      <stop
         style="stop-color:#0092bf;stop-opacity:1"
         offset="1"
         id="stop5819" />
    </linearGradient>
    <linearGradient
       id="linearGradient5794">
      <stop
         style="stop-color:#ffffff;stop-opacity:1"
         offset="0"
         id="stop5796" />
      <stop
         style="stop-color:#686968;stop-opacity:1"
         offset="1"
         id="stop5798" />
    </linearGradient>
    <radialGradient
       inkscape:collect="always"
       xlink:href="#linearGradient5794"
       id="radialGradient5800"
       cx="644.96808"
       cy="129.80289"
       fx="644.96808"
       fy="129.80289"
       r="59.484734"
       gradientTransform="matrix(-0.01752838,0.96144611,-1.0462016,-0.01907357,782.24591,-471.56403)"
       gradientUnits="userSpaceOnUse" />
    <radialGradient
       inkscape:collect="always"
       xlink:href="#linearGradient5794"
       id="radialGradient5810"
       gradientUnits="userSpaceOnUse"
       gradientTransform="matrix(-0.01752838,0.96144611,-1.0462016,-0.01907357,782.24591,-471.56403)"
       cx="644.96808"
       cy="129.80289"
       fx="644.96808"
       fy="129.80289"
       r="59.484734" />
    <radialGradient
       inkscape:collect="always"
       xlink:href="#linearGradient5815"
       id="radialGradient5821"
       cx="624.67389"
       cy="149.02011"
       fx="624.67389"
       fy="149.02011"
       r="17.67767"
       gradientTransform="matrix(1.7169551,0.63727989,-0.27861755,0.75064954,-404.24277,-359.75838)"
       gradientUnits="userSpaceOnUse" />
    <radialGradient
       inkscape:collect="always"
       xlink:href="#linearGradient5794"
       id="radialGradient5835"
       gradientUnits="userSpaceOnUse"
       gradientTransform="matrix(-0.01752838,0.96144611,-1.0462016,-0.01907357,782.24591,-471.56403)"
       cx="644.96808"
       cy="129.80289"
       fx="644.96808"
       fy="129.80289"
       r="59.484734" />
    <radialGradient
       inkscape:collect="always"
       xlink:href="#linearGradient4648"
       id="radialGradient4654"
       cx="832.76562"
       cy="915.23199"
       fx="832.76562"
       fy="915.23199"
       r="61.984375"
       gradientTransform="matrix(-1.4041999,2.4321486,-2.5896462,-1.4951312,3659.33,214.00332)"
       gradientUnits="userSpaceOnUse" />
    <linearGradient
       inkscape:collect="always"
       xlink:href="#linearGradient4747"
       id="linearGradient4753"
       x1="989.29877"
       y1="968.46674"
       x2="874.91071"
       y2="939.4754"
       gradientUnits="userSpaceOnUse"
       gradientTransform="matrix(2.1141642,0,0,2.1141642,-1827.6326,-1063.3785)" />
    <radialGradient
       inkscape:collect="always"
       xlink:href="#linearGradient4757"
       id="radialGradient4763"
       cx="950.13593"
       cy="878.01312"
       fx="950.13593"
       fy="878.01312"
       r="59.12502"
       gradientTransform="matrix(3.2519608,-1.8078336,0.94471742,1.6993732,-3738.1685,1028.0997)"
       gradientUnits="userSpaceOnUse" />
    <radialGradient
       inkscape:collect="always"
       xlink:href="#linearGradient4824"
       id="radialGradient4830"
       cx="1211.7511"
       cy="843.26324"
       fx="1211.7511"
       fy="843.26324"
       r="55.565506"
       gradientTransform="matrix(2.2060631,0,0,2.2495971,-2523.06,-1003.3594)"
       gradientUnits="userSpaceOnUse" />
  </defs>
  <sodipodi:namedview
     id="base"
     pagecolor="#ffffff"
     bordercolor="#666666"
     borderopacity="1.0"
     inkscape:pageopacity="0.0"
     inkscape:pageshadow="2"
     inkscape:zoom="1"
     inkscape:cx="819.77603"
     inkscape:cy="270.37793"
     inkscape:document-units="px"
     inkscape:current-layer="layer1"
     showgrid="false"
     borderlayer="true"
     inkscape:showpageshadow="false"
     inkscape:window-width="2560"
     inkscape:window-height="1028"
     inkscape:window-x="1920"
     inkscape:window-y="0"
     inkscape:window-maximized="1" />
  <metadata
     id="metadata7">
    <rdf:RDF>
      <cc:Work
         rdf:about="">
        <dc:format>image/svg+xml</dc:format>
        <dc:type
           rdf:resource="http://purl.org/dc/dcmitype/StillImage" />
        <dc:title></dc:title>
      </cc:Work>
    </rdf:RDF>
  </metadata>
  <g
     inkscape:label="Calque 1"
     inkscape:groupmode="layer"
     id="layer1"
     transform="translate(0,-772.36218)">
    <path
       style="fill:url(#radialGradient4830);fill-opacity:1;stroke:none"
       d="m 249.68922,787.36758 c -2.8068,0.14846 -6.7232,3.46561 -11.7197,6.75606 -7.9946,5.26474 -41.2946,7.1697 -81.0728,7.1697 -39.7779,0 -76.660602,-1.37879 -96.515202,14.3394 -19.8545,15.71818 -32.2636,40.81213 -32.2636,70.04245 0,24.09967 17.8005,46.31581 25.99,52.94547 8.1898,6.62965 12.9196,5.05217 15.6494,3.10227 2.73,-1.94989 11.6789,-9.54135 28.0584,-12.27121 16.379202,-2.72987 25.143802,0.95332 33.918202,0.75833 8.7746,-0.19502 8.5953,-11.88396 2.5507,-27.09319 -6.0449,-15.20923 -27.1253,-30.59154 -39.019702,-33.71138 -11.8945,-3.11983 -6.2573,-6.6753 3.1024,-6.4803 9.359402,0.19501 22.854702,2.14321 30.264202,5.65303 7.4098,3.50982 12.4429,3.91163 18.6825,0.20671 6.2399,-3.70482 20.9113,-4.06743 33.7806,-4.06743 12.8692,0 12.2709,-3.7072 12.2709,-7.99697 0,-4.28977 -3.9298,-17.79449 -10.7545,-22.47425 -6.8245,-4.67976 5.6458,-7.77259 14.6152,-10.89243 8.9696,-3.11983 22.8706,-1.97727 32.8151,4.06743 9.9447,6.04469 -4.2961,9.76169 -10.3407,7.03182 -6.0448,-2.72987 -15.2357,-0.73839 -15.2357,4.13636 0,4.87476 5.2394,9.90025 5.2394,20.81971 0,10.91945 1.5562,15.39343 4.4812,20.26819 2.9248,4.87475 14.8732,15.80336 17.9931,25.16288 3.1198,9.35953 -7.836,5.47933 -14.2706,-1.9303 -6.4347,-7.40963 -20.4639,-15.37349 -33.9182,-15.37349 -13.4543,0 -16.9589,7.37281 -16.9589,11.85758 0,4.48477 7.7901,12.89474 7.7901,34.53865 0,21.64391 1.7849,20.64059 3.9294,23.37046 2.1449,2.72987 14.1958,22.81154 17.5108,31.78107 3.3146,8.96956 -2.1059,7.8118 -3.8606,7.03182 -1.7549,-0.77995 -7.6054,-8.54679 -13.6502,-14.20152 -6.0446,-5.65471 -17.1707,-14.0934 -33.1598,-17.99319 -15.9891,-3.8998 -30.6567,1.36324 -38.2614,5.65304 -7.604802,4.28977 -6.2139,7.83004 1.5857,17.57955 7.7995,9.74951 26.1522,23.3806 40.1918,29.2303 14.0393,5.8497 50.6562,17.9735 82.2446,-19.85454 31.5883,-37.82809 31.2294,-78.79173 31.2294,-115.05989 0,-36.26816 -6.4269,-82.70601 -8.9619,-90.31064 -0.9506,-2.85173 -2.2455,-3.88079 -3.9296,-3.79166 z m -66.8713,83.55457 c 0,0 -7.0347,1.17806 -21.8537,4.68788 -14.8192,3.50982 -18.5448,4.65878 -18.5448,11.375 0,6.71623 0.8452,10.26051 4.55,16.89016 3.7049,6.62966 3.1712,15.83895 3.1712,25.36971 0,9.53078 -1.4451,15.23561 -26.4036,15.23561 -24.958802,0 -37.421202,7.56004 -49.705502,13.9947 -12.2844,6.43468 -43.903,41.37786 -50.5327,49.56739 -6.6296,8.1896 -8.743,12.2578 -1.7234,17.7175 9.7495,8.5795 9.3149,7.4042 13.9949,10.1341 4.6795,2.7298 8.8282,1.5893 11.1679,-2.8955 2.3402,-4.4848 12.2545,-36.28682 29.0236,-57.15076 16.7692,-20.86395 34.700702,-25.3697 48.740102,-25.3697 14.0394,0 21.6337,2.34394 27.0933,2.34394 5.4598,0 7.997,-6.59928 7.997,-22.19849 0,-15.59922 -3.7031,-23.25456 -5.6531,-29.29926 -1.9499,-6.04469 -2.6903,-7.58166 2.9645,-13.23636 5.6546,-5.65471 25.7143,-17.16592 25.7143,-17.16592 z"
       id="path4803"
       inkscape:connector-curvature="0" />
  </g>
</svg>
