<?xml version="1.0" encoding="UTF-8" standalone="no"?>
<!-- Created with Inkscape (http://www.inkscape.org/) -->

<svg
   xmlns:dc="http://purl.org/dc/elements/1.1/"
   xmlns:cc="http://creativecommons.org/ns#"
   xmlns:rdf="http://www.w3.org/1999/02/22-rdf-syntax-ns#"
   xmlns:svg="http://www.w3.org/2000/svg"
   xmlns="http://www.w3.org/2000/svg"
   xmlns:xlink="http://www.w3.org/1999/xlink"
   xmlns:sodipodi="http://sodipodi.sourceforge.net/DTD/sodipodi-0.dtd"
   xmlns:inkscape="http://www.inkscape.org/namespaces/inkscape"
   width="280"
   height="280"
   id="svg2"
   version="1.1"
   inkscape:version="0.48.4 r9939"
   sodipodi:docname="dire.svg">
  <defs
     id="defs4">
    <linearGradient
       id="linearGradient5911">
      <stop
         style="stop-color:#a6871b;stop-opacity:1;"
         offset="0"
         id="stop5913" />
      <stop
         style="stop-color:#a1811c;stop-opacity:1"
         offset="1"
         id="stop5915" />
    </linearGradient>
    <linearGradient
       inkscape:collect="always"
       id="linearGradient5903">
      <stop
         style="stop-color:#fbd00f;stop-opacity:1;"
         offset="0"
         id="stop5905" />
      <stop
         style="stop-color:#e49e00;stop-opacity:1"
         offset="1"
         id="stop5907" />
    </linearGradient>
    <linearGradient
       id="linearGradient5703">
      <stop
         style="stop-color:#f3f3f3;stop-opacity:1;"
         offset="0"
         id="stop5705" />
      <stop
         style="stop-color:#6c756c;stop-opacity:1"
         offset="1"
         id="stop5707" />
    </linearGradient>
    <linearGradient
       inkscape:collect="always"
       id="linearGradient4648">
      <stop
         style="stop-color:#3083cf;stop-opacity:1;"
         offset="0"
         id="stop4650" />
      <stop
         style="stop-color:#001084;stop-opacity:1"
         offset="1"
         id="stop4652" />
    </linearGradient>
    <linearGradient
       id="linearGradient4351">
      <stop
         style="stop-color:#fb0d00;stop-opacity:0.67843139"
         offset="0"
         id="stop4353" />
      <stop
         id="stop4359"
         offset="0.60000002"
         style="stop-color:#8d1f18;stop-opacity:1" />
      <stop
         style="stop-color:#000000;stop-opacity:1"
         offset="1"
         id="stop4355" />
    </linearGradient>
    <linearGradient
       id="linearGradient3893">
      <stop
         style="stop-color:#e48713;stop-opacity:1;"
         offset="0"
         id="stop3895" />
      <stop
         id="stop3901"
         offset="0.5"
         style="stop-color:#f8d260;stop-opacity:1;" />
      <stop
         style="stop-color:#fffeeb;stop-opacity:1"
         offset="1"
         id="stop3897" />
    </linearGradient>
    <linearGradient
       inkscape:collect="always"
       id="linearGradient5815">
      <stop
         style="stop-color:#00edff;stop-opacity:1;"
         offset="0"
         id="stop5817" />
      <stop
         style="stop-color:#0092bf;stop-opacity:1"
         offset="1"
         id="stop5819" />
    </linearGradient>
    <linearGradient
       id="linearGradient5794">
      <stop
         style="stop-color:#ffffff;stop-opacity:1"
         offset="0"
         id="stop5796" />
      <stop
         style="stop-color:#686968;stop-opacity:1"
         offset="1"
         id="stop5798" />
    </linearGradient>
    <radialGradient
       inkscape:collect="always"
       xlink:href="#linearGradient5794"
       id="radialGradient5800"
       cx="644.96808"
       cy="129.80289"
       fx="644.96808"
       fy="129.80289"
       r="59.484734"
       gradientTransform="matrix(-0.01752838,0.96144611,-1.0462016,-0.01907357,782.24591,-471.56403)"
       gradientUnits="userSpaceOnUse" />
    <radialGradient
       inkscape:collect="always"
       xlink:href="#linearGradient5794"
       id="radialGradient5810"
       gradientUnits="userSpaceOnUse"
       gradientTransform="matrix(-0.01752838,0.96144611,-1.0462016,-0.01907357,782.24591,-471.56403)"
       cx="644.96808"
       cy="129.80289"
       fx="644.96808"
       fy="129.80289"
       r="59.484734" />
    <radialGradient
       inkscape:collect="always"
       xlink:href="#linearGradient5815"
       id="radialGradient5821"
       cx="624.67389"
       cy="149.02011"
       fx="624.67389"
       fy="149.02011"
       r="17.67767"
       gradientTransform="matrix(1.7169551,0.63727989,-0.27861755,0.75064954,-404.24277,-359.75838)"
       gradientUnits="userSpaceOnUse" />
    <radialGradient
       inkscape:collect="always"
       xlink:href="#linearGradient5794"
       id="radialGradient5835"
       gradientUnits="userSpaceOnUse"
       gradientTransform="matrix(-0.01752838,0.96144611,-1.0462016,-0.01907357,782.24591,-471.56403)"
       cx="644.96808"
       cy="129.80289"
       fx="644.96808"
       fy="129.80289"
       r="59.484734" />
    <radialGradient
       inkscape:collect="always"
       xlink:href="#linearGradient4648"
       id="radialGradient4654"
       cx="832.76562"
       cy="915.23199"
       fx="832.76562"
       fy="915.23199"
       r="61.984375"
       gradientTransform="matrix(-1.4041999,2.4321486,-2.5896462,-1.4951312,3659.33,214.00332)"
       gradientUnits="userSpaceOnUse" />
    <radialGradient
       inkscape:collect="always"
       xlink:href="#linearGradient4990"
       id="radialGradient4996"
       cx="765.47821"
       cy="1161.8311"
       fx="765.47821"
       fy="1161.8311"
       r="61.375"
       gradientTransform="matrix(1.3360544,1.3360544,-1.440136,1.440136,790.43531,-1783.5723)"
       gradientUnits="userSpaceOnUse" />
    <linearGradient
       inkscape:collect="always"
       id="linearGradient4990">
      <stop
         style="stop-color:#0160e1;stop-opacity:1;"
         offset="0"
         id="stop4992" />
      <stop
         style="stop-color:#002d60;stop-opacity:0.97647059"
         offset="1"
         id="stop4994" />
    </linearGradient>
    <radialGradient
       r="59.484734"
       fy="129.80289"
       fx="644.96808"
       cy="129.80289"
       cx="644.96808"
       gradientTransform="matrix(-0.01752838,0.96144611,-1.0462016,-0.01907357,782.24591,-471.56403)"
       gradientUnits="userSpaceOnUse"
       id="radialGradient5835-4"
       xlink:href="#linearGradient5794-6"
       inkscape:collect="always" />
    <radialGradient
       gradientUnits="userSpaceOnUse"
       gradientTransform="matrix(1.7169551,0.63727989,-0.27861755,0.75064954,-404.24277,-359.75838)"
       r="17.67767"
       fy="149.02011"
       fx="624.67389"
       cy="149.02011"
       cx="624.67389"
       id="radialGradient5821-2"
       xlink:href="#linearGradient5815-1"
       inkscape:collect="always" />
    <radialGradient
       r="59.484734"
       fy="129.80289"
       fx="644.96808"
       cy="129.80289"
       cx="644.96808"
       gradientTransform="matrix(-0.01752838,0.96144611,-1.0462016,-0.01907357,782.24591,-471.56403)"
       gradientUnits="userSpaceOnUse"
       id="radialGradient5810-9"
       xlink:href="#linearGradient5794-6"
       inkscape:collect="always" />
    <radialGradient
       gradientUnits="userSpaceOnUse"
       gradientTransform="matrix(-0.01752838,0.96144611,-1.0462016,-0.01907357,782.24591,-471.56403)"
       r="59.484734"
       fy="129.80289"
       fx="644.96808"
       cy="129.80289"
       cx="644.96808"
       id="radialGradient5800-4"
       xlink:href="#linearGradient5794-6"
       inkscape:collect="always" />
    <linearGradient
       id="linearGradient5794-6">
      <stop
         id="stop5796-8"
         offset="0"
         style="stop-color:#ffffff;stop-opacity:1" />
      <stop
         id="stop5798-7"
         offset="1"
         style="stop-color:#686968;stop-opacity:1" />
    </linearGradient>
    <linearGradient
       id="linearGradient5815-1"
       inkscape:collect="always">
      <stop
         id="stop5817-2"
         offset="0"
         style="stop-color:#00edff;stop-opacity:1;" />
      <stop
         id="stop5819-0"
         offset="1"
         style="stop-color:#0092bf;stop-opacity:1" />
    </linearGradient>
    <radialGradient
       inkscape:collect="always"
       xlink:href="#linearGradient5903"
       id="radialGradient5909"
       cx="433.44233"
       cy="1157.5493"
       fx="433.44233"
       fy="1157.5493"
       r="50.294731"
       gradientTransform="matrix(1,0,0,0.8723526,0,147.75815)"
       gradientUnits="userSpaceOnUse" />
    <radialGradient
       inkscape:collect="always"
       xlink:href="#linearGradient5911"
       id="radialGradient5917"
       cx="433.47845"
       cy="1157.453"
       fx="433.47845"
       fy="1157.453"
       r="29.171875"
       gradientTransform="translate(0,9.9192549e-4)"
       gradientUnits="userSpaceOnUse" />
    <radialGradient
       inkscape:collect="always"
       xlink:href="#linearGradient5911"
       id="radialGradient5931"
       gradientUnits="userSpaceOnUse"
       gradientTransform="translate(0,9.9192549e-4)"
       cx="433.47845"
       cy="1157.453"
       fx="433.47845"
       fy="1157.453"
       r="29.171875" />
    <radialGradient
       inkscape:collect="always"
       xlink:href="#linearGradient5903"
       id="radialGradient5933"
       gradientUnits="userSpaceOnUse"
       gradientTransform="matrix(1,0,0,0.8723526,0,147.75815)"
       cx="433.44233"
       cy="1157.5493"
       fx="433.44233"
       fy="1157.5493"
       r="50.294731" />
    <radialGradient
       inkscape:collect="always"
       xlink:href="#linearGradient5903"
       id="radialGradient5936"
       gradientUnits="userSpaceOnUse"
       gradientTransform="matrix(2.4853498,0,0,2.1681014,-937.25581,-1597.322)"
       cx="433.44233"
       cy="1157.5493"
       fx="433.44233"
       fy="1157.5493"
       r="50.294731" />
    <radialGradient
       inkscape:collect="always"
       xlink:href="#linearGradient5911"
       id="radialGradient5939"
       gradientUnits="userSpaceOnUse"
       gradientTransform="matrix(2.4853498,0,0,2.4853498,-937.25581,-1964.5502)"
       cx="433.47845"
       cy="1157.453"
       fx="433.47845"
       fy="1157.453"
       r="29.171875" />
    <radialGradient
       inkscape:collect="always"
       xlink:href="#linearGradient5911"
       id="radialGradient5943"
       gradientUnits="userSpaceOnUse"
       gradientTransform="matrix(10.84957,0,0,10.84957,-4562.9652,-11645.734)"
       cx="433.47845"
       cy="1157.453"
       fx="433.47845"
       fy="1157.453"
       r="29.171875" />
    <radialGradient
       inkscape:collect="always"
       xlink:href="#linearGradient5911"
       id="radialGradient5950"
       gradientUnits="userSpaceOnUse"
       gradientTransform="matrix(2.4853498,0,0,2.4853498,-937.25581,-1964.5502)"
       cx="433.47845"
       cy="1157.453"
       fx="433.47845"
       fy="1157.453"
       r="29.171875" />
    <radialGradient
       inkscape:collect="always"
       xlink:href="#linearGradient5903"
       id="radialGradient5952"
       gradientUnits="userSpaceOnUse"
       gradientTransform="matrix(2.4853498,0,0,2.1681014,-937.25581,-1597.322)"
       cx="433.44233"
       cy="1157.5493"
       fx="433.44233"
       fy="1157.5493"
       r="50.294731" />
    <radialGradient
       inkscape:collect="always"
       xlink:href="#linearGradient5911"
       id="radialGradient5954"
       gradientUnits="userSpaceOnUse"
       gradientTransform="matrix(10.84957,0,0,10.84957,-4562.9652,-11645.734)"
       cx="433.47845"
       cy="1157.453"
       fx="433.47845"
       fy="1157.453"
       r="29.171875" />
    <radialGradient
       inkscape:collect="always"
       xlink:href="#linearGradient5911"
       id="radialGradient5957"
       gradientUnits="userSpaceOnUse"
       gradientTransform="matrix(10.84957,0,0,10.84957,-4563.055,-11645.495)"
       cx="433.47845"
       cy="1157.453"
       fx="433.47845"
       fy="1157.453"
       r="29.171875" />
    <radialGradient
       inkscape:collect="always"
       xlink:href="#linearGradient5903"
       id="radialGradient5960"
       gradientUnits="userSpaceOnUse"
       gradientTransform="matrix(2.4853498,0,0,2.1681014,-937.34559,-1597.0828)"
       cx="433.44233"
       cy="1157.5493"
       fx="433.44233"
       fy="1157.5493"
       r="50.294731" />
    <radialGradient
       inkscape:collect="always"
       xlink:href="#linearGradient5911"
       id="radialGradient5963"
       gradientUnits="userSpaceOnUse"
       gradientTransform="matrix(2.4853498,0,0,2.4853498,-937.34559,-1964.311)"
       cx="433.47845"
       cy="1157.453"
       fx="433.47845"
       fy="1157.453"
       r="29.171875" />
    <radialGradient
       gradientUnits="userSpaceOnUse"
       gradientTransform="matrix(-2.8164222,-2.8164222,0.8736784,-0.87367844,-795.33444,2075.3096)"
       r="83.120844"
       fy="1193.1532"
       fx="-0.86243242"
       cy="1193.1532"
       cx="-0.86243242"
       id="radialGradient6165"
       xlink:href="#linearGradient6159"
       inkscape:collect="always" />
    <linearGradient
       id="linearGradient5794-8">
      <stop
         id="stop5796-9"
         offset="0"
         style="stop-color:#ffffff;stop-opacity:1" />
      <stop
         id="stop5798-6"
         offset="1"
         style="stop-color:#686968;stop-opacity:1" />
    </linearGradient>
    <linearGradient
       id="linearGradient5999">
      <stop
         id="stop6001"
         offset="0"
         style="stop-color:#e8e1e1;stop-opacity:1" />
      <stop
         style="stop-color:#746173;stop-opacity:1"
         offset="0.32802483"
         id="stop6009" />
      <stop
         style="stop-color:#a18683;stop-opacity:1"
         offset="0.69424069"
         id="stop6007" />
      <stop
         id="stop6003"
         offset="1"
         style="stop-color:#ddb7ab;stop-opacity:1" />
    </linearGradient>
    <linearGradient
       id="linearGradient6159"
       inkscape:collect="always">
      <stop
         id="stop6161"
         offset="0"
         style="stop-color:#fdee87;stop-opacity:1" />
      <stop
         id="stop6163"
         offset="1"
         style="stop-color:#d63700;stop-opacity:1" />
    </linearGradient>
    <radialGradient
       inkscape:collect="always"
       xlink:href="#linearGradient5911"
       id="radialGradient6039"
       gradientUnits="userSpaceOnUse"
       gradientTransform="matrix(2.4853498,0,0,2.4853498,-937.34559,-1964.311)"
       cx="433.47845"
       cy="1157.453"
       fx="433.47845"
       fy="1157.453"
       r="29.171875" />
    <radialGradient
       inkscape:collect="always"
       xlink:href="#linearGradient5903"
       id="radialGradient6041"
       gradientUnits="userSpaceOnUse"
       gradientTransform="matrix(2.4853498,0,0,2.1681014,-937.34559,-1597.0828)"
       cx="433.44233"
       cy="1157.5493"
       fx="433.44233"
       fy="1157.5493"
       r="50.294731" />
    <radialGradient
       inkscape:collect="always"
       xlink:href="#linearGradient6159"
       id="radialGradient6044"
       gradientUnits="userSpaceOnUse"
       gradientTransform="matrix(-0.66449958,-0.66449958,0.20613349,-0.2061335,103.84165,1467.3079)"
       cx="-0.86243242"
       cy="1193.1532"
       fx="-0.86243242"
       fy="1193.1532"
       r="83.120844" />
    <radialGradient
       inkscape:collect="always"
       xlink:href="#linearGradient5903"
       id="radialGradient6047"
       gradientUnits="userSpaceOnUse"
       gradientTransform="matrix(1.0246482,0,0,0.89385455,-72.419227,120.33266)"
       cx="433.44233"
       cy="1157.5493"
       fx="433.44233"
       fy="1157.5493"
       r="50.294731" />
    <radialGradient
       inkscape:collect="always"
       xlink:href="#linearGradient5911"
       id="radialGradient6050"
       gradientUnits="userSpaceOnUse"
       gradientTransform="matrix(1.0246482,0,0,1.0246482,-72.419227,-31.066439)"
       cx="433.47845"
       cy="1157.453"
       fx="433.47845"
       fy="1157.453"
       r="29.171875" />
    <radialGradient
       inkscape:collect="always"
       xlink:href="#linearGradient5911"
       id="radialGradient6057"
       gradientUnits="userSpaceOnUse"
       gradientTransform="matrix(1.0246482,0,0,1.0246482,-72.419227,-31.066439)"
       cx="433.47845"
       cy="1157.453"
       fx="433.47845"
       fy="1157.453"
       r="29.171875" />
    <radialGradient
       inkscape:collect="always"
       xlink:href="#linearGradient5903"
       id="radialGradient6059"
       gradientUnits="userSpaceOnUse"
       gradientTransform="matrix(1.0246482,0,0,0.89385455,-72.419227,120.33266)"
       cx="433.44233"
       cy="1157.5493"
       fx="433.44233"
       fy="1157.5493"
       r="50.294731" />
    <radialGradient
       inkscape:collect="always"
       xlink:href="#linearGradient6159"
       id="radialGradient6061"
       gradientUnits="userSpaceOnUse"
       gradientTransform="matrix(-0.66449958,-0.66449958,0.20613349,-0.2061335,103.84165,1467.3079)"
       cx="-0.86243242"
       cy="1193.1532"
       fx="-0.86243242"
       fy="1193.1532"
       r="83.120844" />
    <radialGradient
       inkscape:collect="always"
       xlink:href="#linearGradient6159"
       id="radialGradient6064"
       gradientUnits="userSpaceOnUse"
       gradientTransform="matrix(-1.3285529,-1.3285529,0.41212854,-0.41212856,-373.58448,1514.3011)"
       cx="-0.86243242"
       cy="1193.1532"
       fx="-0.86243242"
       fy="1193.1532"
       r="83.120844" />
    <radialGradient
       inkscape:collect="always"
       xlink:href="#linearGradient5903"
       id="radialGradient6067"
       gradientUnits="userSpaceOnUse"
       gradientTransform="matrix(2.0486082,0,0,1.7871088,-725.98786,-1178.7448)"
       cx="433.44233"
       cy="1157.5493"
       fx="433.44233"
       fy="1157.5493"
       r="50.294731" />
    <radialGradient
       inkscape:collect="always"
       xlink:href="#linearGradient5911"
       id="radialGradient6070"
       gradientUnits="userSpaceOnUse"
       gradientTransform="matrix(2.0486082,0,0,2.0486082,-725.98786,-1481.4413)"
       cx="433.47845"
       cy="1157.453"
       fx="433.47845"
       fy="1157.453"
       r="29.171875" />
  </defs>
  <sodipodi:namedview
     id="base"
     pagecolor="#ffffff"
     bordercolor="#666666"
     borderopacity="1.0"
     inkscape:pageopacity="0.0"
     inkscape:pageshadow="2"
     inkscape:zoom="0.70710678"
     inkscape:cx="692.4522"
     inkscape:cy="-113.44117"
     inkscape:document-units="px"
     inkscape:current-layer="layer1"
     showgrid="false"
     borderlayer="true"
     inkscape:showpageshadow="false"
     inkscape:window-width="2560"
     inkscape:window-height="1028"
     inkscape:window-x="1920"
     inkscape:window-y="0"
     inkscape:window-maximized="1" />
  <metadata
     id="metadata7">
    <rdf:RDF>
      <cc:Work
         rdf:about="">
        <dc:format>image/svg+xml</dc:format>
        <dc:type
           rdf:resource="http://purl.org/dc/dcmitype/StillImage" />
        <dc:title></dc:title>
      </cc:Work>
    </rdf:RDF>
  </metadata>
  <g
     inkscape:label="Calque 1"
     inkscape:groupmode="layer"
     id="layer1"
     transform="translate(0,-772.36218)">
    <path
       style="fill:url(#radialGradient6070);fill-opacity:1;stroke:none"
       d="m 162.00767,829.96273 c -33.0013,0 -59.72974,26.7926 -59.72974,59.79372 0,33.00131 26.72844,59.72973 59.72974,59.72973 33.00129,0 59.79375,-26.72842 59.79375,-59.72973 0,-33.00112 -26.79246,-59.79372 -59.79375,-59.79372 z m 0,18.50139 c 22.80088,0 41.29227,18.49139 41.29227,41.29233 0,22.80094 -18.49139,41.29233 -41.29227,41.29233 -22.80088,0 -41.22823,-18.49139 -41.22823,-41.29233 0,-22.80094 18.42735,-41.29233 41.22823,-41.29233 z"
       id="path5831"
       inkscape:connector-curvature="0" />
    <path
       style="fill:url(#radialGradient6067);fill-opacity:1;stroke:none"
       d="m 211.59999,800.03979 c -1.68212,0.064 -2.91856,1.71862 -2.56076,5.0573 0.006,0.068 -0.008,0.12396 0,0.19193 0.63497,3.23252 1.0243,6.5512 1.0243,9.98685 0,22.69018 -14.36112,41.90672 -34.0581,48.2062 -5.17275,2.66191 -9.83732,6.13015 -13.89214,10.17919 -0.01,-0.02 -0.053,0.02 -0.0638,0 6.74964,6.75633 11.47329,15.15131 13.89214,24.19927 -9.2359,2.48896 -18.85227,2.42218 -27.91229,0 2.47141,-9.26589 7.36427,-17.55751 14.02015,-24.19927 -3.21814,-3.22132 -6.8259,-6.07097 -10.94724,-8.45057 -1.07574,-0.62119 -2.15851,-1.1912 -3.26496,-1.72862 -0.0714,-0.022 -0.12096,-0.10396 -0.19194,-0.12595 -19.50928,-6.40865 -33.67401,-25.51643 -33.67401,-48.07825 0,-3.68397 0.37234,-7.24317 1.08832,-10.69121 0.002,-0.042 -0.002,-0.086 0,-0.12596 0.20241,-4.92834 -3.50191,-5.55493 -6.14582,-2.43278 -6.21007,9.30587 -9.794907,20.33837 -9.794907,32.20158 0,7.67862 1.542677,15.01336 4.289277,21.76649 -7.239426,0.98987 -14.398921,3.2589 -21.062263,7.10601 -10.495055,6.05917 -18.312309,14.96697 -23.238894,25.28771 -0.324971,1.32415 -0.187337,2.52115 0.320093,3.32888 0.895119,1.42552 2.920959,1.72342 5.633667,-0.25591 0.05378,-0.04 0.137754,-0.088 0.191936,-0.12796 2.481906,-2.16607 5.154928,-4.172 8.130429,-5.88962 19.520663,-11.27042 43.136252,-8.55173 58.449342,5.12148 0.0348,0.03 0.0934,0.032 0.12796,0.064 0.0246,0.02 0.0394,0.048 0.064,0.064 4.93094,3.20713 10.27941,5.53794 15.87671,7.04204 -1.18838,4.41152 -1.79246,8.98918 -1.79252,13.76397 -4e-5,1.29837 0.0338,2.62052 0.12796,3.90529 0.002,0.02 -0.002,0.044 0,0.064 4.22262,20.10465 -5.23059,41.91552 -24.77536,53.19973 -3.19051,1.84198 -6.51493,3.31329 -9.85893,4.41732 -0.0372,0.02 -0.029,0.046 -0.064,0.064 -4.36949,2.28903 -3.06551,5.80145 0.96028,6.53 11.16413,0.72536 22.50394,-1.68663 32.77775,-7.61824 6.65172,-3.84031 12.23313,-8.83923 16.70895,-14.5965 4.46801,5.74487 10.07281,10.70121 16.70896,14.53252 10.49498,6.05917 22.08067,8.44816 33.48194,7.55426 1.30926,-0.38067 2.30694,-1.14141 2.75283,-1.98473 0.78686,-1.4879 -0.002,-3.37766 -3.07291,-4.73741 -0.0612,-0.026 -0.12915,-0.038 -0.19193,-0.064 -3.11688,-1.06644 -6.17929,-2.3794 -9.15471,-4.09722 -19.66831,-11.35558 -29.13477,-33.42317 -24.71134,-53.64818 0.26455,-5.78605 -0.38413,-11.51833 -1.85655,-17.02888 4.41451,-1.1766 8.7325,-2.92622 12.86781,-5.31381 0.9661,-0.55762 1.89535,-1.12483 2.81684,-1.72842 15.29518,-14.05108 39.22612,-16.89973 58.96151,-5.50555 3.19041,1.84218 6.07852,3.92988 8.70658,6.27389 0.035,0.022 0.0934,0.044 0.12815,0.064 4.16701,2.63971 6.56742,-0.24632 5.18554,-4.09723 -4.95399,-10.03103 -12.77299,-18.65173 -23.04686,-24.58334 -6.61691,-3.82011 -13.68532,-6.16333 -20.87018,-7.16999 2.73158,-6.73154 4.22526,-14.05348 4.22526,-21.70231 0,-12.11853 -3.76846,-23.35096 -10.24304,-32.77779 -0.98419,-0.94368 -2.11979,-1.44391 -3.07293,-1.40853 z"
       id="path5846"
       inkscape:connector-curvature="0" />
    <path
       style="fill:url(#radialGradient6064);fill-opacity:1;stroke:none"
       d="m 59.185787,921.71031 c -3.167536,-3.36147 -3.200985,4.59626 -4.951657,12.25549 -1.867393,8.16985 -8.273481,13.88533 -8.273481,13.88533 0,0 52.361451,49.16649 66.352631,68.91107 -19.746866,-13.9949 -68.890338,-66.37332 -68.890338,-66.37332 0,0 -5.71552,6.40605 -13.885416,8.27362 -8.169856,1.86737 -16.682176,1.76021 -11.4301,5.61172 5.252095,3.8515 41.202179,16.93891 41.202179,16.93891 0,0 -3.623183,2.18826 -6.891125,2.88863 -3.267942,0.70016 -10.721958,-0.44845 -6.870472,2.70269 3.851486,3.15134 32.672045,15.86785 39.32469,16.91835 -5.718939,2.9178 -14.604274,2.2148 -8.768614,6.4164 4.889757,3.5208 20.438474,12.9495 41.552946,14.4014 0.16334,0.02 0.33104,0.03 0.49513,0.042 0.68221,0.044 1.36976,0.056 2.06319,0.082 -0.002,0.02 0.0234,0.02 0.0206,0.02 0.004,0 0.014,-0.02 0.0204,-0.02 -0.0632,-1.7378 -0.18374,-3.4304 -0.35078,-5.0961 -0.0344,-0.3538 -0.0644,-0.7017 -0.10317,-1.0522 -0.0542,-0.4784 -0.12375,-0.9517 -0.18573,-1.4235 -0.0242,-0.188 -0.0366,-0.3709 -0.062,-0.5572 -0.0872,-0.631 -0.18874,-1.2378 -0.28884,-1.8568 l -0.0206,-0.02 c -2.79974,-17.294 -10.44167,-29.82959 -13.53465,-34.12534 -4.20161,-5.83564 -3.49871,3.04957 -6.416566,8.76865 -1.050367,-6.65277 -13.766975,-35.47328 -16.918237,-39.32479 -3.151261,-3.85151 -2.002527,3.60259 -2.702792,6.87049 -0.700285,3.2679 -2.88853,6.89129 -2.88853,6.89129 0,0 -13.087404,-35.95013 -16.93889,-41.20236 -0.240919,-0.32809 -0.449069,-0.6012 -0.660238,-0.82513 z M 25.122289,910.67222 c -8.896691,-8.56832 -7.76793,-2.18706 -9.470099,10.50168 -1.793457,13.3697 0.441412,13.70079 2.723426,16.09299 6.951344,-5.73248 13.836732,-10.16279 19.579802,-13.01883 -2.717267,-2.91682 -6.051347,-6.47202 -10.914353,-11.65708 -0.68577,-0.70676 -1.325395,-1.34775 -1.918776,-1.91876 z m 16.072361,17.22782 c -5.408043,2.60232 -12.455696,6.97845 -19.600416,12.7919 2.357388,2.48676 5.308497,5.52514 7.716228,7.84036 3.541231,-9.58797 8.018387,-16.30092 11.884048,-20.63206 z m 3.177373,3.46603 c -3.566082,4.10262 -7.877474,10.68301 -11.203217,20.24 3.034901,1.186 6.398431,-1.29836 10.9556,-6.41644 5.364318,-6.02458 3.878817,-8.99558 1.733078,-11.96658 -0.395787,-0.54802 -0.910434,-1.16621 -1.485461,-1.85698 z"
       id="path6121"
       inkscape:connector-curvature="0" />
  </g>
</svg>
