<?xml version="1.0" encoding="UTF-8" standalone="no"?>
<!-- Created with Inkscape (http://www.inkscape.org/) -->

<svg
   xmlns:dc="http://purl.org/dc/elements/1.1/"
   xmlns:cc="http://creativecommons.org/ns#"
   xmlns:rdf="http://www.w3.org/1999/02/22-rdf-syntax-ns#"
   xmlns:svg="http://www.w3.org/2000/svg"
   xmlns="http://www.w3.org/2000/svg"
   xmlns:xlink="http://www.w3.org/1999/xlink"
   xmlns:sodipodi="http://sodipodi.sourceforge.net/DTD/sodipodi-0.dtd"
   xmlns:inkscape="http://www.inkscape.org/namespaces/inkscape"
   width="280"
   height="280"
   id="svg2"
   version="1.1"
   inkscape:version="0.48.4 r9939"
   sodipodi:docname="xxxxy.svg">
  <defs
     id="defs4">
    <linearGradient
       id="linearGradient5911">
      <stop
         style="stop-color:#a6871b;stop-opacity:1;"
         offset="0"
         id="stop5913" />
      <stop
         style="stop-color:#a1811c;stop-opacity:1"
         offset="1"
         id="stop5915" />
    </linearGradient>
    <linearGradient
       inkscape:collect="always"
       id="linearGradient5903">
      <stop
         style="stop-color:#fbd00f;stop-opacity:1;"
         offset="0"
         id="stop5905" />
      <stop
         style="stop-color:#e49e00;stop-opacity:1"
         offset="1"
         id="stop5907" />
    </linearGradient>
    <linearGradient
       id="linearGradient5703">
      <stop
         style="stop-color:#f3f3f3;stop-opacity:1;"
         offset="0"
         id="stop5705" />
      <stop
         style="stop-color:#6c756c;stop-opacity:1"
         offset="1"
         id="stop5707" />
    </linearGradient>
    <linearGradient
       inkscape:collect="always"
       id="linearGradient4648">
      <stop
         style="stop-color:#3083cf;stop-opacity:1;"
         offset="0"
         id="stop4650" />
      <stop
         style="stop-color:#001084;stop-opacity:1"
         offset="1"
         id="stop4652" />
    </linearGradient>
    <linearGradient
       id="linearGradient4351">
      <stop
         style="stop-color:#fb0d00;stop-opacity:0.67843139"
         offset="0"
         id="stop4353" />
      <stop
         id="stop4359"
         offset="0.60000002"
         style="stop-color:#8d1f18;stop-opacity:1" />
      <stop
         style="stop-color:#000000;stop-opacity:1"
         offset="1"
         id="stop4355" />
    </linearGradient>
    <linearGradient
       id="linearGradient3893">
      <stop
         style="stop-color:#e48713;stop-opacity:1;"
         offset="0"
         id="stop3895" />
      <stop
         id="stop3901"
         offset="0.5"
         style="stop-color:#f8d260;stop-opacity:1;" />
      <stop
         style="stop-color:#fffeeb;stop-opacity:1"
         offset="1"
         id="stop3897" />
    </linearGradient>
    <linearGradient
       inkscape:collect="always"
       id="linearGradient5815">
      <stop
         style="stop-color:#00edff;stop-opacity:1;"
         offset="0"
         id="stop5817" />
      <stop
         style="stop-color:#0092bf;stop-opacity:1"
         offset="1"
         id="stop5819" />
    </linearGradient>
    <linearGradient
       id="linearGradient5794">
      <stop
         style="stop-color:#ffffff;stop-opacity:1"
         offset="0"
         id="stop5796" />
      <stop
         style="stop-color:#686968;stop-opacity:1"
         offset="1"
         id="stop5798" />
    </linearGradient>
    <radialGradient
       inkscape:collect="always"
       xlink:href="#linearGradient5794"
       id="radialGradient5800"
       cx="644.96808"
       cy="129.80289"
       fx="644.96808"
       fy="129.80289"
       r="59.484734"
       gradientTransform="matrix(-0.01752838,0.96144611,-1.0462016,-0.01907357,782.24591,-471.56403)"
       gradientUnits="userSpaceOnUse" />
    <radialGradient
       inkscape:collect="always"
       xlink:href="#linearGradient5794"
       id="radialGradient5810"
       gradientUnits="userSpaceOnUse"
       gradientTransform="matrix(-0.01752838,0.96144611,-1.0462016,-0.01907357,782.24591,-471.56403)"
       cx="644.96808"
       cy="129.80289"
       fx="644.96808"
       fy="129.80289"
       r="59.484734" />
    <radialGradient
       inkscape:collect="always"
       xlink:href="#linearGradient5815"
       id="radialGradient5821"
       cx="624.67389"
       cy="149.02011"
       fx="624.67389"
       fy="149.02011"
       r="17.67767"
       gradientTransform="matrix(1.7169551,0.63727989,-0.27861755,0.75064954,-404.24277,-359.75838)"
       gradientUnits="userSpaceOnUse" />
    <radialGradient
       inkscape:collect="always"
       xlink:href="#linearGradient5794"
       id="radialGradient5835"
       gradientUnits="userSpaceOnUse"
       gradientTransform="matrix(-0.01752838,0.96144611,-1.0462016,-0.01907357,782.24591,-471.56403)"
       cx="644.96808"
       cy="129.80289"
       fx="644.96808"
       fy="129.80289"
       r="59.484734" />
    <radialGradient
       inkscape:collect="always"
       xlink:href="#linearGradient4648"
       id="radialGradient4654"
       cx="832.76562"
       cy="915.23199"
       fx="832.76562"
       fy="915.23199"
       r="61.984375"
       gradientTransform="matrix(-1.4041999,2.4321486,-2.5896462,-1.4951312,3659.33,214.00332)"
       gradientUnits="userSpaceOnUse" />
    <radialGradient
       inkscape:collect="always"
       xlink:href="#linearGradient4990"
       id="radialGradient4996"
       cx="765.47821"
       cy="1161.8311"
       fx="765.47821"
       fy="1161.8311"
       r="61.375"
       gradientTransform="matrix(1.3360544,1.3360544,-1.440136,1.440136,790.43531,-1783.5723)"
       gradientUnits="userSpaceOnUse" />
    <linearGradient
       inkscape:collect="always"
       id="linearGradient4990">
      <stop
         style="stop-color:#0160e1;stop-opacity:1;"
         offset="0"
         id="stop4992" />
      <stop
         style="stop-color:#002d60;stop-opacity:0.97647059"
         offset="1"
         id="stop4994" />
    </linearGradient>
    <radialGradient
       r="59.484734"
       fy="129.80289"
       fx="644.96808"
       cy="129.80289"
       cx="644.96808"
       gradientTransform="matrix(-0.01752838,0.96144611,-1.0462016,-0.01907357,782.24591,-471.56403)"
       gradientUnits="userSpaceOnUse"
       id="radialGradient5835-4"
       xlink:href="#linearGradient5794-6"
       inkscape:collect="always" />
    <radialGradient
       gradientUnits="userSpaceOnUse"
       gradientTransform="matrix(1.7169551,0.63727989,-0.27861755,0.75064954,-404.24277,-359.75838)"
       r="17.67767"
       fy="149.02011"
       fx="624.67389"
       cy="149.02011"
       cx="624.67389"
       id="radialGradient5821-2"
       xlink:href="#linearGradient5815-1"
       inkscape:collect="always" />
    <radialGradient
       r="59.484734"
       fy="129.80289"
       fx="644.96808"
       cy="129.80289"
       cx="644.96808"
       gradientTransform="matrix(-0.01752838,0.96144611,-1.0462016,-0.01907357,782.24591,-471.56403)"
       gradientUnits="userSpaceOnUse"
       id="radialGradient5810-9"
       xlink:href="#linearGradient5794-6"
       inkscape:collect="always" />
    <radialGradient
       gradientUnits="userSpaceOnUse"
       gradientTransform="matrix(-0.01752838,0.96144611,-1.0462016,-0.01907357,782.24591,-471.56403)"
       r="59.484734"
       fy="129.80289"
       fx="644.96808"
       cy="129.80289"
       cx="644.96808"
       id="radialGradient5800-4"
       xlink:href="#linearGradient5794-6"
       inkscape:collect="always" />
    <linearGradient
       id="linearGradient5794-6">
      <stop
         id="stop5796-8"
         offset="0"
         style="stop-color:#ffffff;stop-opacity:1" />
      <stop
         id="stop5798-7"
         offset="1"
         style="stop-color:#686968;stop-opacity:1" />
    </linearGradient>
    <linearGradient
       id="linearGradient5815-1"
       inkscape:collect="always">
      <stop
         id="stop5817-2"
         offset="0"
         style="stop-color:#00edff;stop-opacity:1;" />
      <stop
         id="stop5819-0"
         offset="1"
         style="stop-color:#0092bf;stop-opacity:1" />
    </linearGradient>
    <radialGradient
       inkscape:collect="always"
       xlink:href="#linearGradient5903"
       id="radialGradient5960"
       gradientUnits="userSpaceOnUse"
       gradientTransform="matrix(2.4853498,0,0,2.1681014,-937.34559,-1597.0828)"
       cx="433.44233"
       cy="1157.5493"
       fx="433.44233"
       fy="1157.5493"
       r="50.294731" />
    <radialGradient
       inkscape:collect="always"
       xlink:href="#linearGradient5911"
       id="radialGradient5963"
       gradientUnits="userSpaceOnUse"
       gradientTransform="matrix(2.4853498,0,0,2.4853498,-937.34559,-1964.311)"
       cx="433.47845"
       cy="1157.453"
       fx="433.47845"
       fy="1157.453"
       r="29.171875" />
  </defs>
  <sodipodi:namedview
     id="base"
     pagecolor="#ffffff"
     bordercolor="#666666"
     borderopacity="1.0"
     inkscape:pageopacity="0.0"
     inkscape:pageshadow="2"
     inkscape:zoom="0.5"
     inkscape:cx="1314.6016"
     inkscape:cy="-239.60213"
     inkscape:document-units="px"
     inkscape:current-layer="layer1"
     showgrid="false"
     borderlayer="true"
     inkscape:showpageshadow="false"
     inkscape:window-width="2560"
     inkscape:window-height="1028"
     inkscape:window-x="1920"
     inkscape:window-y="0"
     inkscape:window-maximized="1" />
  <metadata
     id="metadata7">
    <rdf:RDF>
      <cc:Work
         rdf:about="">
        <dc:format>image/svg+xml</dc:format>
        <dc:type
           rdf:resource="http://purl.org/dc/dcmitype/StillImage" />
        <dc:title></dc:title>
      </cc:Work>
    </rdf:RDF>
  </metadata>
  <g
     inkscape:label="Calque 1"
     inkscape:groupmode="layer"
     id="layer1"
     transform="translate(0,-772.36218)">
    <path
       style="fill:url(#radialGradient5963);fill-opacity:1;stroke:none"
       d="m 139.96116,839.8599 c -40.036825,0 -72.463477,32.5044 -72.463477,72.54115 0,40.03675 32.426652,72.46336 72.463477,72.46336 40.03682,0 72.54115,-32.42661 72.54115,-72.46336 0,-40.03675 -32.50433,-72.54115 -72.54115,-72.54115 z m 0,22.4457 c 27.66179,0 50.09533,22.43351 50.09533,50.09545 0,27.6617 -22.43354,50.09521 -50.09533,50.09521 -27.6618,0 -50.017662,-22.43351 -50.017662,-50.09521 0,-27.66194 22.355862,-50.09545 50.017662,-50.09545 z"
       id="path5831"
       inkscape:connector-curvature="0" />
    <path
       style="fill:url(#radialGradient5960);fill-opacity:1;stroke:none"
       d="m 200.12603,803.55764 c -2.04072,0.077 -3.54077,2.08496 -3.10668,6.13559 0.007,0.082 -0.01,0.1516 0,0.23362 0.77033,3.92163 1.24267,7.9479 1.24267,12.11608 0,27.52748 -17.42277,50.84081 -41.31894,58.48326 -6.27551,3.22922 -11.93452,7.43691 -16.85378,12.34921 -0.0124,-0.0249 -0.0644,0.0249 -0.0775,0 8.18858,8.19668 13.91926,18.3814 16.85378,29.35819 -11.20488,3.0197 -22.87136,2.93868 -33.86288,0 2.9983,-11.24123 8.93425,-21.30044 17.0091,-29.35819 -3.90421,-3.90797 -8.28111,-7.36534 -13.28108,-10.25207 -1.30508,-0.75356 -2.61869,-1.44523 -3.96102,-2.09714 -0.0865,-0.0273 -0.14665,-0.12675 -0.23288,-0.15409 -23.668465,-7.77492 -40.852944,-30.95627 -40.852944,-58.32793 0,-4.4694 0.451712,-8.78745 1.320342,-12.97054 0.0025,-0.0497 -0.002,-0.10439 0,-0.15409 0.245552,-5.97901 -4.248482,-6.73903 -7.45605,-2.95136 -7.53399,11.28971 -11.883078,24.67431 -11.883078,39.06672 0,9.31559 1.871567,18.21389 5.203701,26.40684 -8.782804,1.20092 -17.468604,3.9537 -25.552503,8.62093 -12.732497,7.35092 -22.216318,18.15772 -28.193187,30.67867 -0.394251,1.60653 -0.227161,3.05872 0.388336,4.03869 1.085949,1.72931 3.543662,2.09068 6.834712,-0.31067 0.06512,-0.0472 0.167016,-0.10687 0.232878,-0.15409 3.011001,-2.62801 6.253885,-5.06142 9.863732,-7.14538 23.682276,-13.67315 52.332445,-10.37485 70.910131,6.21337 0.0422,0.0373 0.11333,0.0398 0.15533,0.0771 0.0298,0.0248 0.0477,0.0596 0.0776,0.077 5.98216,3.89082 12.47086,6.71865 19.26146,8.54339 -1.44173,5.35196 -2.17461,10.90547 -2.17468,16.69832 -5e-5,1.57497 0.041,3.17901 0.15533,4.73783 0.002,0.0249 -0.002,0.0522 0,0.077 5.12285,24.39073 -6.34567,50.8515 -30.057193,64.5415 -3.870683,2.2346 -7.903834,4.0196 -11.960746,5.3589 -0.04498,0.025 -0.03504,0.055 -0.07754,0.077 -5.301028,2.7769 -3.719053,7.0383 1.165007,7.922 13.544187,0.8801 27.301532,-2.0461 39.765602,-9.2424 8.0698,-4.659 14.84111,-10.7235 20.27113,-17.70817 5.42054,6.96947 12.22022,12.98257 20.27114,17.63067 12.73239,7.351 26.78803,10.2491 40.61993,9.1647 1.58836,-0.4618 2.79875,-1.3848 3.33969,-2.4078 0.95462,-1.8051 -0.002,-4.0978 -3.72802,-5.7474 -0.0743,-0.032 -0.15658,-0.045 -0.23288,-0.077 -3.78136,-1.2936 -7.49666,-2.8865 -11.10641,-4.9707 -23.86139,-13.77639 -35.346,-40.54858 -29.97953,-65.08519 0.32096,-7.01962 -0.46603,-13.97413 -2.25236,-20.65947 5.35566,-1.42734 10.5942,-3.55008 15.61111,-6.4465 1.17206,-0.67652 2.29942,-1.36471 3.41735,-2.09689 18.55595,-17.04677 47.58873,-20.50265 71.53149,-6.67938 3.87056,2.23483 7.3744,4.76765 10.56272,7.61138 0.0425,0.0273 0.11334,0.0522 0.15535,0.077 5.05536,3.20237 7.96753,-0.29899 6.29104,-4.9707 -6.01012,-12.16952 -15.49606,-22.62812 -27.96019,-29.8242 -8.02758,-4.63468 -16.6029,-7.47742 -25.3195,-8.69872 3.31392,-8.16661 5.12603,-17.0495 5.12603,-26.32905 0,-14.70209 -4.57183,-28.32901 -12.42674,-39.7656 -1.19401,-1.14475 -2.57169,-1.75167 -3.72803,-1.70868 z"
       id="path5846"
       inkscape:connector-curvature="0" />
  </g>
</svg>
