<?xml version="1.0" encoding="UTF-8" standalone="no"?>
<!-- Created with Inkscape (http://www.inkscape.org/) -->

<svg
   xmlns:dc="http://purl.org/dc/elements/1.1/"
   xmlns:cc="http://creativecommons.org/ns#"
   xmlns:rdf="http://www.w3.org/1999/02/22-rdf-syntax-ns#"
   xmlns:svg="http://www.w3.org/2000/svg"
   xmlns="http://www.w3.org/2000/svg"
   xmlns:xlink="http://www.w3.org/1999/xlink"
   xmlns:sodipodi="http://sodipodi.sourceforge.net/DTD/sodipodi-0.dtd"
   xmlns:inkscape="http://www.inkscape.org/namespaces/inkscape"
   width="280"
   height="280"
   id="svg2"
   version="1.1"
   inkscape:version="0.48.4 r9939"
   sodipodi:docname="captain.svg">
  <defs
     id="defs4">
    <linearGradient
       id="linearGradient5999">
      <stop
         style="stop-color:#e8e1e1;stop-opacity:1"
         offset="0"
         id="stop6001" />
      <stop
         id="stop6009"
         offset="0.32802483"
         style="stop-color:#746173;stop-opacity:1" />
      <stop
         id="stop6007"
         offset="0.69424069"
         style="stop-color:#a18683;stop-opacity:1" />
      <stop
         style="stop-color:#ddb7ab;stop-opacity:1"
         offset="1"
         id="stop6003" />
    </linearGradient>
    <linearGradient
       id="linearGradient5794">
      <stop
         style="stop-color:#ffffff;stop-opacity:1"
         offset="0"
         id="stop5796" />
      <stop
         style="stop-color:#686968;stop-opacity:1"
         offset="1"
         id="stop5798" />
    </linearGradient>
    <radialGradient
       inkscape:collect="always"
       xlink:href="#linearGradient5999"
       id="radialGradient6005"
       cx="973.67151"
       cy="815.64313"
       fx="973.67151"
       fy="815.64313"
       r="65.03125"
       gradientTransform="matrix(2.3195819,-2.6637469,2.4691873,2.1501605,-4131.1276,1085.1861)"
       gradientUnits="userSpaceOnUse" />
    <radialGradient
       inkscape:collect="always"
       xlink:href="#linearGradient5999"
       id="radialGradient6033"
       gradientUnits="userSpaceOnUse"
       gradientTransform="matrix(3.3071922,-3.7978926,3.5204952,3.0656361,-5949.6489,2282.5037)"
       cx="973.67151"
       cy="815.64313"
       fx="973.67151"
       fy="815.64313"
       r="65.03125" />
  </defs>
  <sodipodi:namedview
     id="base"
     pagecolor="#ffffff"
     bordercolor="#666666"
     borderopacity="1.0"
     inkscape:pageopacity="0.0"
     inkscape:pageshadow="2"
     inkscape:zoom="2"
     inkscape:cx="246.14192"
     inkscape:cy="89.666653"
     inkscape:document-units="px"
     inkscape:current-layer="layer1"
     showgrid="false"
     borderlayer="true"
     inkscape:showpageshadow="false"
     inkscape:window-width="2560"
     inkscape:window-height="1028"
     inkscape:window-x="1920"
     inkscape:window-y="0"
     inkscape:window-maximized="1" />
  <metadata
     id="metadata7">
    <rdf:RDF>
      <cc:Work
         rdf:about="">
        <dc:format>image/svg+xml</dc:format>
        <dc:type
           rdf:resource="http://purl.org/dc/dcmitype/StillImage" />
        <dc:title></dc:title>
      </cc:Work>
    </rdf:RDF>
  </metadata>
  <g
     inkscape:label="Calque 1"
     inkscape:groupmode="layer"
     id="layer1"
     transform="translate(0,-772.36218)">
    <path
       style="fill:url(#radialGradient6033);fill-opacity:1;stroke:none"
       d="m 22.819642,787.36218 c 0,0 -2.392344,46.49584 14.079487,98.33363 11.661807,36.70037 30.243946,69.3537 66.699331,111.92301 2.64467,3.08818 5.40489,6.20308 8.24274,9.40118 2.81233,3.1694 5.72262,6.4253 8.73285,9.7131 2.68886,2.9366 5.34521,5.8721 8.19818,8.911 0.39366,0.4194 0.8062,0.7371 1.20299,1.1585 3.22966,3.4294 6.49033,6.9899 9.93584,10.5596 0.0285,-0.03 0.0606,-0.059 0.0891,-0.089 2.75173,-2.8502 5.43582,-5.6096 8.06451,-8.3764 0.61579,-0.6507 1.26295,-1.3591 1.87133,-2.005 0.73826,-0.7801 1.41051,-1.5434 2.13865,-2.3169 2.49467,-2.6638 4.89446,-5.1679 7.26252,-7.7526 0.7347,-0.7964 1.41622,-1.5277 2.13866,-2.3169 2.27624,-2.5022 4.43343,-4.9631 6.59419,-7.3962 1.03639,-1.1611 2.02103,-2.2855 3.02976,-3.4307 1.74743,-1.9844 3.55067,-3.94414 5.21298,-5.88135 l 0.0891,-0.17822 c 36.45952,-42.551 55.0381,-75.22658 66.69934,-111.92301 16.4705,-51.83776 14.07906,-98.33363 14.07948,-98.33363 0,0 -44.57073,16.97558 -110.94279,16.97558 l -12.47549,0 c -66.371765,0 -110.942788,-16.97558 -110.942788,-16.97558 z m 17.153805,21.743 c 20.359836,5.18757 52.381468,11.49528 93.788983,11.49528 l 12.47549,0 c 41.52372,0 73.62574,-6.30039 93.96721,-11.49528 -0.12832,2.39422 -0.0482,3.77438 -0.26733,6.50508 -1.37815,17.17648 -4.78453,40.57215 -12.52005,64.91713 -10.98628,34.57382 -27.98631,64.73072 -63.53591,106.21993 l -0.0891,0.17822 -1.203,1.33666 c -1.20535,1.3687 -2.40057,2.7414 -3.83176,4.36642 -1.12764,1.2804 -2.02338,2.36407 -2.89609,3.34165 l -0.0891,0.0891 c -2.14749,2.41797 -4.28565,4.73763 -6.46052,7.12883 -0.0271,0.016 0.0271,0.073 0,0.089 -0.61436,0.6704 -1.26138,1.3731 -2.04954,2.2278 l -0.0891,0 c -2.22177,2.4249 -4.55697,4.9206 -7.08429,7.619 -0.0271,0.016 0.0271,0.073 0,0.089 -0.0513,0.056 -0.12818,0.034 -0.17823,0.089 -2.44177,-2.6144 -4.76642,-5.2574 -7.1734,-7.8863 -2.96646,-3.2399 -5.85771,-6.35634 -8.59919,-9.44577 -2.7841,-3.13778 -5.44844,-6.22044 -8.01996,-9.22295 C 80.569205,945.23589 63.524643,915.10273 52.538052,880.52739 42.886382,850.15306 40.701888,826.22436 39.973447,809.10518 z m 21.653894,24.05989 c 1.837534,12.74741 4.380824,26.65003 9.178404,41.74835 10.19882,32.09614 25.34528,59.21484 59.837805,99.49207 2.48569,2.9027 5.07525,5.93273 7.79719,9.00018 0.49046,0.5528 1.05999,1.13418 1.55944,1.6931 0.48946,-0.55048 0.97116,-1.04191 1.47032,-1.60399 l 0,-0.0891 0.0891,0 c 0.68195,-0.76345 1.54062,-1.81435 2.80699,-3.25254 0.88198,-1.00138 1.39212,-1.56877 2.13865,-2.40599 l 2.76244,-3.16343 0.0891,-0.17822 c 34.48811,-40.25042 49.63742,-67.39465 59.83781,-99.49207 4.72743,-14.88138 7.31506,-28.85502 9.1784,-41.74835 -20.05859,3.60673 -43.72404,6.77241 -72.13509,6.77241 l -12.47549,0 c -28.41077,0 -52.076345,-3.16568 -72.135089,-6.77241 z"
       id="path5955"
       inkscape:connector-curvature="0" />
  </g>
</svg>
