<?xml version="1.0" encoding="UTF-8" standalone="no"?>
<!-- Created with Inkscape (http://www.inkscape.org/) -->

<svg
   xmlns:dc="http://purl.org/dc/elements/1.1/"
   xmlns:cc="http://creativecommons.org/ns#"
   xmlns:rdf="http://www.w3.org/1999/02/22-rdf-syntax-ns#"
   xmlns:svg="http://www.w3.org/2000/svg"
   xmlns="http://www.w3.org/2000/svg"
   xmlns:xlink="http://www.w3.org/1999/xlink"
   xmlns:sodipodi="http://sodipodi.sourceforge.net/DTD/sodipodi-0.dtd"
   xmlns:inkscape="http://www.inkscape.org/namespaces/inkscape"
   width="280"
   height="280"
   id="svg2"
   version="1.1"
   inkscape:version="0.48.4 r9939"
   sodipodi:docname="cleric.svg">
  <defs
     id="defs4">
    <linearGradient
       inkscape:collect="always"
       id="linearGradient4757">
      <stop
         style="stop-color:#2d034b;stop-opacity:1;"
         offset="0"
         id="stop4759" />
      <stop
         style="stop-color:#2d034b;stop-opacity:0;"
         offset="1"
         id="stop4761" />
    </linearGradient>
    <linearGradient
       inkscape:collect="always"
       id="linearGradient4747">
      <stop
         style="stop-color:#b466af;stop-opacity:1;"
         offset="0"
         id="stop4749" />
      <stop
         style="stop-color:#793e81;stop-opacity:1"
         offset="1"
         id="stop4751" />
    </linearGradient>
    <linearGradient
       id="linearGradient4351">
      <stop
         style="stop-color:#fb0d00;stop-opacity:0.67843139"
         offset="0"
         id="stop4353" />
      <stop
         id="stop4359"
         offset="0.60000002"
         style="stop-color:#8d1f18;stop-opacity:1" />
      <stop
         style="stop-color:#000000;stop-opacity:1"
         offset="1"
         id="stop4355" />
    </linearGradient>
    <linearGradient
       id="linearGradient3893">
      <stop
         style="stop-color:#e48713;stop-opacity:1;"
         offset="0"
         id="stop3895" />
      <stop
         id="stop3901"
         offset="0.5"
         style="stop-color:#f8d260;stop-opacity:1;" />
      <stop
         style="stop-color:#fffeeb;stop-opacity:1"
         offset="1"
         id="stop3897" />
    </linearGradient>
    <linearGradient
       inkscape:collect="always"
       id="linearGradient5815">
      <stop
         style="stop-color:#00edff;stop-opacity:1;"
         offset="0"
         id="stop5817" />
      <stop
         style="stop-color:#0092bf;stop-opacity:1"
         offset="1"
         id="stop5819" />
    </linearGradient>
    <linearGradient
       id="linearGradient5794">
      <stop
         style="stop-color:#ffffff;stop-opacity:1"
         offset="0"
         id="stop5796" />
      <stop
         style="stop-color:#686968;stop-opacity:1"
         offset="1"
         id="stop5798" />
    </linearGradient>
    <radialGradient
       inkscape:collect="always"
       xlink:href="#linearGradient5794"
       id="radialGradient5800"
       cx="644.96808"
       cy="129.80289"
       fx="644.96808"
       fy="129.80289"
       r="59.484734"
       gradientTransform="matrix(-0.01752838,0.96144611,-1.0462016,-0.01907357,782.24591,-471.56403)"
       gradientUnits="userSpaceOnUse" />
    <radialGradient
       inkscape:collect="always"
       xlink:href="#linearGradient5794"
       id="radialGradient5810"
       gradientUnits="userSpaceOnUse"
       gradientTransform="matrix(-0.01752838,0.96144611,-1.0462016,-0.01907357,782.24591,-471.56403)"
       cx="644.96808"
       cy="129.80289"
       fx="644.96808"
       fy="129.80289"
       r="59.484734" />
    <radialGradient
       inkscape:collect="always"
       xlink:href="#linearGradient5815"
       id="radialGradient5821"
       cx="624.67389"
       cy="149.02011"
       fx="624.67389"
       fy="149.02011"
       r="17.67767"
       gradientTransform="matrix(1.7169551,0.63727989,-0.27861755,0.75064954,-404.24277,-359.75838)"
       gradientUnits="userSpaceOnUse" />
    <radialGradient
       inkscape:collect="always"
       xlink:href="#linearGradient5794"
       id="radialGradient5835"
       gradientUnits="userSpaceOnUse"
       gradientTransform="matrix(-0.01752838,0.96144611,-1.0462016,-0.01907357,782.24591,-471.56403)"
       cx="644.96808"
       cy="129.80289"
       fx="644.96808"
       fy="129.80289"
       r="59.484734" />
    <linearGradient
       inkscape:collect="always"
       xlink:href="#linearGradient4747"
       id="linearGradient4753"
       x1="989.29877"
       y1="968.46674"
       x2="874.91071"
       y2="939.4754"
       gradientUnits="userSpaceOnUse"
       gradientTransform="matrix(2.1141642,0,0,2.1141642,-1827.6326,-1063.3785)" />
    <radialGradient
       inkscape:collect="always"
       xlink:href="#linearGradient4757"
       id="radialGradient4763"
       cx="950.13593"
       cy="878.01312"
       fx="950.13593"
       fy="878.01312"
       r="59.12502"
       gradientTransform="matrix(3.2519608,-1.8078336,0.94471742,1.6993732,-3738.1685,1028.0997)"
       gradientUnits="userSpaceOnUse" />
  </defs>
  <sodipodi:namedview
     id="base"
     pagecolor="#ffffff"
     bordercolor="#666666"
     borderopacity="1.0"
     inkscape:pageopacity="0.0"
     inkscape:pageshadow="2"
     inkscape:zoom="1"
     inkscape:cx="874.18301"
     inkscape:cy="201.13969"
     inkscape:document-units="px"
     inkscape:current-layer="layer1"
     showgrid="false"
     borderlayer="true"
     inkscape:showpageshadow="false"
     inkscape:window-width="2560"
     inkscape:window-height="1028"
     inkscape:window-x="1920"
     inkscape:window-y="0"
     inkscape:window-maximized="1" />
  <metadata
     id="metadata7">
    <rdf:RDF>
      <cc:Work
         rdf:about="">
        <dc:format>image/svg+xml</dc:format>
        <dc:type
           rdf:resource="http://purl.org/dc/dcmitype/StillImage" />
        <dc:title></dc:title>
      </cc:Work>
    </rdf:RDF>
  </metadata>
  <g
     inkscape:label="Calque 1"
     inkscape:groupmode="layer"
     id="layer1"
     transform="translate(0,-772.36218)">
    <path
       style="fill:url(#linearGradient4753);fill-opacity:1;stroke:none"
       d="m 227.20923,797.40453 c -18.49894,0 -33.56236,2.37843 -63.42493,24.57716 -29.86256,22.19872 -52.8541,66.59617 -57.08243,77.16699 -4.22833,10.57082 -13.74207,18.49893 -2.11416,27.21986 11.6279,8.72093 34.61944,20.34883 69.23887,19.55602 34.61944,-0.79281 30.39111,-2.90697 30.39111,-11.09936 0,-8.19239 -2.50067,-32.06022 0,-58.66806 1.288,-13.70454 5.54969,-36.20506 5.54969,-36.20506 0,0 -10.66389,9.46769 -20.08456,20.34883 -9.42068,10.88112 -24.04862,26.95559 -24.04862,26.95559 0,0 22.99153,-35.94079 38.58349,-51.79702 15.59197,-15.85623 28.01268,-25.63424 31.4482,-28.54121 3.43551,-2.90698 12.68498,-9.51374 -8.45666,-9.51374 z M 79.74628,904.16982 c -10.83509,0 -19.29175,0.79281 -30.39111,3.69979 C 15.26427,920.55459 15,925.31146 15,932.71103 c 0,7.39958 13.4778,30.39112 32.241,48.09724 18.76321,17.70613 61.04649,46.51153 114.69341,46.51153 53.64692,0 103.06559,-34.61936 103.06559,-51.79694 0,-17.17758 -25.37005,-34.0909 -34.88379,-39.11204 -9.51374,-5.02114 -17.70613,-8.9852 -14.00634,0.52854 3.69979,9.51374 5.54968,33.56236 -3.43552,41.2262 -8.9852,7.66385 -33.03381,15.06342 -65.80336,9.51374 -32.76954,-5.54968 -61.57503,-17.70612 -70.56023,-31.97673 -8.9852,-14.27061 1.05708,-26.16278 4.4926,-34.88371 3.43552,-8.72093 9.77801,-16.64904 -1.05708,-16.64904 z m 11.03329,28.54121 c -1.65169,0.0992 -2.97304,1.32136 -4.16226,3.43552 -2.37843,4.22833 -4.4926,8.9852 9.77801,20.6131 14.27061,11.62791 53.64692,19.82029 77.43126,19.82029 21.93446,0 27.74841,-5.02114 31.18393,-9.51374 3.43551,-4.4926 -1.8499,-8.72092 -6.3425,-8.72092 -4.49259,0 -23.78434,6.07822 -52.32556,0 -28.54122,-6.07823 -44.39745,-17.9704 -49.41859,-22.463 -2.51057,-2.2463 -4.4926,-3.27036 -6.14429,-3.17125 z"
       id="path4740"
       inkscape:connector-curvature="0" />
    <path
       inkscape:connector-curvature="0"
       id="path4755"
       d="m 227.20923,797.40453 c -18.49894,0 -33.56236,2.37843 -63.42493,24.57716 -29.86256,22.19872 -52.8541,66.59617 -57.08243,77.16699 -4.22833,10.57082 -13.74207,18.49893 -2.11416,27.21986 11.6279,8.72093 34.61944,20.34883 69.23887,19.55602 34.61944,-0.79281 30.39111,-2.90697 30.39111,-11.09936 0,-8.19239 -2.50067,-32.06022 0,-58.66806 1.288,-13.70454 5.54969,-36.20506 5.54969,-36.20506 0,0 -10.66389,9.46769 -20.08456,20.34883 -9.42068,10.88112 -24.04862,26.95559 -24.04862,26.95559 0,0 22.99153,-35.94079 38.58349,-51.79702 15.59197,-15.85623 28.01268,-25.63424 31.4482,-28.54121 3.43551,-2.90698 12.68498,-9.51374 -8.45666,-9.51374 z M 79.74628,904.16982 c -10.83509,0 -19.29175,0.79281 -30.39111,3.69979 C 15.26427,920.55459 15,925.31146 15,932.71103 c 0,7.39958 13.4778,30.39112 32.241,48.09724 18.76321,17.70613 61.04649,46.51153 114.69341,46.51153 53.64692,0 103.06559,-34.61936 103.06559,-51.79694 0,-17.17758 -25.37005,-34.0909 -34.88379,-39.11204 -9.51374,-5.02114 -17.70613,-8.9852 -14.00634,0.52854 3.69979,9.51374 5.54968,33.56236 -3.43552,41.2262 -8.9852,7.66385 -33.03381,15.06342 -65.80336,9.51374 -32.76954,-5.54968 -61.57503,-17.70612 -70.56023,-31.97673 -8.9852,-14.27061 1.05708,-26.16278 4.4926,-34.88371 3.43552,-8.72093 9.77801,-16.64904 -1.05708,-16.64904 z m 11.03329,28.54121 c -1.65169,0.0992 -2.97304,1.32136 -4.16226,3.43552 -2.37843,4.22833 -4.4926,8.9852 9.77801,20.6131 14.27061,11.62791 53.64692,19.82029 77.43126,19.82029 21.93446,0 27.74841,-5.02114 31.18393,-9.51374 3.43551,-4.4926 -1.8499,-8.72092 -6.3425,-8.72092 -4.49259,0 -23.78434,6.07822 -52.32556,0 -28.54122,-6.07823 -44.39745,-17.9704 -49.41859,-22.463 -2.51057,-2.2463 -4.4926,-3.27036 -6.14429,-3.17125 z"
       style="fill:url(#radialGradient4763);fill-opacity:1;stroke:none" />
  </g>
</svg>
