<?xml version="1.0" encoding="UTF-8" standalone="no"?>
<!-- Created with Inkscape (http://www.inkscape.org/) -->

<svg
   xmlns:dc="http://purl.org/dc/elements/1.1/"
   xmlns:cc="http://creativecommons.org/ns#"
   xmlns:rdf="http://www.w3.org/1999/02/22-rdf-syntax-ns#"
   xmlns:svg="http://www.w3.org/2000/svg"
   xmlns="http://www.w3.org/2000/svg"
   xmlns:xlink="http://www.w3.org/1999/xlink"
   xmlns:sodipodi="http://sodipodi.sourceforge.net/DTD/sodipodi-0.dtd"
   xmlns:inkscape="http://www.inkscape.org/namespaces/inkscape"
   width="280"
   height="280"
   id="svg2"
   version="1.1"
   inkscape:version="0.48.4 r9939"
   sodipodi:docname="rampager.svg">
  <defs
     id="defs4">
    <linearGradient
       id="linearGradient3893">
      <stop
         style="stop-color:#e48713;stop-opacity:1;"
         offset="0"
         id="stop3895" />
      <stop
         id="stop3901"
         offset="0.5"
         style="stop-color:#f8d260;stop-opacity:1;" />
      <stop
         style="stop-color:#fffeeb;stop-opacity:1"
         offset="1"
         id="stop3897" />
    </linearGradient>
    <linearGradient
       inkscape:collect="always"
       id="linearGradient5815">
      <stop
         style="stop-color:#00edff;stop-opacity:1;"
         offset="0"
         id="stop5817" />
      <stop
         style="stop-color:#0092bf;stop-opacity:1"
         offset="1"
         id="stop5819" />
    </linearGradient>
    <linearGradient
       id="linearGradient5794">
      <stop
         style="stop-color:#ffffff;stop-opacity:1"
         offset="0"
         id="stop5796" />
      <stop
         style="stop-color:#686968;stop-opacity:1"
         offset="1"
         id="stop5798" />
    </linearGradient>
    <radialGradient
       inkscape:collect="always"
       xlink:href="#linearGradient5794"
       id="radialGradient5800"
       cx="644.96808"
       cy="129.80289"
       fx="644.96808"
       fy="129.80289"
       r="59.484734"
       gradientTransform="matrix(-0.01752838,0.96144611,-1.0462016,-0.01907357,782.24591,-471.56403)"
       gradientUnits="userSpaceOnUse" />
    <radialGradient
       inkscape:collect="always"
       xlink:href="#linearGradient5794"
       id="radialGradient5810"
       gradientUnits="userSpaceOnUse"
       gradientTransform="matrix(-0.01752838,0.96144611,-1.0462016,-0.01907357,782.24591,-471.56403)"
       cx="644.96808"
       cy="129.80289"
       fx="644.96808"
       fy="129.80289"
       r="59.484734" />
    <radialGradient
       inkscape:collect="always"
       xlink:href="#linearGradient5815"
       id="radialGradient5821"
       cx="624.67389"
       cy="149.02011"
       fx="624.67389"
       fy="149.02011"
       r="17.67767"
       gradientTransform="matrix(1.7169551,0.63727989,-0.27861755,0.75064954,-404.24277,-359.75838)"
       gradientUnits="userSpaceOnUse" />
    <radialGradient
       inkscape:collect="always"
       xlink:href="#linearGradient5794"
       id="radialGradient5835"
       gradientUnits="userSpaceOnUse"
       gradientTransform="matrix(-0.01752838,0.96144611,-1.0462016,-0.01907357,782.24591,-471.56403)"
       cx="644.96808"
       cy="129.80289"
       fx="644.96808"
       fy="129.80289"
       r="59.484734" />
    <radialGradient
       inkscape:collect="always"
       xlink:href="#linearGradient3893"
       id="radialGradient3899"
       cx="988.18732"
       cy="911.34625"
       fx="988.18732"
       fy="911.34625"
       r="36.81248"
       gradientTransform="matrix(7.8914403,0,0,6.6302651,-7658.2212,-5023.3574)"
       gradientUnits="userSpaceOnUse" />
  </defs>
  <sodipodi:namedview
     id="base"
     pagecolor="#ffffff"
     bordercolor="#666666"
     borderopacity="1.0"
     inkscape:pageopacity="0.0"
     inkscape:pageshadow="2"
     inkscape:zoom="1.4142136"
     inkscape:cx="512.76883"
     inkscape:cy="125.01472"
     inkscape:document-units="px"
     inkscape:current-layer="layer1"
     showgrid="false"
     borderlayer="true"
     inkscape:showpageshadow="false"
     inkscape:window-width="2560"
     inkscape:window-height="1028"
     inkscape:window-x="1920"
     inkscape:window-y="0"
     inkscape:window-maximized="1" />
  <metadata
     id="metadata7">
    <rdf:RDF>
      <cc:Work
         rdf:about="">
        <dc:format>image/svg+xml</dc:format>
        <dc:type
           rdf:resource="http://purl.org/dc/dcmitype/StillImage" />
        <dc:title />
      </cc:Work>
    </rdf:RDF>
  </metadata>
  <g
     inkscape:label="Calque 1"
     inkscape:groupmode="layer"
     id="layer1"
     transform="translate(0,-772.36218)">
    <path
       style="fill:url(#radialGradient3899);fill-opacity:1;stroke:none"
       d="m 140.00004,787.36218 c -28.71763,27.87089 -55.7115,63.0953 -77.59303,159.73872 -0.0654,0.28934 -0.0705,0.57077 -0.13196,0.85774 14.2851,3.97995 24.4352,8.66074 32.85827,14.71365 7.62238,-64.47931 24.86223,-109.4616 44.86672,-109.4616 20.0045,0 37.24436,44.98229 44.86664,109.4616 8.42312,-6.05291 18.57334,-10.7337 32.85827,-14.71365 -0.0612,-0.28697 -0.0676,-0.5684 -0.1309,-0.85774 C 195.7126,850.45748 168.71867,815.23307 140.0011,787.36218 z m 0,80.03431 c -13.93505,0 -25.83943,44.95094 -30.61493,108.27395 4.15503,4.62163 8.20704,9.82106 12.66825,15.76933 0.019,0.0247 0.0475,0.0412 0.0659,0.0659 5.14451,-3.36849 11.27236,-5.34442 17.88071,-5.34442 6.60835,0 12.73619,1.97593 17.88071,5.34442 0.019,-0.0249 0.0473,-0.0412 0.0659,-0.0659 4.46121,-5.94827 8.51319,-11.1477 12.66817,-15.76933 -4.77551,-63.32301 -16.6798,-108.27395 -30.61486,-108.27395 z m 0,133.01661 c -10.2032,0 -18.47453,8.2714 -18.47453,18.4745 0,10.2033 8.27133,18.4746 18.47453,18.4746 10.2032,0 18.47453,-8.2713 18.47453,-18.4746 0,-10.2032 -8.27133,-18.4745 -18.47453,-18.4745 z"
       id="path3865"
       inkscape:connector-curvature="0" />
  </g>
</svg>
