<?xml version="1.0" encoding="UTF-8" standalone="no"?>
<!-- Created with Inkscape (http://www.inkscape.org/) -->

<svg
   xmlns:dc="http://purl.org/dc/elements/1.1/"
   xmlns:cc="http://creativecommons.org/ns#"
   xmlns:rdf="http://www.w3.org/1999/02/22-rdf-syntax-ns#"
   xmlns:svg="http://www.w3.org/2000/svg"
   xmlns="http://www.w3.org/2000/svg"
   xmlns:xlink="http://www.w3.org/1999/xlink"
   xmlns:sodipodi="http://sodipodi.sourceforge.net/DTD/sodipodi-0.dtd"
   xmlns:inkscape="http://www.inkscape.org/namespaces/inkscape"
   width="280"
   height="280"
   id="svg2"
   version="1.1"
   inkscape:version="0.48.4 r9939"
   sodipodi:docname="dire-rabid.svg">
  <defs
     id="defs4">
    <linearGradient
       inkscape:collect="always"
       id="linearGradient6177">
      <stop
         style="stop-color:#63c205;stop-opacity:1;"
         offset="0"
         id="stop6179" />
      <stop
         style="stop-color:#176e00;stop-opacity:1"
         offset="1"
         id="stop6181" />
    </linearGradient>
    <linearGradient
       id="linearGradient5911">
      <stop
         style="stop-color:#a6871b;stop-opacity:1;"
         offset="0"
         id="stop5913" />
      <stop
         style="stop-color:#a1811c;stop-opacity:1"
         offset="1"
         id="stop5915" />
    </linearGradient>
    <linearGradient
       inkscape:collect="always"
       id="linearGradient5903">
      <stop
         style="stop-color:#fbd00f;stop-opacity:1;"
         offset="0"
         id="stop5905" />
      <stop
         style="stop-color:#e49e00;stop-opacity:1"
         offset="1"
         id="stop5907" />
    </linearGradient>
    <linearGradient
       id="linearGradient5703">
      <stop
         style="stop-color:#f3f3f3;stop-opacity:1;"
         offset="0"
         id="stop5705" />
      <stop
         style="stop-color:#6c756c;stop-opacity:1"
         offset="1"
         id="stop5707" />
    </linearGradient>
    <linearGradient
       inkscape:collect="always"
       id="linearGradient4648">
      <stop
         style="stop-color:#3083cf;stop-opacity:1;"
         offset="0"
         id="stop4650" />
      <stop
         style="stop-color:#001084;stop-opacity:1"
         offset="1"
         id="stop4652" />
    </linearGradient>
    <linearGradient
       id="linearGradient4351">
      <stop
         style="stop-color:#fb0d00;stop-opacity:0.67843139"
         offset="0"
         id="stop4353" />
      <stop
         id="stop4359"
         offset="0.60000002"
         style="stop-color:#8d1f18;stop-opacity:1" />
      <stop
         style="stop-color:#000000;stop-opacity:1"
         offset="1"
         id="stop4355" />
    </linearGradient>
    <linearGradient
       id="linearGradient3893">
      <stop
         style="stop-color:#e48713;stop-opacity:1;"
         offset="0"
         id="stop3895" />
      <stop
         id="stop3901"
         offset="0.5"
         style="stop-color:#f8d260;stop-opacity:1;" />
      <stop
         style="stop-color:#fffeeb;stop-opacity:1"
         offset="1"
         id="stop3897" />
    </linearGradient>
    <linearGradient
       inkscape:collect="always"
       id="linearGradient5815">
      <stop
         style="stop-color:#00edff;stop-opacity:1;"
         offset="0"
         id="stop5817" />
      <stop
         style="stop-color:#0092bf;stop-opacity:1"
         offset="1"
         id="stop5819" />
    </linearGradient>
    <linearGradient
       id="linearGradient5794">
      <stop
         style="stop-color:#ffffff;stop-opacity:1"
         offset="0"
         id="stop5796" />
      <stop
         style="stop-color:#686968;stop-opacity:1"
         offset="1"
         id="stop5798" />
    </linearGradient>
    <radialGradient
       inkscape:collect="always"
       xlink:href="#linearGradient5794"
       id="radialGradient5800"
       cx="644.96808"
       cy="129.80289"
       fx="644.96808"
       fy="129.80289"
       r="59.484734"
       gradientTransform="matrix(-0.01752838,0.96144611,-1.0462016,-0.01907357,782.24591,-471.56403)"
       gradientUnits="userSpaceOnUse" />
    <radialGradient
       inkscape:collect="always"
       xlink:href="#linearGradient5794"
       id="radialGradient5810"
       gradientUnits="userSpaceOnUse"
       gradientTransform="matrix(-0.01752838,0.96144611,-1.0462016,-0.01907357,782.24591,-471.56403)"
       cx="644.96808"
       cy="129.80289"
       fx="644.96808"
       fy="129.80289"
       r="59.484734" />
    <radialGradient
       inkscape:collect="always"
       xlink:href="#linearGradient5815"
       id="radialGradient5821"
       cx="624.67389"
       cy="149.02011"
       fx="624.67389"
       fy="149.02011"
       r="17.67767"
       gradientTransform="matrix(1.7169551,0.63727989,-0.27861755,0.75064954,-404.24277,-359.75838)"
       gradientUnits="userSpaceOnUse" />
    <radialGradient
       inkscape:collect="always"
       xlink:href="#linearGradient5794"
       id="radialGradient5835"
       gradientUnits="userSpaceOnUse"
       gradientTransform="matrix(-0.01752838,0.96144611,-1.0462016,-0.01907357,782.24591,-471.56403)"
       cx="644.96808"
       cy="129.80289"
       fx="644.96808"
       fy="129.80289"
       r="59.484734" />
    <radialGradient
       inkscape:collect="always"
       xlink:href="#linearGradient4648"
       id="radialGradient4654"
       cx="832.76562"
       cy="915.23199"
       fx="832.76562"
       fy="915.23199"
       r="61.984375"
       gradientTransform="matrix(-1.4041999,2.4321486,-2.5896462,-1.4951312,3659.33,214.00332)"
       gradientUnits="userSpaceOnUse" />
    <radialGradient
       inkscape:collect="always"
       xlink:href="#linearGradient4990"
       id="radialGradient4996"
       cx="765.47821"
       cy="1161.8311"
       fx="765.47821"
       fy="1161.8311"
       r="61.375"
       gradientTransform="matrix(1.3360544,1.3360544,-1.440136,1.440136,790.43531,-1783.5723)"
       gradientUnits="userSpaceOnUse" />
    <linearGradient
       inkscape:collect="always"
       id="linearGradient4990">
      <stop
         style="stop-color:#0160e1;stop-opacity:1;"
         offset="0"
         id="stop4992" />
      <stop
         style="stop-color:#002d60;stop-opacity:0.97647059"
         offset="1"
         id="stop4994" />
    </linearGradient>
    <radialGradient
       r="59.484734"
       fy="129.80289"
       fx="644.96808"
       cy="129.80289"
       cx="644.96808"
       gradientTransform="matrix(-0.01752838,0.96144611,-1.0462016,-0.01907357,782.24591,-471.56403)"
       gradientUnits="userSpaceOnUse"
       id="radialGradient5835-4"
       xlink:href="#linearGradient5794-6"
       inkscape:collect="always" />
    <radialGradient
       gradientUnits="userSpaceOnUse"
       gradientTransform="matrix(1.7169551,0.63727989,-0.27861755,0.75064954,-404.24277,-359.75838)"
       r="17.67767"
       fy="149.02011"
       fx="624.67389"
       cy="149.02011"
       cx="624.67389"
       id="radialGradient5821-2"
       xlink:href="#linearGradient5815-1"
       inkscape:collect="always" />
    <radialGradient
       r="59.484734"
       fy="129.80289"
       fx="644.96808"
       cy="129.80289"
       cx="644.96808"
       gradientTransform="matrix(-0.01752838,0.96144611,-1.0462016,-0.01907357,782.24591,-471.56403)"
       gradientUnits="userSpaceOnUse"
       id="radialGradient5810-9"
       xlink:href="#linearGradient5794-6"
       inkscape:collect="always" />
    <radialGradient
       gradientUnits="userSpaceOnUse"
       gradientTransform="matrix(-0.01752838,0.96144611,-1.0462016,-0.01907357,782.24591,-471.56403)"
       r="59.484734"
       fy="129.80289"
       fx="644.96808"
       cy="129.80289"
       cx="644.96808"
       id="radialGradient5800-4"
       xlink:href="#linearGradient5794-6"
       inkscape:collect="always" />
    <linearGradient
       id="linearGradient5794-6">
      <stop
         id="stop5796-8"
         offset="0"
         style="stop-color:#ffffff;stop-opacity:1" />
      <stop
         id="stop5798-7"
         offset="1"
         style="stop-color:#686968;stop-opacity:1" />
    </linearGradient>
    <linearGradient
       id="linearGradient5815-1"
       inkscape:collect="always">
      <stop
         id="stop5817-2"
         offset="0"
         style="stop-color:#00edff;stop-opacity:1;" />
      <stop
         id="stop5819-0"
         offset="1"
         style="stop-color:#0092bf;stop-opacity:1" />
    </linearGradient>
    <radialGradient
       inkscape:collect="always"
       xlink:href="#linearGradient5903"
       id="radialGradient5909"
       cx="433.44233"
       cy="1157.5493"
       fx="433.44233"
       fy="1157.5493"
       r="50.294731"
       gradientTransform="matrix(1,0,0,0.8723526,0,147.75815)"
       gradientUnits="userSpaceOnUse" />
    <radialGradient
       inkscape:collect="always"
       xlink:href="#linearGradient5911"
       id="radialGradient5917"
       cx="433.47845"
       cy="1157.453"
       fx="433.47845"
       fy="1157.453"
       r="29.171875"
       gradientTransform="translate(0,9.9192549e-4)"
       gradientUnits="userSpaceOnUse" />
    <radialGradient
       inkscape:collect="always"
       xlink:href="#linearGradient5911"
       id="radialGradient5931"
       gradientUnits="userSpaceOnUse"
       gradientTransform="translate(0,9.9192549e-4)"
       cx="433.47845"
       cy="1157.453"
       fx="433.47845"
       fy="1157.453"
       r="29.171875" />
    <radialGradient
       inkscape:collect="always"
       xlink:href="#linearGradient5903"
       id="radialGradient5933"
       gradientUnits="userSpaceOnUse"
       gradientTransform="matrix(1,0,0,0.8723526,0,147.75815)"
       cx="433.44233"
       cy="1157.5493"
       fx="433.44233"
       fy="1157.5493"
       r="50.294731" />
    <radialGradient
       inkscape:collect="always"
       xlink:href="#linearGradient5903"
       id="radialGradient5936"
       gradientUnits="userSpaceOnUse"
       gradientTransform="matrix(2.4853498,0,0,2.1681014,-937.25581,-1597.322)"
       cx="433.44233"
       cy="1157.5493"
       fx="433.44233"
       fy="1157.5493"
       r="50.294731" />
    <radialGradient
       inkscape:collect="always"
       xlink:href="#linearGradient5911"
       id="radialGradient5939"
       gradientUnits="userSpaceOnUse"
       gradientTransform="matrix(2.4853498,0,0,2.4853498,-937.25581,-1964.5502)"
       cx="433.47845"
       cy="1157.453"
       fx="433.47845"
       fy="1157.453"
       r="29.171875" />
    <radialGradient
       inkscape:collect="always"
       xlink:href="#linearGradient5911"
       id="radialGradient5943"
       gradientUnits="userSpaceOnUse"
       gradientTransform="matrix(10.84957,0,0,10.84957,-4562.9652,-11645.734)"
       cx="433.47845"
       cy="1157.453"
       fx="433.47845"
       fy="1157.453"
       r="29.171875" />
    <radialGradient
       inkscape:collect="always"
       xlink:href="#linearGradient5911"
       id="radialGradient5950"
       gradientUnits="userSpaceOnUse"
       gradientTransform="matrix(2.4853498,0,0,2.4853498,-937.25581,-1964.5502)"
       cx="433.47845"
       cy="1157.453"
       fx="433.47845"
       fy="1157.453"
       r="29.171875" />
    <radialGradient
       inkscape:collect="always"
       xlink:href="#linearGradient5903"
       id="radialGradient5952"
       gradientUnits="userSpaceOnUse"
       gradientTransform="matrix(2.4853498,0,0,2.1681014,-937.25581,-1597.322)"
       cx="433.44233"
       cy="1157.5493"
       fx="433.44233"
       fy="1157.5493"
       r="50.294731" />
    <radialGradient
       inkscape:collect="always"
       xlink:href="#linearGradient5911"
       id="radialGradient5954"
       gradientUnits="userSpaceOnUse"
       gradientTransform="matrix(10.84957,0,0,10.84957,-4562.9652,-11645.734)"
       cx="433.47845"
       cy="1157.453"
       fx="433.47845"
       fy="1157.453"
       r="29.171875" />
    <radialGradient
       inkscape:collect="always"
       xlink:href="#linearGradient5911"
       id="radialGradient5957"
       gradientUnits="userSpaceOnUse"
       gradientTransform="matrix(10.84957,0,0,10.84957,-4563.055,-11645.495)"
       cx="433.47845"
       cy="1157.453"
       fx="433.47845"
       fy="1157.453"
       r="29.171875" />
    <linearGradient
       id="linearGradient5794-8">
      <stop
         id="stop5796-9"
         offset="0"
         style="stop-color:#ffffff;stop-opacity:1" />
      <stop
         id="stop5798-6"
         offset="1"
         style="stop-color:#686968;stop-opacity:1" />
    </linearGradient>
    <linearGradient
       id="linearGradient5999">
      <stop
         id="stop6001"
         offset="0"
         style="stop-color:#e8e1e1;stop-opacity:1" />
      <stop
         style="stop-color:#746173;stop-opacity:1"
         offset="0.32802483"
         id="stop6009" />
      <stop
         style="stop-color:#a18683;stop-opacity:1"
         offset="0.69424069"
         id="stop6007" />
      <stop
         id="stop6003"
         offset="1"
         style="stop-color:#ddb7ab;stop-opacity:1" />
    </linearGradient>
    <linearGradient
       id="linearGradient6159"
       inkscape:collect="always">
      <stop
         id="stop6161"
         offset="0"
         style="stop-color:#fdee87;stop-opacity:1" />
      <stop
         id="stop6163"
         offset="1"
         style="stop-color:#d63700;stop-opacity:1" />
    </linearGradient>
    <radialGradient
       inkscape:collect="always"
       xlink:href="#linearGradient5911"
       id="radialGradient6057"
       gradientUnits="userSpaceOnUse"
       gradientTransform="matrix(1.0246482,0,0,1.0246482,-72.419227,-31.066439)"
       cx="433.47845"
       cy="1157.453"
       fx="433.47845"
       fy="1157.453"
       r="29.171875" />
    <radialGradient
       inkscape:collect="always"
       xlink:href="#linearGradient5903"
       id="radialGradient6059"
       gradientUnits="userSpaceOnUse"
       gradientTransform="matrix(1.0246482,0,0,0.89385455,-72.419227,120.33266)"
       cx="433.44233"
       cy="1157.5493"
       fx="433.44233"
       fy="1157.5493"
       r="50.294731" />
    <radialGradient
       inkscape:collect="always"
       xlink:href="#linearGradient6159"
       id="radialGradient6061"
       gradientUnits="userSpaceOnUse"
       gradientTransform="matrix(-0.66449958,-0.66449958,0.20613349,-0.2061335,103.84165,1467.3079)"
       cx="-0.86243242"
       cy="1193.1532"
       fx="-0.86243242"
       fy="1193.1532"
       r="83.120844" />
    <radialGradient
       inkscape:collect="always"
       xlink:href="#linearGradient6177"
       id="radialGradient6183"
       cx="1032.1562"
       cy="1139.9614"
       fx="1032.1562"
       fy="1139.9614"
       r="44.591219"
       gradientTransform="matrix(-1.6150101e-6,5.0681711,-6.681122,-2.1289887e-6,7665.6969,-4415.5181)"
       gradientUnits="userSpaceOnUse" />
  </defs>
  <sodipodi:namedview
     id="base"
     pagecolor="#ffffff"
     bordercolor="#666666"
     borderopacity="1.0"
     inkscape:pageopacity="0.0"
     inkscape:pageshadow="2"
     inkscape:zoom="0.70710678"
     inkscape:cx="552.15983"
     inkscape:cy="-11.521939"
     inkscape:document-units="px"
     inkscape:current-layer="layer1"
     showgrid="false"
     borderlayer="true"
     inkscape:showpageshadow="false"
     inkscape:window-width="2560"
     inkscape:window-height="1028"
     inkscape:window-x="1920"
     inkscape:window-y="0"
     inkscape:window-maximized="1" />
  <metadata
     id="metadata7">
    <rdf:RDF>
      <cc:Work
         rdf:about="">
        <dc:format>image/svg+xml</dc:format>
        <dc:type
           rdf:resource="http://purl.org/dc/dcmitype/StillImage" />
        <dc:title></dc:title>
      </cc:Work>
    </rdf:RDF>
  </metadata>
  <g
     inkscape:label="Calque 1"
     inkscape:groupmode="layer"
     id="layer1"
     transform="translate(0,-772.36218)">
    <path
       style="fill:url(#radialGradient6183);fill-opacity:1;stroke:none"
       d="m 28.294287,787.36208 c 0,0 -1.4745,54.7845 3.0592,96.8012 8.6101,-1.9156 20.2215,-7.5759 25.8086,-18.7485 7.0992,-14.2002 27.9294,-48.3558 44.792003,-52.79339 16.0856,-4.23302 28.9699,-6.90869 30.1229,-16.00279 -52.197003,-0.35018 -103.782703,-9.25652 -103.782703,-9.25652 z m 223.411503,0 c 0,0 -51.5571,8.88952 -103.7046,9.25652 1.1467,9.0941 13.9589,11.76977 30.0446,16.00279 16.8625,4.43759 37.7706,38.59319 44.8705,52.79339 5.5863,11.1726 17.1405,16.8329 25.73,18.7485 4.5338,-42.0164 3.0595,-96.8012 3.0595,-96.8012 z m -111.7058,29.4953 c -26.1436,0 -48.971303,15.2671 -61.187103,37.9674 16.2952,-7.9062 37.720203,-12.6297 61.187103,-12.6297 23.4663,0 44.8912,4.7235 61.1872,12.6297 -12.2166,-22.7003 -35.0442,-37.9674 -61.1872,-37.9674 z m 0,37.2613 c -21.392,0 -38.7521,17.282 -38.7521,38.6736 0,21.3912 17.3606,38.7518 38.7521,38.7518 21.3908,0 38.7517,-17.3606 38.7517,-38.7518 0,-21.3916 -17.3609,-38.6736 -38.7517,-38.6736 z m -44.243003,7.4524 c -19.4154,7.8679 -35.989,18.5673 -48.3221,31.2995 12.3358,12.7216 28.9039,23.3693 48.3221,31.2211 -2.7725,-9.5477 -4.3929,-20.1344 -4.3929,-31.2994 0,-11.1653 1.6204,-21.6735 4.3929,-31.2212 z m 88.564403,0 c 2.7723,9.5477 4.3929,20.0559 4.3929,31.2212 0,11.165 -1.6206,21.7517 -4.3929,31.2994 19.418,-7.8518 35.9861,-18.4995 48.3221,-31.2211 -12.333,-12.7322 -28.9069,-23.4316 -48.3221,-31.2995 z m -44.3214,3.6085 c 15.2638,0 27.691,12.3481 27.691,27.6127 0,15.2645 -12.4267,27.6909 -27.691,27.6909 -15.265,0 -27.6126,-12.4264 -27.6126,-27.6909 0,-15.2646 12.3476,-27.6127 27.6126,-27.6127 z m 0,15.0614 c -6.9322,0 -12.5512,5.6195 -12.5512,12.5513 -5e-4,6.9317 5.619,12.5512 12.5512,12.5512 6.9316,0 12.5513,-5.6195 12.5513,-12.5512 0,-6.9318 -5.6197,-12.5513 -12.5513,-12.5513 z m -105.665603,24.318 c 0.2209,1.1427 0.3906,2.3622 0.6276,3.4516 0.9268,4.2646 2.4093,9.0883 4.3146,14.277 l 0,0.078 c 0.093,0.2543 0.2184,0.5287 0.3138,0.7845 0.7277,1.9477 1.5034,3.919 2.3531,5.9618 0.4935,1.1876 1.0365,2.3933 1.5689,3.6085 0.3599,0.8201 0.7212,1.6791 1.0985,2.5102 1.0698,2.3629 2.1691,4.7775 3.373,7.2169 0.4787,0.9682 0.9925,1.9249 1.4903,2.9026 1.0051,1.9731 2.0556,3.9584 3.1378,5.9619 0.848,1.5671 1.6964,3.1272 2.5888,4.7067 0.2661,0.4714 0.5144,0.9398 0.7845,1.412 1.3645,2.3852 2.7776,4.7453 4.236,7.1384 0.8296,1.3618 1.6527,2.7198 2.5102,4.0791 1.4048,2.2233 2.9182,4.4635 4.393,6.668 1.0543,1.5764 2.1289,3.1468 3.2163,4.7067 0.043,0.06 0.1155,0.098 0.1557,0.1556 1.1298,1.6178 2.2105,3.2698 3.3732,4.8636 0.043,0.058 0.113,0.098 0.1557,0.1556 0.379,0.5181 0.7161,1.0538 1.0982,1.5689 1.5511,2.0911 3.1042,4.1653 4.7067,6.1971 0.5299,0.6732 1.112,1.2955 1.6472,1.9612 0.083,0.1029 0.1532,0.2109 0.236,0.3138 0.7621,0.9448 1.5031,1.896 2.2748,2.824 0.4877,0.5856 0.9993,1.1474 1.4906,1.7258 1.1652,1.37342 2.3458,2.74972 3.5299,4.07912 0.3953,0.4426 0.7796,0.8962 1.1768,1.3335 0.308,0.3404 0.6315,0.6828 0.9413,1.0199 0.8013,0.8721 1.6229,1.7396 2.4319,2.5886 0.3956,0.4157 0.7797,0.8454 1.1766,1.2551 0.9704,0.9998 2.0019,1.9394 2.9809,2.9026 1.3957,1.3748 2.746703,2.7065 4.157403,4.0005 1.3239,1.214 2.6664,2.3938 4.0009,3.5302 0.07,0.06 0.1656,0.098 0.2359,0.1556 1.4055,1.1921 2.8215,2.3531 4.2358,3.4516 1.4193,1.1023 2.8115,2.1372 4.2363,3.1378 2.8464,1.9992 5.7003,3.786 8.5504,5.3343 1.1567,0.6285 2.2966,1.2569 3.4516,1.8041 0.4438,0.2108 0.8901,0.4295 1.3334,0.6275 0.2284,0.103 0.4772,0.2159 0.7061,0.3138 1.0016,0.4323 2.0619,0.8106 3.0593,1.1768 0.8991,0.3296 1.7775,0.5827 2.6673,0.8628 l 0,-29.966 c 0,-15.08762 2.2497,-26.57042 -12.3945,-28.78922 -14.643,-2.2188 -33.749703,-10.2232 -44.399703,-24.8672 -10.6504,-14.6438 -27.938,-43.936 -34.5944,-47.9298 -1.0465,-0.6278 -4.2669,-1.027 -8.6289,-1.2552 z m 211.331003,0 c -4.3389,0.2284 -7.5034,0.6273 -8.5506,1.2551 -6.6557,3.9938 -23.9442,33.2861 -34.5942,47.9298 -10.6502,14.6438 -29.7561,22.6484 -44.3999,24.8672 -14.6437,2.2188 -12.3943,13.7017 -12.3943,28.78932 l 0,29.8876 c 0.8349,-0.2658 1.6668,-0.4751 2.5103,-0.7844 1.2322,-0.4518 2.5268,-0.9386 3.7653,-1.4906 0.4378,-0.1958 0.8947,-0.4194 1.3335,-0.6275 1.1554,-0.5473 2.2938,-1.1756 3.4515,-1.8042 1.3488,-0.7322 2.7304,-1.4383 4.0792,-2.275 0.08,-0.05 0.1556,-0.1079 0.2359,-0.1556 0.048,-0.03 0.108,-0.048 0.1557,-0.078 1.3753,-0.8623 2.7068,-1.8606 4.0791,-2.8241 1.4427,-1.0123 2.8778,-2.0215 4.3144,-3.1378 0.2033,-0.1581 0.4247,-0.3107 0.6275,-0.4706 1.2602,-0.9923 2.513,-2.0717 3.7654,-3.1378 1.3543,-1.1512 2.6573,-2.2992 4.0008,-3.5302 1.4158,-1.2973 2.8356,-2.6219 4.2361,-4.0006 1.3846,-1.3613 2.7128,-2.7246 4.0791,-4.1577 1.3661,-1.4326 2.7349,-2.8958 4.0791,-4.3929 0.66,-0.7342 1.3069,-1.4479 1.9613,-2.1965 1.9781,-2.26192 3.8851,-4.60602 5.8047,-6.98142 0.083,-0.103 0.1531,-0.2109 0.2359,-0.3138 0.6284,-0.7805 1.2607,-1.5629 1.8827,-2.3534 0.6175,-0.7862 1.272,-1.5578 1.8827,-2.3533 2.5042,-3.2628 4.9294,-6.6569 7.2953,-10.041 0.043,-0.06 0.1179,-0.1004 0.1581,-0.1556 1.0621,-1.522 2.1069,-3.0121 3.1378,-4.5498 1.2586,-1.8785 2.4791,-3.7549 3.6868,-5.6481 1.1105,-1.7391 2.2304,-3.5121 3.2947,-5.2559 0.5219,-0.8568 0.98,-1.7321 1.4906,-2.5886 1.4747,-2.4743 2.9432,-4.9155 4.3143,-7.3738 0.085,-0.1532 0.1506,-0.3171 0.236,-0.4707 1.1188,-2.0127 2.1734,-3.974 3.2164,-5.9618 0.2133,-0.4039 0.4192,-0.7742 0.6275,-1.1768 1.1163,-2.1516 2.1962,-4.3269 3.2164,-6.4325 0.2184,-0.4509 0.492,-0.8851 0.7059,-1.3335 0.063,-0.1305 0.098,-0.2623 0.1556,-0.3923 0.3248,-0.6835 0.6281,-1.3623 0.9414,-2.0396 0.6298,-1.3605 1.2204,-2.7477 1.8041,-4.0791 0.6275,-1.4289 1.231,-2.8456 1.8043,-4.2361 0.7463,-1.8149 1.4688,-3.5959 2.1182,-5.3342 0.1104,-0.2942 0.2058,-0.5709 0.3138,-0.8628 1.906,-5.1902 3.387,-10.0111 4.3143,-14.277 0.236,-1.0874 0.4067,-2.3112 0.6276,-3.4516 z m -166.852503,26.279 c 12.2158,22.7003 35.043703,37.9674 61.187103,37.9674 26.143,0 48.9708,-15.2671 61.1872,-37.9674 -16.296,7.9062 -37.7207,12.6298 -61.1872,12.6298 -23.4669,0 -44.891903,-4.7236 -61.187103,-12.6298 z"
       id="path6091"
       inkscape:connector-curvature="0" />
  </g>
</svg>
