<?xml version="1.0" encoding="UTF-8" standalone="no"?>
<!-- Created with Inkscape (http://www.inkscape.org/) -->

<svg
   xmlns:dc="http://purl.org/dc/elements/1.1/"
   xmlns:cc="http://creativecommons.org/ns#"
   xmlns:rdf="http://www.w3.org/1999/02/22-rdf-syntax-ns#"
   xmlns:svg="http://www.w3.org/2000/svg"
   xmlns="http://www.w3.org/2000/svg"
   xmlns:xlink="http://www.w3.org/1999/xlink"
   xmlns:sodipodi="http://sodipodi.sourceforge.net/DTD/sodipodi-0.dtd"
   xmlns:inkscape="http://www.inkscape.org/namespaces/inkscape"
   width="280"
   height="280"
   id="svg2"
   version="1.1"
   inkscape:version="0.48.4 r9939"
   sodipodi:docname="apothecary.svg">
  <defs
     id="defs4">
    <linearGradient
       inkscape:collect="always"
       id="linearGradient4824">
      <stop
         style="stop-color:#c6f556;stop-opacity:1"
         offset="0"
         id="stop4826" />
      <stop
         style="stop-color:#3a830d;stop-opacity:1"
         offset="1"
         id="stop4828" />
    </linearGradient>
    <linearGradient
       inkscape:collect="always"
       id="linearGradient4648">
      <stop
         style="stop-color:#3083cf;stop-opacity:1;"
         offset="0"
         id="stop4650" />
      <stop
         style="stop-color:#001084;stop-opacity:1"
         offset="1"
         id="stop4652" />
    </linearGradient>
    <linearGradient
       id="linearGradient4351">
      <stop
         style="stop-color:#fb0d00;stop-opacity:0.67843139"
         offset="0"
         id="stop4353" />
      <stop
         id="stop4359"
         offset="0.60000002"
         style="stop-color:#8d1f18;stop-opacity:1" />
      <stop
         style="stop-color:#000000;stop-opacity:1"
         offset="1"
         id="stop4355" />
    </linearGradient>
    <linearGradient
       id="linearGradient3893">
      <stop
         style="stop-color:#e48713;stop-opacity:1;"
         offset="0"
         id="stop3895" />
      <stop
         id="stop3901"
         offset="0.5"
         style="stop-color:#f8d260;stop-opacity:1;" />
      <stop
         style="stop-color:#fffeeb;stop-opacity:1"
         offset="1"
         id="stop3897" />
    </linearGradient>
    <linearGradient
       inkscape:collect="always"
       id="linearGradient5815">
      <stop
         style="stop-color:#00edff;stop-opacity:1;"
         offset="0"
         id="stop5817" />
      <stop
         style="stop-color:#0092bf;stop-opacity:1"
         offset="1"
         id="stop5819" />
    </linearGradient>
    <linearGradient
       id="linearGradient5794">
      <stop
         style="stop-color:#ffffff;stop-opacity:1"
         offset="0"
         id="stop5796" />
      <stop
         style="stop-color:#686968;stop-opacity:1"
         offset="1"
         id="stop5798" />
    </linearGradient>
    <radialGradient
       inkscape:collect="always"
       xlink:href="#linearGradient5794"
       id="radialGradient5800"
       cx="644.96808"
       cy="129.80289"
       fx="644.96808"
       fy="129.80289"
       r="59.484734"
       gradientTransform="matrix(-0.01752838,0.96144611,-1.0462016,-0.01907357,782.24591,-471.56403)"
       gradientUnits="userSpaceOnUse" />
    <radialGradient
       inkscape:collect="always"
       xlink:href="#linearGradient5794"
       id="radialGradient5810"
       gradientUnits="userSpaceOnUse"
       gradientTransform="matrix(-0.01752838,0.96144611,-1.0462016,-0.01907357,782.24591,-471.56403)"
       cx="644.96808"
       cy="129.80289"
       fx="644.96808"
       fy="129.80289"
       r="59.484734" />
    <radialGradient
       inkscape:collect="always"
       xlink:href="#linearGradient5815"
       id="radialGradient5821"
       cx="624.67389"
       cy="149.02011"
       fx="624.67389"
       fy="149.02011"
       r="17.67767"
       gradientTransform="matrix(1.7169551,0.63727989,-0.27861755,0.75064954,-404.24277,-359.75838)"
       gradientUnits="userSpaceOnUse" />
    <radialGradient
       inkscape:collect="always"
       xlink:href="#linearGradient5794"
       id="radialGradient5835"
       gradientUnits="userSpaceOnUse"
       gradientTransform="matrix(-0.01752838,0.96144611,-1.0462016,-0.01907357,782.24591,-471.56403)"
       cx="644.96808"
       cy="129.80289"
       fx="644.96808"
       fy="129.80289"
       r="59.484734" />
    <radialGradient
       inkscape:collect="always"
       xlink:href="#linearGradient4648"
       id="radialGradient4654"
       cx="832.76562"
       cy="915.23199"
       fx="832.76562"
       fy="915.23199"
       r="61.984375"
       gradientTransform="matrix(-1.4041999,2.4321486,-2.5896462,-1.4951312,3659.33,214.00332)"
       gradientUnits="userSpaceOnUse" />
    <radialGradient
       inkscape:collect="always"
       xlink:href="#linearGradient4824"
       id="radialGradient4830"
       cx="1211.7511"
       cy="843.26324"
       fx="1211.7511"
       fy="843.26324"
       r="55.565506"
       gradientTransform="matrix(2.2060631,0,0,2.2495971,-2523.06,-1003.3594)"
       gradientUnits="userSpaceOnUse" />
    <radialGradient
       inkscape:collect="always"
       xlink:href="#linearGradient4990"
       id="radialGradient4996"
       cx="765.47821"
       cy="1161.8311"
       fx="765.47821"
       fy="1161.8311"
       r="61.375"
       gradientTransform="matrix(1.3360544,1.3360544,-1.440136,1.440136,790.43531,-1783.5723)"
       gradientUnits="userSpaceOnUse" />
    <linearGradient
       inkscape:collect="always"
       id="linearGradient4990">
      <stop
         style="stop-color:#0160e1;stop-opacity:1;"
         offset="0"
         id="stop4992" />
      <stop
         style="stop-color:#002d60;stop-opacity:0.97647059"
         offset="1"
         id="stop4994" />
    </linearGradient>
    <radialGradient
       r="61.375"
       fy="1161.8311"
       fx="765.47821"
       cy="1161.8311"
       cx="765.47821"
       gradientTransform="matrix(1.3360544,1.3360544,-1.440136,1.440136,1426.1853,-1517.8223)"
       gradientUnits="userSpaceOnUse"
       id="radialGradient5013"
       xlink:href="#linearGradient4990"
       inkscape:collect="always" />
    <radialGradient
       inkscape:collect="always"
       xlink:href="#linearGradient4648"
       id="radialGradient5047"
       cx="933.0625"
       cy="389.46875"
       fx="933.0625"
       fy="389.46875"
       r="61.375"
       gradientTransform="matrix(1.4873357,1.4873357,-1.6032025,1.6032025,-623.42314,-1099.8337)"
       gradientUnits="userSpaceOnUse" />
  </defs>
  <sodipodi:namedview
     id="base"
     pagecolor="#ffffff"
     bordercolor="#666666"
     borderopacity="1.0"
     inkscape:pageopacity="0.0"
     inkscape:pageshadow="2"
     inkscape:zoom="0.5"
     inkscape:cx="1315.3059"
     inkscape:cy="-268.11035"
     inkscape:document-units="px"
     inkscape:current-layer="layer1"
     showgrid="false"
     borderlayer="true"
     inkscape:showpageshadow="false"
     inkscape:window-width="2560"
     inkscape:window-height="1028"
     inkscape:window-x="1920"
     inkscape:window-y="0"
     inkscape:window-maximized="1" />
  <metadata
     id="metadata7">
    <rdf:RDF>
      <cc:Work
         rdf:about="">
        <dc:format>image/svg+xml</dc:format>
        <dc:type
           rdf:resource="http://purl.org/dc/dcmitype/StillImage" />
        <dc:title></dc:title>
      </cc:Work>
    </rdf:RDF>
  </metadata>
  <g
     inkscape:label="Calque 1"
     inkscape:groupmode="layer"
     id="layer1"
     transform="translate(0,-772.36218)">
    <path
       style="fill:url(#radialGradient5047);fill-opacity:1;stroke:none"
       d="m 238.3533,813.94419 -5.01968,2.88166 -29.14248,16.4072 c -10.0489,-8.1742 -21.34779,-14.1277 -33.13969,-17.89451 l 5.71685,-21.33384 c 0.7541,-2.81416 -0.85789,-5.70677 -3.67186,-6.46063 -2.81396,-0.75407 -5.75301,0.90426 -6.50709,3.7182 l -5.71694,21.42702 c -14.00156,-2.91554 -28.49742,-2.93426 -42.48203,0.0925 l -5.71694,-21.33405 c -0.75401,-2.81394 -3.60018,-4.47227 -6.41406,-3.71841 -2.81405,0.75408 -4.47242,3.6002 -3.71841,6.41435 l 5.71701,21.42681 c -13.258431,4.34296 -25.804071,11.45476 -36.718671,21.38056 l -15.66351,-15.6635 c -2.05995,-2.0601 -5.37671,-2.0601 -7.43667,0 -2.05997,2.0598 -2.05997,5.3765 0,7.4366 l 15.70998,15.71 c -9.85625,10.979 -16.94075,23.5145 -21.19454,36.8116 l -21.33396,-5.7169 c -2.81396,-0.754 -5.66013,0.9043 -6.41408,3.7182 -0.75407,2.814 0.8579,5.7066 3.67186,6.4607 l 21.38045,5.7633 c -2.91623,13.974 -2.8677,28.4777 0.13946,42.4357 l -21.3339,5.7168 c -2.81403,0.7541 -4.47242,3.6002 -3.71841,6.4142 0.75401,2.8139 3.64664,4.5189 6.46069,3.7649 l 21.3339,-5.7169 c 3.78296,11.5646 9.71786,22.5698 17.75508,32.4424 l -16.40719,29.14255 -2.92818,5.0662 5.11271,-2.8816 29.09608,-16.36075 c 10.03724,8.1545 21.31632,14.08295 33.093211,17.84785 l -5.71701,21.3341 c -0.75394,2.8139 0.90436,5.7532 3.71833,6.5071 2.81396,0.7541 5.7067,-0.951 6.46062,-3.7647 l 5.71703,-21.334 c 14.01311,2.9277 28.4847,2.8345 42.48195,-0.1851 l 5.71694,21.334 c 0.75401,2.814 3.64664,4.5188 6.46069,3.7647 2.8139,-0.7539 4.42578,-3.6465 3.67177,-6.4606 l -5.7634,-21.3804 c 13.2945,-4.3351 25.87333,-11.43475 36.81155,-21.38055 l 15.61702,15.61705 c 2.05996,2.0601 5.37672,2.0601 7.43667,0 2.05998,-2.0599 2.05998,-5.37655 0,-7.43665 l -15.66348,-15.6635 c 9.86108,-10.9862 16.90025,-23.5475 21.14804,-36.858 l 21.33397,5.7167 c 2.81396,0.7542 5.75316,-0.9041 6.50711,-3.7182 0.75407,-2.8141 -0.95079,-5.7066 -3.76475,-6.4608 l -21.33399,-5.7168 c 2.91626,-14.0088 2.89205,-28.5379 -0.13945,-42.5284 l 21.2875,-5.6706 c 2.81388,-0.7539 4.51882,-3.6467 3.76481,-6.4606 -0.75401,-2.8141 -3.69319,-4.4723 -6.50709,-3.7182 l -21.33405,5.7167 c -3.78004,-11.5471 -9.74014,-22.49 -17.75499,-32.3496 l 16.50014,-29.2353 2.83514,-5.06619 z m -15.9423,15.94236 -7.57612,13.4324 -15.24518,27.1439 -36.57917,64.9316 -23.0537,-23.0538 -51.545561,51.5456 -20.49727,20.4973 -10.41136,10.4112 7.57613,-13.4324 15.29167,-27.0973 36.579171,-64.9315 23.00722,23.0071 51.5454,-51.5453 20.49742,-20.4975 10.41135,-10.4113 z m -46.24684,19.1959 -58.51738,32.9538 -5.11272,2.8816 -2.88171,5.1128 -32.907371,58.471 c -15.90183,-27.8323 -12.04169,-63.9054 11.71284,-87.66 23.761831,-23.7618 59.868531,-27.6742 87.706341,-11.7592 z m 27.09775,27.19 c 15.8906,27.8201 11.99464,63.8595 -11.75915,87.6133 -23.77908,23.7791 -59.87114,27.7039 -87.70635,11.7592 l 58.51738,-32.9538 5.11272,-2.8816 2.88172,-5.1128 32.95368,-58.4243 z"
       id="rect4918"
       inkscape:connector-curvature="0" />
  </g>
</svg>
