<?xml version="1.0" encoding="UTF-8" standalone="no"?>
<!-- Created with Inkscape (http://www.inkscape.org/) -->

<svg
   xmlns:dc="http://purl.org/dc/elements/1.1/"
   xmlns:cc="http://creativecommons.org/ns#"
   xmlns:rdf="http://www.w3.org/1999/02/22-rdf-syntax-ns#"
   xmlns:svg="http://www.w3.org/2000/svg"
   xmlns="http://www.w3.org/2000/svg"
   xmlns:xlink="http://www.w3.org/1999/xlink"
   xmlns:sodipodi="http://sodipodi.sourceforge.net/DTD/sodipodi-0.dtd"
   xmlns:inkscape="http://www.inkscape.org/namespaces/inkscape"
   width="280"
   height="280"
   id="svg2"
   version="1.1"
   inkscape:version="0.48.4 r9939"
   sodipodi:docname="trailblazer.svg">
  <defs
     id="defs4">
    <linearGradient
       inkscape:collect="always"
       id="linearGradient5138">
      <stop
         style="stop-color:#9d7d3d;stop-opacity:1;"
         offset="0"
         id="stop5140" />
      <stop
         style="stop-color:#584214;stop-opacity:1"
         offset="1"
         id="stop5142" />
    </linearGradient>
    <linearGradient
       inkscape:collect="always"
       id="linearGradient4648">
      <stop
         style="stop-color:#3083cf;stop-opacity:1;"
         offset="0"
         id="stop4650" />
      <stop
         style="stop-color:#001084;stop-opacity:1"
         offset="1"
         id="stop4652" />
    </linearGradient>
    <linearGradient
       id="linearGradient4351">
      <stop
         style="stop-color:#fb0d00;stop-opacity:0.67843139"
         offset="0"
         id="stop4353" />
      <stop
         id="stop4359"
         offset="0.60000002"
         style="stop-color:#8d1f18;stop-opacity:1" />
      <stop
         style="stop-color:#000000;stop-opacity:1"
         offset="1"
         id="stop4355" />
    </linearGradient>
    <linearGradient
       id="linearGradient3893">
      <stop
         style="stop-color:#e48713;stop-opacity:1;"
         offset="0"
         id="stop3895" />
      <stop
         id="stop3901"
         offset="0.5"
         style="stop-color:#f8d260;stop-opacity:1;" />
      <stop
         style="stop-color:#fffeeb;stop-opacity:1"
         offset="1"
         id="stop3897" />
    </linearGradient>
    <linearGradient
       inkscape:collect="always"
       id="linearGradient5815">
      <stop
         style="stop-color:#00edff;stop-opacity:1;"
         offset="0"
         id="stop5817" />
      <stop
         style="stop-color:#0092bf;stop-opacity:1"
         offset="1"
         id="stop5819" />
    </linearGradient>
    <linearGradient
       id="linearGradient5794">
      <stop
         style="stop-color:#ffffff;stop-opacity:1"
         offset="0"
         id="stop5796" />
      <stop
         style="stop-color:#686968;stop-opacity:1"
         offset="1"
         id="stop5798" />
    </linearGradient>
    <radialGradient
       inkscape:collect="always"
       xlink:href="#linearGradient5794"
       id="radialGradient5800"
       cx="644.96808"
       cy="129.80289"
       fx="644.96808"
       fy="129.80289"
       r="59.484734"
       gradientTransform="matrix(-0.01752838,0.96144611,-1.0462016,-0.01907357,782.24591,-471.56403)"
       gradientUnits="userSpaceOnUse" />
    <radialGradient
       inkscape:collect="always"
       xlink:href="#linearGradient5794"
       id="radialGradient5810"
       gradientUnits="userSpaceOnUse"
       gradientTransform="matrix(-0.01752838,0.96144611,-1.0462016,-0.01907357,782.24591,-471.56403)"
       cx="644.96808"
       cy="129.80289"
       fx="644.96808"
       fy="129.80289"
       r="59.484734" />
    <radialGradient
       inkscape:collect="always"
       xlink:href="#linearGradient5815"
       id="radialGradient5821"
       cx="624.67389"
       cy="149.02011"
       fx="624.67389"
       fy="149.02011"
       r="17.67767"
       gradientTransform="matrix(1.7169551,0.63727989,-0.27861755,0.75064954,-404.24277,-359.75838)"
       gradientUnits="userSpaceOnUse" />
    <radialGradient
       inkscape:collect="always"
       xlink:href="#linearGradient5794"
       id="radialGradient5835"
       gradientUnits="userSpaceOnUse"
       gradientTransform="matrix(-0.01752838,0.96144611,-1.0462016,-0.01907357,782.24591,-471.56403)"
       cx="644.96808"
       cy="129.80289"
       fx="644.96808"
       fy="129.80289"
       r="59.484734" />
    <radialGradient
       inkscape:collect="always"
       xlink:href="#linearGradient4648"
       id="radialGradient4654"
       cx="832.76562"
       cy="915.23199"
       fx="832.76562"
       fy="915.23199"
       r="61.984375"
       gradientTransform="matrix(-1.4041999,2.4321486,-2.5896462,-1.4951312,3659.33,214.00332)"
       gradientUnits="userSpaceOnUse" />
    <radialGradient
       inkscape:collect="always"
       xlink:href="#linearGradient4990"
       id="radialGradient4996"
       cx="765.47821"
       cy="1161.8311"
       fx="765.47821"
       fy="1161.8311"
       r="61.375"
       gradientTransform="matrix(1.3360544,1.3360544,-1.440136,1.440136,790.43531,-1783.5723)"
       gradientUnits="userSpaceOnUse" />
    <linearGradient
       inkscape:collect="always"
       id="linearGradient4990">
      <stop
         style="stop-color:#0160e1;stop-opacity:1;"
         offset="0"
         id="stop4992" />
      <stop
         style="stop-color:#002d60;stop-opacity:0.97647059"
         offset="1"
         id="stop4994" />
    </linearGradient>
    <radialGradient
       inkscape:collect="always"
       xlink:href="#linearGradient4648"
       id="radialGradient5047"
       cx="933.0625"
       cy="389.46875"
       fx="933.0625"
       fy="389.46875"
       r="61.375"
       gradientTransform="matrix(1.4873357,1.4873357,-1.6032025,1.6032025,-623.42314,-1099.8337)"
       gradientUnits="userSpaceOnUse" />
    <linearGradient
       inkscape:collect="always"
       xlink:href="#linearGradient5138"
       id="linearGradient5144"
       x1="381.83505"
       y1="1002.9682"
       x2="401.72263"
       y2="1079.6892"
       gradientUnits="userSpaceOnUse"
       gradientTransform="matrix(2.3598903,0,0,2.3598903,-797.90459,-1547.1449)" />
  </defs>
  <sodipodi:namedview
     id="base"
     pagecolor="#ffffff"
     bordercolor="#666666"
     borderopacity="1.0"
     inkscape:pageopacity="0.0"
     inkscape:pageshadow="2"
     inkscape:zoom="1"
     inkscape:cx="304.63829"
     inkscape:cy="-37.921259"
     inkscape:document-units="px"
     inkscape:current-layer="layer1"
     showgrid="false"
     borderlayer="true"
     inkscape:showpageshadow="false"
     inkscape:window-width="2560"
     inkscape:window-height="1028"
     inkscape:window-x="1920"
     inkscape:window-y="0"
     inkscape:window-maximized="1" />
  <metadata
     id="metadata7">
    <rdf:RDF>
      <cc:Work
         rdf:about="">
        <dc:format>image/svg+xml</dc:format>
        <dc:type
           rdf:resource="http://purl.org/dc/dcmitype/StillImage" />
        <dc:title></dc:title>
      </cc:Work>
    </rdf:RDF>
  </metadata>
  <g
     inkscape:label="Calque 1"
     inkscape:groupmode="layer"
     id="layer1"
     transform="translate(0,-772.36218)">
    <path
       style="fill:url(#linearGradient5144);fill-opacity:1;stroke:none"
       d="m 109.89287,787.3625 c -76.342784,0 -69.100534,24.66751 -69.100534,31.34231 l 0,33.55457 c 0,9.59508 3.34823,11.45397 6.26845,10.61951 2.9202,-0.83422 18.78301,-4.35093 34.21841,-4.35093 15.43543,0 48.782664,6.41583 55.457424,6.41583 6.67479,0 7.76869,-2.47812 8.18587,-6.85831 0.41718,-4.38043 7.92489,-34.39799 13.34813,-45.87039 5.42327,-11.47227 7.30091,-0.44826 7.30091,10.39817 0,10.84653 -5.66801,31.27728 -6.71094,36.28332 -1.04293,5.00627 6.93256,7.533 14.23309,13.79072 7.30054,6.25749 9.13842,11.9342 12.68441,11.72559 3.54597,-0.20767 23.5519,-40.30268 10.61951,-68.8793 C 183.46521,786.9573 157.86784,787.3625 109.89287,787.3625 z m -31.342294,84.29235 c -11.47228,0 -13.91712,5.64344 -16.00301,20.87016 -2.08586,15.22696 -1.1062,85.95574 -1.1062,102.43414 0,16.47835 8.39088,18.49575 20.28031,24.33625 11.88946,5.8405 30.678584,10.6932 30.678584,10.6932 0,0 -27.364704,-2.0966 -37.168284,-6.2684 -9.80357,-4.1718 -11.91475,2.9124 -0.44248,9.5871 11.47226,6.6747 49.456534,3.0973 90.339554,3.0973 40.88303,0 74.2628,2.9662 74.2628,-8.9234 0,-11.8894 -15.42644,-30.45975 -30.23609,-39.01175 -14.80966,-8.552 -41.50306,-19.3955 -53.39252,-19.3955 -11.88944,0 -27.54582,8.7741 -35.4721,14.8232 -7.92631,6.0491 -6.02192,-0.054 -5.60474,-3.3924 0.41718,-3.3373 18.11673,-17.9375 25.00009,-20.649 6.88337,-2.7118 18.59676,-6.6648 18.80537,-8.3335 0.20862,-1.6687 -3.18016,-8.9402 -15.48678,-11.65194 -12.30664,-2.71151 -27.94379,0.58171 -31.48978,2.87624 -3.54597,2.2945 -12.256754,3.7947 -13.716874,1.9174 -1.46008,-1.8773 9.783384,-10.88522 16.666734,-15.26565 6.88337,-4.38019 28.12095,-3.71872 34.58714,-0.58997 6.46619,3.12897 4.59541,-6.68581 3.76108,-13.56937 -0.83437,-6.88333 1.72364,-21.86934 3.39234,-31.04719 1.6687,-9.17785 -12.34173,-6.4897 -27.35998,-6.4897 -15.01825,0 -39.657254,-6.04722 -50.295164,-6.04722 z"
       id="path5133"
       inkscape:connector-curvature="0" />
  </g>
</svg>
