<?xml version="1.0" encoding="UTF-8" standalone="no"?>
<!-- Created with Inkscape (http://www.inkscape.org/) -->

<svg
   xmlns:dc="http://purl.org/dc/elements/1.1/"
   xmlns:cc="http://creativecommons.org/ns#"
   xmlns:rdf="http://www.w3.org/1999/02/22-rdf-syntax-ns#"
   xmlns:svg="http://www.w3.org/2000/svg"
   xmlns="http://www.w3.org/2000/svg"
   xmlns:xlink="http://www.w3.org/1999/xlink"
   xmlns:sodipodi="http://sodipodi.sourceforge.net/DTD/sodipodi-0.dtd"
   xmlns:inkscape="http://www.inkscape.org/namespaces/inkscape"
   width="280"
   height="280"
   id="svg2"
   version="1.1"
   inkscape:version="0.48.4 r9939"
   sodipodi:docname="carrion.svg">
  <defs
     id="defs4">
    <linearGradient
       inkscape:collect="always"
       id="linearGradient4523">
      <stop
         style="stop-color:#dbffff;stop-opacity:1;"
         offset="0"
         id="stop4525" />
      <stop
         style="stop-color:#50b9d8;stop-opacity:1"
         offset="1"
         id="stop4527" />
    </linearGradient>
    <linearGradient
       id="linearGradient4351">
      <stop
         style="stop-color:#fb0d00;stop-opacity:0.67843139"
         offset="0"
         id="stop4353" />
      <stop
         id="stop4359"
         offset="0.60000002"
         style="stop-color:#8d1f18;stop-opacity:1" />
      <stop
         style="stop-color:#000000;stop-opacity:1"
         offset="1"
         id="stop4355" />
    </linearGradient>
    <linearGradient
       id="linearGradient3893">
      <stop
         style="stop-color:#e48713;stop-opacity:1;"
         offset="0"
         id="stop3895" />
      <stop
         id="stop3901"
         offset="0.5"
         style="stop-color:#f8d260;stop-opacity:1;" />
      <stop
         style="stop-color:#fffeeb;stop-opacity:1"
         offset="1"
         id="stop3897" />
    </linearGradient>
    <linearGradient
       inkscape:collect="always"
       id="linearGradient5815">
      <stop
         style="stop-color:#00edff;stop-opacity:1;"
         offset="0"
         id="stop5817" />
      <stop
         style="stop-color:#0092bf;stop-opacity:1"
         offset="1"
         id="stop5819" />
    </linearGradient>
    <linearGradient
       id="linearGradient5794">
      <stop
         style="stop-color:#ffffff;stop-opacity:1"
         offset="0"
         id="stop5796" />
      <stop
         style="stop-color:#686968;stop-opacity:1"
         offset="1"
         id="stop5798" />
    </linearGradient>
    <radialGradient
       inkscape:collect="always"
       xlink:href="#linearGradient5794"
       id="radialGradient5800"
       cx="644.96808"
       cy="129.80289"
       fx="644.96808"
       fy="129.80289"
       r="59.484734"
       gradientTransform="matrix(-0.01752838,0.96144611,-1.0462016,-0.01907357,782.24591,-471.56403)"
       gradientUnits="userSpaceOnUse" />
    <radialGradient
       inkscape:collect="always"
       xlink:href="#linearGradient5794"
       id="radialGradient5810"
       gradientUnits="userSpaceOnUse"
       gradientTransform="matrix(-0.01752838,0.96144611,-1.0462016,-0.01907357,782.24591,-471.56403)"
       cx="644.96808"
       cy="129.80289"
       fx="644.96808"
       fy="129.80289"
       r="59.484734" />
    <radialGradient
       inkscape:collect="always"
       xlink:href="#linearGradient5815"
       id="radialGradient5821"
       cx="624.67389"
       cy="149.02011"
       fx="624.67389"
       fy="149.02011"
       r="17.67767"
       gradientTransform="matrix(1.7169551,0.63727989,-0.27861755,0.75064954,-404.24277,-359.75838)"
       gradientUnits="userSpaceOnUse" />
    <radialGradient
       inkscape:collect="always"
       xlink:href="#linearGradient5794"
       id="radialGradient5835"
       gradientUnits="userSpaceOnUse"
       gradientTransform="matrix(-0.01752838,0.96144611,-1.0462016,-0.01907357,782.24591,-471.56403)"
       cx="644.96808"
       cy="129.80289"
       fx="644.96808"
       fy="129.80289"
       r="59.484734" />
    <radialGradient
       inkscape:collect="always"
       xlink:href="#linearGradient4523"
       id="radialGradient4529"
       cx="1791.032"
       cy="724.3866"
       fx="1791.032"
       fy="724.3866"
       r="58.79905"
       gradientTransform="matrix(1.377723e-6,2.9184547,-2.9372308,1.3865866e-6,2215.3283,-4362.8973)"
       gradientUnits="userSpaceOnUse" />
  </defs>
  <sodipodi:namedview
     id="base"
     pagecolor="#ffffff"
     bordercolor="#666666"
     borderopacity="1.0"
     inkscape:pageopacity="0.0"
     inkscape:pageshadow="2"
     inkscape:zoom="0.5"
     inkscape:cx="1680.5842"
     inkscape:cy="51.912021"
     inkscape:document-units="px"
     inkscape:current-layer="layer1"
     showgrid="false"
     borderlayer="true"
     inkscape:showpageshadow="false"
     inkscape:window-width="2560"
     inkscape:window-height="1028"
     inkscape:window-x="1920"
     inkscape:window-y="0"
     inkscape:window-maximized="1" />
  <metadata
     id="metadata7">
    <rdf:RDF>
      <cc:Work
         rdf:about="">
        <dc:format>image/svg+xml</dc:format>
        <dc:type
           rdf:resource="http://purl.org/dc/dcmitype/StillImage" />
        <dc:title></dc:title>
      </cc:Work>
    </rdf:RDF>
  </metadata>
  <g
     inkscape:label="Calque 1"
     inkscape:groupmode="layer"
     id="layer1"
     transform="translate(0,-772.36218)">
    <path
       style="fill:url(#radialGradient4529);fill-opacity:1;stroke:none"
       d="m 167.3502,787.36218 -6.635,2.13015 -27.3068,8.68467 -7.9373,36.27296 18.5332,16.85811 -16.044,5.11274 1.0884,21.39896 -11.5715,-18.05446 -15.9669,5.06325 5.3608,-24.49848 -27.4369,-24.97555 -27.3068,8.68464 -6.7122,2.17963 -1.4822,6.77349 -6.1227,27.9802 27.4862,25.05268 23.8308,-7.65425 -3.6015,16.45894 19.2063,9.84124 -21.4979,0.93426 -3.6504,16.38187 -18.5194,-16.92137 -35.3741,11.29741 -6.1227,27.98018 -1.4961,6.83679 5.2024,4.72047 21.1839,19.29554 35.3742,-11.29742 5.2842,-24.44892 12.5056,11.36002 18.0053,-11.64873 -9.8631,19.00255 12.3792,11.33238 -23.8803,7.57706 -7.9373,36.27291 21.1207,19.2818 5.2658,4.7343 6.6353,-2.1301 27.2432,-8.6986 7.9373,-36.27297 -18.5331,-16.85807 16.1075,-5.09887 -1.0254,-21.38513 11.4451,18.02676 16.0303,-5.04938 -5.3608,24.49849 27.4368,24.97557 27.3067,-8.6847 6.6352,-2.13012 1.4962,-6.8368 6.1226,-27.9802 -27.4229,-25.03885 -23.8943,7.64037 3.6015,-16.45893 -19.0302,-9.73639 21.3714,-0.96193 3.6504,-16.38187 18.4702,16.84428 35.4235,-11.22028 6.1366,-28.04349 1.4333,-6.85052 -5.1533,-4.64337 -21.1698,-19.3588 -35.3744,11.29741 -5.3469,24.43518 -12.4564,-11.28295 -18.005,11.64876 9.877,-19.06582 -12.3793,-11.33238 23.8801,-7.5771 7.9373,-36.27296 -21.1837,-19.2955 -5.2028,-4.72055 z m -22.1081,101.03255 c 13.2508,2.89958 21.6418,15.99132 18.7422,29.24209 -2.8996,13.25077 -15.9913,21.6416 -29.2422,18.74202 -13.2506,-2.89952 -21.6416,-15.99126 -18.742,-29.24203 2.8996,-13.25077 15.9914,-21.64162 29.242,-18.74208 z"
       id="path4486"
       inkscape:connector-curvature="0" />
  </g>
</svg>
